<svg viewBox="0 0 24 24" xmlns="http://www.w3.org/2000/svg">
<path fill-rule="evenodd" clip-rule="evenodd" d="M4 5C3.44772 5 3 5.44772 3 6V20C3 20.5523 3.44772 21 4 21H18C18.5523 21 19 20.5523 19 20H4V5Z"/>
<path fill-rule="evenodd" clip-rule="evenodd" d="M20 4H6V18H20V4ZM6 3C5.44772 3 5 3.44772 5 4V18C5 18.5523 5.44772 19 6 19H20C20.5523 19 21 18.5523 21 18V4C21 3.44772 20.5523 3 20 3H6Z"/>
<path fill-rule="evenodd" clip-rule="evenodd" d="M17.8535 8.35353L11.5 14.7071L8.14642 11.3535L8.85353 10.6464L11.5 13.2929L17.1464 7.64642L17.8535 8.35353Z"/>
</svg>
