<svg viewBox="0 0 24 24" xmlns="http://www.w3.org/2000/svg">
<path fill-rule="evenodd" clip-rule="evenodd" d="M12.3673 14.001L12.7688 17.2123C12.8654 17.9851 12.5875 18.7531 12.0293 19.2843L11.6823 18.1275C11.1592 16.3839 10.2116 14.7973 8.92437 13.5101L8 12.5858V5.99999H18.1803L19.541 12.8012C19.6648 13.4202 19.1918 13.9972 18.5611 13.9974C16.7819 13.9981 14.5113 13.9991 13.4991 14L12.3673 14.001ZM7 13L8.21726 14.2172C9.38744 15.3874 10.2489 16.8297 10.7245 18.4148L11.1336 19.7788C11.3089 20.3629 12.0194 20.5845 12.4956 20.2035C13.4303 19.4557 13.9095 18.2761 13.761 17.0883L13.5 15C13.7618 14.9998 14.1078 14.9995 14.5077 14.9993C15.6537 14.9986 17.2425 14.9979 18.5615 14.9974C19.8234 14.9969 20.7691 13.8423 20.5215 12.605L19.1608 5.80381C19.0673 5.33641 18.6569 4.99999 18.1803 4.99999H8C7.44772 4.99999 7 5.4477 7 5.99999V13Z"/>
<path fill-rule="evenodd" clip-rule="evenodd" d="M5 6H4L4 12H5V6ZM4 5C3.44772 5 3 5.44772 3 6V12C3 12.5523 3.44772 13 4 13H5C5.55228 13 6 12.5523 6 12V6C6 5.44772 5.55228 5 5 5H4Z"/>
</svg>
