<svg viewBox="0 0 24 24" xmlns="http://www.w3.org/2000/svg">
<path fill-rule="evenodd" clip-rule="evenodd" d="M15.5858 5.41422C16.3668 4.63317 17.6332 4.63317 18.4142 5.41422C19.1953 6.19527 19.1953 7.4616 18.4142 8.24264L8.51475 18.1422L5 19.0001L5.68633 15.3137L15.5858 5.41422ZM17.3033 7.93938L17.7071 7.53554C18.0976 7.14501 18.0976 6.51185 17.7071 6.12132C17.3166 5.7308 16.6834 5.7308 16.2929 6.12132L15.8891 6.52516L17.3033 7.93938ZM16.5962 8.64648L15.1819 7.23227L7.10051 15.3137L8.51472 16.7279L16.5962 8.64648ZM6.26638 17.6616L6.54385 16.1713L7.68735 17.3148L6.26638 17.6616Z"/>
</svg>
