<svg viewBox="0 0 24 24" xmlns="http://www.w3.org/2000/svg">
<path fill-rule="evenodd" clip-rule="evenodd" d="M19.7596 12C19.2052 12.7164 18.1481 13.9636 16.7798 15.0375C15.3548 16.1559 13.7025 17 12 17C10.2975 17 8.64518 16.1559 7.22019 15.0375C5.85185 13.9636 4.79471 12.7164 4.24037 12C4.79471 11.2836 5.85185 10.0364 7.22019 8.96247C8.64518 7.8441 10.2975 7 12 7C13.7025 7 15.3548 7.8441 16.7798 8.96246C18.1481 10.0364 19.2052 11.2836 19.7596 12ZM20.6047 12.5416C19.4746 14.0173 16.0496 18 12 18C7.95034 18 4.52539 14.0173 3.39529 12.5416C3.14835 12.2191 3.14835 11.7809 3.39529 11.4584C4.52539 9.98267 7.95034 6 12 6C16.0496 6 19.4746 9.98267 20.6047 11.4584C20.8516 11.7809 20.8516 12.2191 20.6047 12.5416Z"/>
<path fill-rule="evenodd" clip-rule="evenodd" d="M12 14C13.1046 14 14 13.1046 14 12C14 10.8954 13.1046 10 12 10C10.8954 10 10 10.8954 10 12C10 13.1046 10.8954 14 12 14ZM15 12C15 13.6569 13.6569 15 12 15C10.3431 15 9 13.6569 9 12C9 10.3431 10.3431 9 12 9C13.6569 9 15 10.3431 15 12Z"/>
</svg>
