<svg viewBox="0 0 24 24" xmlns="http://www.w3.org/2000/svg">
<path fill-rule="evenodd" clip-rule="evenodd" d="M12 7.75925L10.3618 6.12112C8.86701 4.62629 6.44341 4.62629 4.94858 6.12112C3.45375 7.61596 3.45375 10.0396 4.94858 11.5344L12 18.5858L19.0514 11.5344C20.5462 10.0396 20.5462 7.61596 19.0514 6.12112C17.5565 4.62629 15.1329 4.62629 13.6381 6.12112L12 7.75925ZM12 20L4.24147 12.2415C2.35611 10.3561 2.35611 7.29937 4.24147 5.41402C6.12683 3.52866 9.1836 3.52866 11.069 5.41402L12 6.34504L12.931 5.41402C14.8163 3.52866 17.8731 3.52866 19.7585 5.41402C21.6438 7.29937 21.6438 10.3561 19.7585 12.2415L12 20Z"/>
</svg>
