<svg viewBox="0 0 24 24" xmlns="http://www.w3.org/2000/svg">
<path fill-rule="evenodd" clip-rule="evenodd" d="M12 20C16.4183 20 20 16.4183 20 12C20 7.58172 16.4183 4 12 4C7.58172 4 4 7.58172 4 12C4 16.4183 7.58172 20 12 20ZM21 12C21 16.9706 16.9706 21 12 21C7.02944 21 3 16.9706 3 12C3 7.02944 7.02944 3 12 3C16.9706 3 21 7.02944 21 12Z"/>
<path fill-rule="evenodd" clip-rule="evenodd" d="M11.5 18.5009V17.5H12.5V18.5009H11.5Z"/>
<path fill-rule="evenodd" clip-rule="evenodd" d="M12 7C10.3699 7 8.99885 8.11495 8.61028 9.62463L7.64185 9.37537C8.14137 7.4346 9.90254 6 12 6C14.4853 6 16.5 8.01472 16.5 10.5C16.5 12.8163 14.75 14.7238 12.5 14.9725V16.5H11.5V14H12C13.933 14 15.5 12.433 15.5 10.5C15.5 8.567 13.933 7 12 7Z"/>
</svg>
