<svg viewBox="0 0 24 24" xmlns="http://www.w3.org/2000/svg">
<path fill-rule="evenodd" clip-rule="evenodd" d="M10.2534 9.56056C9.49446 10.1049 9 10.9947 9 12C9 13.6569 10.3431 15 12 15C13.0053 15 13.8951 14.5055 14.4394 13.7466L13.7178 13.0249C13.3686 13.6089 12.73 14 12 14C10.8954 14 10 13.1046 10 12C10 11.27 10.3911 10.6314 10.9751 10.2822L10.2534 9.56056ZM12.1101 10.003L11.2117 9.10464C11.4629 9.03641 11.7272 9 12 9C13.6569 9 15 10.3431 15 12C15 12.2728 14.9636 12.5371 14.8954 12.7883L13.997 11.8899C13.9419 10.873 13.127 10.0581 12.1101 10.003Z"/>
<path fill-rule="evenodd" clip-rule="evenodd" d="M7.94178 7.24891C5.77903 8.5459 4.11795 10.5147 3.39529 11.4584C3.14835 11.7809 3.14835 12.2191 3.39529 12.5416C4.52539 14.0173 7.95034 18 12 18C13.8048 18 15.4855 17.209 16.8942 16.2014L16.1767 15.4838C14.8973 16.373 13.4673 17 12 17C10.2975 17 8.64518 16.1559 7.22019 15.0375C5.85185 13.9636 4.79471 12.7164 4.24037 12C4.79471 11.2836 5.85185 10.0364 7.22019 8.96247C7.68251 8.59963 8.16876 8.26566 8.67288 7.98001L7.94178 7.24891ZM9.62017 7.51308L8.86278 6.7557C9.83962 6.29565 10.8966 6 12 6C16.0496 6 19.4746 9.98267 20.6047 11.4584C20.8516 11.7809 20.8516 12.2191 20.6047 12.5416C20.0773 13.2302 19.0502 14.4649 17.693 15.5859L16.9825 14.8754C18.2525 13.8404 19.2329 12.6806 19.7596 12C19.2052 11.2836 18.1481 10.0364 16.7798 8.96246C15.3548 7.8441 13.7025 7 12 7C11.1889 7 10.3893 7.19156 9.62017 7.51308Z"/>
<path fill-rule="evenodd" clip-rule="evenodd" d="M3.64642 4.35358L19.6464 20.3536L20.3535 19.6465L4.35353 3.64647L3.64642 4.35358Z"/>
</svg>
