<svg viewBox="0 0 24 24" xmlns="http://www.w3.org/2000/svg">
<path d="M4 5C3.44772 5 3 5.44772 3 6V20C3 20.5523 3.44772 21 4 21H18C18.5523 21 19 20.5523 19 20H4V5Z"/>
<path fill-rule="evenodd" clip-rule="evenodd" d="M17 8C17.5523 8 18 7.55228 18 7C18 6.44772 17.5523 6 17 6C16.4477 6 16 6.44772 16 7C16 7.55228 16.4477 8 17 8ZM19 7C19 8.10457 18.1046 9 17 9C15.8954 9 15 8.10457 15 7C15 5.89543 15.8954 5 17 5C18.1046 5 19 5.89543 19 7Z"/>
<path fill-rule="evenodd" clip-rule="evenodd" d="M20 4H6V12.2929L8.79287 9.49999C9.18339 9.10946 9.81656 9.10946 10.2071 9.49999L14 13.2929L16.2929 11C16.6834 10.6095 17.3166 10.6095 17.7071 11L20 13.2929V4ZM20 14.7071L17 11.7071L14.7071 14L15.8535 15.1464L15.1464 15.8535L9.49998 10.2071L6 13.7071V18H20V14.7071ZM6 3C5.44772 3 5 3.44772 5 4V18C5 18.5523 5.44772 19 6 19H20C20.5523 19 21 18.5523 21 18V4C21 3.44772 20.5523 3 20 3H6Z"/>
</svg>
