<svg viewBox="0 0 24 24" xmlns="http://www.w3.org/2000/svg">
<path fill-rule="evenodd" clip-rule="evenodd" d="M16 9C16.5523 9 17 8.55228 17 8C17 7.44772 16.5523 7 16 7C15.4477 7 15 7.44772 15 8C15 8.55228 15.4477 9 16 9ZM18 8C18 9.10457 17.1046 10 16 10C14.8954 10 14 9.10457 14 8C14 6.89543 14.8954 6 16 6C17.1046 6 18 6.89543 18 8Z"/>
<path fill-rule="evenodd" clip-rule="evenodd" d="M20 4H4V14.2929L7.29287 11C7.6834 10.6095 8.31656 10.6095 8.70708 11L13 15.2929L15.2929 13C15.6834 12.6095 16.3166 12.6095 16.7071 13L20 16.2929V4ZM20 17.7071L16 13.7071L13.7071 16L14.8535 17.1464L14.1464 17.8535L7.99998 11.7071L4 15.7071V20H20V17.7071ZM4 3C3.44772 3 3 3.44772 3 4V20C3 20.5523 3.44772 21 4 21H20C20.5523 21 21 20.5523 21 20V4C21 3.44772 20.5523 3 20 3H4Z"/>
</svg>
