<svg viewBox="0 0 24 24" xmlns="http://www.w3.org/2000/svg">
<path fill-rule="evenodd" clip-rule="evenodd" d="M12.3673 9.999L12.7688 6.78766C12.8654 6.01487 12.5875 5.24694 12.0293 4.71567L11.6823 5.87251C11.1592 7.61612 10.2116 9.20266 8.92437 10.4899L8 11.4142V18H18.1803L19.541 11.1988C19.6648 10.5798 19.1918 10.0028 18.5611 10.0026C16.7819 10.0019 14.5113 10.0009 13.4991 10L12.3673 9.999ZM7 11L8.21726 9.78275C9.38744 8.61257 10.2489 7.17026 10.7245 5.58516L11.1336 4.22125C11.3089 3.63707 12.0194 3.4155 12.4956 3.7965C13.4303 4.54428 13.9095 5.72391 13.761 6.91169L13.5 9.00001C13.7618 9.00025 14.1078 9.00049 14.5077 9.00072C15.6537 9.0014 17.2425 9.00207 18.5615 9.00257C19.8234 9.00306 20.7691 10.1577 20.5215 11.395L19.1608 18.1962C19.0673 18.6636 18.6569 19 18.1803 19H8C7.44772 19 7 18.5523 7 18V11Z"/>
<path fill-rule="evenodd" clip-rule="evenodd" d="M5 12H4L4 18H5V12ZM4 11C3.44772 11 3 11.4477 3 12V18C3 18.5523 3.44772 19 4 19H5C5.55228 19 6 18.5523 6 18V12C6 11.4477 5.55228 11 5 11H4Z"/>
</svg>
