<svg viewBox="0 0 24 24" xmlns="http://www.w3.org/2000/svg">
<path fill-rule="evenodd" clip-rule="evenodd" d="M11.5001 5.00611V3H12.5001V5.00611H11.5001Z"/>
<path fill-rule="evenodd" clip-rule="evenodd" d="M11.5001 20.9964V18.9996H12.5001V20.9964H11.5001Z"/>
<path fill-rule="evenodd" clip-rule="evenodd" d="M6.70235 7.40761L5.28381 5.98907L5.99092 5.28197L7.40945 6.7005L6.70235 7.40761Z"/>
<path fill-rule="evenodd" clip-rule="evenodd" d="M18.0092 18.7145L16.5972 17.3026L17.3043 16.5954L18.7163 18.0074L18.0092 18.7145Z"/>
<path fill-rule="evenodd" clip-rule="evenodd" d="M5.00794 12.4982H3.00183V11.4982H5.00794V12.4982Z"/>
<path fill-rule="evenodd" clip-rule="evenodd" d="M20.9982 12.4982H19.0015V11.4982H20.9982V12.4982Z"/>
<path fill-rule="evenodd" clip-rule="evenodd" d="M7.40944 17.2959L5.99091 18.7145L5.2838 18.0074L6.70233 16.5888L7.40944 17.2959Z"/>
<path fill-rule="evenodd" clip-rule="evenodd" d="M18.7163 5.98907L17.3044 7.401L16.5973 6.69389L18.0092 5.28196L18.7163 5.98907Z"/>
</svg>
