<svg viewBox="0 0 24 24" xmlns="http://www.w3.org/2000/svg">
<path fill-rule="evenodd" clip-rule="evenodd" d="M12 11C13.1046 11 14 10.1046 14 9C14 7.89543 13.1046 7 12 7C10.8954 7 10 7.89543 10 9C10 10.1046 10.8954 11 12 11ZM15 9C15 10.6569 13.6569 12 12 12C10.3431 12 9 10.6569 9 9C9 7.34315 10.3431 6 12 6C13.6569 6 15 7.34315 15 9Z"/>
<path fill-rule="evenodd" clip-rule="evenodd" d="M17.1969 12.0073C17.7077 11.1239 18 10.0983 18 9.00437C18 5.68825 15.3137 3 12 3C8.68629 3 6 5.68825 6 9.00437C6 10.0975 6.2919 11.1224 6.80194 12.0053L12 21L17.1957 12.0065L17.1936 12.0129C17.1947 12.0111 17.1958 12.0092 17.1969 12.0073ZM16.331 11.507C16.7563 10.7717 17 9.91806 17 9.00437C17 6.23985 14.7607 4 12 4C9.23926 4 7 6.23985 7 9.00437C7 9.91719 7.24328 10.7701 7.66776 11.5049C7.66779 11.5049 7.66774 11.5049 7.66776 11.5049L11.9999 19.0012L16.3298 11.5063L16.331 11.507Z"/>
</svg>
