<svg viewBox="0 0 24 24" xmlns="http://www.w3.org/2000/svg">
<path fill-rule="evenodd" clip-rule="evenodd" d="M14 8H10L10 12H14V8ZM10 7C9.44772 7 9 7.44772 9 8V12C9 12.5523 9.44772 13 10 13H14C14.5523 13 15 12.5523 15 12V8C15 7.44772 14.5523 7 14 7H10Z"/>
<path fill-rule="evenodd" clip-rule="evenodd" d="M15 16H9V15H15V16Z"/>
<path fill-rule="evenodd" clip-rule="evenodd" d="M15 18H9V17H15V18Z"/>
<path fill-rule="evenodd" clip-rule="evenodd" d="M16 4H8V20H16V4ZM8 3C7.44772 3 7 3.44772 7 4V20C7 20.5523 7.44772 21 8 21H16C16.5523 21 17 20.5523 17 20V4C17 3.44772 16.5523 3 16 3H8Z"/>
<path fill-rule="evenodd" clip-rule="evenodd" d="M12 6C12.2761 6 12.5 5.77614 12.5 5.5C12.5 5.22386 12.2761 5 12 5C11.7239 5 11.5 5.22386 11.5 5.5C11.5 5.77614 11.7239 6 12 6Z"/>
</svg>
