<svg viewBox="0 0 24 24" xmlns="http://www.w3.org/2000/svg">
<path fill-rule="evenodd" clip-rule="evenodd" d="M12 14C13.1046 14 14 13.1046 14 12C14 10.8954 13.1046 10 12 10C10.8954 10 10 10.8954 10 12C10 13.1046 10.8954 14 12 14ZM12 15C13.6569 15 15 13.6569 15 12C15 10.3431 13.6569 9 12 9C10.3431 9 9 10.3431 9 12C9 13.6569 10.3431 15 12 15Z"/>
<path d="M12.5 4.70811L13.6466 5.85368L14.3534 5.14625L12 2.79498L9.64661 5.14625L10.3534 5.85368L11.5 4.70811V7.99998H12.5V4.70811Z"/>
<path d="M12.5 19.2919L13.6466 18.1463L14.3534 18.8537L12 21.205L9.64661 18.8537L10.3534 18.1463L11.5 19.2919V16H12.5V19.2919Z"/>
<path d="M4.70811 11.5L5.85368 10.3534L5.14625 9.64661L2.79498 12L5.14625 14.3534L5.85368 13.6466L4.70811 12.5H7.99998V11.5H4.70811Z"/>
<path d="M19.2922 12.5H16V11.5H19.2922L18.1466 10.3534L18.854 9.64661L21.2053 12L18.854 14.3534L18.1466 13.6466L19.2922 12.5Z"/>
</svg>
