<svg viewBox="0 0 24 24" xmlns="http://www.w3.org/2000/svg">
<path d="M13 19C13 19.5523 12.5523 20 12 20C11.4477 20 11 19.5523 11 19H10C10 20.1046 10.8954 21 12 21C13.1046 21 14 20.1046 14 19H13Z"/>
<path fill-rule="evenodd" clip-rule="evenodd" d="M12.5 4.51848V3H11.5V4.5229C8.44073 4.79014 6.04364 7.36323 6.05344 10.492L6.0707 16L5.07068 17L5.07068 18H19V17L18 16L18 10.4733C18 7.33363 15.5777 4.75973 12.5 4.51848ZM17 16.4142L17.5858 17H6.48491L7.072 16.4129L7.05344 10.4889C7.04482 7.73612 9.27395 5.5 12.0267 5.5C14.7734 5.5 17 7.72661 17 10.4733L17 16.4142Z"/>
</svg>
