<svg viewBox="0 0 24 24" xmlns="http://www.w3.org/2000/svg">
<path d="M13 19C13 19.5523 12.5523 20 12 20C11.4477 20 11 19.5523 11 19H10C10 20.1046 10.8954 21 12 21C13.1046 21 14 20.1046 14 19H13Z"/>
<path fill-rule="evenodd" clip-rule="evenodd" d="M3.64642 4.35358L19.6464 20.3536L20.3535 19.6465L4.35353 3.64647L3.64642 4.35358Z"/>
<path d="M12.5 3V4.51848C15.5777 4.75973 18 7.33363 18 10.4733L18 15.8929L17 14.8929L17 10.4733C17 7.72661 14.7734 5.5 12.0267 5.5C10.7941 5.5 9.66648 5.94834 8.79774 6.69065L8.08881 5.98172C9.01636 5.16784 10.1982 4.63662 11.5 4.5229V3H12.5Z"/>
<path d="M7.39452 6.70165C6.55234 7.73474 6.04894 9.05474 6.05344 10.492L6.0707 16L5.07068 17L5.07068 18H18.6929L17 16.3071V16.4142L17.5858 17H6.48491L7.072 16.4129L7.05344 10.4889C7.04981 9.32906 7.44341 8.26096 8.10605 7.41318L7.39452 6.70165Z"/>
</svg>
