<svg viewBox="0 0 24 24" xmlns="http://www.w3.org/2000/svg">
<path d="M18.364 19.364C19.9926 17.7353 21 15.4853 21 13C21 8.02944 16.9706 4 12 4C7.02944 4 3 8.02944 3 13C3 15.4853 4.00736 17.7353 5.63604 19.364L6.34315 18.6569C5.00548 17.3192 4.13932 15.51 4.01537 13.5H5V12.5H4.01537C4.1284 10.6672 4.85854 9.00133 6.00058 7.7077L6.64642 8.35355L7.35353 7.64644L6.70768 7.00059C8.00132 5.85855 9.66717 5.1284 11.5 5.01537V6H12.5V5.01537C14.3328 5.1284 15.9987 5.85855 17.2923 7.00059L16.6465 7.64644L17.3536 8.35355L17.9994 7.7077C19.1415 9.00133 19.8716 10.6672 19.9846 12.5H19V13.5H19.9846C19.8607 15.51 18.9945 17.3192 17.6569 18.6569L18.364 19.364Z"/>
<path d="M12.9661 12.741C12.9882 12.8236 13 12.9104 13 13C13 13.5523 12.5523 14 12 14C11.4477 14 11 13.5523 11 13C11 12.4477 11.4477 12 12 12C12.0896 12 12.1764 12.0118 12.259 12.0339L15.6464 8.64645L16.3535 9.35356L12.9661 12.741Z"/>
</svg>
