<svg viewBox="0 0 24 24" xmlns="http://www.w3.org/2000/svg">
<path fill-rule="evenodd" clip-rule="evenodd" d="M12 10C12.5523 10 13 9.55228 13 9C13 8.44772 12.5523 8 12 8C11.4477 8 11 8.44772 11 9C11 9.55228 11.4477 10 12 10ZM14 9C14 10.1046 13.1046 11 12 11C10.8954 11 10 10.1046 10 9C10 7.89543 10.8954 7 12 7C13.1046 7 14 7.89543 14 9Z"/>
<path fill-rule="evenodd" clip-rule="evenodd" d="M11 13H13C14.1046 13 15 13.8954 15 15H16C16 13.3431 14.6569 12 13 12H11C9.34315 12 8 13.3431 8 15H9C9 13.8954 9.89543 13 11 13Z"/>
<path fill-rule="evenodd" clip-rule="evenodd" d="M12 4.04001L6 5.75429V11C6 13.0869 7.49966 15.3376 9.23106 17.1927C10.07 18.0916 10.9124 18.8441 11.5464 19.3724C11.7141 19.5121 11.8666 19.6357 12 19.7417C12.1334 19.6357 12.2859 19.5121 12.4536 19.3724C13.0876 18.8441 13.93 18.0916 14.7689 17.1927C16.5003 15.3376 18 13.0869 18 11L18 5.75429L12 4.04001ZM5.72528 4.79277C5.29598 4.91543 5 5.30781 5 5.75429V11C5 16 12 21 12 21C12 21 19 16 19 11V5.75429C19 5.30781 18.704 4.91543 18.2747 4.79277L12.2747 3.07848C12.0952 3.02718 11.9048 3.02718 11.7253 3.07848L5.72528 4.79277Z"/>
</svg>
