<svg viewBox="0 0 24 24" xmlns="http://www.w3.org/2000/svg">
<path fill-rule="evenodd" clip-rule="evenodd" d="M15 10C15 11.6569 13.6569 13 12 13C10.3431 13 9 11.6569 9 10C9 8.34315 10.3431 7 12 7C13.6569 7 15 8.34315 15 10ZM12 12C13.1046 12 14 11.1046 14 10C14 8.89543 13.1046 8 12 8C10.8954 8 10 8.89543 10 10C10 11.1046 10.8954 12 12 12Z"/>
<path fill-rule="evenodd" clip-rule="evenodd" d="M21 12C21 16.9706 16.9706 21 12 21C7.02944 21 3 16.9706 3 12C3 7.02944 7.02944 3 12 3C16.9706 3 21 7.02944 21 12ZM17 18.2454C15.6304 19.3433 13.8919 20 12 20C10.1081 20 8.3696 19.3433 7 18.2454V17.1623C7 16.2854 7.55198 15.5901 8.29912 15.4311C9.35827 15.2058 10.6895 15 12 15C13.3105 15 14.6417 15.2058 15.7009 15.4311C16.448 15.5901 17 16.2854 17 17.1623V18.2454ZM18 17.2916V17.1623C18 15.871 17.172 14.7217 15.909 14.453C14.8118 14.2196 13.4059 14 12 14C10.5941 14 9.18818 14.2196 8.09104 14.453C6.82801 14.7217 6 15.871 6 17.1623V17.2916C4.75527 15.8814 4 14.0289 4 12C4 7.58172 7.58172 4 12 4C16.4183 4 20 7.58172 20 12C20 14.0289 19.2447 15.8814 18 17.2916Z"/>
</svg>
