<svg viewBox="0 0 24 24" xmlns="http://www.w3.org/2000/svg">
<path d="M19.2232 10.1217L20.0355 8.71364L20.9017 9.21333L19.239 12.0956L16.3551 10.4319L16.8548 9.56566L18.2547 10.3732C17.2431 7.02905 13.751 5.06948 10.3518 5.9803C6.88423 6.90942 4.82645 10.4736 5.75557 13.9411C6.1135 15.2769 6.86158 16.4024 7.84455 17.2293C9.41589 18.5512 11.5844 19.1086 13.7164 18.5373C15.847 17.9664 17.4457 16.4011 18.1463 14.4722L19.0862 14.8136C18.279 17.0362 16.4345 18.8443 13.9752 19.5033C11.5144 20.1626 9.01142 19.5178 7.20079 17.9945C6.06619 17.04 5.20227 15.7399 4.78964 14.2C3.71758 10.199 6.09195 6.08644 10.0929 5.01438C14.0282 3.95993 18.0713 6.23956 19.2232 10.1217Z"/>
</svg>
