<svg viewBox="0 0 24 24" xmlns="http://www.w3.org/2000/svg">
<path fill-rule="evenodd" clip-rule="evenodd" d="M15.6283 4C15.8709 4 16.1053 4.08821 16.2877 4.2482L19.6594 7.20548C19.8759 7.39536 20 7.66933 20 7.95728V19C20 19.5523 19.5523 20 19 20H5C4.44772 20 4 19.5523 4 19V5C4 4.44772 4.44772 4 5 4H15.6283ZM19 19V7.95728L16 5.326V8C16 8.55228 15.5523 9 15 9H9C8.44772 9 8 8.55228 8 8V5H5V19H7V15C7 14.4477 7.44772 14 8 14H16C16.5523 14 17 14.4477 17 15V19H19ZM9 5V8H15V5H9ZM8 19H16V15H8V19Z"/>
<path fill-rule="evenodd" clip-rule="evenodd" d="M13 7V6H14V7H13Z"/>
</svg>
