<svg viewBox="0 0 24 24" xmlns="http://www.w3.org/2000/svg">
<path fill-rule="evenodd" clip-rule="evenodd" d="M12 14C13.1046 14 14 13.1046 14 12C14 10.8954 13.1046 10 12 10C10.8954 10 10 10.8954 10 12C10 13.1046 10.8954 14 12 14ZM15 12C15 13.6569 13.6569 15 12 15C10.3431 15 9 13.6569 9 12C9 10.3431 10.3431 9 12 9C13.6569 9 15 10.3431 15 12Z"/>
<path fill-rule="evenodd" clip-rule="evenodd" d="M20.1597 9.50067L18.697 11.1502C18.7669 11.7069 18.7669 12.2931 18.697 12.8497L20.1597 14.4993C20.4453 14.8213 20.4928 15.29 20.2776 15.6628L19.3108 17.3372C19.0956 17.71 18.666 17.9032 18.2443 17.8169L16.084 17.3748C15.6342 17.717 15.1403 18.0041 14.6122 18.226L13.9154 20.3162C13.7793 20.7246 13.3972 21 12.9667 21H11.0332C10.6028 21 10.2207 20.7246 10.0846 20.3162L9.38781 18.226C8.85968 18.0041 8.36572 17.717 7.916 17.3748L5.75561 17.8169C5.33392 17.9032 4.90432 17.71 4.68911 17.3372L3.72237 15.6628C3.50715 15.29 3.55461 14.8213 3.84019 14.4993L5.30295 12.8497C5.23304 12.2931 5.23304 11.7069 5.30296 11.1503L3.84019 9.50066C3.55461 9.17862 3.50715 8.70996 3.72237 8.33719L4.68911 6.66275C4.90432 6.28999 5.33392 6.09676 5.75561 6.18305L7.91606 6.62516C8.36576 6.28294 8.8597 5.99587 9.38781 5.77403L10.0846 3.68377C10.2207 3.27543 10.6028 3 11.0332 3H12.9667C13.3972 3 13.7793 3.27543 13.9154 3.68377L14.6122 5.77403C15.1403 5.99587 15.6342 6.28293 16.0839 6.62515L18.2443 6.18305C18.666 6.09676 19.0956 6.28999 19.3108 6.66275L20.2776 8.3372C20.4928 8.70996 20.4453 9.17862 20.1597 9.50067ZM10.1931 6.5204L9.77509 6.69599C9.32573 6.88475 8.90501 7.12919 8.52164 7.42094L8.16036 7.69587L5.55513 7.16275L4.58839 8.83719L6.3516 10.8256L6.29516 11.2749C6.23564 11.7488 6.23564 12.2512 6.29516 12.7251L6.35159 13.1744L4.58839 15.1628L5.55513 16.8372L8.16031 16.3041L8.5216 16.579C8.90498 16.8708 9.32572 17.1152 9.77509 17.304L10.1931 17.4796L11.0332 20H12.9667L13.8069 17.4796L14.2249 17.304C14.6743 17.1152 15.095 16.8708 15.4784 16.579L15.8397 16.3041L18.4448 16.8372L19.4115 15.1628L17.6484 13.1744L17.7048 12.7251C17.7643 12.2512 17.7643 11.7488 17.7048 11.2748L17.6484 10.8255L19.4115 8.8372L18.4448 7.16275L15.8396 7.69587L15.4783 7.42093C15.095 7.12919 14.6742 6.88475 14.2249 6.69599L13.8069 6.5204L12.9667 4L11.0332 4L10.1931 6.5204Z"/>
</svg>
