<svg viewBox="0 0 24 24" xmlns="http://www.w3.org/2000/svg">
<path fill-rule="evenodd" clip-rule="evenodd" d="M5.18369 6.08822L6.08819 5.18372C6.41906 4.85285 6.93513 4.79566 7.33042 5.04606L8.62479 5.86598C9.07199 5.61939 9.54904 5.42029 10.0491 5.27545L10.3847 3.78093C10.4872 3.32442 10.8925 3 11.3604 3H12.6396C13.1075 3 13.5128 3.32448 13.6153 3.78105L13.9506 5.27538C14.4511 5.42031 14.9286 5.61962 15.3761 5.86648L16.6691 5.04657C17.0644 4.79589 17.5807 4.85299 17.9117 5.18398L18.8157 6.08793C19.1467 6.4189 19.2038 6.93516 18.9532 7.33047L18.1334 8.62362C18.3805 9.07156 18.58 9.54946 18.7249 10.0505L20.2183 10.3849C20.6751 10.4871 20.9998 10.8926 20.9998 11.3607V12.6391C20.9998 13.1071 20.6752 13.5126 20.2184 13.6149L18.7249 13.9495C18.58 14.4505 18.3805 14.9284 18.1334 15.3764L18.9532 16.6693C19.2039 17.0646 19.1468 17.5809 18.8158 17.9119L17.9119 18.8159C17.5809 19.1468 17.0647 19.204 16.6694 18.9533L15.3761 18.1335C14.9282 18.3806 14.4504 18.58 13.9494 18.725L13.615 20.2185C13.5127 20.6753 13.1073 21 12.6392 21H11.3608C10.8927 21 10.4873 20.6753 10.385 20.2186L10.0503 18.7249C9.54979 18.58 9.07233 18.3808 8.62477 18.134L7.33017 18.9539C6.93489 19.2042 6.41888 19.147 6.08804 18.8161L5.18354 17.9116C4.85267 17.5808 4.79548 17.0647 5.04588 16.6694L5.86584 15.375C5.6193 14.9278 5.42023 14.4508 5.27543 13.9508L3.78075 13.6152C3.32423 13.5127 2.99982 13.1074 2.99982 12.6395V11.3603C2.99982 10.8924 3.32429 10.487 3.78086 10.3846L5.27543 10.0492C5.42024 9.54916 5.61931 9.07217 5.86586 8.62502L5.04596 7.33036C4.79563 6.93508 4.85285 6.41906 5.18369 6.08822ZM12.6396 4L11.3604 4L10.8953 6.07148L10.3273 6.23598C9.89929 6.35994 9.49081 6.5304 9.10766 6.74168L8.58952 7.02739L6.79529 5.89083L5.89079 6.79533L7.02721 8.5898L6.74157 9.10786C6.53033 9.49098 6.3599 9.8994 6.23597 10.3274L6.07145 10.8954L3.99982 11.3603L3.99982 12.6395L6.07147 13.1046L6.23596 13.6726C6.3599 14.1006 6.53032 14.509 6.74156 14.8921L7.02724 15.4103L5.89065 17.2045L6.79515 18.109L8.58957 16.9726L9.10765 17.2583C9.49111 17.4698 9.89994 17.6403 10.3283 17.7643L10.8968 17.9288L11.3608 20H12.6392L13.1029 17.9289L13.6714 17.7644C14.1002 17.6403 14.5094 17.4696 14.8931 17.2579L15.4115 16.9719L17.2048 18.1088L18.1087 17.2048L16.9718 15.4118L17.2578 14.8933C17.4695 14.5095 17.6403 14.1003 17.7644 13.6715L17.9289 13.103L19.9998 12.6391V11.3607L17.9289 10.897L17.7644 10.3285C17.6403 9.89965 17.4695 9.49045 17.2578 9.10666L16.9718 8.58824L18.1086 6.79504L17.2046 5.89109L15.4116 7.02809L14.8931 6.7421C14.5097 6.53059 14.1009 6.35997 13.6725 6.23592L13.1044 6.07142L12.6396 4Z"/>
<path fill-rule="evenodd" clip-rule="evenodd" d="M12 14C13.1046 14 14 13.1046 14 12C14 10.8954 13.1046 10 12 10C10.8954 10 10 10.8954 10 12C10 13.1046 10.8954 14 12 14ZM15 12C15 13.6569 13.6569 15 12 15C10.3431 15 9 13.6569 9 12C9 10.3431 10.3431 9 12 9C13.6569 9 15 10.3431 15 12Z"/>
</svg>
