<svg viewBox="0 0 24 24" xmlns="http://www.w3.org/2000/svg">
<path fill-rule="evenodd" clip-rule="evenodd" d="M14 6C14 4.61929 15.1193 3.5 16.5 3.5C17.8807 3.5 19 4.61929 19 6C19 7.38071 17.8807 8.5 16.5 8.5C15.5639 8.5 14.748 7.9855 14.3195 7.22385L8.76194 10.9339C8.91462 11.2573 9 11.6187 9 12C9 12.4499 8.88117 12.872 8.6732 13.2367L14.3103 16.7928C14.7361 16.022 15.5571 15.5 16.5 15.5C17.8807 15.5 19 16.6193 19 18C19 19.3807 17.8807 20.5 16.5 20.5C15.1193 20.5 14 19.3807 14 18C14 17.9276 14.0031 17.856 14.0091 17.7852L8.00421 13.997C7.58566 14.3128 7.0647 14.5 6.5 14.5C5.11929 14.5 4 13.3807 4 12C4 10.6193 5.11929 9.5 6.5 9.5C7.13793 9.5 7.72006 9.73894 8.16177 10.1322L14.0103 6.22797C14.0035 6.15289 14 6.07685 14 6ZM16.5 4.5C15.6716 4.5 15 5.17157 15 6C15 6.82843 15.6716 7.5 16.5 7.5C17.3284 7.5 18 6.82843 18 6C18 5.17157 17.3284 4.5 16.5 4.5ZM16.5 16.5C15.6716 16.5 15 17.1716 15 18C15 18.8284 15.6716 19.5 16.5 19.5C17.3284 19.5 18 18.8284 18 18C18 17.1716 17.3284 16.5 16.5 16.5ZM5 12C5 11.1716 5.67157 10.5 6.5 10.5C7.32843 10.5 8 11.1716 8 12C8 12.8284 7.32843 13.5 6.5 13.5C5.67157 13.5 5 12.8284 5 12Z"/>
</svg>
