<svg viewBox="0 0 24 24" xmlns="http://www.w3.org/2000/svg">
<path fill-rule="evenodd" clip-rule="evenodd" d="M11.7253 4.11849L6 5.75429V11C6 13.0869 7.49966 15.3376 9.23106 17.1927C10.07 18.0916 10.9124 18.844 11.5464 19.3724C11.7141 19.5121 11.8666 19.6357 12 19.7417C12.1334 19.6357 12.2859 19.5121 12.4536 19.3724C13.0876 18.844 13.93 18.0916 14.7689 17.1927C16.5003 15.3376 18 13.0869 18 11L18 5.75429L12.2747 4.11849C12.0952 4.06719 11.9048 4.06719 11.7253 4.11849ZM5.72528 4.79276C5.29598 4.91542 5 5.30781 5 5.75429V11C5 16 12 21 12 21C12 21 19 16 19 11V5.75429C19 5.30781 18.704 4.91542 18.2747 4.79276L12.5494 3.15697C12.1903 3.05437 11.8097 3.05437 11.4506 3.15697L5.72528 4.79276Z"/>
</svg>
