<svg viewBox="0 0 24 24" xmlns="http://www.w3.org/2000/svg">
<path fill-rule="evenodd" clip-rule="evenodd" d="M3.64642 4.35358L19.6464 20.3536L20.3535 19.6465L4.35353 3.64647L3.64642 4.35358Z"/>
<path fill-rule="evenodd" clip-rule="evenodd" d="M17.6405 16.9476C16.6957 18.0272 15.4314 18.848 13.9415 19.2472C12.6227 19.6006 11.2932 19.5796 10.0641 19.2499L9.80505 20.2158C11.1992 20.5897 12.7073 20.6132 14.2004 20.2132C15.8661 19.7668 17.2831 18.8555 18.3491 17.6562L17.6405 16.9476ZM18.9724 16.8653L18.2526 16.1455C19.3975 14.4161 19.8239 12.2226 19.2448 10.0617C18.9857 9.09434 18.5492 8.22278 17.9798 7.47197L17.6716 9.22982L16.6866 9.05713L17.2621 5.77502L20.543 6.35685L20.3684 7.34148L18.938 7.08782C19.5051 7.88815 19.9423 8.80075 20.2108 9.80283C20.8858 12.3222 20.3551 14.8806 18.9724 16.8653Z"/>
<path fill-rule="evenodd" clip-rule="evenodd" d="M9.80044 3.79241C11.2954 3.39185 12.8055 3.41589 14.2011 3.79123L13.9414 4.75691C12.711 4.42602 11.3798 4.40449 10.0593 4.75834C9.25413 4.97407 8.51487 5.31293 7.8563 5.74922L7.13633 5.02925C7.92408 4.47971 8.81909 4.05536 9.80044 3.79241ZM6.34637 5.6535C4.02599 7.72307 2.9304 10.9945 3.79003 14.2027C4.0603 15.2114 4.50144 16.1294 5.07401 16.9335L3.6491 16.6808L3.47449 17.6654L6.75546 18.2473L7.33089 14.9652L6.34591 14.7925L6.03697 16.5546C5.45979 15.7991 5.01757 14.9203 4.75596 13.9439C3.99212 11.0932 4.97785 8.18593 7.05494 6.36207L6.34637 5.6535Z"/>
</svg>
