<svg viewBox="0 0 24 24" xmlns="http://www.w3.org/2000/svg">
<path d="M14.2011 3.79123C12.8055 3.41589 11.2954 3.39185 9.80044 3.79241C5.26598 5.00741 2.57503 9.66828 3.79003 14.2027C4.0603 15.2114 4.50144 16.1294 5.07401 16.9335L3.6491 16.6808L3.47449 17.6654L6.75546 18.2473L7.33089 14.9652L6.34591 14.7925L6.03697 16.5546C5.45979 15.7991 5.01757 14.9203 4.75596 13.9439C3.68389 9.94292 6.05826 5.8304 10.0593 4.75834C11.3798 4.40449 12.711 4.42602 13.9414 4.75691L14.2011 3.79123Z"/>
<path d="M20.543 6.35685L17.2621 5.77502L16.6866 9.05713L17.6716 9.22982L17.9798 7.47197C18.5492 8.22278 18.9857 9.09434 19.2448 10.0617C20.3169 14.0626 17.9425 18.1752 13.9415 19.2472C12.6227 19.6006 11.2932 19.5796 10.0641 19.2499L9.80505 20.2158C11.1992 20.5897 12.7073 20.6132 14.2004 20.2132C18.7348 18.9982 21.4258 14.3373 20.2108 9.80283C19.9423 8.80075 19.5051 7.88815 18.938 7.08782L20.3684 7.34148L20.543 6.35685Z"/>
</svg>
