<svg viewBox="0 0 24 24" xmlns="http://www.w3.org/2000/svg">
<path fill-rule="evenodd" clip-rule="evenodd" d="M15 8H9C6.79086 8 5 9.79086 5 12C5 14.2091 6.79086 16 9 16H15C17.2091 16 19 14.2091 19 12C19 9.79086 17.2091 8 15 8ZM9 7C6.23858 7 4 9.23858 4 12C4 14.7614 6.23858 17 9 17H15C17.7614 17 20 14.7614 20 12C20 9.23858 17.7614 7 15 7H9Z"/>
<path fill-rule="evenodd" clip-rule="evenodd" d="M9 14C10.1046 14 11 13.1046 11 12C11 10.8954 10.1046 10 9 10C7.89543 10 7 10.8954 7 12C7 13.1046 7.89543 14 9 14ZM9 15C10.6569 15 12 13.6569 12 12C12 10.3431 10.6569 9 9 9C7.34315 9 6 10.3431 6 12C6 13.6569 7.34315 15 9 15Z"/>
</svg>
