<svg viewBox="0 0 24 24" xmlns="http://www.w3.org/2000/svg">
<path fill-rule="evenodd" clip-rule="evenodd" d="M15 8H9C6.79086 8 5 9.79086 5 12C5 14.2091 6.79086 16 9 16H15C17.2091 16 19 14.2091 19 12C19 9.79086 17.2091 8 15 8ZM9 7C6.23858 7 4 9.23858 4 12C4 14.7614 6.23858 17 9 17H15C17.7614 17 20 14.7614 20 12C20 9.23858 17.7614 7 15 7H9Z"/>
<path fill-rule="evenodd" clip-rule="evenodd" d="M15 14C16.1046 14 17 13.1046 17 12C17 10.8954 16.1046 10 15 10C13.8954 10 13 10.8954 13 12C13 13.1046 13.8954 14 15 14ZM15 15C16.6569 15 18 13.6569 18 12C18 10.3431 16.6569 9 15 9C13.3431 9 12 10.3431 12 12C12 13.6569 13.3431 15 15 15Z"/>
</svg>
