<svg viewBox="0 0 24 24" xmlns="http://www.w3.org/2000/svg">
<path fill-rule="evenodd" clip-rule="evenodd" d="M15.8 5L15.2514 3.62861C15.0996 3.24895 14.7319 3 14.323 3H9.67703C9.26813 3 8.90042 3.24895 8.74856 3.62861L8.2 5H4.5V6H19.5V5H15.8ZM14.723 5L14.323 4L9.67703 4L9.27703 5H14.723Z"/>
<path fill-rule="evenodd" clip-rule="evenodd" d="M11.5 17V9H12.5V17H11.5Z"/>
<path fill-rule="evenodd" clip-rule="evenodd" d="M14.5 17V9H15.5V17H14.5Z"/>
<path fill-rule="evenodd" clip-rule="evenodd" d="M8.5 17V9H9.5V17H8.5Z"/>
<path d="M6.5 19V7H5.5V19C5.5 19.5523 5.94772 20 6.5 20H17.5C18.0523 20 18.5 19.5523 18.5 19V7H17.5V19H6.5Z"/>
</svg>
