<svg viewBox="0 0 24 24" xmlns="http://www.w3.org/2000/svg">
<path d="M17.5 12.9585V19.0055H18.5V12.9585C18.3374 12.9858 18.1704 13 18 13C17.8296 13 17.6626 12.9858 17.5 12.9585Z"/>
<path d="M18.5 7.04148C18.3374 7.0142 18.1704 7 18 7C17.8296 7 17.6626 7.0142 17.5 7.04148V5H18.5V7.04148Z"/>
<path fill-rule="evenodd" clip-rule="evenodd" d="M18 11C18.5523 11 19 10.5523 19 10C19 9.44772 18.5523 9 18 9C17.4477 9 17 9.44772 17 10C17 10.5523 17.4477 11 18 11ZM20 10C20 11.1046 19.1046 12 18 12C16.8954 12 16 11.1046 16 10C16 8.89543 16.8954 8 18 8C19.1046 8 20 8.89543 20 10Z"/>
<path d="M11.5 16.9585V19.0055H12.5V16.9585C12.3374 16.9858 12.1704 17 12 17C11.8296 17 11.6626 16.9858 11.5 16.9585Z"/>
<path d="M12.5 11.0415C12.3374 11.0142 12.1704 11 12 11C11.8296 11 11.6626 11.0142 11.5 11.0415V5H12.5V11.0415Z"/>
<path fill-rule="evenodd" clip-rule="evenodd" d="M12 15C12.5523 15 13 14.5523 13 14C13 13.4477 12.5523 13 12 13C11.4477 13 11 13.4477 11 14C11 14.5523 11.4477 15 12 15ZM14 14C14 15.1046 13.1046 16 12 16C10.8954 16 10 15.1046 10 14C10 12.8954 10.8954 12 12 12C13.1046 12 14 12.8954 14 14Z"/>
<path d="M5.5 12.9585V19.0055H6.5V12.9585C6.3374 12.9858 6.17036 13 6 13C5.82964 13 5.6626 12.9858 5.5 12.9585Z"/>
<path d="M6.5 7.04148C6.3374 7.0142 6.17036 7 6 7C5.82964 7 5.6626 7.0142 5.5 7.04148V5H6.5V7.04148Z"/>
<path fill-rule="evenodd" clip-rule="evenodd" d="M6 11C6.55228 11 7 10.5523 7 10C7 9.44772 6.55228 9 6 9C5.44772 9 5 9.44772 5 10C5 10.5523 5.44772 11 6 11ZM8 10C8 11.1046 7.10457 12 6 12C4.89543 12 4 11.1046 4 10C4 8.89543 4.89543 8 6 8C7.10457 8 8 8.89543 8 10Z"/>
</svg>
