<svg viewBox="0 0 24 24" xmlns="http://www.w3.org/2000/svg">
<path d="M6.04148 15.5C6.0142 15.6626 6 15.8296 6 16C6 16.1704 6.0142 16.3374 6.04148 16.5H4V15.5H6.04148Z"/>
<path d="M11.9585 16.5C11.9858 16.3374 12 16.1704 12 16C12 15.8296 11.9858 15.6626 11.9585 15.5H20V16.5H11.9585Z"/>
<path fill-rule="evenodd" clip-rule="evenodd" d="M9 17C9.55228 17 10 16.5523 10 16C10 15.4477 9.55228 15 9 15C8.44772 15 8 15.4477 8 16C8 16.5523 8.44772 17 9 17ZM11 16C11 17.1046 10.1046 18 9 18C7.89543 18 7 17.1046 7 16C7 14.8954 7.89543 14 9 14C10.1046 14 11 14.8954 11 16Z"/>
<path d="M12.0415 7.5C12.0142 7.6626 12 7.82964 12 8C12 8.17036 12.0142 8.3374 12.0415 8.5H4V7.5H12.0415Z"/>
<path d="M17.9585 8.5C17.9858 8.3374 18 8.17036 18 8C18 7.82964 17.9858 7.6626 17.9585 7.5H20V8.5H17.9585Z"/>
<path fill-rule="evenodd" clip-rule="evenodd" d="M15 9C15.5523 9 16 8.55228 16 8C16 7.44772 15.5523 7 15 7C14.4477 7 14 7.44772 14 8C14 8.55228 14.4477 9 15 9ZM17 8C17 9.10457 16.1046 10 15 10C13.8954 10 13 9.10457 13 8C13 6.89543 13.8954 6 15 6C16.1046 6 17 6.89543 17 8Z"/>
</svg>
