<svg viewBox="0 0 24 24" xmlns="http://www.w3.org/2000/svg">
<path fill-rule="evenodd" clip-rule="evenodd" d="M8.5 9V7.5C8.5 5.567 10.067 4 12 4C13.7632 4 15.2219 5.30385 15.4646 7H16.4725C16.2238 4.75002 14.3163 3 12 3C9.51472 3 7.5 5.01472 7.5 7.5V9H6C5.44772 9 5 9.44771 5 10V20C5 20.5523 5.44772 21 6 21H18C18.5523 21 19 20.5523 19 20V10C19 9.44772 18.5523 9 18 9H8.5ZM6 10H18V20H6V10Z"/>
<path fill-rule="evenodd" clip-rule="evenodd" d="M12.5 14.5C12.5 14.7761 12.2761 15 12 15C11.7239 15 11.5 14.7761 11.5 14.5C11.5 14.2239 11.7239 14 12 14C12.2761 14 12.5 14.2239 12.5 14.5ZM12.5 15.9146C13.0826 15.7087 13.5 15.1531 13.5 14.5C13.5 13.6716 12.8284 13 12 13C11.1716 13 10.5 13.6716 10.5 14.5C10.5 15.1531 10.9174 15.7087 11.5 15.9146V17.5H12.5V15.9146Z"/>
</svg>
