<svg viewBox="0 0 24 24" xmlns="http://www.w3.org/2000/svg">
<path fill-rule="evenodd" clip-rule="evenodd" d="M18 10H6V13H18V10ZM6 9C5.44772 9 5 9.44772 5 10V13C5 13.5523 5.44772 14 6 14H18C18.5523 14 19 13.5523 19 13V10C19 9.44772 18.5523 9 18 9H6Z"/>
<path fill-rule="evenodd" clip-rule="evenodd" d="M3 4C3 3.44772 3.44772 3 4 3H20C20.5523 3 21 3.44772 21 4V20C21 20.5523 20.5523 21 20 21H4C3.44772 21 3 20.5523 3 20V4ZM4 4H20V7H4V4ZM20 8V20H4V8H20Z"/>
<path fill-rule="evenodd" clip-rule="evenodd" d="M10 16H6L6 18H10V16ZM6 15C5.44772 15 5 15.4477 5 16V18C5 18.5523 5.44772 19 6 19H10C10.5523 19 11 18.5523 11 18V16C11 15.4477 10.5523 15 10 15H6Z"/>
<path fill-rule="evenodd" clip-rule="evenodd" d="M19 16.5H12V15.5H19V16.5Z"/>
<path fill-rule="evenodd" clip-rule="evenodd" d="M19 18.5H12V17.5H19V18.5Z"/>
<path fill-rule="evenodd" clip-rule="evenodd" d="M5.5 6C5.77614 6 6 5.77614 6 5.5C6 5.22386 5.77614 5 5.5 5C5.22386 5 5 5.22386 5 5.5C5 5.77614 5.22386 6 5.5 6Z"/>
<path fill-rule="evenodd" clip-rule="evenodd" d="M7.5 6C7.77614 6 8 5.77614 8 5.5C8 5.22386 7.77614 5 7.5 5C7.22386 5 7 5.22386 7 5.5C7 5.77614 7.22386 6 7.5 6Z"/>
<path fill-rule="evenodd" clip-rule="evenodd" d="M9.5 6C9.77614 6 10 5.77614 10 5.5C10 5.22386 9.77614 5 9.5 5C9.22386 5 9 5.22386 9 5.5C9 5.77614 9.22386 6 9.5 6Z"/>
</svg>
