<svg viewBox="0 0 24 24" xmlns="http://www.w3.org/2000/svg">
<path fill-rule="evenodd" clip-rule="evenodd" d="M19 6.5V4H17V6.5C16.0965 12.3726 10.6151 15.3883 4.85163 15.9157C3.8319 16.009 3 16.8301 3 17.8541C3 18.5564 3.39265 19.211 4.05072 19.4563C12.073 22.4459 23.727 16.1637 19 6.5ZM18 6.57647L17.9884 6.65206C16.9823 13.1918 10.9063 16.3658 4.94276 16.9115C4.37993 16.963 4 17.4033 4 17.8541C4 18.2022 4.18941 18.4408 4.39993 18.5192C8.07945 19.8905 12.6497 19.1334 15.7203 16.9128C17.2405 15.8135 18.3472 14.389 18.8263 12.7423C19.3015 11.1093 19.1883 9.16071 18.1017 6.9394L18 6.73147V6.57647Z"/>
</svg>
