<svg viewBox="0 0 24 24" xmlns="http://www.w3.org/2000/svg">
<path d="M15 20H9V10.8284C9 10.5632 9.10536 10.3089 9.29289 10.1213L10.1213 9.29289C10.6839 8.73028 11 7.96722 11 7.17157V5H10V7.17157C10 7.70201 9.78929 8.21071 9.41421 8.58579L8.58579 9.41421C8.21071 9.78929 8 10.298 8 10.8284V20C8 20.5523 8.44772 21 9 21H15C15.5523 21 16 20.5523 16 20V10.8284C16 10.298 15.7893 9.78929 15.4142 9.41421L14.5858 8.58579C14.2107 8.21071 14 7.70201 14 7.17157V5H13V7.17157C13 7.96722 13.3161 8.73028 13.8787 9.29289L14.7071 10.1213C14.8946 10.3089 15 10.5632 15 10.8284V20Z"/>
<path d="M11 3C10.4477 3 10 3.44772 10 4H14C14 3.44772 13.5523 3 13 3H11Z"/>
</svg>
