<svg viewBox="0 0 24 24" xmlns="http://www.w3.org/2000/svg">
<path fill-rule="evenodd" clip-rule="evenodd" d="M18 16H6V18H18V16ZM5 15V18C5 18.5523 5.44772 19 6 19H18C18.5523 19 19 18.5523 19 18V15H5Z"/>
<path fill-rule="evenodd" clip-rule="evenodd" d="M15 7H9C7.69378 7 6.58254 7.83481 6.17071 9H17.8293C17.4175 7.83481 16.3062 7 15 7ZM18.874 9C18.4299 7.27477 16.8638 6 15 6H9C7.13616 6 5.57006 7.27477 5.12602 9C5.04375 9.31962 5 9.6547 5 10H19C19 9.6547 18.9562 9.31962 18.874 9Z"/>
<path fill-rule="evenodd" clip-rule="evenodd" d="M20 14H4V13H20V14Z"/>
<path d="M20 10.941L19.6708 11.1056C19.2485 11.3167 18.7515 11.3167 18.3292 11.1056L18.118 11C17.4142 10.6481 16.5858 10.6481 15.882 11L15.6708 11.1056C15.2485 11.3167 14.7515 11.3167 14.3292 11.1056L14.118 11C13.4142 10.6481 12.5858 10.6481 11.882 11L11.6708 11.1056C11.2485 11.3167 10.7515 11.3167 10.3292 11.1056L10.118 11C9.41422 10.6481 8.58579 10.6481 7.88197 11L7.67083 11.1056C7.24854 11.3167 6.75148 11.3167 6.32919 11.1056L5.97401 10.928C5.3495 10.6157 4.60555 10.662 4.02459 11.0493C4.01645 11.0548 4.00826 11.0601 4 11.0652V12.1429C4.20265 12.0891 4.39854 12.0019 4.57929 11.8814C4.86166 11.6931 5.22326 11.6706 5.5268 11.8224L5.88197 12C6.58579 12.3519 7.41422 12.3519 8.11804 12L8.32919 11.8944C8.75148 11.6833 9.24854 11.6833 9.67083 11.8944L9.88197 12C10.5858 12.3519 11.4142 12.3519 12.118 12L12.3292 11.8944C12.7515 11.6833 13.2485 11.6833 13.6708 11.8944L13.882 12C14.5858 12.3519 15.4142 12.3519 16.118 12L16.3292 11.8944C16.7515 11.6833 17.2485 11.6833 17.6708 11.8944L17.882 12C18.5468 12.3324 19.3228 12.3508 20 12.0552V10.941Z"/>
</svg>
