<svg viewBox="0 0 24 24" xmlns="http://www.w3.org/2000/svg">
<path fill-rule="evenodd" clip-rule="evenodd" d="M18 21H4V20H18V21Z"/>
<path fill-rule="evenodd" clip-rule="evenodd" d="M11.5 3V3.46482C11.5 3.96635 11.2493 4.43469 10.8321 4.71289L10.2226 5.11916C10.0836 5.21189 10 5.36801 10 5.53518V6H9V5.53518C9 5.03365 9.25065 4.56531 9.66795 4.28711L10.2774 3.88084C10.4164 3.78811 10.5 3.63199 10.5 3.46482V3H11.5Z"/>
<path fill-rule="evenodd" clip-rule="evenodd" d="M14.5 3V3.46482C14.5 3.96635 14.2493 4.43469 13.8321 4.71289L13.2226 5.11916C13.0836 5.21189 13 5.36801 13 5.53518V6H12V5.53518C12 5.03365 12.2507 4.56531 12.6679 4.28711L13.2774 3.88084C13.4164 3.78811 13.5 3.63199 13.5 3.46482V3H14.5Z"/>
<path d="M18 14.123L20 13.323V10H18V9H20C20.5523 9 21 9.44772 21 10V13.323C21 13.7319 20.751 14.0996 20.3714 14.2514L18 15.2V14.123Z"/>
<path fill-rule="evenodd" clip-rule="evenodd" d="M16 8H6V16C6 17.1046 6.89543 18 8 18H14C15.1046 18 16 17.1046 16 16V8ZM5 7V16C5 17.6569 6.34315 19 8 19H14C15.6569 19 17 17.6569 17 16V7H5Z"/>
</svg>
