<svg viewBox="0 0 24 24" xmlns="http://www.w3.org/2000/svg">
<path fill-rule="evenodd" clip-rule="evenodd" d="M3 13V20C3 20.5523 3.44772 21 4 21H20C20.5523 21 21 20.5523 21 20V12.941C20.9687 11.3112 19.6372 10 18 10H6C4.36277 10 3.03187 11.3115 3.00056 12.9412L3 13ZM18 11H6C4.89543 11 4 11.8954 4 13V13.2639C4.22984 13.2639 4.45968 13.2111 4.67082 13.1056L4.88197 13C5.58579 12.6481 6.41422 12.6481 7.11804 13L7.32918 13.1056C7.75148 13.3167 8.24853 13.3167 8.67082 13.1056L8.88197 13C9.58579 12.6481 10.4142 12.6481 11.118 13L11.3292 13.1056C11.7515 13.3167 12.2485 13.3167 12.6708 13.1056L12.882 13C13.5858 12.6481 14.4142 12.6481 15.118 13L15.3292 13.1056C15.7515 13.3167 16.2485 13.3167 16.6708 13.1056L16.882 13C17.5858 12.6481 18.4142 12.6481 19.118 13L19.3292 13.1056C19.5403 13.2111 19.7702 13.2639 20 13.2639V13C20 11.8954 19.1046 11 18 11ZM20 17V14.2639C19.6169 14.2639 19.2339 14.1759 18.882 14L18.6708 13.8944C18.2485 13.6833 17.7515 13.6833 17.3292 13.8944L17.118 14C16.4142 14.3519 15.5858 14.3519 14.882 14L14.6708 13.8944C14.2485 13.6833 13.7515 13.6833 13.3292 13.8944L13.118 14C12.4142 14.3519 11.5858 14.3519 10.882 14L10.6708 13.8944C10.2485 13.6833 9.75148 13.6833 9.32918 13.8944L9.11804 14C8.41422 14.3519 7.58579 14.3519 6.88197 14L6.67082 13.8944C6.24853 13.6833 5.75148 13.6833 5.32918 13.8944L5.11804 14C4.76613 14.1759 4.38306 14.2639 4 14.2639V17H20ZM20 18H4V20H20V18Z"/>
<path fill-rule="evenodd" clip-rule="evenodd" d="M11.1339 4.49879C11.0487 4.64601 11 4.81695 11 4.99927C11 5.55196 11.4477 6 12 6C12.5523 6 13 5.55196 13 4.99927C13 4.81709 12.9514 4.64627 12.8663 4.49912L12 3L11.1339 4.49879Z"/>
<path fill-rule="evenodd" clip-rule="evenodd" d="M11.5 10V7H12.5V10H11.5Z"/>
</svg>
