<svg viewBox="0 0 24 24" xmlns="http://www.w3.org/2000/svg">
<path fill-rule="evenodd" clip-rule="evenodd" d="M17.5 11.0363L18.0412 10.7569C18.911 10.3078 19.5 9.21666 19.5 8C19.5 6.91309 19.2145 5.85736 18.7352 5.10559C18.2638 4.36619 17.6702 4 17 4C16.3298 4 15.7362 4.36619 15.2648 5.10559C14.7855 5.85736 14.5 6.91309 14.5 8C14.5 9.21666 15.089 10.3078 15.9588 10.7569L16.5 11.0363V19.5C16.5 19.7761 16.7239 20 17 20C17.2761 20 17.5 19.7761 17.5 19.5V11.0363ZM18.5 11.6454V19.5C18.5 20.3284 17.8284 21 17 21C16.1716 21 15.5 20.3284 15.5 19.5V11.6454C14.2182 10.9836 13.5 9.49182 13.5 8C13.5 5.51472 14.7909 3 17 3C19.2091 3 20.5 5.51472 20.5 8C20.5 9.49182 19.7818 10.9836 18.5 11.6454Z"/>
<path fill-rule="evenodd" clip-rule="evenodd" d="M5 7V3H4V9.42963C4 10.0983 4.3342 10.7228 4.8906 11.0937L5.5 11.5V19.5C5.5 20.3284 6.17157 21 7 21C7.82843 21 8.5 20.3284 8.5 19.5V11.5L9.1094 11.0937C9.6658 10.7228 10 10.0983 10 9.42963V3H9V7H7.5V3H6.5V7H5ZM6.5 19.5V10.9648L5.4453 10.2617C5.1671 10.0762 5 9.76399 5 9.42963V8H9V9.42963C9 9.76399 8.8329 10.0762 8.5547 10.2617L7.5 10.9648V19.5C7.5 19.7761 7.27614 20 7 20C6.72386 20 6.5 19.7761 6.5 19.5Z"/>
</svg>
