<svg viewBox="0 0 24 24" xmlns="http://www.w3.org/2000/svg">
<path fill-rule="evenodd" clip-rule="evenodd" d="M12 14C13.1046 14 14 13.1046 14 12C14 10.8954 13.1046 10 12 10C10.8954 10 10 10.8954 10 12C10 13.1046 10.8954 14 12 14ZM12 15C13.6569 15 15 13.6569 15 12C15 10.3431 13.6569 9 12 9C10.3431 9 9 10.3431 9 12C9 13.6569 10.3431 15 12 15Z"/>
<path fill-rule="evenodd" clip-rule="evenodd" d="M20 12C20 16.4183 16.4183 20 12 20C7.58172 20 4 16.4183 4 12C4 7.58172 7.58172 4 12 4C16.4183 4 20 7.58172 20 12ZM18.3459 14.9586C17.231 17.3459 14.8087 19 12 19C11.7912 19 11.5846 18.9909 11.3804 18.973C11.7347 18.7467 12.0325 18.4309 12.2383 18.0469L12.4594 17.6343C12.6459 17.2863 13.0335 17.0958 13.4229 17.1607C14.3514 17.3155 15.2552 16.7748 15.558 15.8836L15.5773 15.8268C15.7302 15.3767 16.1809 15.0984 16.6518 15.1632L16.9408 15.2029C17.4329 15.2707 17.9223 15.1797 18.3459 14.9586ZM18.9607 12.7463L18.3833 13.6207C18.098 14.0528 17.5901 14.2829 17.0771 14.2123L16.7881 14.1725C15.8425 14.0424 14.9375 14.6013 14.6305 15.5051L14.6112 15.5619C14.466 15.9893 14.0325 16.2485 13.5873 16.1743C12.7751 16.039 11.9669 16.4362 11.578 17.162L11.3569 17.5745C11.0957 18.0619 10.5877 18.366 10.0348 18.366L9.08495 18.366C6.6743 17.2604 5 14.8257 5 12C5 8.13401 8.13401 5 12 5C15.866 5 19 8.13401 19 12C19 12.2521 18.9867 12.5011 18.9607 12.7463Z"/>
<path fill-rule="evenodd" clip-rule="evenodd" d="M14.8536 7.35356L13.8536 8.35356L13.1465 7.64645L14.1465 6.64645L14.8536 7.35356Z"/>
<path fill-rule="evenodd" clip-rule="evenodd" d="M8.35356 7.64645L9.35356 8.64645L8.64645 9.35356L7.64645 8.35356L8.35356 7.64645Z"/>
<path fill-rule="evenodd" clip-rule="evenodd" d="M16.8536 10.6465L17.8536 11.6465L17.1465 12.3536L16.1465 11.3536L16.8536 10.6465Z"/>
<path fill-rule="evenodd" clip-rule="evenodd" d="M8.85356 14.8536L7.85356 15.8536L7.14645 15.1465L8.14645 14.1465L8.85356 14.8536Z"/>
</svg>
