<svg viewBox="0 0 24 24" xmlns="http://www.w3.org/2000/svg">
<path fill-rule="evenodd" clip-rule="evenodd" d="M12 20C15.3137 20 18 17.3137 18 14C18 10.6863 15.3137 8 12 8C8.68629 8 6 10.6863 6 14C6 17.3137 8.68629 20 12 20ZM12 21C15.866 21 19 17.866 19 14C19 10.134 15.866 7 12 7C8.13401 7 5 10.134 5 14C5 17.866 8.13401 21 12 21Z"/>
<path fill-rule="evenodd" clip-rule="evenodd" d="M12 7L11.7121 4.98491C11.5864 4.10496 10.895 3.41357 10.0151 3.28786L7.99999 2.99999L8.28786 5.01507C8.41357 5.89502 9.10496 6.58642 9.98491 6.71212L12 7ZM10.8215 5.82148L10.7222 5.12633C10.6593 4.68636 10.3136 4.34066 9.87365 4.27781L9.17851 4.1785L9.27781 4.87365C9.34067 5.31363 9.68636 5.65932 10.1263 5.72218L10.8215 5.82148Z"/>
<path d="M12.2385 5.80745L12 7.00001L13.1926 6.7615C13.9843 6.60316 14.6032 5.98429 14.7615 5.19256L15 4L13.8074 4.23852C13.0157 4.39686 12.3969 5.01573 12.2385 5.80745Z"/>
</svg>
