<svg viewBox="0 0 24 24" xmlns="http://www.w3.org/2000/svg">
<path fill-rule="evenodd" clip-rule="evenodd" d="M20.2222 12.9613C20.2489 13.3784 19.9822 13.7521 19.5896 13.8956L4.63605 19.364L10.1043 4.41038C10.2479 4.01781 10.6216 3.75107 11.0387 3.77778C15.9777 4.09408 19.9059 8.02232 20.2222 12.9613ZM10.6179 5.91785L11.0341 4.77972C15.4235 5.08994 18.9101 8.57654 19.2203 12.9659L18.0821 13.3821C17.5251 9.50184 14.4982 6.47493 10.6179 5.91785ZM10.2659 6.88041L6.31466 17.6853L17.1196 13.7341C16.698 10.1222 13.8778 7.30201 10.2659 6.88041Z"/>
<path fill-rule="evenodd" clip-rule="evenodd" d="M14.182 11.9393C13.9867 11.7441 13.6701 11.7441 13.4749 11.9393C13.2796 12.1346 13.2796 12.4512 13.4749 12.6464C13.6701 12.8417 13.9867 12.8417 14.182 12.6464C14.3772 12.4512 14.3772 12.1346 14.182 11.9393ZM14.8891 11.2322C14.3033 10.6464 13.3536 10.6464 12.7678 11.2322C12.182 11.818 12.182 12.7678 12.7678 13.3536C13.3536 13.9393 14.3033 13.9393 14.8891 13.3536C15.4749 12.7678 15.4749 11.818 14.8891 11.2322Z"/>
<path fill-rule="evenodd" clip-rule="evenodd" d="M10.6464 13.3536C10.2559 12.963 9.62275 12.963 9.23222 13.3536C8.8417 13.7441 8.8417 14.3773 9.23222 14.7678C9.62275 15.1583 10.2559 15.1583 10.6464 14.7678C11.037 14.3773 11.037 13.7441 10.6464 13.3536Z"/>
<path fill-rule="evenodd" clip-rule="evenodd" d="M11.7071 9.46446C11.3166 9.07394 10.6834 9.07394 10.2929 9.46446C9.90237 9.85499 9.90237 10.4882 10.2929 10.8787C10.6834 11.2692 11.3166 11.2692 11.7071 10.8787C12.0976 10.4882 12.0976 9.85499 11.7071 9.46446Z"/>
</svg>
