<svg viewBox="0 0 24 24" xmlns="http://www.w3.org/2000/svg">
<path fill-rule="evenodd" clip-rule="evenodd" d="M7.29998 11.8985H6.37507C5.04232 11.8985 4.00009 12.9494 4.00009 14.1993C4.00009 15.4491 5.04232 16.5 6.37507 16.5H17.0625C18.2636 16.5 19.3305 15.7928 19.7794 14.7328C20.2267 13.6767 19.9826 12.4578 19.1475 11.6411C18.6157 11.121 17.8693 10.8209 17.1216 10.7978L16.4952 10.7784L16.2395 10.2063C15.4383 8.4134 13.5304 7.3169 11.5109 7.52525C9.49266 7.73346 7.86623 9.19234 7.46637 11.1033L7.29998 11.8985ZM6.48757 10.8985C6.97913 8.54928 8.96994 6.78207 11.4083 6.53052C13.8466 6.27898 16.1706 7.60104 17.1525 9.79825C18.1339 9.82862 19.124 10.2193 19.8467 10.9261C20.9728 12.0275 21.3097 13.6838 20.7003 15.1228C20.0908 16.5618 18.6551 17.5 17.0625 17.5H6.37507C4.51112 17.5 3.00009 16.0222 3.00009 14.1993C3.00009 12.3763 4.51112 10.8985 6.37507 10.8985H6.48757Z"/>
</svg>
