<svg viewBox="0 0 24 24" xmlns="http://www.w3.org/2000/svg">
<path d="M5.62498 10.5988H6.53316L6.69327 9.79386C6.99359 8.28402 8.20153 7.17607 9.64757 7.01914C10.6761 6.90752 11.6816 7.29233 12.3908 8.03098C12.8191 7.98736 13.2439 7.99025 13.6595 8.03625C12.7732 6.64184 11.1901 5.84587 9.53968 6.02497C7.64322 6.23079 6.0948 7.67668 5.71248 9.59877H5.62498C4.17525 9.59877 3 10.8079 3 12.2994C3 13.2727 3.50048 14.1258 4.25112 14.601C4.36975 14.283 4.52767 13.9841 4.71899 13.7103C4.29044 13.4094 4 12.899 4 12.2994C4 11.3332 4.75412 10.5988 5.62498 10.5988Z"/>
<path fill-rule="evenodd" clip-rule="evenodd" d="M8.9161 13.9986H7.99998C6.89564 13.9986 6 14.8942 6 15.9993C6 17.1045 6.89564 18 7.99998 18H17.4999C18.5109 18 19.4226 17.3908 19.8096 16.4563C20.1966 15.5217 19.9826 14.446 19.2676 13.7308C18.8146 13.2777 18.1804 13.0179 17.5483 12.9979L16.9166 12.9779L16.6636 12.3988C15.9653 10.8007 14.3126 9.8393 12.5788 10.0222C10.8451 10.2052 9.42928 11.4903 9.07969 13.1991L8.9161 13.9986ZM8.09998 12.9986C8.53692 10.863 10.3065 9.25643 12.4739 9.02775C14.6413 8.79907 16.7071 10.0009 17.5799 11.9984C18.4523 12.026 19.3324 12.3812 19.9748 13.0238C20.9758 14.025 21.2752 15.5307 20.7335 16.8389C20.1917 18.1471 18.9155 19 17.4999 19H7.99998C6.34314 19 5 17.6565 5 15.9993C5 14.3421 6.34314 12.9986 7.99998 12.9986H8.09998Z"/>
</svg>
