<svg viewBox="0 0 24 24" xmlns="http://www.w3.org/2000/svg">
<path fill-rule="evenodd" clip-rule="evenodd" d="M5.71877 5.05592L4.9964 3.80475L5.86242 3.30475L6.58479 4.55592L5.71877 5.05592Z"/>
<path fill-rule="evenodd" clip-rule="evenodd" d="M3.67122 8.35962L2.27145 7.98456L2.53027 7.01863L3.93004 7.3937L3.67122 8.35962Z"/>
<path fill-rule="evenodd" clip-rule="evenodd" d="M4.55138 12.1446L3.3002 12.867L2.8002 12.001L4.05138 11.2786L4.55138 12.1446Z"/>
<path fill-rule="evenodd" clip-rule="evenodd" d="M14.5586 6.36693L13.3094 7.08813L12.8094 6.22211L14.0586 5.50091L14.5586 6.36693Z"/>
<path fill-rule="evenodd" clip-rule="evenodd" d="M10.8447 3.03484L10.4714 4.4281L9.50548 4.16928L9.8788 2.77603L10.8447 3.03484Z"/>
<path d="M6.8725 11.0667C6.69968 10.9004 6.54706 10.7073 6.42114 10.4892C5.6999 9.23999 6.12792 7.64262 7.37714 6.92138C8.62636 6.20015 10.2237 6.62816 10.945 7.87738C10.9965 7.9667 11.0422 8.05781 11.0822 8.15024C11.3191 8.09945 11.5604 8.06107 11.8055 8.03579C11.904 8.02563 12.0023 8.01767 12.1004 8.01185C12.0259 7.79544 11.9297 7.583 11.811 7.37738C10.8136 5.64987 8.60465 5.05798 6.87714 6.05536C5.14962 7.05274 4.55773 9.2617 5.55511 10.9892C5.77937 11.3776 6.06488 11.7086 6.39239 11.9771C6.52866 11.6593 6.68952 11.3551 6.8725 11.0667Z"/>
<path fill-rule="evenodd" clip-rule="evenodd" d="M7.79989 14.3983H6.87498C5.54223 14.3983 4.5 15.4492 4.5 16.699C4.5 17.9488 5.54223 18.9998 6.87498 18.9998H17.5624C18.7635 18.9998 19.8304 18.2926 20.2793 17.2326C20.7266 16.1764 20.4825 14.9576 19.6474 14.1408C19.1157 13.6208 18.3692 13.3207 17.6215 13.2975L16.9951 13.2781L16.7394 12.706C15.9382 10.9132 14.0303 9.81666 12.0108 10.025C9.99256 10.2332 8.36613 11.6921 7.96628 13.6031L7.79989 14.3983ZM6.98748 13.3983C7.47903 11.049 9.46985 9.28183 11.9082 9.03028C14.3465 8.77873 16.6705 10.1008 17.6524 12.298C18.6338 12.3284 19.6239 12.7191 20.3466 13.4259C21.4727 14.5272 21.8096 16.1836 21.2002 17.6225C20.5907 19.0615 19.155 19.9998 17.5624 19.9998H6.87498C5.01103 19.9998 3.5 18.522 3.5 16.699C3.5 14.8761 5.01103 13.3983 6.87498 13.3983H6.98748Z"/>
</svg>
