<svg viewBox="0 0 24 24" xmlns="http://www.w3.org/2000/svg">
<path fill-rule="evenodd" clip-rule="evenodd" d="M16.4952 9.27839L16.2395 8.70626C15.4383 6.9134 13.5304 5.8169 11.5109 6.02525C9.49266 6.23346 7.86623 7.69234 7.46637 9.60331L7.29998 10.3985H6.37507C5.04232 10.3985 4.00009 11.4494 4.00009 12.6993C4.00009 13.8646 4.90485 14.856 6.10836 14.9857C6.10018 14.9849 6.10158 14.9849 6.11612 14.9855C6.13238 14.9862 6.16506 14.9876 6.21917 14.9891C6.30265 14.9914 6.4071 14.9934 6.51459 14.9951C6.73056 14.9984 6.94395 15 7 15V16C6.87364 16 6.12396 15.9932 6.0012 15.98C4.31319 15.798 3.00009 14.3986 3.00009 12.6993C3.00009 10.8763 4.51112 9.3985 6.37507 9.3985H6.48757C6.97913 7.04928 8.96994 5.28207 11.4083 5.03052C13.8466 4.77898 16.1706 6.10104 17.1525 8.29825C18.1339 8.32862 19.124 8.71933 19.8467 9.42615C20.9728 10.5275 21.3097 12.1838 20.7003 13.6228C20.0908 15.0618 18.5925 16 17 16V15C18.2191 15 19.3373 14.2768 19.7794 13.2328C20.2267 12.1767 19.9826 10.9578 19.1475 10.1411C18.6157 9.621 17.8693 9.32091 17.1216 9.29777L16.4952 9.27839Z"/>
<path fill-rule="evenodd" clip-rule="evenodd" d="M16 16H8V15H16V16Z"/>
<path fill-rule="evenodd" clip-rule="evenodd" d="M6 17H11.5V18H6V17Z"/>
<path fill-rule="evenodd" clip-rule="evenodd" d="M12.5 17H18V18H12.5V17Z"/>
<path fill-rule="evenodd" clip-rule="evenodd" d="M9 19H15V20H9V19Z"/>
</svg>
