<svg viewBox="0 0 24 24" xmlns="http://www.w3.org/2000/svg">
<path d="M13 7.37746C13 6.4513 13.3478 5.60548 13.9206 4.96446C14.19 7.61136 16.4282 9.79498 19.0465 10.0699C18.507 10.5556 17.821 10.8814 17.0634 10.9733C17.145 11.0973 17.2226 11.2247 17.296 11.3551C17.668 11.4122 18.0365 11.5106 18.3915 11.6494C19.2054 11.3121 19.9021 10.7489 20.4034 10.0381C20.655 9.68129 20.8573 9.28728 21.0006 8.86595C20.6047 9.00049 20.2069 9.07396 19.8144 9.09326C17.1625 9.22365 14.7574 6.8805 14.9025 4.18844C14.9236 3.79748 14.9984 3.39917 15.1341 3C14.7116 3.14363 14.3165 3.34672 13.9588 3.5993C12.7738 4.43621 12 5.81647 12 7.37746C12 7.59619 12.0152 7.81138 12.0446 8.02202C12.4 8.05082 12.75 8.10761 13.0917 8.19077C13.0317 7.92933 13 7.65709 13 7.37746Z"/>
<path fill-rule="evenodd" clip-rule="evenodd" d="M6.79989 14.3985H5.87498C4.54223 14.3985 3.5 15.4494 3.5 16.6993C3.5 17.9491 4.54223 19 5.87498 19H16.5624C17.7635 19 18.8304 18.2928 19.2793 17.2328C19.7266 16.1767 19.4825 14.9578 18.6474 14.1411C18.1157 13.621 17.3692 13.3209 16.6215 13.2978L15.9951 13.2784L15.7394 12.7063C14.9382 10.9134 13.0303 9.8169 11.0108 10.0252C8.99256 10.2335 7.36613 11.6923 6.96628 13.6033L6.79989 14.3985ZM5.98748 13.3985C6.47903 11.0493 8.46985 9.28207 10.9082 9.03052C13.3465 8.77898 15.6705 10.101 16.6524 12.2983C17.6338 12.3286 18.6239 12.7193 19.3466 13.4261C20.4727 14.5275 20.8096 16.1838 20.2002 17.6228C19.5907 19.0618 18.155 20 16.5624 20H5.87498C4.01103 20 2.5 18.5222 2.5 16.6993C2.5 14.8763 4.01103 13.3985 5.87498 13.3985H5.98748Z"/>
</svg>
