<svg viewBox="0 0 24 24" xmlns="http://www.w3.org/2000/svg">
<path fill-rule="evenodd" clip-rule="evenodd" d="M16.347 9.35463C14.2437 9.68954 12.625 11.4765 12.625 13.6491H13.625C13.625 11.8089 15.1535 10.2982 17.0625 10.2982C18.9715 10.2982 20.5 11.8089 20.5 13.6491C20.5 15.4893 18.9715 17 17.0625 17H6.375C4.77664 17 3.5 15.7356 3.5 14.1992C3.5 12.6629 4.77664 11.3985 6.375 11.3985H6.89371L6.9769 11.0009C7.42261 8.8708 9.23124 7.25775 11.4595 7.02787C13.4356 6.82401 15.3229 7.75139 16.347 9.35463ZM17.4765 9.31698C16.3383 7.08514 13.901 5.77069 11.3569 6.03315C8.84356 6.29244 6.75832 8.0361 6.09289 10.4084C4.09344 10.55 2.5 12.1837 2.5 14.1992C2.5 16.3088 4.24544 18 6.375 18H17.0625C19.5027 18 21.5 16.0625 21.5 13.6491C21.5 11.3738 19.7246 9.52137 17.4765 9.31698Z"/>
</svg>
