<svg viewBox="0 0 24 24" xmlns="http://www.w3.org/2000/svg">
<path d="M7.29998 10.3985L7.46637 9.60331C7.86623 7.69234 9.49266 6.23346 11.5109 6.02525C13.5304 5.8169 15.4383 6.9134 16.2395 8.70626L16.4952 9.27839L17.1216 9.29777C17.8693 9.32091 18.6157 9.621 19.1475 10.1411C19.9826 10.9578 20.2267 12.1767 19.7794 13.2328C19.3305 14.2928 18.2636 15 17.0625 15H16.155L16.7329 16H17.0625C18.6551 16 20.0908 15.0618 20.7003 13.6228C21.3097 12.1838 20.9728 10.5275 19.8467 9.42615C19.124 8.71933 18.1339 8.32862 17.1525 8.29825C16.1706 6.10104 13.8466 4.77898 11.4083 5.03052C8.96994 5.28207 6.97913 7.04928 6.48757 9.3985H6.37507C4.51112 9.3985 3.00009 10.8763 3.00009 12.6993C3.00009 14.5222 4.51112 16 6.37507 16H7.26711L7.84492 15H6.37507C5.04232 15 4.00009 13.9491 4.00009 12.6993C4.00009 11.4494 5.04232 10.3985 6.37507 10.3985H7.29998Z"/>
<path d="M10.155 15H13.8449L13.2671 16H10.7329L10.155 15Z"/>
<path fill-rule="evenodd" clip-rule="evenodd" d="M8.13385 16.4988C8.04872 16.646 8 16.8169 8 16.9993C8 17.552 8.44772 18 9 18C9.55228 18 10 17.552 10 16.9993C10 16.8171 9.95135 16.6463 9.86634 16.4991L9 15L8.13385 16.4988Z"/>
<path fill-rule="evenodd" clip-rule="evenodd" d="M14.1339 16.4988C14.0487 16.646 14 16.8169 14 16.9993C14 17.552 14.4477 18 15 18C15.5523 18 16 17.552 16 16.9993C16 16.8171 15.9514 16.6463 15.8663 16.4991L15 15L14.1339 16.4988Z"/>
<path fill-rule="evenodd" clip-rule="evenodd" d="M11.1339 19.4988C11.0487 19.646 11 19.8169 11 19.9993C11 20.552 11.4477 21 12 21C12.5523 21 13 20.552 13 19.9993C13 19.8171 12.9514 19.6463 12.8663 19.4991L12 18L11.1339 19.4988Z"/>
</svg>
