<svg viewBox="0 0 24 24" xmlns="http://www.w3.org/2000/svg">
<path fill-rule="evenodd" clip-rule="evenodd" d="M7.09181 11.4931C6.60942 12.3274 6.33332 13.296 6.33332 14.3292C6.33332 17.4611 8.87038 20 12 20C15.1296 20 17.6667 17.4611 17.6667 14.3292C17.6667 13.2968 17.391 12.3289 16.9093 11.495L12 3L7.09297 11.4938L7.09492 11.4878C7.09388 11.4896 7.09285 11.4914 7.09181 11.4931ZM7.9577 11.9934C7.56082 12.6796 7.33332 13.4763 7.33332 14.3292C7.33332 16.9095 9.42335 19 12 19C14.5766 19 16.6667 16.9095 16.6667 14.3292C16.6667 13.4771 16.4396 12.6812 16.0434 11.9954C16.0434 11.9954 16.0435 11.9954 16.0434 11.9954L12.0001 4.99881L7.95886 11.9941L7.9577 11.9934Z"/>
</svg>
