<svg viewBox="0 0 24 24" xmlns="http://www.w3.org/2000/svg">
<path d="M7.67278 9C8.1107 8.14156 8.74308 7.39869 9.51207 6.82965C9.47434 7.57375 9.5458 8.30187 9.71112 9H10.747C10.5037 8.11016 10.4345 7.16145 10.5823 6.19336C10.6427 5.79791 10.7393 5.39923 10.875 5C10.4617 5.1405 10.0652 5.31758 9.68959 5.52737C8.30107 6.30282 7.19616 7.52526 6.56958 9H7.67278Z"/>
<path d="M8.6339 16H7.34661C8.65164 17.8167 10.7829 19 13.1905 19C15.8915 19 18.2448 17.5107 19.4737 15.3084C19.683 14.9334 19.8597 14.5376 20 14.125C19.603 14.2599 19.2047 14.3554 18.8082 14.4142C16.6528 14.7341 14.5501 13.9719 13 12.589V13.8724C14.4761 14.95 16.2893 15.5657 18.1767 15.4793C17.0491 17.0087 15.2348 18 13.1905 18C11.3879 18 9.76526 17.2296 8.6339 16Z"/>
<path fill-rule="evenodd" clip-rule="evenodd" d="M4 10H11V11H4V10Z"/>
<path fill-rule="evenodd" clip-rule="evenodd" d="M7 13H3V12H7V13Z"/>
<path fill-rule="evenodd" clip-rule="evenodd" d="M12 13H8V12H12V13Z"/>
<path fill-rule="evenodd" clip-rule="evenodd" d="M4 14H11V15H4V14Z"/>
</svg>
