<svg viewBox="0 0 24 24" xmlns="http://www.w3.org/2000/svg">
<path d="M7.29998 10.3985H6.37507C5.04232 10.3985 4.00009 11.4494 4.00009 12.6993C4.00009 13.9491 5.04232 15 6.37507 15H7.71049L7.33549 16H6.37507C4.51112 16 3.00009 14.5222 3.00009 12.6993C3.00009 10.8763 4.51112 9.3985 6.37507 9.3985H6.48757C6.97913 7.04928 8.96994 5.28207 11.4083 5.03052C13.8466 4.77898 16.1706 6.10104 17.1525 8.29825C18.1339 8.32862 19.124 8.71933 19.8467 9.42615C20.9728 10.5275 21.3097 12.1838 20.7003 13.6228C20.0908 15.0618 18.6551 16 17.0625 16H16.5395L16.9045 15H17.0625C18.2636 15 19.3305 14.2928 19.7794 13.2328C20.2267 12.1767 19.9826 10.9578 19.1475 10.1411C18.6157 9.621 17.8693 9.32091 17.1216 9.29777L16.4952 9.27839L16.2395 8.70626C15.4383 6.9134 13.5304 5.8169 11.5109 6.02525C9.49266 6.23346 7.86623 7.69234 7.46637 9.60331L7.29998 10.3985Z"/>
<path d="M11.6535 18L12.7785 15H13.8465L12.7215 18H11.6535Z"/>
<path d="M7.6535 18L8.77849 15H9.84649L8.7215 18H7.6535Z"/>
<path d="M10.0285 17L10.7785 15H11.8465L11.0965 17H10.0285Z"/>
<path d="M14.0285 17L14.7785 15H15.8465L15.0965 17H14.0285Z"/>
<path fill-rule="evenodd" clip-rule="evenodd" d="M8 19.5C8.27614 19.5 8.5 19.2761 8.5 19C8.5 18.7239 8.27614 18.5 8 18.5C7.72386 18.5 7.5 18.7239 7.5 19C7.5 19.2761 7.72386 19.5 8 19.5Z"/>
<path fill-rule="evenodd" clip-rule="evenodd" d="M12 19.5C12.2761 19.5 12.5 19.2761 12.5 19C12.5 18.7239 12.2761 18.5 12 18.5C11.7239 18.5 11.5 18.7239 11.5 19C11.5 19.2761 11.7239 19.5 12 19.5Z"/>
<path fill-rule="evenodd" clip-rule="evenodd" d="M10 18.5C10.2761 18.5 10.5 18.2761 10.5 18C10.5 17.7239 10.2761 17.5 10 17.5C9.72386 17.5 9.5 17.7239 9.5 18C9.5 18.2761 9.72386 18.5 10 18.5Z"/>
<path fill-rule="evenodd" clip-rule="evenodd" d="M14 18.5C14.2761 18.5 14.5 18.2761 14.5 18C14.5 17.7239 14.2761 17.5 14 17.5C13.7239 17.5 13.5 17.7239 13.5 18C13.5 18.2761 13.7239 18.5 14 18.5Z"/>
</svg>
