<svg viewBox="0 0 24 24" xmlns="http://www.w3.org/2000/svg">
<path d="M20 12C20 16.4183 16.4183 20 12 20C11.0671 20 10.1714 19.8403 9.3389 19.5468C9.12434 19.8439 8.86433 20.106 8.56903 20.3229C9.6264 20.7593 10.7851 21 12 21C16.9706 21 21 16.9706 21 12C21 7.02944 16.9706 3 12 3C7.02944 3 3 7.02944 3 12C3 13.2049 3.23677 14.3545 3.66633 15.4048L4.32509 14.2648C4.11353 13.5467 4 12.7866 4 12C4 7.58172 7.58172 4 12 4C16.4183 4 20 7.58172 20 12Z"/>
<path d="M18 12C18 13.6569 17.3284 15.1569 16.2426 16.2426L16.9497 16.9497C18.2165 15.683 19 13.933 19 12C19 8.13401 15.866 5 12 5C8.13401 5 5 8.13401 5 12C5 12.3323 5.02316 12.6592 5.06795 12.9792L6.04094 11.2954C6.38972 8.31372 8.92466 6 12 6C15.3137 6 18 8.68629 18 12Z"/>
<path fill-rule="evenodd" clip-rule="evenodd" d="M4.33463 16.247C4.12181 16.615 4 17.0424 4 17.4982C4 18.8799 5.11929 20 6.5 20C7.88071 20 9 18.8799 9 17.4982C9 17.0427 8.87838 16.6157 8.66586 16.2478L6.5 12.5L4.33463 16.247ZM5.20052 16.7472C5.07321 16.9672 5 17.2226 5 17.4982C5 18.3283 5.67226 19 6.5 19C7.32774 19 8 18.3283 8 17.4982C8 17.223 7.927 16.968 7.80004 16.7482C7.80001 16.7481 7.80006 16.7482 7.80004 16.7482L6.50014 14.4988L5.20052 16.7472Z"/>
<path d="M12.9661 11.741C12.9882 11.8236 13 11.9104 13 12C13 12.5523 12.5523 13 12 13C11.4477 13 11 12.5523 11 12C11 11.4477 11.4477 11 12 11C12.0896 11 12.1764 11.0118 12.259 11.0339L15.1465 8.14642L15.8536 8.85353L12.9661 11.741Z"/>
</svg>
