<svg viewBox="0 0 24 24" xmlns="http://www.w3.org/2000/svg">
<path fill-rule="evenodd" clip-rule="evenodd" d="M8.51207 6.82965C6.98759 7.95774 6 9.76903 6 11.8095C6 15.2284 8.77157 18 12.1905 18C14.2348 18 16.0491 17.0087 17.1767 15.4793C12.4953 15.6936 8.2708 11.5884 8.51207 6.82965ZM8.68959 5.52737C6.48843 6.75666 5 9.10927 5 11.8095C5 15.7807 8.21929 19 12.1905 19C14.8915 19 17.2448 17.5107 18.4737 15.3084C18.683 14.9334 18.8597 14.5376 19 14.125C18.603 14.2599 18.2047 14.3554 17.8082 14.4142C13.2186 15.0953 8.86816 10.8705 9.58232 6.19336C9.6427 5.79791 9.73929 5.39923 9.875 5C9.46167 5.1405 9.06525 5.31758 8.68959 5.52737Z"/>
</svg>
