<svg viewBox="0 0 24 24" xmlns="http://www.w3.org/2000/svg">
<path fill-rule="evenodd" clip-rule="evenodd" d="M13.5 5.5L14 6.5L14.5 5.5L15.5 5L14.5 4.5L14 3.5L13.5 4.5L12.5 5L13.5 5.5Z"/>
<path fill-rule="evenodd" clip-rule="evenodd" d="M16.828 11.172L17.5 12.5L18.172 11.172L19.5 10.5L18.172 9.828L17.5 8.5L16.828 9.828L15.5 10.5L16.828 11.172Z"/>
<path fill-rule="evenodd" clip-rule="evenodd" d="M7.51207 7.82965C5.98759 8.95774 5 10.769 5 12.8095C5 16.2284 7.77157 19 11.1905 19C13.2348 19 15.0491 18.0087 16.1767 16.4793C11.4953 16.6936 7.2708 12.5884 7.51207 7.82965ZM7.68959 6.52737C5.48843 7.75666 4 10.1093 4 12.8095C4 16.7807 7.21929 20 11.1905 20C13.8915 20 16.2448 18.5107 17.4737 16.3084C17.683 15.9334 17.8597 15.5376 18 15.125C17.603 15.2599 17.2047 15.3554 16.8082 15.4142C12.2186 16.0953 7.86816 11.8705 8.58232 7.19336C8.6427 6.79791 8.73929 6.39923 8.875 6C8.46167 6.1405 8.06525 6.31758 7.68959 6.52737Z"/>
</svg>
