<svg viewBox="0 0 24 24" xmlns="http://www.w3.org/2000/svg">
<path fill-rule="evenodd" clip-rule="evenodd" d="M5.71878 5.05592L4.99641 3.80475L5.86244 3.30475L6.58481 4.55592L5.71878 5.05592Z"/>
<path fill-rule="evenodd" clip-rule="evenodd" d="M3.67122 8.35962L2.27145 7.98456L2.53027 7.01863L3.93004 7.3937L3.67122 8.35962Z"/>
<path fill-rule="evenodd" clip-rule="evenodd" d="M4.55138 12.1446L3.3002 12.867L2.8002 12.001L4.05138 11.2786L4.55138 12.1446Z"/>
<path fill-rule="evenodd" clip-rule="evenodd" d="M14.5586 6.36693L13.3094 7.08813L12.8094 6.22211L14.0586 5.50091L14.5586 6.36693Z"/>
<path fill-rule="evenodd" clip-rule="evenodd" d="M10.8447 3.03484L10.4714 4.4281L9.50548 4.16928L9.8788 2.77603L10.8447 3.03484Z"/>
<path d="M11.0449 8.0678C11.1313 8.05549 11.2182 8.04481 11.3056 8.03579C11.5707 8.00845 11.8347 7.99696 12.0965 8.00069C12.0226 7.78814 11.9277 7.57947 11.811 7.37738C10.8136 5.64987 8.60468 5.05798 6.87717 6.05536C5.14965 7.05274 4.55777 9.2617 5.55514 10.9892C5.69557 11.2324 5.86001 11.4531 6.04374 11.6501C6.20149 11.3327 6.38443 11.0305 6.58987 10.7458C6.52941 10.6646 6.47303 10.579 6.42117 10.4892C5.69993 9.23999 6.12795 7.64262 7.37717 6.92138C8.62639 6.20015 10.2238 6.62816 10.945 7.87738C10.9812 7.94003 11.0144 8.00356 11.0449 8.0678Z"/>
<path d="M7.29998 14.3985H6.37507C5.04232 14.3985 4.00009 15.4494 4.00009 16.6993C4.00009 17.9491 5.04232 19 6.37507 19H7.71049L7.33549 20H6.37507C4.51112 20 3.00009 18.5222 3.00009 16.6993C3.00009 14.8763 4.51112 13.3985 6.37507 13.3985H6.48757C6.97913 11.0493 8.96994 9.28207 11.4083 9.03052C13.8466 8.77898 16.1706 10.101 17.1525 12.2983C18.1339 12.3286 19.124 12.7193 19.8467 13.4261C20.9728 14.5275 21.3097 16.1838 20.7003 17.6228C20.0908 19.0618 18.6551 20 17.0625 20H16.5395L16.9045 19H17.0625C18.2636 19 19.3305 18.2928 19.7794 17.2328C20.2267 16.1767 19.9826 14.9578 19.1475 14.1411C18.6157 13.621 17.8693 13.3209 17.1216 13.2978L16.4952 13.2784L16.2395 12.7063C15.4383 10.9134 13.5304 9.8169 11.5109 10.0252C9.49266 10.2335 7.86623 11.6923 7.46637 13.6033L7.29998 14.3985Z"/>
<path d="M7.6535 22L8.77849 19H9.84649L8.7215 22H7.6535Z"/>
<path d="M10.0285 21L10.7785 19H11.8465L11.0965 21H10.0285Z"/>
<path d="M11.6535 22L12.7785 19H13.8465L12.7215 22H11.6535Z"/>
<path d="M14.0285 21L14.7785 19H15.8465L15.0965 21H14.0285Z"/>
</svg>
