<svg viewBox="0 0 24 24" xmlns="http://www.w3.org/2000/svg">
<path d="M7.29998 11.3985H6.37507C5.04232 11.3985 4.00009 12.4494 4.00009 13.6993C4.00009 14.9491 5.04232 16 6.37507 16H7.71048L7.33549 17H6.37507C4.51112 17 3.00009 15.5222 3.00009 13.6993C3.00009 11.8763 4.51112 10.3985 6.37507 10.3985H6.48757C6.97913 8.04928 8.96994 6.28207 11.4083 6.03052C13.8466 5.77898 16.1706 7.10104 17.1525 9.29825C18.1339 9.32862 19.124 9.71933 19.8467 10.4261C20.9728 11.5275 21.3097 13.1838 20.7003 14.6228C20.0908 16.0618 18.6551 17 17.0625 17H16.4713L16.8238 16H17.0625C18.2636 16 19.3305 15.2928 19.7794 14.2328C20.2267 13.1767 19.9826 11.9578 19.1475 11.1411C18.6157 10.621 17.8693 10.3209 17.1216 10.2978L16.4952 10.2784L16.2395 9.70626C15.4383 7.9134 13.5304 6.8169 11.5109 7.02525C9.49266 7.23345 7.86623 8.69234 7.46637 10.6033L7.29998 11.3985Z"/>
<path d="M7.6535 19L8.77849 16H9.84649L8.7215 19H7.6535Z"/>
<path d="M10.0285 18L10.7785 16H11.8465L11.0965 18H10.0285Z"/>
<path fill-rule="evenodd" clip-rule="evenodd" d="M11.6535 19L12.7785 16H13.8465L12.7215 19H11.6535Z"/>
<path d="M14.0285 18L14.7785 16H15.8465L15.0965 18H14.0285Z"/>
</svg>
