<svg viewBox="0 0 24 24" xmlns="http://www.w3.org/2000/svg">
<path fill-rule="evenodd" clip-rule="evenodd" d="M12 7.5C7.30558 7.5 3.5 11.3056 3.5 16H2.5C2.5 10.7533 6.75329 6.5 12 6.5C17.2467 6.5 21.5 10.7533 21.5 16H20.5C20.5 11.3056 16.6944 7.5 12 7.5Z"/>
<path fill-rule="evenodd" clip-rule="evenodd" d="M12 10.5C8.96243 10.5 6.5 12.9624 6.5 16H5.5C5.5 12.4101 8.41015 9.5 12 9.5C15.5899 9.5 18.5 12.4101 18.5 16H17.5C17.5 12.9624 15.0376 10.5 12 10.5Z"/>
<path fill-rule="evenodd" clip-rule="evenodd" d="M12 13.5C10.6193 13.5 9.5 14.6193 9.5 16H8.5C8.5 14.067 10.067 12.5 12 12.5C13.933 12.5 15.5 14.067 15.5 16H14.5C14.5 14.6193 13.3807 13.5 12 13.5Z"/>
</svg>
