<svg viewBox="0 0 24 24" xmlns="http://www.w3.org/2000/svg">
<path d="M13 7.37746C13 6.4513 13.3478 5.60548 13.9206 4.96446C14.19 7.61136 16.4282 9.79498 19.0465 10.0699C18.6148 10.4586 18.0893 10.7448 17.5083 10.8908C17.6102 11.0407 17.7063 11.1956 17.7961 11.3551C18.0721 11.3975 18.3462 11.4626 18.6143 11.55C19.3327 11.2066 19.9485 10.6832 20.4034 10.0381C20.655 9.68129 20.8573 9.28728 21.0006 8.86595C20.6047 9.00049 20.2069 9.07396 19.8144 9.09326C17.1625 9.22365 14.7574 6.8805 14.9025 4.18844C14.9236 3.79748 14.9984 3.39917 15.1341 3C14.7116 3.14363 14.3165 3.34672 13.9588 3.5993C12.7738 4.43621 12 5.81647 12 7.37746C12 7.58862 12.0142 7.79648 12.0416 8.00013C12.3887 8.00225 12.7321 8.03114 13.0691 8.08533C13.0238 7.8564 13 7.6197 13 7.37746Z"/>
<path d="M7.29998 14.3985H6.37507C5.04232 14.3985 4.00009 15.4494 4.00009 16.6993C4.00009 17.9491 5.04232 19 6.37507 19H7.71049L7.33549 20H6.37507C4.51112 20 3.00009 18.5222 3.00009 16.6993C3.00009 14.8763 4.51112 13.3985 6.37507 13.3985H6.48757C6.97913 11.0493 8.96994 9.28207 11.4083 9.03052C13.8466 8.77898 16.1706 10.101 17.1525 12.2983C18.1339 12.3286 19.124 12.7193 19.8467 13.4261C20.9728 14.5275 21.3097 16.1838 20.7003 17.6228C20.0908 19.0618 18.6551 20 17.0625 20H16.5395L16.9045 19H17.0625C18.2636 19 19.3305 18.2928 19.7794 17.2328C20.2267 16.1767 19.9826 14.9578 19.1475 14.1411C18.6157 13.621 17.8693 13.3209 17.1216 13.2978L16.4952 13.2784L16.2395 12.7063C15.4383 10.9134 13.5304 9.8169 11.5109 10.0252C9.49266 10.2335 7.86623 11.6923 7.46637 13.6033L7.29998 14.3985Z"/>
<path d="M7.6535 22L8.77849 19H9.84649L8.7215 22H7.6535Z"/>
<path d="M10.0285 21L10.7785 19H11.8465L11.0965 21H10.0285Z"/>
<path d="M11.6535 22L12.7785 19H13.8465L12.7215 22H11.6535Z"/>
<path d="M14.0285 21L14.7785 19H15.8465L15.0965 21H14.0285Z"/>
</svg>
