<svg viewBox="0 0 24 24" xmlns="http://www.w3.org/2000/svg">
<path d="M7.29998 10.3985H6.37507C5.04232 10.3985 4.00009 11.4494 4.00009 12.6993C4.00009 13.9491 5.04232 15 6.37507 15H7.71048L7.33549 16H6.37507C4.51112 16 3.00009 14.5222 3.00009 12.6993C3.00009 10.8763 4.51112 9.3985 6.37507 9.3985H6.48757C6.97913 7.04928 8.96994 5.28207 11.4083 5.03052C13.8466 4.77898 16.1706 6.10104 17.1525 8.29825C18.1339 8.32862 19.124 8.71933 19.8467 9.42615C20.9728 10.5275 21.3097 12.1838 20.7003 13.6228C20.0908 15.0618 18.6551 16 17.0625 16H16.5395L16.9045 15H17.0625C18.2636 15 19.3305 14.2928 19.7794 13.2328C20.2267 12.1767 19.9826 10.9578 19.1475 10.1411C18.6157 9.621 17.8693 9.32091 17.1216 9.29777L16.4952 9.27839L16.2395 8.70626C15.4383 6.9134 13.5304 5.8169 11.5109 6.02525C9.49266 6.23346 7.86623 7.69234 7.46637 9.60331L7.29998 10.3985Z"/>
<path d="M13.6535 18L14.7785 15H15.8465L14.7215 18H13.6535Z"/>
<path d="M7.6535 18L8.77849 15H9.84649L8.7215 18H7.6535Z"/>
<path d="M7.6535 18L8.77849 15H9.84649L8.7215 18H7.6535Z"/>
<path d="M10.0285 17L10.7785 15H11.8465L11.0965 17H10.0285Z"/>
<path d="M12.0285 17L12.7785 15H13.8465L13.0965 17H12.0285Z"/>
<path fill-rule="evenodd" clip-rule="evenodd" d="M11.5 18.2929L12.1465 17.6464L12.8536 18.3535L12.2071 19L12.8536 19.6464L12.1465 20.3535L11.5 19.7071L10.8536 20.3535L10.1465 19.6464L10.7929 19L10.1465 18.3535L10.8536 17.6464L11.5 18.2929Z"/>
<path fill-rule="evenodd" clip-rule="evenodd" d="M8.00001 19.2929L8.64645 18.6464L9.35356 19.3535L8.70711 20L9.35356 20.6464L8.64645 21.3535L8.00001 20.7071L7.35356 21.3535L6.64645 20.6464L7.2929 20L6.64645 19.3535L7.35356 18.6464L8.00001 19.2929Z"/>
<path fill-rule="evenodd" clip-rule="evenodd" d="M15 19.2929L15.6465 18.6464L16.3536 19.3535L15.7071 20L16.3536 20.6464L15.6465 21.3535L15 20.7071L14.3536 21.3535L13.6465 20.6464L14.2929 20L13.6465 19.3535L14.3536 18.6464L15 19.2929Z"/>
</svg>
