<svg viewBox="0 0 24 24" xmlns="http://www.w3.org/2000/svg">
<path d="M6.37507 10.3985H7.29998L7.46637 9.60331C7.86623 7.69234 9.49266 6.23346 11.5109 6.02525C13.5304 5.8169 15.4383 6.9134 16.2395 8.70626L16.4952 9.27839L17.1216 9.29777C17.8693 9.32091 18.6157 9.621 19.1475 10.1411C19.9826 10.9578 20.2267 12.1767 19.7794 13.2328C19.3305 14.2928 18.2636 15 17.0625 15H16V16H17.0625C18.6551 16 20.0908 15.0618 20.7003 13.6228C21.3097 12.1838 20.9728 10.5275 19.8467 9.42615C19.124 8.71933 18.1339 8.32862 17.1525 8.29825C16.1706 6.10104 13.8466 4.77898 11.4083 5.03052C8.96994 5.28207 6.97913 7.04928 6.48757 9.3985H6.37507C4.51112 9.3985 3.00009 10.8763 3.00009 12.6993C3.00009 14.5222 4.51112 16 6.37507 16H8V15H6.37507C5.04232 15 4.00009 13.9491 4.00009 12.6993C4.00009 11.4494 5.04232 10.3985 6.37507 10.3985Z"/>
<path fill-rule="evenodd" clip-rule="evenodd" d="M7.00001 18.2929L7.64645 17.6464L8.35356 18.3535L7.70711 19L8.35356 19.6464L7.64645 20.3535L7.00001 19.7071L6.35356 20.3535L5.64645 19.6464L6.2929 19L5.64645 18.3535L6.35356 17.6464L7.00001 18.2929Z"/>
<path fill-rule="evenodd" clip-rule="evenodd" d="M17 18.2929L17.6465 17.6464L18.3536 18.3535L17.7071 19L18.3536 19.6464L17.6465 20.3535L17 19.7071L16.3536 20.3535L15.6465 19.6464L16.2929 19L15.6465 18.3535L16.3536 17.6464L17 18.2929Z"/>
<path d="M11.0282 15.5L9.24274 16.5712L9.75723 17.4287L11.5 16.3831V18.5H12.5V16.3831L14.2427 17.4287L14.7572 16.5712L12.9718 15.5L14.7572 14.4287L14.2427 13.5712L12.5 14.6169V12.5H11.5V14.6169L9.75723 13.5712L9.24274 14.4287L11.0282 15.5Z"/>
</svg>
