<svg viewBox="0 0 24 24" xmlns="http://www.w3.org/2000/svg">
<path fill-rule="evenodd" clip-rule="evenodd" d="M11.5 5.29289V3H12.5V5.29289L14.1465 3.64645L14.8536 4.35355L12.5 6.70711V11.134L16.3338 8.92054L17.1952 5.70555L18.1612 5.96437L17.5585 8.21343L19.5442 7.06699L20.0442 7.93301L18.0585 9.07948L20.3076 9.68212L20.0488 10.6481L16.8338 9.78658L13 12L16.8338 14.2134L20.0488 13.352L20.3076 14.3179L18.0586 14.9206L20.0442 16.067L19.5442 16.933L17.5585 15.7866L18.1612 18.0357L17.1952 18.2945L16.3338 15.0795L12.5 12.866V17.2929L14.8536 19.6464L14.1465 20.3536L12.5 18.7071V21H11.5V18.7071L9.85357 20.3536L9.14646 19.6464L11.5 17.2929V12.866L7.66622 15.0795L6.80476 18.2945L5.83883 18.0357L6.44148 15.7866L4.45578 16.933L3.95578 16.067L5.94145 14.9206L3.69238 14.3179L3.9512 13.352L7.16619 14.2135L11 12L7.16626 9.78659L3.95123 10.6481L3.69241 9.68212L5.94152 9.07948L3.95578 7.93301L4.45578 7.06699L6.4415 8.21344L5.83886 5.96437L6.80479 5.70555L7.66624 8.92055L11.5 11.134V6.70711L9.14646 4.35355L9.85357 3.64645L11.5 5.29289Z"/>
</svg>
