<svg viewBox="0 0 24 24" xmlns="http://www.w3.org/2000/svg">
<path d="M13 6.37746C13 5.4513 13.3478 4.60548 13.9206 3.96446C14.19 6.61136 16.4282 8.79498 19.0465 9.06991C18.6148 9.45855 18.0893 9.74482 17.5083 9.89078C17.6102 10.0407 17.7063 10.1956 17.7961 10.3551C18.0721 10.3975 18.3462 10.4626 18.6143 10.55C19.3327 10.2066 19.9485 9.68316 20.4034 9.03809C20.655 8.68129 20.8573 8.28728 21.0006 7.86595C20.6047 8.00049 20.2069 8.07396 19.8144 8.09326C17.1625 8.22365 14.7574 5.8805 14.9025 3.18844C14.9236 2.79748 14.9984 2.39917 15.1341 2C14.7116 2.14363 14.3165 2.34672 13.9588 2.5993C12.7738 3.43621 12 4.81647 12 6.37746C12 6.58862 12.0142 6.79648 12.0416 7.00013C12.3887 7.00225 12.7321 7.03114 13.0691 7.08533C13.0238 6.8564 13 6.6197 13 6.37746Z"/>
<path d="M6.37507 13.3985H7.29998L7.46637 12.6033C7.86623 10.6923 9.49266 9.23345 11.5109 9.02525C13.5304 8.8169 15.4383 9.9134 16.2395 11.7063L16.4952 12.2784L17.1216 12.2978C17.8693 12.3209 18.6157 12.621 19.1475 13.1411C19.9826 13.9578 20.2267 15.1767 19.7794 16.2328C19.3305 17.2928 18.2636 18 17.0625 18H16V19H17.0625C18.6551 19 20.0908 18.0618 20.7003 16.6228C21.3097 15.1838 20.9728 13.5275 19.8467 12.4261C19.124 11.7193 18.1339 11.3286 17.1525 11.2983C16.1706 9.10104 13.8466 7.77898 11.4083 8.03052C8.96994 8.28207 6.97913 10.0493 6.48757 12.3985H6.37507C4.51112 12.3985 3.00009 13.8763 3.00009 15.6993C3.00009 17.5222 4.51112 19 6.37507 19H8V18H6.37507C5.04232 18 4.00009 16.9491 4.00009 15.6993C4.00009 14.4494 5.04232 13.3985 6.37507 13.3985Z"/>
<path d="M11.0282 18.5L9.24277 19.5712L9.75726 20.4287L11.5 19.3831V21.5H12.5V19.3831L14.2428 20.4287L14.7573 19.5712L12.9718 18.5L14.7573 17.4287L14.2428 16.5712L12.5 17.6169V15.5H11.5V17.6169L9.75726 16.5712L9.24277 17.4287L11.0282 18.5Z"/>
</svg>
