<svg viewBox="0 0 24 24" xmlns="http://www.w3.org/2000/svg">
<path fill-rule="evenodd" clip-rule="evenodd" d="M5.71877 4.55116L4.9964 3.29999L5.86242 2.79999L6.58479 4.05116L5.71877 4.55116Z"/>
<path fill-rule="evenodd" clip-rule="evenodd" d="M3.67122 7.85486L2.27145 7.4798L2.53027 6.51387L3.93004 6.88894L3.67122 7.85486Z"/>
<path fill-rule="evenodd" clip-rule="evenodd" d="M4.55138 11.6398L3.3002 12.3622L2.8002 11.4962L4.05138 10.7738L4.55138 11.6398Z"/>
<path fill-rule="evenodd" clip-rule="evenodd" d="M14.5586 5.86211L13.3094 6.58331L12.8094 5.71729L14.0586 4.99609L14.5586 5.86211Z"/>
<path fill-rule="evenodd" clip-rule="evenodd" d="M10.8447 2.53002L10.4714 3.92328L9.50548 3.66446L9.8788 2.2712L10.8447 2.53002Z"/>
<path d="M11.0449 7.56304C11.1313 7.55073 11.2182 7.54004 11.3056 7.53103C11.5706 7.50369 11.8347 7.4922 12.0965 7.49593C12.0226 7.28336 11.9277 7.07466 11.811 6.87256C10.8136 5.14505 8.60465 4.55316 6.87714 5.55054C5.14962 6.54792 4.55773 8.75688 5.55511 10.4844C5.69554 10.7276 5.85999 10.9483 6.04374 11.1453C6.20148 10.8279 6.38443 10.5257 6.58987 10.241C6.5294 10.1598 6.473 10.0742 6.42114 9.98439C5.6999 8.73517 6.12792 7.1378 7.37714 6.41656C8.62636 5.69532 10.2237 6.12334 10.945 7.37256C10.9811 7.43523 11.0144 7.49877 11.0449 7.56304Z"/>
<path d="M6.37507 13.8937H7.29998L7.46637 13.0985C7.86623 11.1875 9.49266 9.72863 11.5109 9.52042C13.5304 9.31208 15.4383 10.4086 16.2395 12.2014L16.4952 12.7736L17.1216 12.793C17.8693 12.8161 18.6157 13.1162 19.1475 13.6363C19.9826 14.453 20.2267 15.6718 19.7794 16.728C19.3305 17.788 18.2636 18.4952 17.0625 18.4952H16V19.4952H17.0625C18.6551 19.4952 20.0908 18.5569 20.7003 17.118C21.3097 15.679 20.9728 14.0227 19.8467 12.9213C19.124 12.2145 18.1339 11.8238 17.1525 11.7934C16.1706 9.59622 13.8466 8.27415 11.4083 8.5257C8.96994 8.77725 6.97913 10.5445 6.48757 12.8937H6.37507C4.51112 12.8937 3.00009 14.3715 3.00009 16.1944C3.00009 18.0174 4.51112 19.4952 6.37507 19.4952H8V18.4952H6.37507C5.04232 18.4952 4.00009 17.4443 4.00009 16.1944C4.00009 14.9446 5.04232 13.8937 6.37507 13.8937Z"/>
<path d="M11.0282 18.9952L9.24277 20.0664L9.75726 20.9239L11.5 19.8782V21.9952H12.5V19.8783L14.2428 20.9239L14.7573 20.0664L12.9718 18.9952L14.7573 17.9239L14.2428 17.0664L12.5 18.112V15.9952H11.5V18.1121L9.75726 17.0664L9.24277 17.9239L11.0282 18.9952Z"/>
</svg>
