<svg viewBox="0 0 24 24" xmlns="http://www.w3.org/2000/svg">
<path fill-rule="evenodd" clip-rule="evenodd" d="M12 16C14.2091 16 16 14.2091 16 12C16 9.79086 14.2091 8 12 8C9.79086 8 8 9.79086 8 12C8 14.2091 9.79086 16 12 16ZM17 12C17 14.7614 14.7614 17 12 17C9.23858 17 7 14.7614 7 12C7 9.23858 9.23858 7 12 7C14.7614 7 17 9.23858 17 12Z"/>
<path fill-rule="evenodd" clip-rule="evenodd" d="M11.4952 5V3H12.4952V5H11.4952Z"/>
<path fill-rule="evenodd" clip-rule="evenodd" d="M11.4952 20.9964V18.9996H12.4952V20.9964H11.4952Z"/>
<path fill-rule="evenodd" clip-rule="evenodd" d="M6.69745 7.40755L5.27892 5.98901L5.98602 5.28191L7.40456 6.70044L6.69745 7.40755Z"/>
<path fill-rule="evenodd" clip-rule="evenodd" d="M18.0043 18.7144L16.5924 17.3025L17.2995 16.5954L18.7114 18.0073L18.0043 18.7144Z"/>
<path fill-rule="evenodd" clip-rule="evenodd" d="M4.99695 12.4982H2.99695V11.4982H4.99695V12.4982Z"/>
<path fill-rule="evenodd" clip-rule="evenodd" d="M20.9934 12.4982H18.9966V11.4982H20.9934V12.4982Z"/>
<path fill-rule="evenodd" clip-rule="evenodd" d="M7.40024 17.3003L5.98602 18.7145L5.27892 18.0074L6.69313 16.5932L7.40024 17.3003Z"/>
<path fill-rule="evenodd" clip-rule="evenodd" d="M18.7114 5.98907L17.2995 7.401L16.5924 6.69389L18.0043 5.28196L18.7114 5.98907Z"/>
</svg>
