<svg viewBox="0 0 24 24" xmlns="http://www.w3.org/2000/svg">
<path fill-rule="evenodd" clip-rule="evenodd" d="M11 19H5V18H11V19Z"/>
<path fill-rule="evenodd" clip-rule="evenodd" d="M19 19H13V18H19V19Z"/>
<path fill-rule="evenodd" clip-rule="evenodd" d="M6.60001 10.3L5.10001 8.30005L5.90001 7.70005L7.40001 9.70005L6.60001 10.3Z"/>
<path fill-rule="evenodd" clip-rule="evenodd" d="M18.1 7.69995L16.6 9.69995L17.4 10.3L18.9 8.29995L18.1 7.69995Z"/>
<path d="M12.4952 6.29778L13.1465 5.64649L13.8536 6.3536L12 8.20715L10.1465 6.3536L10.8536 5.64649L11.4952 6.28809V4H12.4952V6.29778Z"/>
<path fill-rule="evenodd" clip-rule="evenodd" d="M5.07089 16C5.55612 12.6077 8.47353 10 12 10C15.5265 10 18.4439 12.6077 18.9291 16H21V17H3V16H5.07089ZM6.08296 16C6.55904 13.1623 9.027 11 12 11C14.973 11 17.441 13.1623 17.917 16H6.08296Z"/>
</svg>
