<svg viewBox="0 0 24 24" xmlns="http://www.w3.org/2000/svg">
<path fill-rule="evenodd" clip-rule="evenodd" d="M11.5 15.9781L11.0007 16.267C10.4003 16.6143 10 17.261 10 18C10 19.1046 10.8954 20 12 20C13.1046 20 14 19.1046 14 18C14 17.261 13.5997 16.6143 12.9993 16.267L12.5 15.9781V4.5C12.5 4.22386 12.2761 4 12 4C11.7239 4 11.5 4.22386 11.5 4.5V15.9781ZM10.5 4.5C10.5 3.67157 11.1716 3 12 3C12.8284 3 13.5 3.67157 13.5 4.5V15.4013C14.3967 15.9201 15 16.8896 15 18C15 19.6569 13.6569 21 12 21C10.3431 21 9 19.6569 9 18C9 16.8896 9.6033 15.9201 10.5 15.4013V4.5Z"/>
<circle cx="12" cy="18" r="1"/>
</svg>
