<svg viewBox="0 0 24 24" xmlns="http://www.w3.org/2000/svg">
<path fill-rule="evenodd" clip-rule="evenodd" d="M6.91289 4.10502C8.23571 3.72708 10.0341 3.5 12 3.5C13.9659 3.5 15.7643 3.72708 17.0871 4.10502C17.7451 4.29303 18.314 4.52629 18.7298 4.80718C19.1282 5.07629 19.5 5.47011 19.5 6C19.5 6.52989 19.1282 6.92371 18.7298 7.19282C18.314 7.47371 17.7451 7.70697 17.0871 7.89498C15.7643 8.27292 13.9659 8.5 12 8.5C10.0341 8.5 8.23571 8.27292 6.91289 7.89498C6.25488 7.70697 5.68604 7.47371 5.27021 7.19282C4.87184 6.92371 4.5 6.52989 4.5 6C4.5 5.47011 4.87184 5.07629 5.27021 4.80718C5.68604 4.52629 6.25488 4.29303 6.91289 4.10502ZM5.82997 5.63584C5.51991 5.84529 5.5 5.97761 5.5 6C5.5 6.02239 5.51991 6.15471 5.82997 6.36416C6.12259 6.56183 6.57887 6.75953 7.18761 6.93345C8.39829 7.27936 10.0999 7.5 12 7.5C13.9001 7.5 15.6017 7.27936 16.8124 6.93345C17.4211 6.75953 17.8774 6.56183 18.17 6.36416C18.4801 6.15471 18.5 6.02239 18.5 6C18.5 5.97761 18.4801 5.84529 18.17 5.63584C17.8774 5.43817 17.4211 5.24047 16.8124 5.06655C15.6017 4.72064 13.9001 4.5 12 4.5C10.0999 4.5 8.39829 4.72064 7.18761 5.06655C6.57887 5.24047 6.12259 5.43817 5.82997 5.63584Z"/>
<path fill-rule="evenodd" clip-rule="evenodd" d="M18.1957 10.4867C14.6091 12.0123 9.56956 12.3438 5.7764 10.4472L6.22361 9.5528C9.69552 11.2887 14.4202 11.0059 17.8043 9.56645L18.1957 10.4867Z"/>
<path fill-rule="evenodd" clip-rule="evenodd" d="M11.8093 14.5855C9.95478 14.5737 8.10199 14.2443 6.74274 13.4287L7.25723 12.5712C8.39798 13.2557 10.0452 13.5743 11.8157 13.5856C13.5764 13.5968 15.3967 13.3035 16.8419 12.8218L17.1581 13.7705C15.6033 14.2887 13.6735 14.5974 11.8093 14.5855Z"/>
<path fill-rule="evenodd" clip-rule="evenodd" d="M10.8921 17.2501C9.55292 17.1256 8.33829 16.7924 7.74408 16.4253L8.26965 15.5746C8.66857 15.821 9.70051 16.135 10.9846 16.2544C12.253 16.3723 13.6651 16.2898 14.8143 15.8302L15.1857 16.7586C13.8348 17.299 12.247 17.376 10.8921 17.2501Z"/>
<path fill-rule="evenodd" clip-rule="evenodd" d="M12.1108 20.1664C11.5031 20.282 10.3891 20.2772 9.2764 19.7208L9.72361 18.8264C10.611 19.2701 11.4969 19.2652 11.9238 19.184L12.1108 20.1664Z"/>
</svg>
