<svg viewBox="0 0 24 24" xmlns="http://www.w3.org/2000/svg">
<path fill-rule="evenodd" clip-rule="evenodd" d="M12.5 4.01365V3H11.5V4.01365C7.09545 4.25484 3.53436 7.66303 3.05493 12C3.01863 12.3283 3 12.662 3 13L7.5 13H8.5L11.5 13V19C11.5 19.5523 11.0523 20 10.5 20C9.94772 20 9.5 19.5523 9.5 19V18H8.5V19C8.5 20.1046 9.39543 21 10.5 21C11.6046 21 12.5 20.1046 12.5 19V13L15.5 13V13.0001H16.5V13L21 13C21 12.662 20.9814 12.3283 20.9451 12C20.4656 7.66303 16.9045 4.25484 12.5 4.01365ZM16.4537 12H19.9381C19.5053 8.52926 16.8492 5.74896 13.4401 5.12926C15.1158 6.91753 16.2201 9.45569 16.4537 12ZM11.9991 5.13828C10.1146 6.71076 8.8155 9.33271 8.55017 12H15.4492C15.1816 9.33941 13.8757 6.71222 11.9991 5.13828ZM7.5458 12C7.77734 9.45204 8.87444 6.91753 10.554 5.13034C7.14767 5.7522 4.49444 8.53128 4.06189 12H7.5458Z"/>
</svg>
