<svg viewBox="0 0 24 24" xmlns="http://www.w3.org/2000/svg">
<path fill-rule="evenodd" clip-rule="evenodd" d="M11.5 20V19H12.5V20H11.5Z"/>
<path d="M6.37507 10.3985H7.29998L7.46637 9.60331C7.86623 7.69234 9.49266 6.23346 11.5109 6.02525C13.5304 5.8169 15.4383 6.9134 16.2395 8.70626L16.4952 9.27839L17.1216 9.29777C17.8693 9.32091 18.6157 9.621 19.1475 10.1411C19.9826 10.9578 20.2267 12.1767 19.7794 13.2328C19.3305 14.2928 18.2636 15 17.0625 15H16.4379C16.2671 15.3596 16.0537 15.6951 15.8044 16H17.0625C18.6551 16 20.0908 15.0618 20.7003 13.6228C21.3097 12.1838 20.9728 10.5275 19.8467 9.42615C19.124 8.71933 18.1339 8.32862 17.1525 8.29825C16.1706 6.10104 13.8466 4.77898 11.4083 5.03052C8.96994 5.28207 6.97913 7.04928 6.48757 9.3985H6.37507C4.51112 9.3985 3.00009 10.8763 3.00009 12.6993C3.00009 14.5222 4.51112 16 6.37507 16H10.5095V15H6.37507C5.04232 15 4.00009 13.9491 4.00009 12.6993C4.00009 11.4494 5.04232 10.3985 6.37507 10.3985Z"/>
<path fill-rule="evenodd" clip-rule="evenodd" d="M12.0095 10C10.6589 10 9.52276 10.9237 9.2008 12.1746L8.23236 11.9254C8.66527 10.2434 10.1915 9 12.0095 9C14.1634 9 15.9095 10.7461 15.9095 12.9C15.9095 14.8845 14.4272 16.5228 12.5095 16.7682V18H11.5095V15.8H12.0095C13.6111 15.8 14.9095 14.5016 14.9095 12.9C14.9095 11.2984 13.6111 10 12.0095 10Z"/>
</svg>
