<svg viewBox="0 0 24 24" xmlns="http://www.w3.org/2000/svg">
<path d="M13 6.37746C13 5.4513 13.3478 4.60548 13.9206 3.96446C14.19 6.61136 16.4282 8.79498 19.0465 9.06991C18.6148 9.45855 18.0893 9.74482 17.5083 9.89078C17.6102 10.0407 17.7063 10.1956 17.7961 10.3551C18.0721 10.3975 18.3462 10.4626 18.6143 10.55C19.3327 10.2066 19.9485 9.68316 20.4034 9.03809C20.655 8.68129 20.8573 8.28728 21.0006 7.86595C20.6047 8.00049 20.2069 8.07396 19.8144 8.09326C17.1625 8.22365 14.7574 5.8805 14.9025 3.18844C14.9236 2.79748 14.9984 2.39917 15.1341 2C14.7116 2.14363 14.3165 2.34672 13.9588 2.5993C12.7738 3.43621 12 4.81647 12 6.37746C12 6.58862 12.0142 6.79648 12.0416 7.00013C12.3887 7.00225 12.7321 7.03114 13.0691 7.08533C13.0238 6.8564 13 6.6197 13 6.37746Z"/>
<path d="M7.29998 13.3985H6.37507C5.04232 13.3985 4.00009 14.4494 4.00009 15.6993C4.00009 16.9491 5.04232 18 6.37507 18H7V19H6.37507C4.51112 19 3.00009 17.5222 3.00009 15.6993C3.00009 13.8763 4.51112 12.3985 6.37507 12.3985H6.48757C6.97913 10.0493 8.96994 8.28207 11.4083 8.03052C13.8466 7.77898 16.1706 9.10104 17.1525 11.2983C18.1339 11.3286 19.124 11.7193 19.8467 12.4261C20.9728 13.5275 21.3097 15.1838 20.7003 16.6228C20.0908 18.0618 18.6551 19 17.0625 19H16.2361C16.4944 18.7115 16.6976 18.3726 16.8293 18H17.0625C18.2636 18 19.3305 17.2928 19.7794 16.2328C20.2267 15.1767 19.9826 13.9578 19.1475 13.1411C18.6157 12.621 17.8693 12.3209 17.1216 12.2978L16.4952 12.2784L16.2395 11.7063C15.4383 9.9134 13.5304 8.8169 11.5109 9.02525C9.49266 9.23345 7.86623 10.6923 7.46637 12.6033L7.29998 13.3985Z"/>
<path fill-rule="evenodd" clip-rule="evenodd" d="M8 18H10V19H8V18Z"/>
<path fill-rule="evenodd" clip-rule="evenodd" d="M9 20H15V21H9V20Z"/>
<path d="M14 18C14.5523 18 15 17.5523 15 17C15 16.4477 14.5523 16 14 16C13.4477 16 13 16.4477 13 17H12C12 15.8954 12.8954 15 14 15C15.1046 15 16 15.8954 16 17C16 18.1046 15.1046 19 14 19H11V18H14Z"/>
</svg>
