<svg viewBox="0 0 24 24" xmlns="http://www.w3.org/2000/svg">
<path fill-rule="evenodd" clip-rule="evenodd" d="M18.397 8.08767C17.8056 7.51328 16.9121 7.34021 16.1358 7.65615C15.3612 7.97135 14.8677 8.70538 14.8707 9.5074L13.8707 9.51122C13.8661 8.28929 14.6173 7.19446 15.7588 6.72991C16.8985 6.2661 18.2143 6.5162 19.0937 7.3703C19.9754 8.22656 20.2439 9.52199 19.766 10.6497C19.289 11.7751 18.1685 12.5 16.9353 12.5H10V11.5H16.9353C17.7785 11.5 18.5294 11.0047 18.8453 10.2595C19.1601 9.51649 18.9863 8.65991 18.397 8.08767Z"/>
<path fill-rule="evenodd" clip-rule="evenodd" d="M4 11.5H9V12.5H4V11.5Z"/>
<path d="M7 16H14.5C15.3284 16 16 16.6716 16 17.5C16 18.3284 15.3284 19 14.5 19C13.6716 19 13 18.3284 13 17.5H12C12 18.8807 13.1193 20 14.5 20C15.8807 20 17 18.8807 17 17.5C17 16.1193 15.8807 15 14.5 15H7V16Z"/>
<path fill-rule="evenodd" clip-rule="evenodd" d="M4 15H6V16H4V15Z"/>
<path d="M8 6.5C8 5.67157 8.67157 5 9.5 5C10.3284 5 11 5.67157 11 6.5C11 7.32843 10.3284 8 9.5 8H4V9H9.5C10.8807 9 12 7.88071 12 6.5C12 5.11929 10.8807 4 9.5 4C8.11929 4 7 5.11929 7 6.5H8Z"/>
</svg>
