<svg viewBox="0 0 24 24" xmlns="http://www.w3.org/2000/svg">
<path d="M7.29998 10.3985H6.37507C5.04232 10.3985 4.00009 11.4494 4.00009 12.6993C4.00009 13.9491 5.04232 15 6.37507 15H7V16H6.37507C4.51112 16 3.00009 14.5222 3.00009 12.6993C3.00009 10.8763 4.51112 9.3985 6.37507 9.3985H6.48757C6.97913 7.04928 8.96994 5.28207 11.4083 5.03052C13.8466 4.77898 16.1706 6.10104 17.1525 8.29825C18.1339 8.32862 19.124 8.71933 19.8467 9.42615C20.9728 10.5275 21.3097 12.1838 20.7003 13.6228C20.0908 15.0618 18.6551 16 17.0625 16H16.2361C16.4944 15.7115 16.6976 15.3726 16.8293 15H17.0625C18.2636 15 19.3305 14.2928 19.7794 13.2328C20.2267 12.1767 19.9826 10.9578 19.1475 10.1411C18.6157 9.621 17.8693 9.32091 17.1216 9.29777L16.4952 9.27839L16.2395 8.70626C15.4383 6.9134 13.5304 5.8169 11.5109 6.02525C9.49266 6.23346 7.86623 7.69234 7.46637 9.60331L7.29998 10.3985Z"/>
<path fill-rule="evenodd" clip-rule="evenodd" d="M8 15H10V16H8V15Z"/>
<path fill-rule="evenodd" clip-rule="evenodd" d="M6 17H9V18H6V17Z"/>
<path d="M14 15C14.5523 15 15 14.5523 15 14C15 13.4477 14.5523 13 14 13C13.4477 13 13 13.4477 13 14H12C12 12.8954 12.8954 12 14 12C15.1046 12 16 12.8954 16 14C16 15.1046 15.1046 16 14 16H11V15H14Z"/>
<path d="M10 17H16C17.1046 17 18 17.8954 18 19C18 20.1046 17.1046 21 16 21C14.8954 21 14 20.1046 14 19H15C15 19.5523 15.4477 20 16 20C16.5523 20 17 19.5523 17 19C17 18.4477 16.5523 18 16 18H10V17Z"/>
</svg>
