<svg viewBox="0 0 24 24" xmlns="http://www.w3.org/2000/svg">
<path fill-rule="evenodd" clip-rule="evenodd" d="M5.71877 4.05592L4.9964 2.80475L5.86242 2.30475L6.58479 3.55592L5.71877 4.05592Z"/>
<path fill-rule="evenodd" clip-rule="evenodd" d="M3.67122 7.35962L2.27145 6.98456L2.53027 6.01863L3.93004 6.3937L3.67122 7.35962Z"/>
<path fill-rule="evenodd" clip-rule="evenodd" d="M4.55138 11.1446L3.3002 11.867L2.8002 11.001L4.05138 10.2786L4.55138 11.1446Z"/>
<path fill-rule="evenodd" clip-rule="evenodd" d="M14.5586 5.36693L13.3094 6.08813L12.8094 5.22211L14.0586 4.50091L14.5586 5.36693Z"/>
<path fill-rule="evenodd" clip-rule="evenodd" d="M10.8447 2.03484L10.4714 3.4281L9.50548 3.16928L9.8788 1.77603L10.8447 2.03484Z"/>
<path d="M11.0448 7.06781C11.1313 7.05549 11.2182 7.04481 11.3056 7.03579C11.5706 7.00845 11.8347 6.99696 12.0965 7.00069C12.0226 6.78814 11.9277 6.57947 11.811 6.37738C10.8136 4.64987 8.60465 4.05798 6.87714 5.05536C5.14962 6.05274 4.55773 8.2617 5.55511 9.98921C5.69554 10.2324 5.85998 10.4531 6.04372 10.6501C6.20147 10.3327 6.3844 10.0305 6.58985 9.74581C6.52938 9.66461 6.473 9.57903 6.42114 9.48921C5.6999 8.23999 6.12792 6.64262 7.37714 5.92138C8.62636 5.20015 10.2237 5.62816 10.945 6.87738C10.9811 6.94003 11.0144 7.00356 11.0448 7.06781Z"/>
<path d="M7.29998 13.3985H6.37507C5.04232 13.3985 4.00009 14.4494 4.00009 15.6993C4.00009 16.9491 5.04232 18 6.37507 18H7V19H6.37507C4.51112 19 3.00009 17.5222 3.00009 15.6993C3.00009 13.8763 4.51112 12.3985 6.37507 12.3985H6.48757C6.97913 10.0493 8.96994 8.28207 11.4083 8.03052C13.8466 7.77898 16.1706 9.10104 17.1525 11.2983C18.1339 11.3286 19.124 11.7193 19.8467 12.4261C20.9728 13.5275 21.3097 15.1838 20.7003 16.6228C20.0908 18.0618 18.6551 19 17.0625 19H16.2361C16.4944 18.7115 16.6976 18.3726 16.8293 18H17.0625C18.2636 18 19.3305 17.2928 19.7794 16.2328C20.2267 15.1767 19.9826 13.9578 19.1475 13.1411C18.6157 12.621 17.8693 12.3209 17.1216 12.2978L16.4952 12.2784L16.2395 11.7063C15.4383 9.9134 13.5304 8.8169 11.5109 9.02525C9.49266 9.23345 7.86623 10.6923 7.46637 12.6033L7.29998 13.3985Z"/>
<path fill-rule="evenodd" clip-rule="evenodd" d="M8 18H10V19H8V18Z"/>
<path fill-rule="evenodd" clip-rule="evenodd" d="M9 20H15V21H9V20Z"/>
<path d="M14 18C14.5523 18 15 17.5523 15 17C15 16.4477 14.5523 16 14 16C13.4477 16 13 16.4477 13 17H12C12 15.8954 12.8954 15 14 15C15.1046 15 16 15.8954 16 17C16 18.1046 15.1046 19 14 19H11V18H14Z"/>
</svg>
