<svg viewBox="0 0 24 24" xmlns="http://www.w3.org/2000/svg">
<path fill-rule="evenodd" clip-rule="evenodd" d="M4 21V5H5V21H4Z"/>
<path fill-rule="evenodd" clip-rule="evenodd" d="M5 8.99998L7.64036 5.47949C7.86176 5.1843 8.22772 5.03501 8.59242 5.09112L20.1521 6.86952C20.6399 6.94458 21 7.36433 21 7.8579V10.1421C21 10.6356 20.6399 11.0554 20.1521 11.1304L8.59242 12.9088C8.22772 12.9649 7.86176 12.8157 7.64036 12.5205L5 8.99998ZM8 11.3333V6.66664L6.25 8.99998L8 11.3333ZM9 6.16559V11.8344L11 11.5267V6.47328L9 6.16559ZM14 11.0651L12 11.3728V6.62713L14 6.93482V11.0651ZM15 10.9113L17 10.6036V7.39636L15 7.08867V10.9113ZM20 10.1421L18 10.4498V7.5502L20 7.8579L20 10.1421Z"/>
</svg>
