<svg viewBox="0 0 24 24" xmlns="http://www.w3.org/2000/svg">
<path fill-rule="evenodd" clip-rule="evenodd" d="M20 7H4V19H20V7ZM4 6C3.44772 6 3 6.44772 3 7V19C3 19.5523 3.44772 20 4 20H20C20.5523 20 21 19.5523 21 19V7C21 6.44772 20.5523 6 20 6H4Z"/>
<path fill-rule="evenodd" clip-rule="evenodd" d="M15.6667 6H20C20.5523 6 21 6.44772 21 7V11C21 12.1046 20.1046 13 19 13H5C3.89543 13 3 12.1046 3 11V7C3 6.44772 3.44772 6 4 6H8.33333L8.54415 5.36754C8.81638 4.55086 9.58066 4 10.4415 4H13.5585C14.4193 4 15.1836 4.55086 15.4558 5.36754L15.6667 6ZM4 7V11C4 11.5523 4.44772 12 5 12H19C19.5523 12 20 11.5523 20 11V7H4ZM14.6126 6L14.5072 5.68377C14.3711 5.27543 13.9889 5 13.5585 5H10.4415C10.0111 5 9.62895 5.27543 9.49284 5.68377L9.38743 6H14.6126Z"/>
<path fill-rule="evenodd" clip-rule="evenodd" d="M12 11C12.2761 11 12.5 10.7761 12.5 10.5C12.5 10.2239 12.2761 10 12 10C11.7239 10 11.5 10.2239 11.5 10.5C11.5 10.7761 11.7239 11 12 11Z"/>
</svg>
