<svg viewBox="0 0 24 24" xmlns="http://www.w3.org/2000/svg">
<path fill-rule="evenodd" clip-rule="evenodd" d="M12 5C12.5523 5 13 4.55228 13 4C13 3.44772 12.5523 3 12 3C11.4477 3 11 3.44772 11 4C11 4.55228 11.4477 5 12 5ZM14 4C14 5.10457 13.1046 6 12 6C10.8954 6 10 5.10457 10 4C10 2.89543 10.8954 2 12 2C13.1046 2 14 2.89543 14 4Z"/>
<path d="M11 8H13C14.1046 8 15 8.89543 15 10V11H16V10C16 8.34315 14.6569 7 13 7H11C9.34315 7 8 8.34315 8 10V11H9V10C9 8.89543 9.89543 8 11 8Z"/>
<path fill-rule="evenodd" clip-rule="evenodd" d="M6 15C6.55228 15 7 14.5523 7 14C7 13.4477 6.55228 13 6 13C5.44772 13 5 13.4477 5 14C5 14.5523 5.44772 15 6 15ZM8 14C8 15.1046 7.10457 16 6 16C4.89543 16 4 15.1046 4 14C4 12.8954 4.89543 12 6 12C7.10457 12 8 12.8954 8 14Z"/>
<path fill-rule="evenodd" clip-rule="evenodd" d="M18 15C18.5523 15 19 14.5523 19 14C19 13.4477 18.5523 13 18 13C17.4477 13 17 13.4477 17 14C17 14.5523 17.4477 15 18 15ZM20 14C20 15.1046 19.1046 16 18 16C16.8954 16 16 15.1046 16 14C16 12.8954 16.8954 12 18 12C19.1046 12 20 12.8954 20 14Z"/>
<path d="M5 18H7C8.10457 18 9 18.8954 9 20V21H10V20C10 18.3431 8.65685 17 7 17H5C3.34315 17 2 18.3431 2 20V21H3V20C3 18.8954 3.89543 18 5 18Z"/>
<path d="M17 18H19C20.1046 18 21 18.8954 21 20V21H22V20C22 18.3431 20.6569 17 19 17H17C15.3431 17 14 18.3431 14 20V21H15V20C15 18.8954 15.8954 18 17 18Z"/>
<path fill-rule="evenodd" clip-rule="evenodd" d="M11.5 12.7929V10H12.5V12.7929L14.8536 15.1464L14.1465 15.8536L12 13.7071L9.85359 15.8536L9.14648 15.1464L11.5 12.7929Z"/>
</svg>
