<svg viewBox="0 0 24 24" xmlns="http://www.w3.org/2000/svg">
<path fill-rule="evenodd" clip-rule="evenodd" d="M16 10H6V9H16V10Z"/>
<path fill-rule="evenodd" clip-rule="evenodd" d="M11 16H6V15H11V16Z"/>
<path fill-rule="evenodd" clip-rule="evenodd" d="M17 16C17.5523 16 18 15.5523 18 15C18 14.4477 17.5523 14 17 14C16.4477 14 16 14.4477 16 15C16 15.5523 16.4477 16 17 16ZM17 17C18.1046 17 19 16.1046 19 15C19 13.8954 18.1046 13 17 13C15.8954 13 15 13.8954 15 15C15 16.1046 15.8954 17 17 17Z"/>
<path fill-rule="evenodd" clip-rule="evenodd" d="M20 15C20 16.6569 18.6569 18 17 18C15.3431 18 14 16.6569 14 15C14 13.3431 15.3431 12 17 12C18.6569 12 20 13.3431 20 15ZM19 18.4649C20.1956 17.7733 21 16.4806 21 15C21 12.7909 19.2091 11 17 11C14.7909 11 13 12.7909 13 15C13 16.4806 13.8044 17.7733 15 18.4649V22L17 21L19 22V18.4649ZM17 19H16V20.382L17 19.882L18 20.382V19H17Z"/>
<path d="M12.416 13C12.572 12.643 12.7685 12.3077 12.9996 12H6V13H12.416Z"/>
<path fill-rule="evenodd" clip-rule="evenodd" d="M15 3L19 7V10.416C18.6825 10.2773 18.3478 10.1706 18 10.1V7.5H15.5C14.9477 7.5 14.5 7.05228 14.5 6.5V4H4V20H14V21H4C3.44772 21 3 20.5523 3 20V4C3 3.44772 3.44772 3 4 3H15ZM15.5 4.91421L17.0858 6.5H15.5V4.91421Z"/>
</svg>
