<svg viewBox="0 0 24 24" xmlns="http://www.w3.org/2000/svg">
<path fill-rule="evenodd" clip-rule="evenodd" d="M3 20.0008V4.00127H4V20.0008H20.9997V21.0008H4C3.44772 21.0008 3 20.553 3 20.0008Z"/>
<path fill-rule="evenodd" clip-rule="evenodd" d="M7 14H6V18H7V14Z"/>
<path fill-rule="evenodd" clip-rule="evenodd" d="M11 11H10V18H11V11Z"/>
<path fill-rule="evenodd" clip-rule="evenodd" d="M15 14H14V18H15V14Z"/>
<path fill-rule="evenodd" clip-rule="evenodd" d="M19 11H18V18H19V11Z"/>
<path d="M18.2929 6H17V5H20V8H19V6.70715L14.5 11.2071L10.5 7.20711L5.85359 11.8536L5.14648 11.1465L10.5 5.7929L14.5 9.7929L18.2929 6Z"/>
</svg>
