<svg viewBox="0 0 24 24" xmlns="http://www.w3.org/2000/svg">
<path fill-rule="evenodd" clip-rule="evenodd" d="M5.79291 13.5L2.50005 10.2071C2.10952 9.8166 2.10952 9.18344 2.50004 8.79291L6.29294 4.99999C6.68347 4.60946 7.31663 4.60946 7.70716 4.99999L9.38221 6.67504C9.6117 6.90453 9.90943 7.0534 10.2307 7.0993L12.109 7.36764L14.2617 7.03116L15.7929 5.5C16.1834 5.10948 16.8166 5.10948 17.2071 5.5L21.5 9.79289C21.8905 10.1834 21.8905 10.8166 21.5 11.2071L19.2071 13.4999L19.6036 13.8964C20.2131 14.5059 20.2131 15.4941 19.6036 16.1035C19.4211 16.2861 19.2045 16.414 18.9744 16.4872C19.1643 17.0345 19.0407 17.6664 18.6036 18.1036C18.1665 18.5407 17.5345 18.6643 16.9872 18.4744C16.914 18.7045 16.7861 18.921 16.6036 19.1036C16.1665 19.5407 15.5345 19.6643 14.9872 19.4744C14.914 19.7045 14.7861 19.921 14.6036 20.1036C14.0275 20.6796 13.1132 20.7112 12.5 20.1983C11.8869 20.7112 10.9725 20.6796 10.3964 20.1036C10.2139 19.921 10.086 19.7045 10.0128 19.4744C9.46552 19.6643 8.83358 19.5407 8.39644 19.1036C8.10684 18.814 7.95485 18.4389 7.94046 18.0595C7.56112 18.0451 7.18603 17.8932 6.89644 17.6036C6.60684 17.314 6.45485 16.9389 6.44046 16.5595C6.06112 16.5451 5.68603 16.3932 5.39644 16.1036C4.78696 15.4941 4.78696 14.5059 5.39644 13.8965L5.79291 13.5ZM14.7929 10.5L13.2071 10.5L12.101 11.6061C11.4929 12.2142 10.507 12.2142 9.89894 11.6061C9.28798 10.9951 9.29129 10.0035 9.90633 9.39664L11.0869 8.23177L10.0893 8.08925C9.55381 8.01275 9.05759 7.76463 8.6751 7.38214L7.00005 5.70709L3.20715 9.50002L6.67955 12.9724C7.1777 12.8684 7.71684 13.0098 8.10354 13.3965C8.39314 13.686 8.54513 14.0611 8.55952 14.4405C8.93886 14.4549 9.31395 14.6069 9.60354 14.8965C9.89314 15.186 10.0451 15.5611 10.0595 15.9405C10.4389 15.9549 10.8139 16.1069 11.1035 16.3965C11.3931 16.686 11.5451 17.0611 11.5595 17.4405C11.9389 17.4549 12.3139 17.6069 12.6035 17.8965C12.9902 18.2832 13.1316 18.8223 13.0276 19.3204L13.1036 19.3965C13.3226 19.6154 13.6775 19.6154 13.8965 19.3965C14.1154 19.1775 14.1154 18.8225 13.8965 18.6036L12.6465 17.3536L13.3536 16.6465L15.1036 18.3965C15.3226 18.6154 15.6775 18.6154 15.8965 18.3965C16.1154 18.1775 16.1155 17.8225 15.8965 17.6036L14.1465 15.8536L14.8536 15.1465L17.1036 17.3965C17.3226 17.6154 17.6775 17.6154 17.8965 17.3965C18.1154 17.1775 18.1154 16.8225 17.8965 16.6036L15.6465 14.3536L16.3536 13.6465L18.1036 15.3965C18.3225 15.6154 18.6775 15.6154 18.8965 15.3964C19.1154 15.1775 19.1154 14.8225 18.8965 14.6035L14.7929 10.5ZM7.39644 14.1036C7.17749 13.8846 6.8225 13.8846 6.60355 14.1036L6.10354 14.6036C5.88459 14.8225 5.88459 15.1775 6.10354 15.3965C6.3225 15.6154 6.67749 15.6154 6.89644 15.3965L7.39644 14.8965C7.61539 14.6775 7.61539 14.3225 7.39644 14.1036ZM7.60354 16.8965C7.38459 16.6775 7.38459 16.3225 7.60354 16.1036L8.10354 15.6036C8.3225 15.3846 8.67749 15.3846 8.89644 15.6036C9.11539 15.8225 9.11539 16.1775 8.89644 16.3965L8.39644 16.8965C8.17749 17.1154 7.8225 17.1154 7.60354 16.8965ZM9.10354 17.6036C8.88459 17.8225 8.88459 18.1775 9.10354 18.3965C9.3225 18.6154 9.67749 18.6154 9.89644 18.3965L10.3964 17.8965C10.6154 17.6775 10.6154 17.3225 10.3964 17.1036C10.1775 16.8846 9.8225 16.8846 9.60354 17.1036L9.10354 17.6036ZM11.1035 19.3965C10.8847 19.1776 10.8846 18.823 11.1031 18.604C11.3221 18.385 11.6775 18.3846 11.8964 18.6036C12.1154 18.8225 12.1154 19.1775 11.8964 19.3965C11.6775 19.6154 11.3225 19.6154 11.1035 19.3965ZM10.6087 10.1085C10.3886 10.3256 10.3875 10.6804 10.6061 10.899C10.8236 11.1165 11.1764 11.1165 11.3939 10.899L12.7929 9.5L15.2071 9.49999L18.4999 12.7929L20.7929 10.5L16.5 6.20711L14.7383 7.96882L12.408 8.33304L10.6087 10.1085Z"/>
</svg>
