<svg viewBox="0 0 24 24" xmlns="http://www.w3.org/2000/svg">
<path fill-rule="evenodd" clip-rule="evenodd" d="M11.5 8C11.5 9.10457 10.6046 10 9.5 10C8.39543 10 7.5 9.10457 7.5 8C7.5 6.89543 8.39543 6 9.5 6C10.6046 6 11.5 6.89543 11.5 8ZM9.5 9C10.0523 9 10.5 8.55229 10.5 8C10.5 7.44772 10.0523 7 9.5 7C8.94772 7 8.5 7.44772 8.5 8C8.5 8.55229 8.94772 9 9.5 9Z"/>
<path fill-rule="evenodd" clip-rule="evenodd" d="M16 9.5C16 11.1149 15.4111 12.5923 14.4362 13.7291L15.4179 14.7107C15.9385 14.4757 16.5722 14.5722 17 15L20.5 18.5C21.0523 19.0523 21.0523 19.9477 20.5 20.5C19.9477 21.0523 19.0523 21.0523 18.5 20.5L15 17C14.5722 16.5722 14.4758 15.9384 14.7108 15.4178L13.7291 14.4362C12.5924 15.411 11.115 16 9.5 16C5.91015 16 3 13.0899 3 9.5C3 5.91015 5.91015 3 9.5 3C13.0899 3 16 5.91015 16 9.5ZM13.4291 13.3487C14.4009 12.3567 15 10.9983 15 9.5C15 6.46243 12.5376 4 9.5 4C6.46243 4 4 6.46243 4 9.5C4 10.9983 4.59914 12.3567 5.5709 13.3487C5.86837 12.005 7.06682 11 8.5 11H10.5C11.9332 11 13.1316 12.005 13.4291 13.3487ZM12.5 14.1105V14C12.5 12.8954 11.6046 12 10.5 12H8.5C7.39543 12 6.5 12.8954 6.5 14V14.1105C7.36278 14.6731 8.39321 15 9.5 15C10.6068 15 11.6372 14.6731 12.5 14.1105ZM16.2929 15.7071L19.7929 19.2071C19.9547 19.3689 19.9547 19.6311 19.7929 19.7929C19.6311 19.9547 19.3689 19.9547 19.2071 19.7929L15.7071 16.2929C15.5454 16.1311 15.5454 15.8688 15.7071 15.7071C15.8689 15.5453 16.1312 15.5453 16.2929 15.7071Z"/>
</svg>
