<svg viewBox="0 0 24 24" xmlns="http://www.w3.org/2000/svg">
<path fill-rule="evenodd" clip-rule="evenodd" d="M11.5 3.5V2H12.5V3.5H11.5Z"/>
<path fill-rule="evenodd" clip-rule="evenodd" d="M5.63437 6.34142L4.57544 5.28249L5.28255 4.57538L6.34148 5.63431L5.63437 6.34142Z"/>
<path fill-rule="evenodd" clip-rule="evenodd" d="M19.4246 5.28249L18.3649 6.34219L17.6578 5.63509L18.7175 4.57539L19.4246 5.28249Z"/>
<path fill-rule="evenodd" clip-rule="evenodd" d="M14 20C14.5523 20 15 19.5522 15 19V16.2C16.7934 15.1626 17.9999 13.2208 17.9999 11C17.9999 7.68629 15.3137 5 11.9999 5C8.68624 5 6 7.68629 6 11C6 13.2208 7.2066 15.1625 9 16.2V19C9 19.5522 9.44772 20 10 20H14ZM10 15.6232V19H11.5V14.9146C10.9174 14.7087 10.5 14.1531 10.5 13.5C10.5 12.6716 11.1716 12 12 12C12.8284 12 13.5 12.6716 13.5 13.5C13.5 14.1531 13.0826 14.7087 12.5 14.9146V19H14V15.6232L14.4993 15.3344C15.9959 14.4686 16.9999 12.85 16.9999 11C16.9999 8.23858 14.7614 6 11.9999 6C9.23853 6 7 8.23856 7 11C7 12.8499 8.00405 14.4686 9.50073 15.3343L10 15.6232ZM12 14C12.2761 14 12.5 13.7761 12.5 13.5C12.5 13.2239 12.2761 13 12 13C11.7239 13 11.5 13.2239 11.5 13.5C11.5 13.7761 11.7239 14 12 14Z"/>
<path fill-rule="evenodd" clip-rule="evenodd" d="M5 12.5H3.5V11.5H5V12.5Z"/>
<path fill-rule="evenodd" clip-rule="evenodd" d="M20.5 12.5H19V11.5H20.5V12.5Z"/>
<path fill-rule="evenodd" clip-rule="evenodd" d="M14 22H10V21H14V22Z"/>
</svg>
