<svg viewBox="0 0 24 24" xmlns="http://www.w3.org/2000/svg">
<path fill-rule="evenodd" clip-rule="evenodd" d="M19 4H5V20H19V4ZM5 3C4.44772 3 4 3.44772 4 4V20C4 20.5523 4.44772 21 5 21H19C19.5523 21 20 20.5523 20 20V4C20 3.44772 19.5523 3 19 3H5Z"/>
<path fill-rule="evenodd" clip-rule="evenodd" d="M8 16H7V19H8V16Z"/>
<path fill-rule="evenodd" clip-rule="evenodd" d="M11 15H10V19H11V15Z"/>
<path fill-rule="evenodd" clip-rule="evenodd" d="M14 17H13V19H14V17Z"/>
<path fill-rule="evenodd" clip-rule="evenodd" d="M17 16H16V19H17V16Z"/>
<path d="M11.5 6.03545C9.80385 6.27806 8.5 7.73677 8.5 9.5C8.5 11.433 10.067 13 12 13C13.7632 13 15.2219 11.6961 15.4646 10H14.45C14.2184 11.1411 13.2095 12 12 12C10.6193 12 9.5 10.8807 9.5 9.5C9.5 8.29052 10.3589 7.28165 11.5 7.05001V6.03545Z"/>
<path fill-rule="evenodd" clip-rule="evenodd" d="M12.5 5H13C14.933 5 16.5 6.567 16.5 8.5V9H12.5V5ZM13.5 6.05001V8H15.45C15.2511 7.02043 14.4796 6.24885 13.5 6.05001Z"/>
</svg>
