<svg viewBox="0 0 24 24" xmlns="http://www.w3.org/2000/svg">
<path fill-rule="evenodd" clip-rule="evenodd" d="M6.80574 10.9871C7.18608 10.6068 7.79915 10.5954 8.1933 10.9615L13.1994 15.6099L15.7919 13.0029C16.1821 12.6106 16.8168 12.6097 17.2081 13.001L20.7071 16.5C20.8946 16.6875 21 16.9419 21 17.2071V20C21 20.5523 20.5523 21 20 21H4C3.44771 21 3 20.5523 3 20L3.00001 15.2071C3.00001 14.9419 3.10537 14.6875 3.2929 14.5L6.80574 10.9871ZM13.9326 16.2908L14.8402 17.1336L14.1598 17.8664L7.51285 11.6942L4.00001 15.2071L4 20H20V17.2071L16.501 13.7081L13.9326 16.2908Z"/>
<path fill-rule="evenodd" clip-rule="evenodd" d="M7 4H13L12 6L13 8H8V11H7V4ZM8 5V7H11.382L10.882 6L11.382 5H8Z"/>
</svg>
