<svg viewBox="0 0 24 24" xmlns="http://www.w3.org/2000/svg">
<path d="M11.5 3.51446V2.5H12.5V3.51446C16.5422 3.74894 19.8265 6.80804 20.4083 10.7473L21.3189 9.67615L22.0808 10.3238L20.0577 12.7037L17.631 10.676L18.2722 9.90859L19.4144 10.863C18.891 7.42158 16.0288 4.74867 12.5 4.5164V5.5H11.5V4.5164C7.75625 4.76282 4.76282 7.75625 4.5164 11.5H5.50418V12.5H4.5164C4.76282 16.2438 7.75625 19.2372 11.5 19.4836V18.5H12.5V19.4836C15.4301 19.2907 17.9015 17.4151 18.9551 14.8123L19.882 15.1875C18.6807 18.1552 15.8514 20.2911 12.5 20.4855V21.5H11.5V20.4855C7.20375 20.2363 3.76367 16.7962 3.51446 12.5H2.5V11.5H3.51446C3.76367 7.20375 7.20375 3.76367 11.5 3.51446Z"/>
<path fill-rule="evenodd" clip-rule="evenodd" d="M12 10C12.5523 10 13 9.55228 13 9C13 8.44772 12.5523 8 12 8C11.4477 8 11 8.44772 11 9C11 9.55228 11.4477 10 12 10ZM14 9C14 10.1046 13.1046 11 12 11C10.8954 11 10 10.1046 10 9C10 7.89543 10.8954 7 12 7C13.1046 7 14 7.89543 14 9Z"/>
<path fill-rule="evenodd" clip-rule="evenodd" d="M11 13H13C14.1046 13 15 13.8954 15 15V16H16V15C16 13.3431 14.6569 12 13 12H11C9.34315 12 8 13.3431 8 15V16H9V15C9 13.8954 9.89543 13 11 13Z"/>
</svg>
