<svg viewBox="0 0 24 24" xmlns="http://www.w3.org/2000/svg">
<path fill-rule="evenodd" clip-rule="evenodd" d="M14.4144 20.995V18.6425C14.4144 17.8034 14.7323 17.041 15.1 16.3777C15.3758 15.8803 15.7272 15.3599 16.0646 14.86C16.1699 14.7041 16.2739 14.5501 16.3738 14.3995C17.2573 13.067 18 11.7388 18 10.1129C18 8.39293 17.4135 6.86994 16.3837 5.78424C15.3618 4.70692 13.8474 4 11.8642 4C10.376 4 8.89114 4.53499 7.78425 5.59759C6.69046 6.6476 5.90207 8.27404 5.90207 10.5868C5.90207 11.4804 5.58391 12.1591 5.34278 12.6343C5.30945 12.7 5.27931 12.7585 5.25183 12.812C5.17105 12.969 5.1132 13.0814 5.06457 13.1986C5.06244 13.2038 5.06039 13.2088 5.0584 13.2137C5.20648 13.282 5.48265 13.4163 5.71363 13.6488C6.02152 13.9587 6.19019 14.3697 6.19019 14.8506C6.19019 15.3313 6.18417 15.7267 6.17929 16.0472C6.1779 16.1384 6.1766 16.2235 6.17557 16.3028C6.17067 16.6764 6.17237 16.8923 6.18658 17.0469C6.19883 17.1801 6.21696 17.2217 6.2276 17.2442C6.24552 17.282 6.28597 17.3501 6.41801 17.5095C6.42685 17.516 6.45569 17.5364 6.51583 17.566C6.61621 17.6153 6.75823 17.6679 6.94128 17.7187C7.30802 17.8206 7.74624 17.8902 8.14379 17.9354C9.14226 18.0491 9.99524 18.8825 9.99524 19.973V20.995H14.4144ZM15.4144 20.9976C15.4144 21.5498 14.9669 21.995 14.4146 21.995H9.99392C9.44163 21.995 8.99524 21.5473 8.99524 20.995V19.973C8.99524 19.4332 8.56698 18.9901 8.03068 18.929C7.18866 18.8332 6.04346 18.6215 5.66244 18.1649C5.15618 17.5582 5.15922 17.3579 5.17946 16.0283C5.18433 15.7083 5.19019 15.3228 5.19019 14.8506C5.19019 14.3744 4.87567 14.2301 4.57 14.0898C4.28105 13.9572 4 13.8282 4 13.426C4 13.0583 4.17803 12.7126 4.37592 12.3283C4.62346 11.8477 4.90207 11.3067 4.90207 10.5868C4.90207 5.47424 8.42046 3 11.8642 3C16.3365 3 19 6.21852 19 10.1129C19 12.2989 17.8664 13.9784 16.874 15.4488C16.1014 16.5934 15.4144 17.6112 15.4144 18.6425V20.9976Z"/>
<path fill-rule="evenodd" clip-rule="evenodd" d="M12 13.5C13.933 13.5 15.5 11.933 15.5 10C15.5 8.067 13.933 6.5 12 6.5C10.067 6.5 8.5 8.067 8.5 10C8.5 11.933 10.067 13.5 12 13.5ZM16.5 10C16.5 12.4853 14.4853 14.5 12 14.5C9.51472 14.5 7.5 12.4853 7.5 10C7.5 7.51472 9.51472 5.5 12 5.5C14.4853 5.5 16.5 7.51472 16.5 10Z"/>
<path fill-rule="evenodd" clip-rule="evenodd" d="M12 11C12.5523 11 13 10.5523 13 10C13 9.44772 12.5523 9 12 9C11.4477 9 11 9.44772 11 10C11 10.5523 11.4477 11 12 11ZM14 10C14 11.1046 13.1046 12 12 12C10.8954 12 10 11.1046 10 10C10 8.89543 10.8954 8 12 8C13.1046 8 14 8.89543 14 10Z"/>
<path d="M17.9993 4.03974V2L16 4.03974V5.29294L11.6465 9.64645L12.3536 10.3536L16.7072 6H17.9992L20 4.03974H17.9993Z"/>
</svg>
