<svg viewBox="0 0 24 24" xmlns="http://www.w3.org/2000/svg">
<path fill-rule="evenodd" clip-rule="evenodd" d="M10 4C10 2.89543 10.8954 2 12 2C13.1046 2 14 2.89543 14 4H19C19.5523 4 20 4.44772 20 5V9.41604C19.6825 9.27732 19.3478 9.17062 19 9.10002V5H16V7C16 7.55228 15.5523 8 15 8H9C8.44772 8 8 7.55228 8 7V5H5V20H19V18.9C19.3478 18.8294 19.6825 18.7227 20 18.584V20C20 20.5523 19.5523 21 19 21H5C4.44772 21 4 20.5523 4 20V5C4 4.44772 4.44772 4 5 4H10ZM12 3C12.5523 3 13 3.44772 13 4V5H15V7H9V5H11V4C11 3.44772 11.4477 3 12 3Z"/>
<path fill-rule="evenodd" clip-rule="evenodd" d="M18 17C19.6569 17 21 15.6569 21 14C21 12.3431 19.6569 11 18 11C16.3431 11 15 12.3431 15 14C15 15.6569 16.3431 17 18 17ZM22 14C22 16.2091 20.2091 18 18 18C15.7909 18 14 16.2091 14 14C14 11.7909 15.7909 10 18 10C20.2091 10 22 11.7909 22 14Z"/>
<path fill-rule="evenodd" clip-rule="evenodd" d="M19.8536 13.3536L17.5 15.7071L16.1465 14.3536L16.8536 13.6465L17.5 14.2929L19.1465 12.6465L19.8536 13.3536Z"/>
</svg>
