<?xml version="1.0" standalone="no"?><!DOCTYPE svg PUBLIC "-//W3C//DTD SVG 1.1//EN" "http://www.w3.org/Graphics/SVG/1.1/DTD/svg11.dtd"><svg t="1632117183356" class="icon" viewBox="0 0 1024 1024" version="1.1" xmlns="http://www.w3.org/2000/svg" p-id="2404" width="128" height="128" xmlns:xlink="http://www.w3.org/1999/xlink"><defs><style type="text/css"></style></defs><path d="M732.16 476.586667h-183.466667v-183.466667a35.84 35.84 0 1 0-72.106666 0v183.466667H291.84a35.84 35.84 0 1 0 0 72.106666h184.32v182.613334a35.84 35.84 0 1 0 72.106667 0v-182.613334h183.466666a35.84 35.84 0 1 0 0-72.106666z m91.306667 346.453333A439.893333 439.893333 0 1 1 341.333333 106.666667a439.893333 439.893333 0 0 1 481.706667 716.373333zM512 0a512 512 0 1 0 512 512A512 512 0 0 0 512 0z" p-id="2405"></path></svg>
