<?xml version="1.0" encoding="UTF-8"?>
<svg width="34px" height="34px" viewBox="0 0 34 34" version="1.1" xmlns="http://www.w3.org/2000/svg" xmlns:xlink="http://www.w3.org/1999/xlink">
    <title>形状_slice</title>
    <g id="飞廉系统-修改" stroke="none" stroke-width="1" fill="none" fill-rule="evenodd">
        <g id="画板" transform="translate(2.000000, 2.000000)" fill="#6B738D" fill-rule="nonzero" stroke="#6B738D" stroke-width="0.4">
            <path d="M28.7946429,18.4821429 C28.1289425,18.4821429 27.5892857,19.0217996 27.5892857,19.6875 L27.5892857,27.5892857 L19.6875,27.5892857 C19.0217996,27.5892857 18.4821429,28.1289425 18.4821429,28.7946429 C18.4821429,29.4603432 19.0217996,30 19.6875,30 L28.7946429,30 C29.4603432,30 30,29.4603432 30,28.7946429 L30,19.6875 C30,19.0217996 29.4603432,18.4821429 28.7946429,18.4821429 L28.7946429,18.4821429 Z M10.3125,0 L1.20535714,0 C0.539656775,0 0,0.539656775 0,1.20535714 L0,10.3125 C0,10.9782004 0.539656775,11.5178571 1.20535714,11.5178571 C1.87105751,11.5178571 2.41071429,10.9782004 2.41071429,10.3125 L2.41071429,2.41071429 L10.3125,2.41071429 C10.9782004,2.41071429 11.5178571,1.87105751 11.5178571,1.20535714 C11.5178571,0.539656775 10.9782004,0 10.3125,0 Z M28.7946429,0 L19.6875,0 C19.0217996,0 18.4820644,0.539656775 18.4820644,1.20535714 C18.4820644,1.87105751 19.0217996,2.41071429 19.6875,2.41071429 L25.8847098,2.41071429 L18.8350446,9.46004464 C18.364339,9.93084274 18.364414,10.6940823 18.8352121,11.1647879 C19.3060101,11.6354936 20.0692497,11.6354186 20.5399554,11.1646205 L27.5892857,4.11529018 L27.5892857,10.3125 C27.5892857,10.9782004 28.1289425,11.5178571 28.7946429,11.5178571 C29.4603432,11.5178571 30,10.9782004 30,10.3125 L30,1.20535714 C30,0.539656775 29.4603432,0 28.7946429,0 L28.7946429,0 Z M10.3125,18.4821416 C9.99264768,18.4816774 9.68582265,18.6088182 9.46004464,18.8353795 L2.41071429,25.8847098 L2.41071429,19.6875 C2.41071429,19.0217996 1.87105751,18.4821416 1.20535714,18.4821416 C0.539656775,18.4821416 0,19.0217996 0,19.6875 L0,28.7946429 C0,29.4603432 0.539656775,30 1.20535714,30 L10.3125,30 C10.9782004,30 11.5178571,29.4603432 11.5178571,28.7946429 C11.5178571,28.1289425 10.9782004,27.5892857 10.3125,27.5892857 L4.11529018,27.5892857 L11.1649554,20.5399554 C11.5098025,20.1952208 11.6129823,19.6766768 11.4263675,19.2261921 C11.2397528,18.7757074 10.8001079,18.4821416 10.3125,18.4821416 Z" id="形状"></path>
        </g>
    </g>
</svg>