<?xml version="1.0" encoding="UTF-8"?>
<svg width="34px" height="34px" viewBox="0 0 34 34" version="1.1" xmlns="http://www.w3.org/2000/svg" xmlns:xlink="http://www.w3.org/1999/xlink">
    <title>形状_slice</title>
    <g id="飞廉系统-修改" stroke="none" stroke-width="1" fill="none" fill-rule="evenodd">
        <g id="画板" transform="translate(1.000000, 1.000000)" fill="#6B738D" fill-rule="nonzero">
            <path d="M31.554731,28.6493506 L25.4842301,22.5825603 C27.2467533,20.2263451 28.2968461,17.3135436 28.296846,14.1410019 C28.296846,6.33024121 21.9591837,0 14.1447124,0 C6.33395177,0.00371059798 0,6.33395177 0,14.1447124 C0,21.9554731 6.33395177,28.2857143 14.148423,28.2857143 C17.6957329,28.2857143 20.9276438,26.9721707 23.4100186,24.8200371 L29.3951763,30.8051948 C29.6920223,31.1020408 30.0816327,31.2541744 30.4749536,31.2541744 C30.8682746,31.2541744 31.2541744,31.1020408 31.554731,30.8051948 C32.148423,30.2077922 32.148423,29.2430427 31.554731,28.6493506 Z M14.148423,25.2393321 C8.02597404,25.2393321 3.04267163,20.2634509 3.04267163,14.1410019 C3.04267163,8.01855288 8.02597404,3.04638219 14.148423,3.04638219 C20.270872,3.04638219 25.2541744,8.02597404 25.2541744,14.1447124 C25.2541744,20.2634508 20.270872,25.2393321 14.148423,25.2393321 Z" id="形状"></path>
        </g>
    </g>
</svg>