<?xml version="1.0" encoding="UTF-8"?>
<svg width="34px" height="32px" viewBox="0 0 34 32" version="1.1" xmlns="http://www.w3.org/2000/svg" xmlns:xlink="http://www.w3.org/1999/xlink">
    <title>编组_2_slice</title>
    <g id="飞廉系统-修改" stroke="none" stroke-width="1" fill="none" fill-rule="evenodd">
        <g id="画板" transform="translate(0.000000, -0.000000)" fill="#6B738D" fill-rule="nonzero" stroke="#6B738D">
            <g id="编组-2">
                <path d="M16.8389196,13.4736882 C18.234163,13.4736882 19.3652314,14.6047565 19.3652314,16 C19.3652314,17.3952435 18.234163,18.5263118 16.8389196,18.5263118 C15.4436761,18.5263118 14.3126077,17.3952435 14.3126077,16 C14.3126077,14.6047565 15.4436761,13.4736882 16.8389196,13.4736882 M16.8389196,10.9473764 C14.7953241,10.9473764 12.9529541,12.1784086 12.170904,14.0664447 C11.3888539,15.9544807 11.8211349,18.1277042 13.2661751,19.5727444 C14.7112154,21.0177847 16.8844389,21.4500657 18.7724749,20.6680155 C20.660511,19.8859654 21.8915432,18.0435955 21.8915432,16 C21.8915432,13.209513 19.6294065,10.9473764 16.8389196,10.9473764 L16.8389196,10.9473764 Z" id="形状" stroke-width="0.4"></path>
                <path d="M11.4999806,2.52633706 C11.5850018,2.53133502 11.666818,2.56055506 11.7357697,2.61054742 L13.6052404,3.99159789 C15.5214947,5.42878861 18.1563444,5.42878861 20.0725987,3.99159789 L21.9420694,2.61054742 C22.0103086,2.55921769 22.0925415,2.5298488 22.1778585,2.52633706 L22.278911,2.52633706 C23.4527745,3.02020954 24.5568993,3.66569786 25.5631163,4.44633402 C25.6708663,4.5477682 25.7213331,4.69601461 25.697853,4.84212288 L25.4536428,7.17475076 C25.1709598,9.54385883 26.4554022,11.8231478 28.6283747,12.8084261 L30.7420555,13.7600035 C30.8754947,13.8118051 30.9715856,13.9303172 30.9946867,14.071582 C31.1631243,15.354496 31.1631243,16.6539251 30.9946867,17.9368391 C30.9685376,18.0767157 30.8735065,18.1939208 30.7420555,18.2484175 L28.6283747,19.1915739 C26.4467655,20.161978 25.1476469,22.436288 25.4199587,24.8084071 L25.6641688,27.132614 C25.687649,27.2787223 25.6371821,27.4269687 25.5294322,27.5284029 C25.0411078,27.930315 24.5262584,28.2988684 23.988382,28.631559 C23.4455819,28.9480189 22.883022,29.2292988 22.3041741,29.4736629 L22.2031216,29.4736629 C22.1181004,29.468665 22.0362843,29.4394449 21.9673325,29.3894526 L20.0978618,28.0084021 C18.1816075,26.5712114 15.5467579,26.5712114 13.6305036,28.0084021 L11.7357697,29.3894526 C11.6675306,29.4407823 11.5852976,29.4701512 11.4999806,29.4736629 L11.3989281,29.4736629 C10.2250646,28.9797905 9.12093985,28.3343021 8.11472278,27.553666 C8.00697283,27.4522318 7.95650597,27.3039854 7.97998616,27.1578771 L8.22419631,24.8252492 C8.50687932,22.4561412 7.22243695,20.1768522 5.04946447,19.1915739 L2.90209945,18.2399965 C2.76866026,18.1881949 2.67256937,18.0696828 2.64946824,17.928418 C2.4810306,16.645504 2.4810306,15.3460749 2.64946824,14.0631609 C2.67561733,13.9232843 2.77064845,13.8060792 2.90209945,13.7515825 L5.04946447,12.8084261 C7.23107366,11.838022 8.53019226,9.56371197 8.25788046,7.19159285 L8.01367032,4.86738597 C7.99019015,4.72127771 8.04065702,4.57303131 8.14840697,4.47159715 C8.63673133,4.06968497 9.15158071,3.70113157 9.68945714,3.36844098 C10.2322572,3.05198115 10.7948171,2.77070118 11.373665,2.52633706 L11.4747175,2.52633706 M11.4747175,1.24786207e-05 C11.1078247,-0.00108688162 10.7443433,0.0704645804 10.4052455,0.210551237 C9.72265703,0.50306409 9.05892083,0.837744621 8.4178802,1.2126549 C7.7705897,1.59257952 7.14890633,2.01453656 6.55683052,2.47581081 C5.76225939,3.11829167 5.34965395,4.12124029 5.46209542,5.13685924 L5.71472659,7.46106609 C5.85757695,8.74350357 5.15675463,9.97164369 3.97999249,10.5010613 L1.87473263,11.4442177 C0.941546539,11.8573584 0.288492789,12.7238492 0.148419557,13.7347404 C-0.0494731858,15.2356114 -0.0494731858,16.7559675 0.148419557,18.2568385 C0.286831401,19.2658791 0.936387997,20.1319545 1.8663116,20.5473612 L3.97999249,21.4989387 C5.15675463,22.0283563 5.85757695,23.2564964 5.71472659,24.5389339 L5.46209542,26.8715618 C5.34676016,27.8894013 5.7636021,28.8949131 6.56525155,29.5326102 C7.74752595,30.4535044 9.04742104,31.2124846 10.4305086,31.7894488 C10.7696064,31.9295354 11.1330878,32.0010869 11.4999806,31.9999875 C12.1281034,31.996986 12.7388443,31.7934057 13.2431358,31.418923 L15.1041855,30.0294515 C16.1346324,29.2658632 17.5432067,29.2658632 18.5736537,30.0294515 L20.4347033,31.418923 C20.9389948,31.7934057 21.5497357,31.996986 22.1778585,31.9999875 C22.5447513,32.0010869 22.9082327,31.9295354 23.2473305,31.7894488 C23.9385299,31.4978905 24.6107299,31.1631967 25.2599589,30.7873451 C25.9072494,30.4074205 26.5289328,29.9854634 27.1210086,29.5241892 C27.9155797,28.8817083 28.3281852,27.8787597 28.2157437,26.8631408 L27.9631125,24.5389339 C27.8202622,23.2564964 28.5210845,22.0283563 29.6978466,21.4989387 L31.8031065,20.5557823 C32.7199874,20.1314058 33.3556039,19.2669673 33.4873143,18.2652596 C33.6852071,16.7643886 33.6852071,15.2440325 33.4873143,13.7431615 C33.3556039,12.7414538 32.7199873,11.8770152 31.8031065,11.4526388 L29.6894256,10.5010613 C28.5126635,9.97164369 27.8118411,8.74350357 27.9546915,7.46106609 L28.2073227,5.12843821 C28.3246306,4.11213918 27.9110949,3.10692935 27.1125876,2.46738978 C25.9303132,1.54649558 24.6304181,0.787515441 23.2473305,0.210551237 C22.9082327,0.0704645758 22.5447513,-0.0010868864 22.1778585,1.24786207e-05 C21.5497357,0.00301396763 20.9389948,0.206594281 20.4347033,0.581076968 L18.5736537,1.97054846 C17.5432067,2.7341368 16.1346324,2.7341368 15.1041855,1.97054846 L13.2431358,0.581076968 C12.7388443,0.206594281 12.1281034,0.00301396763 11.4999806,1.24786207e-05 L11.4747175,1.24786207e-05 Z" id="形状" stroke-width="0.3"></path>
            </g>
        </g>
    </g>
</svg>