<?xml version="1.0" encoding="UTF-8"?>
<svg width="34px" height="34px" viewBox="0 0 34 34" version="1.1" xmlns="http://www.w3.org/2000/svg" xmlns:xlink="http://www.w3.org/1999/xlink">
    <title>形状_slice</title>
    <g id="飞廉系统-修改" stroke="none" stroke-width="1" fill="none" fill-rule="evenodd">
        <g id="画板" transform="translate(2.000000, 1.000000)" fill="#6B738D" fill-rule="nonzero" stroke="#6B738D" stroke-width="0.6">
            <path d="M13.3408648,32 C8.10468797,32 3.18868499,29.4252685 0.190390096,25.1095915 C-0.0397348742,24.7794122 -0.0630808856,24.3458434 0.130357495,23.9889829 C0.323795875,23.6321225 0.700667202,23.3953272 1.10421969,23.4320138 L1.36102581,23.4453544 C1.44106928,23.4520247 1.52111275,23.4553598 1.60115621,23.4553598 C9.25197767,23.4553598 15.4753573,17.2319802 15.4753573,9.58115874 C15.4753573,6.74628593 14.6182252,4.01146744 12.9973449,1.68020145 C12.76722,1.35002214 12.743874,0.916453357 12.9373123,0.559592897 C13.1307507,0.202732437 13.5109572,-0.0273925331 13.9111745,0.00262376731 C22.5692096,0.316127349 29.3495584,7.3366065 29.3495584,15.9913065 C29.3495584,24.8194339 22.1689923,32 13.3408648,32 Z M3.25872303,25.513144 C5.86347087,28.2713085 9.50211351,29.8688427 13.3408648,29.8688427 C20.9916863,29.8688427 27.2150659,23.6454631 27.2150659,15.9946416 C27.2150659,9.19094684 22.3824415,3.55455265 15.8855801,2.36724121 C17.0195292,4.59845287 17.6098498,7.05978951 17.6098498,9.59116417 C17.6098498,17.8556522 11.3097618,24.6793578 3.25872303,25.513144 Z" id="形状"></path>
        </g>
    </g>
</svg>