<svg viewBox="0 0 24 24" xmlns="http://www.w3.org/2000/svg">
<path fill-rule="evenodd" clip-rule="evenodd" d="M10 4.98189C10 4.1646 10.9272 3.69244 11.5882 4.17315L15.7466 7.19745C16.2907 7.59318 16.2967 8.40251 15.7584 8.80619L11.5 12L15.7584 15.1938C16.2967 15.5975 16.2907 16.4068 15.7466 16.8025L11.5882 19.8269C10.9272 20.3076 10 19.8354 10 19.0181V13.125L6.3 15.9L5.7 15.1L9.83333 12L5.7 8.9L6.3 8.1L10 10.875V4.98189ZM11 12.875L15.1584 15.9938L11 19.0181V12.875ZM11 11.125V4.98189L15.1584 8.00619L11 11.125Z"/>
</svg>
