<svg viewBox="0 0 24 24" xmlns="http://www.w3.org/2000/svg">
<path fill-rule="evenodd" clip-rule="evenodd" d="M9.73219 8.04599L7.03974 4.37448L4.93236 6.48186C4.38765 7.02657 4.25877 7.75988 4.5462 8.33973C5.31628 9.89319 6.79179 12.3776 9.27817 14.864C11.7645 17.3504 14.249 18.8259 15.8024 19.5959C16.3823 19.8834 17.1156 19.7545 17.6603 19.2098L19.7677 17.1024L16.0961 14.41L14.7376 15.7685C14.1356 16.3705 13.1619 16.5582 12.3649 16.0561C11.7769 15.6856 10.8825 15.0541 9.98527 14.1569C9.08802 13.2596 8.4565 12.3653 8.08609 11.7773C7.58396 10.9802 7.77166 10.0065 8.37361 9.40457L9.73219 8.04599ZM4.22525 5.77475C3.42176 6.57825 3.14556 7.76577 3.65024 8.78386C4.45619 10.4097 5.99037 12.9904 8.57106 15.5711C11.1517 18.1518 13.7324 19.6859 15.3583 20.4919C16.3764 20.9966 17.5639 20.7204 18.3674 19.9169L20.4748 17.8095C20.9081 17.3761 20.8533 16.6584 20.359 16.296L16.6875 13.6035C16.2895 13.3117 15.738 13.3538 15.389 13.7028L14.0305 15.0614C13.7261 15.3658 13.2621 15.4394 12.8979 15.2099C12.3538 14.8672 11.5231 14.2805 10.6924 13.4498C9.86167 12.6191 9.27494 11.7883 8.93219 11.2443C8.70277 10.8801 8.77635 10.416 9.08071 10.1117L10.4393 8.7531C10.7883 8.40409 10.8305 7.85265 10.5386 7.45463L7.84615 3.78311C7.48371 3.28888 6.76601 3.23399 6.33264 3.66737L4.22525 5.77475Z"/>
<path fill-rule="evenodd" clip-rule="evenodd" d="M20 7.5C20 9.433 18.433 11 16.5 11C14.567 11 13 9.433 13 7.5C13 5.567 14.567 4 16.5 4C18.433 4 20 5.567 20 7.5ZM17.8787 9.58579C17.4835 9.84756 17.0095 10 16.5 10C15.1193 10 14 8.88071 14 7.5C14 6.99045 14.1524 6.51651 14.4142 6.12129L17.8787 9.58579ZM18.5858 8.87868L15.1213 5.41419C15.5165 5.15243 15.9905 5 16.5 5C17.8807 5 19 6.11929 19 7.5C19 8.00953 18.8476 8.48346 18.5858 8.87868Z"/>
</svg>
