<svg viewBox="0 0 24 24" xmlns="http://www.w3.org/2000/svg">
<g clip-path="url(#clip0)">
<path fill-rule="evenodd" clip-rule="evenodd" d="M3 19C3 19.5523 3.44772 20 4 20H20C20.5523 20 21 19.5523 21 19V14.1468C21 14.0976 20.9964 14.0485 20.9892 14C20.9821 13.9525 20.9717 13.9055 20.9578 13.8594L18.2138 4.71265C18.0869 4.28967 17.6976 4 17.256 4H6.74403C6.30242 4 5.9131 4.28967 5.7862 4.71265L3.04217 13.8594C3.02834 13.9055 3.01788 13.9525 3.01083 14C3.00363 14.0485 3 14.0976 3 14.1468V19ZM17.256 5H6.74403L4.04403 14H9L9.99724 15.9945C9.99893 15.9979 10.0024 16 10.0062 16H13.9938C13.9976 16 14.0011 15.9979 14.0028 15.9945L15 14H19.956L17.256 5ZM20 15H15.618L14.8972 16.4417C14.7261 16.7839 14.3764 17 13.9938 17H10.0062C9.62362 17 9.2739 16.7839 9.10281 16.4417L8.38197 15H4V19H20V15Z"/>
</g>
<defs>
<clipPath id="clip0">
<rect fill="white"/>
</clipPath>
</defs>
</svg>
