<svg viewBox="0 0 24 24" xmlns="http://www.w3.org/2000/svg">
<path fill-rule="evenodd" clip-rule="evenodd" d="M16 7H8V6H16V7Z"/>
<path fill-rule="evenodd" clip-rule="evenodd" d="M13 9H8V8H13V9Z"/>
<path fill-rule="evenodd" clip-rule="evenodd" d="M3 8.61803V20C3 20.5523 3.44772 21 4 21H20C20.5523 21 21 20.5523 21 20V8.61803C21 8.23926 20.786 7.89299 20.4472 7.7236L18 6.5V7.61803L20 8.61803V9.44444L12 13L4 9.44444V8.61803L6 7.61803V6.5L3.55279 7.7236C3.214 7.89299 3 8.23926 3 8.61803ZM12 14.0943L20 10.5388V20H4V10.5388L12 14.0943Z"/>
<path d="M7 4H17V10.7778L18 10.3333V4C18 3.44772 17.5523 3 17 3H7C6.44772 3 6 3.44772 6 4V10.3333L7 10.7778V4Z"/>
</svg>
