<svg viewBox="0 0 24 24" xmlns="http://www.w3.org/2000/svg">
<path fill-rule="evenodd" clip-rule="evenodd" d="M19 14C20.1046 14 21 13.1046 21 12C21 10.8954 20.1046 10 19 10V11C19.5523 11 20 11.4477 20 12C20 12.5523 19.5523 13 19 13V14Z"/>
<path fill-rule="evenodd" clip-rule="evenodd" d="M9 9.8198V14.1802L17 15.7802V8.2198L9 9.8198ZM8 9V15L18 17V7L8 9Z"/>
<path fill-rule="evenodd" clip-rule="evenodd" d="M7 21H6V15H4C3.44772 15 3 14.5523 3 14V10C3 9.44772 3.44772 9 4 9H7V21ZM4 10H6V14H4V10Z"/>
</svg>
