<svg viewBox="0 0 24 24" xmlns="http://www.w3.org/2000/svg">
<path fill-rule="evenodd" clip-rule="evenodd" d="M12 15H6V14H12V15Z"/>
<path fill-rule="evenodd" clip-rule="evenodd" d="M18 9H6V8H18V9Z"/>
<path fill-rule="evenodd" clip-rule="evenodd" d="M18 12H6V11H18V12Z"/>
<path fill-rule="evenodd" clip-rule="evenodd" d="M7 17V18.9194L9.39922 17H20V6L4 6V17H7ZM6 21V18H4C3.44772 18 3 17.5523 3 17V6C3 5.44772 3.44772 5 4 5H20C20.5523 5 21 5.44772 21 6V17C21 17.5523 20.5523 18 20 18H9.75L6 21Z"/>
</svg>
