<svg viewBox="0 0 24 24" xmlns="http://www.w3.org/2000/svg">
<path fill-rule="evenodd" clip-rule="evenodd" d="M9.73219 8.04598L7.03975 4.37446L4.93237 6.48185C4.38766 7.02656 4.25877 7.75987 4.54621 8.33971C5.31628 9.89318 6.79179 12.3776 9.27817 14.864C11.7646 17.3503 14.249 18.8259 15.8024 19.5959C16.3823 19.8834 17.1156 19.7545 17.6603 19.2098L19.7677 17.1024L16.0962 14.4099L14.7376 15.7685C14.1356 16.3705 13.1619 16.5582 12.3649 16.056C11.7769 15.6856 10.8825 15.0541 9.98528 14.1569C9.08802 13.2596 8.45651 12.3653 8.08609 11.7773C7.58397 10.9802 7.77167 10.0065 8.37361 9.40456L9.73219 8.04598ZM4.22526 5.77474C3.42176 6.57824 3.14557 7.76576 3.65025 8.78385C4.4562 10.4097 5.99038 12.9904 8.57107 15.5711C11.1518 18.1518 13.7324 19.6859 15.3583 20.4919C16.3764 20.9966 17.5639 20.7204 18.3674 19.9169L20.4748 17.8095C20.9082 17.3761 20.8533 16.6584 20.359 16.296L16.6875 13.6035C16.2895 13.3117 15.7381 13.3538 15.389 13.7028L14.0305 15.0614C13.7261 15.3658 13.2621 15.4394 12.8979 15.2099C12.3538 14.8672 11.5231 14.2805 10.6924 13.4497C9.86168 12.619 9.27495 11.7883 8.9322 11.2443C8.70278 10.8801 8.77636 10.416 9.08072 10.1117L10.4393 8.75309C10.7883 8.40408 10.8305 7.85263 10.5386 7.45462L7.84615 3.7831C7.48372 3.28887 6.76602 3.23398 6.33264 3.66736L4.22526 5.77474Z"/>
</svg>
