<svg viewBox="0 0 24 24" xmlns="http://www.w3.org/2000/svg">
<path fill-rule="evenodd" clip-rule="evenodd" d="M15 12.5V14C15 14.5523 14.5523 15 14 15H7C6.44772 15 6 14.5523 6 14V9C6 8.44771 6.44772 8 7 8H14C14.5523 8 15 8.44772 15 9V10.5L18 9V14L15 12.5ZM7 9H14V14H7V9ZM17 12.382L15.2361 11.5L17 10.618V12.382Z"/>
<path fill-rule="evenodd" clip-rule="evenodd" d="M7 17V18.9194L9.39922 17H20V6L4 6V17H7ZM6 21V18H4C3.44772 18 3 17.5523 3 17V6C3 5.44772 3.44772 5 4 5H20C20.5523 5 21 5.44772 21 6V17C21 17.5523 20.5523 18 20 18H9.75L6 21Z"/>
</svg>
