<svg viewBox="0 0 24 24" xmlns="http://www.w3.org/2000/svg">
<path fill-rule="evenodd" clip-rule="evenodd" d="M10 11.5C10 12.4793 9.59777 13.3647 8.94949 14H15.0505C14.4022 13.3647 14 12.4793 14 11.5C14 9.567 15.567 8 17.5 8C19.433 8 21 9.567 21 11.5C21 13.433 19.433 15 17.5 15H6.5C4.567 15 3 13.433 3 11.5C3 9.567 4.567 8 6.5 8C8.433 8 10 9.567 10 11.5ZM6.5 14C7.88071 14 9 12.8807 9 11.5C9 10.1193 7.88071 9 6.5 9C5.11929 9 4 10.1193 4 11.5C4 12.8807 5.11929 14 6.5 14ZM17.5 14C18.8807 14 20 12.8807 20 11.5C20 10.1193 18.8807 9 17.5 9C16.1193 9 15 10.1193 15 11.5C15 12.8807 16.1193 14 17.5 14Z"/>
</svg>
