<svg viewBox="0 0 24 24" xmlns="http://www.w3.org/2000/svg">
<path fill-rule="evenodd" clip-rule="evenodd" d="M12 14.3C10.7112 14.3 9.54442 14.8181 8.69483 15.6585L7.99158 14.9475C9.02075 13.9295 10.4374 13.3 12 13.3C13.5627 13.3 14.9793 13.9295 16.0085 14.9475L15.3052 15.6585C14.4556 14.8181 13.2888 14.3 12 14.3Z"/>
<path fill-rule="evenodd" clip-rule="evenodd" d="M12 10.4C9.62936 10.4 7.48352 11.3586 5.92736 12.9105L5.22122 12.2024C6.95719 10.4712 9.354 9.40002 12 9.40002C14.6461 9.40002 17.0429 10.4712 18.7789 12.2024L18.0727 12.9105C16.5166 11.3586 14.3707 10.4 12 10.4Z"/>
<path fill-rule="evenodd" clip-rule="evenodd" d="M12 6.5C8.55584 6.5 5.43782 7.89228 3.17644 10.1459L2.47055 9.4376C4.91171 7.00479 8.28061 5.5 12 5.5C15.7194 5.5 19.0883 7.00479 21.5294 9.4376L20.8236 10.1459C18.5622 7.89228 15.4442 6.5 12 6.5Z"/>
<path d="M13 18C13 18.5523 12.5523 19 12 19C11.4477 19 11 18.5523 11 18C11 17.4477 11.4477 17 12 17C12.5523 17 13 17.4477 13 18Z"/>
</svg>
