<svg viewBox="0 0 24 24" xmlns="http://www.w3.org/2000/svg">
<path d="M13 18C13 18.5523 12.5523 19 12 19C11.4477 19 11 18.5523 11 18C11 17.4477 11.4477 17 12 17C12.5523 17 13 17.4477 13 18Z"/>
<path d="M14.6398 13.9469L15.8254 15.1326L15.3052 15.6585C14.4556 14.8181 13.2888 14.3 12 14.3C10.7112 14.3 9.54442 14.8181 8.69483 15.6585L7.99158 14.9475C9.02075 13.9295 10.4374 13.3 12 13.3C12.9524 13.3 13.8505 13.5338 14.6398 13.9469Z"/>
<path d="M10.2518 9.5589C8.30607 9.91701 6.56551 10.8618 5.22122 12.2024L5.92736 12.9105C7.29203 11.5496 9.11017 10.6449 11.1358 10.4429L10.2518 9.5589Z"/>
<path d="M12.5227 10.4156L11.519 9.41188C11.6783 9.40401 11.8387 9.40002 12 9.40002C14.6461 9.40002 17.0429 10.4712 18.7789 12.2024L18.0727 12.9105C16.6318 11.4735 14.6852 10.5452 12.5227 10.4156Z"/>
<path d="M7.10703 6.41416C5.35424 7.0961 3.77911 8.13352 2.47055 9.4376L3.17644 10.1459C4.49132 8.83554 6.09582 7.81637 7.88565 7.19278L7.10703 6.41416Z"/>
<path d="M8.9754 6.86832L8.1609 6.05381C9.37779 5.69347 10.6664 5.5 12 5.5C15.7194 5.5 19.0883 7.00479 21.5294 9.4376L20.8236 10.1459C18.5622 7.89228 15.4442 6.5 12 6.5C10.957 6.5 9.94387 6.62769 8.9754 6.86832Z"/>
<path fill-rule="evenodd" clip-rule="evenodd" d="M3.64645 4.35358L19.6465 20.3536L20.3536 19.6465L4.35356 3.64647L3.64645 4.35358Z"/>
</svg>
