<svg viewBox="0 0 24 24" xmlns="http://www.w3.org/2000/svg">
<path fill-rule="evenodd" clip-rule="evenodd" d="M7 13.5C7 14.0523 7.44772 14.5 8 14.5C8.55228 14.5 9 14.0523 9 13.5C9 12.9477 8.55228 12.5 8 12.5C7.44772 12.5 7 12.9477 7 13.5Z"/>
<path fill-rule="evenodd" clip-rule="evenodd" d="M15 13.5C15 14.0523 15.4477 14.5 16 14.5C16.5523 14.5 17 14.0523 17 13.5C17 12.9477 16.5523 12.5 16 12.5C15.4477 12.5 15 12.9477 15 13.5Z"/>
<path fill-rule="evenodd" clip-rule="evenodd" d="M5.91603 6.22266L7.7948 9.04081C9.04988 8.37632 10.481 8 12 8C13.519 8 14.9501 8.37632 16.2052 9.04081L18.084 6.22266L18.916 6.77736L17.0624 9.55772C19.1796 11.0007 20.6492 13.3235 20.9451 16C20.9814 16.3283 21 16.662 21 17H3C3 16.662 3.01863 16.3283 3.05493 16C3.3508 13.3235 4.82038 11.0007 6.93756 9.55772L5.08398 6.77736L5.91603 6.22266ZM12 9C7.92038 9 4.55399 12.0537 4.06189 16H19.9381C19.446 12.0537 16.0796 9 12 9Z"/>
</svg>
