<svg viewBox="0 0 24 24" xmlns="http://www.w3.org/2000/svg">
<path fill-rule="evenodd" clip-rule="evenodd" d="M12 6C12.2761 6 12.5 5.77614 12.5 5.5C12.5 5.22386 12.2761 5 12 5C11.7239 5 11.5 5.22386 11.5 5.5C11.5 5.77614 11.7239 6 12 6Z"/>
<path fill-rule="evenodd" clip-rule="evenodd" d="M15.7929 12L14.1464 10.3536L14.8535 9.64645L17.2071 12L14.8535 14.3536L14.1464 13.6465L15.7929 12Z"/>
<path d="M16 4H8V9.37868L7 10.3787V4C7 3.44772 7.44772 3 8 3H16C16.5523 3 17 3.44772 17 4V10.3787L16 9.37868V4Z"/>
<path d="M16 14.6213V20H8V14.6213L7 13.6213V20C7 20.5523 7.44772 21 8 21H16C16.5523 21 17 20.5523 17 20V13.6213L16 14.6213Z"/>
<path fill-rule="evenodd" clip-rule="evenodd" d="M8.20713 12L9.85358 10.3536L9.14647 9.64645L6.79292 12L9.14647 14.3536L9.85358 13.6465L8.20713 12Z"/>
<path fill-rule="evenodd" clip-rule="evenodd" d="M12.5196 8H13.5196L11.5214 16H10.5214L12.5196 8Z"/>
</svg>
