<svg viewBox="0 0 24 24" xmlns="http://www.w3.org/2000/svg">
<path d="M12.605 4.5664C13.7876 3.0076 15.4318 3 15.4318 3C15.4318 3 15.6764 4.46554 14.5015 5.87732C13.247 7.3848 11.821 7.13812 11.821 7.13812C11.821 7.13812 11.5533 5.95255 12.605 4.5664Z"/>
<path fill-rule="evenodd" clip-rule="evenodd" d="M18.705 9.12867C18.705 9.12867 16.7583 10.124 16.7583 12.539C16.7583 15.2634 19.1833 16.2023 19.1833 16.2023C19.1833 16.2023 19.1306 16.3508 19.031 16.5955C18.9714 16.7421 18.8951 16.923 18.8033 17.1273C18.1795 18.5147 16.8422 20.9736 15.1985 20.9736C14.6795 20.9736 14.2175 20.801 13.7495 20.6262C13.2691 20.4467 12.7824 20.2649 12.2211 20.2649C11.5952 20.2649 10.9718 20.4908 10.4163 20.6921C9.96961 20.854 9.56675 21 9.24149 21C7.15063 21.0001 4.50916 16.474 4.50916 12.8358C4.50916 9.25626 6.74499 7.37852 8.84212 7.37852C9.63427 7.37852 10.3233 7.64396 10.9007 7.86637C11.317 8.02673 11.6752 8.16472 11.9721 8.16472C12.2103 8.16472 12.5284 8.03653 12.9154 7.88053C13.517 7.63805 14.2852 7.32837 15.1796 7.32837C16.5654 7.32837 17.4908 7.86848 18.0443 8.35703C18.5014 8.76043 18.705 9.12867 18.705 9.12867ZM17.2437 8.99156C16.8276 8.66709 16.1672 8.32837 15.1796 8.32837C14.6311 8.32837 14.1194 8.48411 13.6127 8.67955C13.5297 8.71156 13.4278 8.75247 13.322 8.79495C13.1621 8.85916 12.9932 8.92698 12.8668 8.9732C12.646 9.05394 12.3161 9.16472 11.9721 9.16472C11.6286 9.16472 11.3046 9.07259 11.0583 8.99015C10.8879 8.93309 10.6926 8.85791 10.5139 8.78911C10.439 8.76029 10.3671 8.73259 10.3011 8.70781C9.80164 8.52029 9.33607 8.37852 8.84212 8.37852C7.39817 8.37852 5.50916 9.70194 5.50916 12.8358C5.50916 14.442 6.10254 16.3112 6.95588 17.7798C7.3799 18.5096 7.84322 19.0967 8.2841 19.4884C8.74314 19.8961 9.07088 20 9.24146 20H9.24149C9.27341 20 9.3666 19.9891 9.56368 19.9289C9.71347 19.883 9.86931 19.8266 10.06 19.7575C10.1178 19.7366 10.1789 19.7145 10.244 19.6911C10.7521 19.5089 11.4633 19.2649 12.2211 19.2649C12.9638 19.2649 13.5941 19.5005 14.0503 19.671C14.0606 19.6748 14.0707 19.6786 14.0808 19.6824C14.5846 19.8706 14.8831 19.9736 15.1985 19.9736C15.4129 19.9736 15.715 19.8595 16.106 19.4958C16.489 19.1396 16.859 18.6329 17.1902 18.0764C17.4941 17.566 17.7443 17.0495 17.9258 16.6396C17.7246 16.5004 17.5039 16.3277 17.2825 16.1177C16.5257 15.3995 15.7583 14.2358 15.7583 12.539C15.7583 11.0373 16.3708 9.95794 16.9823 9.266C17.0701 9.16673 17.1578 9.07534 17.2437 8.99156Z"/>
</svg>
