<svg viewBox="0 0 24 24" xmlns="http://www.w3.org/2000/svg">
<path d="M14.5763 4.63085L15.8536 3.35356L15.1465 2.64645L13.797 3.99592C13.2717 3.68104 12.657 3.50001 12 3.50001C11.343 3.50001 10.7283 3.68104 10.203 3.99593L8.85353 2.64647L8.14642 3.35358L9.42371 4.63086C8.8502 5.2542 8.5 6.08621 8.5 7.00001H9.5C9.5 5.6193 10.6193 4.50001 12 4.50001C13.3807 4.50001 14.5 5.6193 14.5 7.00001H15.5C15.5 6.0862 15.1498 5.25418 14.5763 4.63085Z"/>
<path fill-rule="evenodd" clip-rule="evenodd" d="M6.50969 10.7168C6.21989 11.596 6.05471 12.5568 6.0115 13.5H4V14.5H6.01525C6.07302 15.4441 6.29302 16.3404 6.64381 17.1491L5.14642 18.6464L5.85353 19.3535L7.12813 18.0789C8.21356 19.8403 9.98379 21 12 21C14.0162 21 15.7864 19.8403 16.8719 18.0789L18.1465 19.3535L18.8536 18.6464L17.3562 17.1491C17.707 16.3405 17.927 15.4441 17.9847 14.5H20V13.5H17.9885C17.9453 12.5569 17.7801 11.596 17.4903 10.7168L18.8536 9.35356L18.1465 8.64645L17.0836 9.70937C16.7528 9.032 16.3316 8.44197 15.8182 8H8.18182C7.66843 8.44197 7.24718 9.032 6.91645 9.70937L5.85353 8.64645L5.14642 9.35356L6.50969 10.7168ZM12 20C14.6397 20 17 17.4283 17 14C17 12.0241 16.4126 10.0648 15.4173 9H12.5001V19H11.5001V9H8.58274C7.58741 10.0648 7 12.0241 7 14C7 17.4283 9.36033 20 12 20Z"/>
</svg>
