<svg viewBox="0 0 24 24" xmlns="http://www.w3.org/2000/svg">
<path fill-rule="evenodd" clip-rule="evenodd" d="M13.127 9.4143L5.30211 17.2392C4.8993 17.642 4.8993 18.2951 5.30211 18.6979C5.70492 19.1007 6.35801 19.1007 6.76082 18.6979L14.5857 10.873L15.143 11.0218C16.1677 11.2955 17.3021 11.0295 18.1029 10.2287C18.7528 9.57882 19.05 8.70853 18.9933 7.85737L18.4398 8.4109C17.6526 9.19809 16.3763 9.19809 15.5891 8.4109C14.8019 7.62371 14.8019 6.34742 15.5891 5.56022L16.1426 5.00669C15.2915 4.94998 14.4212 5.24718 13.7713 5.89711C12.9705 6.69788 12.7045 7.83228 12.9782 8.85704L13.127 9.4143ZM17.0067 4.14261C17.3514 4.23632 17.6862 4.37621 18.0013 4.56228L16.2962 6.26733C15.8995 6.664 15.8995 7.30713 16.2962 7.70379C16.6929 8.10046 17.336 8.10046 17.7327 7.70379L19.4377 5.99875C19.6238 6.3138 19.7637 6.64858 19.8574 6.99329C20.2271 8.35328 19.878 9.86788 18.81 10.9359C17.7466 11.9992 16.2404 12.3499 14.885 11.988L7.46793 19.405C6.67459 20.1983 5.38834 20.1983 4.595 19.405C3.80167 18.6117 3.80167 17.3254 4.595 16.5321L12.012 9.11505C11.6501 7.75958 12.0008 6.25339 13.0641 5.19C14.1321 4.12203 15.6467 3.7729 17.0067 4.14261Z"/>
</svg>
