<svg viewBox="0 0 24 24" xmlns="http://www.w3.org/2000/svg">
<path fill-rule="evenodd" clip-rule="evenodd" d="M10 5C10 5.93192 9.36261 6.71497 8.5 6.93699V10.5H15.5V6.93699C14.6374 6.71497 14 5.93192 14 5C14 3.89543 14.8954 3 16 3C17.1046 3 18 3.89543 18 5C18 5.93192 17.3626 6.71497 16.5 6.93699V10.5C16.5 11.0523 16.0523 11.5 15.5 11.5H8.5V17.063C9.36261 17.285 10 18.0681 10 19C10 20.1046 9.10457 21 8 21C6.89543 21 6 20.1046 6 19C6 18.0681 6.63739 17.285 7.5 17.063V6.93699C6.63739 6.71497 6 5.93192 6 5C6 3.89543 6.89543 3 8 3C9.10457 3 10 3.89543 10 5ZM8 6C8.55228 6 9 5.55228 9 5C9 4.44772 8.55228 4 8 4C7.44772 4 7 4.44772 7 5C7 5.55228 7.44772 6 8 6ZM7 19C7 18.4477 7.44772 18 8 18C8.55228 18 9 18.4477 9 19C9 19.5523 8.55228 20 8 20C7.44772 20 7 19.5523 7 19ZM16 6C16.5523 6 17 5.55228 17 5C17 4.44772 16.5523 4 16 4C15.4477 4 15 4.44772 15 5C15 5.55228 15.4477 6 16 6Z"/>
</svg>
