<svg viewBox="0 0 24 24" xmlns="http://www.w3.org/2000/svg">
<path fill-rule="evenodd" clip-rule="evenodd" d="M8.23857 16.6667C8.8829 16.6667 9.40523 16.1443 9.40523 15.5C9.40523 14.8557 8.8829 14.3333 8.23857 14.3333C7.59423 14.3333 7.0719 14.8557 7.0719 15.5C7.0719 16.1443 7.59423 16.6667 8.23857 16.6667ZM10.4052 15.5C10.4052 16.6966 9.43518 17.6667 8.23857 17.6667C7.04195 17.6667 6.0719 16.6966 6.0719 15.5C6.0719 14.3034 7.04195 13.3333 8.23857 13.3333C9.43518 13.3333 10.4052 14.3034 10.4052 15.5Z"/>
<path fill-rule="evenodd" clip-rule="evenodd" d="M17 7.5C17.2761 7.5 17.5 7.27614 17.5 7C17.5 6.72386 17.2761 6.5 17 6.5C16.7239 6.5 16.5 6.72386 16.5 7C16.5 7.27614 16.7239 7.5 17 7.5ZM18.5 7C18.5 7.82843 17.8284 8.5 17 8.5C16.1716 8.5 15.5 7.82843 15.5 7C15.5 6.17157 16.1716 5.5 17 5.5C17.8284 5.5 18.5 6.17157 18.5 7Z"/>
<path fill-rule="evenodd" clip-rule="evenodd" d="M4.38345 12.5139L2.2754 12.6404L1.64453 14.9949L3.40689 16.1585C3.46293 16.5684 3.57086 16.9666 3.72554 17.3443L2.78048 19.2344L4.50405 20.958L6.39385 20.0131C6.7691 20.1659 7.17801 20.2755 7.57941 20.3307L8.74356 22.0939L11.098 21.4631L11.2246 19.3537C11.5474 19.104 11.84 18.813 12.0935 18.4861L14.2016 18.3595L14.8324 16.0051L13.0701 14.8415C13.014 14.4316 12.9061 14.0333 12.7514 13.6556L13.6964 11.7656L11.9729 10.042L10.0831 10.9869C9.70784 10.8341 9.29891 10.7245 8.8975 10.6692L7.73336 8.90604L5.37892 9.53691L5.2523 11.6463C4.92951 11.896 4.63692 12.187 4.38345 12.5139ZM6.33394 10.3163L6.22331 12.1594L5.86423 12.4372C5.60736 12.6359 5.3749 12.8672 5.17376 13.1266L4.89595 13.4849L3.05478 13.5955L2.797 14.5575L4.33625 15.5738L4.39767 16.023C4.44214 16.3483 4.52785 16.6648 4.65094 16.9653L4.823 17.3854L3.99724 19.0369L4.70151 19.7412L6.35165 18.9161L6.77103 19.0869C7.06904 19.2083 7.39707 19.2962 7.71583 19.3401L8.16442 19.4019L9.18094 20.9415L10.143 20.6837L10.2536 18.8406L10.6127 18.5628C10.8696 18.364 11.1021 18.1328 11.3032 17.8734L11.581 17.515L13.4222 17.4045L13.68 16.4425L12.1407 15.4262L12.0793 14.9769C12.0348 14.6517 11.9491 14.3352 11.826 14.0346L11.654 13.6145L12.4797 11.963L11.7754 11.2588L10.1253 12.0838L9.70594 11.913C9.40791 11.7917 9.07987 11.7038 8.76109 11.6599L8.31249 11.5981L7.29598 10.0585L6.33394 10.3163Z"/>
<path fill-rule="evenodd" clip-rule="evenodd" d="M19.3557 4.05034L19.2376 2.4232L17.3506 1.91757L16.4347 3.26766C16.1076 3.30758 15.7901 3.38763 15.4895 3.5039L13.9711 2.75966L12.6073 4.07532L13.3778 5.5407C13.2586 5.82894 13.1744 6.14349 13.1334 6.45267L11.7335 7.33648L12.2567 9.15776L13.9438 9.27243C14.146 9.52346 14.3809 9.75152 14.6443 9.94969L14.7624 11.5768L16.6494 12.0825L17.5653 10.7324C17.8925 10.6924 18.2099 10.6124 18.5106 10.4961L20.0289 11.2403L21.3927 9.92467L20.6222 8.45932C20.7414 8.17107 20.8257 7.85651 20.8666 7.54731L22.2665 6.66351L21.7433 4.84223L20.0562 4.72756C19.854 4.47655 19.6191 4.2485 19.3557 4.05034ZM20.9758 5.79237L19.552 5.6956L19.2775 5.35493C19.127 5.16805 18.9516 4.99773 18.7545 4.84942L18.3913 4.57612L18.2917 3.20503L17.7788 3.06759L17.0071 4.20523L16.5559 4.26029C16.311 4.29017 16.074 4.35002 15.8502 4.43658L15.4422 4.59438L14.1607 3.96625L13.8416 4.27406L14.4808 5.48985L14.302 5.92268C14.216 6.13063 14.1543 6.3609 14.1248 6.58397L14.0633 7.04825L12.9018 7.78152L13.0242 8.20762L14.448 8.3044L14.7225 8.64507C14.873 8.83196 15.0484 9.00229 15.2455 9.15061L15.6087 9.4239L15.7083 10.795L16.2212 10.9324L16.9929 9.7948L17.4442 9.73973C17.689 9.70985 17.926 9.65001 18.1499 9.56344L18.5579 9.40563L19.8394 10.0337L20.1584 9.72593L19.5192 8.51018L19.6981 8.07735C19.784 7.86939 19.8457 7.6391 19.8753 7.41602L19.9367 6.95173L21.0982 6.21847L20.9758 5.79237Z"/>
</svg>
