<svg viewBox="0 0 24 24" xmlns="http://www.w3.org/2000/svg">
<path fill-rule="evenodd" clip-rule="evenodd" d="M10.0196 5.5H11.0196L9.02136 13.5H8.02136L10.0196 5.5Z"/>
<path fill-rule="evenodd" clip-rule="evenodd" d="M14.491 13.7805C15.4705 12.6383 16.0622 11.1538 16.0622 9.53112C16.0622 5.92408 13.1382 3 9.53112 3C5.92408 3 3 5.92408 3 9.53112C3 13.1382 5.92408 16.0622 9.53112 16.0622C11.1538 16.0622 12.6383 15.4705 13.7805 14.491L14.7668 15.4773C14.5307 16.0004 14.6276 16.6372 15.0575 17.067L18.5742 20.5838C19.1292 21.1387 20.0289 21.1387 20.5838 20.5838C21.1387 20.0289 21.1387 19.1292 20.5838 18.5742L17.0671 15.0574C16.6372 14.6276 16.0004 14.5307 15.4773 14.7668L14.491 13.7805ZM15.0575 9.53112C15.0575 12.5832 12.5832 15.0575 9.53112 15.0575C6.47901 15.0575 4.00479 12.5832 4.00479 9.53112C4.00479 6.47901 6.47901 4.00479 9.53112 4.00479C12.5832 4.00479 15.0575 6.47901 15.0575 9.53112ZM19.8733 19.2847L16.3566 15.7679C16.194 15.6054 15.9305 15.6054 15.768 15.7679C15.6054 15.9305 15.6054 16.194 15.768 16.3565L19.2847 19.8733C19.4473 20.0358 19.7108 20.0358 19.8733 19.8733C20.0358 19.7108 20.0358 19.4473 19.8733 19.2847Z"/>
<path fill-rule="evenodd" clip-rule="evenodd" d="M13.2602 9.50001L11.6464 7.85356L12.3395 7.14645L14.6464 9.50001L12.3395 11.8536L11.6464 11.1465L13.2602 9.50001Z"/>
<path fill-rule="evenodd" clip-rule="evenodd" d="M5.73976 9.50001L7.35358 7.85356L6.66048 7.14645L4.35358 9.50001L6.66048 11.8536L7.35358 11.1465L5.73976 9.50001Z"/>
</svg>
