<svg viewBox="0 0 24 24" xmlns="http://www.w3.org/2000/svg">
<path fill-rule="evenodd" clip-rule="evenodd" d="M11.7929 16L10.6464 14.8536L11.3535 14.1465L13.2071 16L11.3535 17.8536L10.6464 17.1465L11.7929 16Z"/>
<path fill-rule="evenodd" clip-rule="evenodd" d="M5.70713 16L6.85358 14.8536L6.14647 14.1465L4.29292 16L6.14647 17.8536L6.85358 17.1465L5.70713 16Z"/>
<path fill-rule="evenodd" clip-rule="evenodd" d="M9 13H10.0147L8.5 19H7.5L9 13Z"/>
<path fill-rule="evenodd" clip-rule="evenodd" d="M4.5 9C4.77614 9 5 8.77614 5 8.5C5 8.22386 4.77614 8 4.5 8C4.22386 8 4 8.22386 4 8.5C4 8.77614 4.22386 9 4.5 9Z"/>
<path fill-rule="evenodd" clip-rule="evenodd" d="M6.5 9C6.77614 9 7 8.77614 7 8.5C7 8.22386 6.77614 8 6.5 8C6.22386 8 6 8.22386 6 8.5C6 8.77614 6.22386 9 6.5 9Z"/>
<path fill-rule="evenodd" clip-rule="evenodd" d="M8.5 9C8.77614 9 9 8.77614 9 8.5C9 8.22386 8.77614 8 8.5 8C8.22386 8 8 8.22386 8 8.5C8 8.77614 8.22386 9 8.5 9Z"/>
<path d="M13.0001 6H3C2.44772 6 2 6.44772 2 7V21C2 21.5523 2.44772 22 3 22H19C19.5523 22 20 21.5523 20 21V17H19V21H3V11H13.0001V10H3V7H13.0001V6Z"/>
<path fill-rule="evenodd" clip-rule="evenodd" d="M20.9999 3H15V15H20.9999V3ZM15 2C14.4477 2 14 2.44772 14 3V15C14 15.5523 14.4477 16 15 16H20.9999C21.5522 16 21.9999 15.5523 21.9999 15V3C21.9999 2.44772 21.5522 2 20.9999 2H15Z"/>
<path fill-rule="evenodd" clip-rule="evenodd" d="M18 5C18.2761 5 18.5 4.77614 18.5 4.5C18.5 4.22386 18.2761 4 18 4C17.7239 4 17.5 4.22386 17.5 4.5C17.5 4.77614 17.7239 5 18 5Z"/>
<path d="M12 3V2L13.5 3.5L12 5V4H10V5H9V4C9 3.44772 9.44772 3 10 3H12Z"/>
</svg>
