<svg viewBox="0 0 24 24" xmlns="http://www.w3.org/2000/svg">
<path fill-rule="evenodd" clip-rule="evenodd" d="M3 4C3 3.44772 3.44772 3 4 3H20C20.5523 3 21 3.44772 21 4V20C21 20.5523 20.5523 21 20 21H4C3.44772 21 3 20.5523 3 20V4ZM4 4H20V7H4V4ZM20 8V20H4V8H20Z"/>
<path fill-rule="evenodd" clip-rule="evenodd" d="M5.5 6C5.77614 6 6 5.77614 6 5.5C6 5.22386 5.77614 5 5.5 5C5.22386 5 5 5.22386 5 5.5C5 5.77614 5.22386 6 5.5 6Z"/>
<path fill-rule="evenodd" clip-rule="evenodd" d="M7.5 6C7.77614 6 8 5.77614 8 5.5C8 5.22386 7.77614 5 7.5 5C7.22386 5 7 5.22386 7 5.5C7 5.77614 7.22386 6 7.5 6Z"/>
<path fill-rule="evenodd" clip-rule="evenodd" d="M9.5 6C9.77614 6 10 5.77614 10 5.5C10 5.22386 9.77614 5 9.5 5C9.22386 5 9 5.22386 9 5.5C9 5.77614 9.22386 6 9.5 6Z"/>
<path fill-rule="evenodd" clip-rule="evenodd" d="M15.7929 14L14.1464 12.3536L14.8535 11.6465L17.2071 14L14.8535 16.3536L14.1464 15.6465L15.7929 14Z"/>
<path fill-rule="evenodd" clip-rule="evenodd" d="M8.20713 14L9.85358 12.3536L9.14647 11.6465L6.79292 14L9.14647 16.3536L9.85358 15.6465L8.20713 14Z"/>
<path fill-rule="evenodd" clip-rule="evenodd" d="M12.5195 10H13.5195L11.5213 18H10.5213L12.5195 10Z"/>
</svg>
