<svg viewBox="0 0 24 24" xmlns="http://www.w3.org/2000/svg">
<path fill-rule="evenodd" clip-rule="evenodd" d="M5.63604 5.63604C5.75468 5.5174 5.8758 5.40277 5.99925 5.29214C9.40952 2.23595 14.5905 2.23595 18.0008 5.29214C18.1242 5.40277 18.2453 5.5174 18.364 5.63604C18.4826 5.75468 18.5972 5.8758 18.7079 5.99925C19.7621 7.17566 20.4527 8.56279 20.7796 10.0153C20.7859 10.043 20.792 10.0709 20.798 10.0987C20.8658 10.414 20.9165 10.7322 20.9502 11.0518C21.2086 13.5051 20.4612 16.0443 18.7079 18.0008C18.5972 18.1242 18.4826 18.2453 18.364 18.364C18.2453 18.4826 18.1242 18.5972 18.0008 18.7079C16.0443 20.4611 13.5052 21.2086 11.0519 20.9502C11.0329 20.9482 11.0139 20.9462 10.9949 20.944C10.6662 20.9073 10.3391 20.8525 10.0153 20.7796C8.56281 20.4527 7.17567 19.7621 5.99925 18.7079C5.8758 18.5972 5.75468 18.4826 5.63604 18.364C5.5174 18.2453 5.40277 18.1242 5.29214 18.0008C2.23595 14.5905 2.23595 9.40952 5.29214 5.99925C5.40277 5.8758 5.5174 5.75468 5.63604 5.63604ZM11.4158 19.9788C13.4979 20.1303 15.6281 19.4706 17.2924 17.9995L12 12.7071L10.2177 14.4894C11.5359 16.0446 11.9353 18.1128 11.4158 19.9788ZM9.50769 15.1994C10.5939 16.5251 10.8959 18.2785 10.4137 19.842C9.07526 19.5726 7.79247 18.9584 6.70757 17.9995L9.50769 15.1994ZM9.51062 13.7823L11.2929 12L6.00046 6.70757C4.52943 8.37195 3.86968 10.5021 4.02123 12.5842C5.88724 12.0647 7.95537 12.4641 9.51062 13.7823ZM4.15798 13.5864C5.72149 13.1041 7.47489 13.4061 8.80058 14.4923L6.00046 17.2924C5.0416 16.2075 4.42744 14.9248 4.15798 13.5864ZM19.842 10.4136C19.5726 9.07524 18.9584 7.79246 17.9995 6.70757L15.1994 9.50767C16.5251 10.5939 18.2785 10.8959 19.842 10.4136ZM14.4894 10.2177C16.0446 11.5359 18.1128 11.9352 19.9788 11.4157C20.1303 13.4979 19.4706 15.628 17.9995 17.2924L12.7071 12L14.4894 10.2177ZM14.4923 8.80057L17.2924 6.00046C16.2075 5.0416 14.9248 4.42744 13.5864 4.15798C13.1041 5.72149 13.4061 7.47488 14.4923 8.80057ZM12.5842 4.02123C12.0647 5.88723 12.4641 7.95536 13.7823 9.51061L12 11.2929L6.70757 6.00046C8.37195 4.52943 10.5021 3.86969 12.5842 4.02123Z"/>
</svg>
