<svg viewBox="0 0 24 24" xmlns="http://www.w3.org/2000/svg">
<path fill-rule="evenodd" clip-rule="evenodd" d="M6.5 20C7.88071 20 9 18.8807 9 17.5C9 16.1193 7.88071 15 6.5 15C5.11929 15 4 16.1193 4 17.5C4 18.8807 5.11929 20 6.5 20ZM6.5 21C8.433 21 10 19.433 10 17.5C10 15.567 8.433 14 6.5 14C4.567 14 3 15.567 3 17.5C3 19.433 4.567 21 6.5 21Z"/>
<path fill-rule="evenodd" clip-rule="evenodd" d="M13.5 6C14.0523 6 14.5 5.55228 14.5 5C14.5 4.44772 14.0523 4 13.5 4C12.9477 4 12.5 4.44772 12.5 5C12.5 5.55228 12.9477 6 13.5 6ZM13.5 7C14.6046 7 15.5 6.10457 15.5 5C15.5 3.89543 14.6046 3 13.5 3C12.3954 3 11.5 3.89543 11.5 5C11.5 6.10457 12.3954 7 13.5 7Z"/>
<path fill-rule="evenodd" clip-rule="evenodd" d="M10.3495 7.53392C10.6749 7.1769 11.209 7.10351 11.6186 7.35952L12.7611 8.07359L15.1385 9.5H17V10.5H15.1385C14.9572 10.5 14.7794 10.4507 14.624 10.3575L12.6112 9.14983L9.31591 13.1316L12.2952 14.373C12.7518 14.5633 13.0007 15.0587 12.8807 15.5386L11.985 19.1213L11.0149 18.8787L11.9106 15.2961L6.96346 13.2348C6.32464 12.9686 6.14281 12.1496 6.60899 11.6381L10.3495 7.53392ZM8.3507 12.7295L11.7506 8.62126L11.0886 8.20752L7.34808 12.3117L8.3507 12.7295Z"/>
<path fill-rule="evenodd" clip-rule="evenodd" d="M17.0905 14.0237L15.9831 9.87117L15.0169 10.1288L16.1241 14.2808C14.8751 14.8153 14 16.0555 14 17.5C14 19.433 15.567 21 17.5 21C19.433 21 21 19.433 21 17.5C21 15.567 19.433 14 17.5 14C17.3615 14 17.2248 14.008 17.0905 14.0237ZM16.3856 15.2615L17.0169 17.6288L17.9831 17.3712L17.352 15.0043C17.401 15.0015 17.4503 15 17.5 15C18.8807 15 20 16.1193 20 17.5C20 18.8807 18.8807 20 17.5 20C16.1193 20 15 18.8807 15 17.5C15 16.5197 15.5642 15.6712 16.3856 15.2615Z"/>
</svg>
