<svg viewBox="0 0 24 24" xmlns="http://www.w3.org/2000/svg">
<path fill-rule="evenodd" clip-rule="evenodd" d="M3 15V9H4V15H3Z"/>
<path fill-rule="evenodd" clip-rule="evenodd" d="M20 15V9H21V15H20Z"/>
<path fill-rule="evenodd" clip-rule="evenodd" d="M8 13H16V16H18V8L16 8V11H8V8H6V16H8V13ZM8 7H6C5.44772 7 5 7.44772 5 8V16C5 16.5523 5.44772 17 6 17H8C8.55228 17 9 16.5523 9 16V14H15V16C15 16.5523 15.4477 17 16 17H18C18.5523 17 19 16.5523 19 16V8C19 7.44772 18.5523 7 18 7H16C15.4477 7 15 7.44772 15 8V10H9V8C9 7.44772 8.55228 7 8 7Z"/>
</svg>
