<svg viewBox="0 0 24 24" xmlns="http://www.w3.org/2000/svg">
<path fill-rule="evenodd" clip-rule="evenodd" d="M15.5516 11.3301L12 8.37044L8.44838 11.3301L9.63513 15.4838H14.3648L15.5516 11.3301ZM12 9.62968L9.55158 11.67L10.3648 14.5164H13.6351L14.4484 11.67L12 9.62968Z"/>
<path fill-rule="evenodd" clip-rule="evenodd" d="M12 21C16.9706 21 21 16.9706 21 12C21 7.02945 16.9706 3.00002 12 3.00002C7.02944 3.00002 3 7.02945 3 12C3 16.9706 7.02944 21 12 21ZM14.0813 19.7266C13.4176 19.9049 12.7199 20 12 20C11.2801 20 10.5823 19.9049 9.91867 19.7266L8.8486 16.5164L5.39586 16.5164C4.71278 15.5194 4.24956 14.36 4.0761 13.108L6.54324 10.6408L5.57102 7.23805C6.44169 6.06452 7.62606 5.13766 9.00012 4.58148L12 6.58138L14.9998 4.58147C16.3739 5.13764 17.5583 6.06449 18.4289 7.23801L17.4567 10.6408L19.9239 13.108C19.7504 14.36 19.2872 15.5195 18.6041 16.5164L15.1514 16.5164L14.0813 19.7266ZM15.2372 19.318C16.2196 18.8827 17.0981 18.2555 17.8249 17.4838L15.8486 17.4838L15.2372 19.318ZM19.9979 11.8139C19.9694 10.5664 19.6553 9.38941 19.1185 8.34578L18.5432 10.3593L19.9979 11.8139ZM13.8172 4.20729L12 5.41874L10.1828 4.2073C10.7666 4.0717 11.3749 4.00002 12 4.00002C12.6251 4.00002 13.2334 4.0717 13.8172 4.20729ZM4.88144 8.34584C4.34465 9.38944 4.0306 10.5664 4.00212 11.8139L5.45671 10.3593L4.88144 8.34584ZM6.17514 17.4838C6.90191 18.2554 7.78032 18.8827 8.76276 19.318L8.15136 17.4838L6.17514 17.4838Z"/>
</svg>
