<svg viewBox="0 0 24 24" xmlns="http://www.w3.org/2000/svg">
<path fill-rule="evenodd" clip-rule="evenodd" d="M12 18C13.6569 18 15 16.6569 15 15C15 13.3431 13.6569 12 12 12C10.3431 12 9 13.3431 9 15C9 16.6569 10.3431 18 12 18ZM16 15C16 17.2091 14.2091 19 12 19C9.79086 19 8 17.2091 8 15C8 12.7909 9.79086 11 12 11C14.2091 11 16 12.7909 16 15Z"/>
<path fill-rule="evenodd" clip-rule="evenodd" d="M9 7.5L11.5 8.75V9.02054C8.42023 9.27461 6 11.8547 6 15C6 18.3137 8.68629 21 12 21C15.3137 21 18 18.3137 18 15C18 11.8547 15.5798 9.27461 12.5 9.02054V8.75L15 7.5V3H9V7.5ZM14 4H12.5V7.63197L14 6.88197V4ZM10 4H11.5V7.63197L10 6.88197V4ZM17 15C17 17.7614 14.7614 20 12 20C9.23858 20 7 17.7614 7 15C7 12.2386 9.23858 10 12 10C14.7614 10 17 12.2386 17 15Z"/>
</svg>
