<svg viewBox="0 0 24 24" xmlns="http://www.w3.org/2000/svg">
<path fill-rule="evenodd" clip-rule="evenodd" d="M9 8.5C9.55228 8.5 10 8.05228 10 7.5C10 6.94772 9.55228 6.5 9 6.5C8.44772 6.5 8 6.94772 8 7.5C8 8.05228 8.44772 8.5 9 8.5ZM9 9.5C10.1046 9.5 11 8.60457 11 7.5C11 6.39543 10.1046 5.5 9 5.5C7.89543 5.5 7 6.39543 7 7.5C7 8.60457 7.89543 9.5 9 9.5Z"/>
<path fill-rule="evenodd" clip-rule="evenodd" d="M11.715 9.55586L13.6096 7.18765L14.3904 7.81235L12.4959 10.1806C12.3591 10.3515 12.17 10.4729 11.9575 10.526L10.726 10.8339L12.637 14.6559L14.5699 12.723C14.6708 12.6221 14.7922 12.5439 14.9258 12.4938L18.8244 11.0318L19.1756 11.9682L15.277 13.4301L11.8441 16.863C11.3614 17.3457 10.5478 17.2136 10.2425 16.6031L7.83154 11.7811C7.54543 11.2089 7.86278 10.5189 8.48343 10.3638L11.715 9.55586ZM11.8916 15.4013L9.73216 11.0823L8.72596 11.3339L11.137 16.1559L11.8916 15.4013Z"/>
<path fill-rule="evenodd" clip-rule="evenodd" d="M20 19H4V18H20V19Z"/>
</svg>
