<svg viewBox="0 0 24 24" xmlns="http://www.w3.org/2000/svg">
<path fill-rule="evenodd" clip-rule="evenodd" d="M14 6C14.5523 6 15 5.55228 15 5C15 4.44772 14.5523 4 14 4C13.4477 4 13 4.44772 13 5C13 5.55228 13.4477 6 14 6ZM14 7C15.1046 7 16 6.10457 16 5C16 3.89543 15.1046 3 14 3C12.8954 3 12 3.89543 12 5C12 6.10457 12.8954 7 14 7Z"/>
<path fill-rule="evenodd" clip-rule="evenodd" d="M8.49997 7.79289C8.68751 7.60536 8.94186 7.5 9.20708 7.5H12.0881L14.5759 8.40466L15.8577 11.5527L18.5822 12.0068L18.4178 12.9932L15.6933 12.5391C15.3508 12.482 15.0625 12.2514 14.9315 11.9298L14.1666 10.0512L12.1492 14.3998L13.9237 15.3857C14.3039 15.5969 14.504 16.0295 14.4187 16.4559L13.4903 21.0981L12.5097 20.9019L13.4381 16.2598L9.71365 14.1907L8.81767 15.9826C8.52115 16.5757 8.00119 17.0266 7.37217 17.2363L3.65809 18.4743L3.34186 17.5257L7.05594 16.2876C7.43335 16.1618 7.74533 15.8913 7.92324 15.5354L9.04862 13.2847L11.2235 8.5H9.20708L6.85353 10.8536L6.14642 10.1464L8.49997 7.79289ZM12.2638 8.62796L13.5136 9.08246L11.2727 13.9129L10.146 13.2869L12.2638 8.62796Z"/>
</svg>
