<svg viewBox="0 0 24 24" xmlns="http://www.w3.org/2000/svg">
<path fill-rule="evenodd" clip-rule="evenodd" d="M9.38043 19.0243C9.99458 18.2985 11.0327 18.1428 11.9613 18.3469C14.011 18.7973 16.3238 18.1614 18.0104 16.4749C20.5488 13.9365 20.7071 9.97918 18.3639 7.63604C16.0208 5.29289 12.0635 5.45118 9.52509 7.98959C7.83855 9.67613 7.20269 11.989 7.65307 14.0387C7.85713 14.9673 7.7015 16.0054 6.97568 16.6195L5.74856 17.6579C4.92667 18.3533 4.87471 19.6027 5.636 20.364C6.39729 21.1253 7.64666 21.0733 8.3421 20.2514L9.38043 19.0243ZM13.3649 17.4862C12.9612 17.4938 12.5618 17.455 12.1759 17.3702C11.0494 17.1226 9.56263 17.2608 8.61704 18.3783L7.57871 19.6055C7.26117 19.9807 6.69071 20.0045 6.34311 19.6569C5.9955 19.3092 6.01923 18.7388 6.3945 18.4212L7.62162 17.3829C8.73913 16.4373 8.87732 14.9506 8.62977 13.824C8.54497 13.4381 8.50618 13.0388 8.51373 12.6351L13.3649 17.4862ZM14.6096 17.3168L8.68317 11.3903C8.92971 10.4235 9.44454 9.48435 10.2322 8.6967C12.4344 6.49446 15.7564 6.44275 17.6568 8.34315C19.5572 10.2435 19.5055 13.5655 17.3033 15.7678C16.5156 16.5554 15.5765 17.0702 14.6096 17.3168Z"/>
<path fill-rule="evenodd" clip-rule="evenodd" d="M7 7C7.55228 7 8 6.55228 8 6C8 5.44772 7.55228 5 7 5C6.44772 5 6 5.44772 6 6C6 6.55228 6.44772 7 7 7ZM7 8C8.10457 8 9 7.10457 9 6C9 4.89543 8.10457 4 7 4C5.89543 4 5 4.89543 5 6C5 7.10457 5.89543 8 7 8Z"/>
</svg>
