<svg viewBox="0 0 24 24" xmlns="http://www.w3.org/2000/svg">
<path fill-rule="evenodd" clip-rule="evenodd" d="M12 6C12.5523 6 13 5.55228 13 5C13 4.44772 12.5523 4 12 4C11.4477 4 11 4.44772 11 5C11 5.55228 11.4477 6 12 6ZM12 7C13.1046 7 14 6.10457 14 5C14 3.89543 13.1046 3 12 3C10.8954 3 10 3.89543 10 5C10 6.10457 10.8954 7 12 7Z"/>
<path fill-rule="evenodd" clip-rule="evenodd" d="M10.4037 8H12.7902L14.8164 11.5458L17.5822 12.0068L17.4178 12.9932L14.652 12.5322C14.3556 12.4828 14.0972 12.3028 13.9481 12.042L12.7764 9.99152L12.0496 14.7158L13.5049 15.4434C13.7809 15.5814 13.9777 15.8391 14.0383 16.1417L14.9903 20.9019L14.0097 21.0981L13.0577 16.3379L11.2737 15.4459L9.92029 14.759L9.5302 17.338C9.49488 17.5715 9.40493 17.7933 9.26767 17.9855L6.90687 21.2906L6.09314 20.7094L8.45394 17.4043C8.49969 17.3402 8.52968 17.2663 8.54145 17.1884L9.03688 13.9131L9.85147 9.29793L8.40102 9.87811L7.47435 12.6581L6.52566 12.3419L7.45233 9.56189C7.54535 9.28283 7.75651 9.05888 8.02962 8.94964L10.4037 8ZM10.9195 9L10.0862 13.7219L11.1108 14.2418L11.9172 9H10.9195Z"/>
</svg>
