<svg viewBox="0 0 24 24" xmlns="http://www.w3.org/2000/svg">
<path fill-rule="evenodd" clip-rule="evenodd" d="M12 8.5C12.5523 8.5 13 8.05228 13 7.5C13 6.94772 12.5523 6.5 12 6.5C11.4477 6.5 11 6.94772 11 7.5C11 8.05228 11.4477 8.5 12 8.5ZM12 9.5C13.1046 9.5 14 8.60457 14 7.5C14 6.39543 13.1046 5.5 12 5.5C10.8954 5.5 10 6.39543 10 7.5C10 8.60457 10.8954 9.5 12 9.5Z"/>
<path fill-rule="evenodd" clip-rule="evenodd" d="M11.416 3.27736L8.6261 7.4622L11.2299 10.5H12.77L15.3738 7.4622L12.5839 3.27736L13.416 2.72266L16.2059 6.9075C16.4544 7.28027 16.4247 7.77283 16.1331 8.11299L13.5 11.185V14.691L15.6031 15.7426C16.2136 16.0478 16.3456 16.8614 15.863 17.3441L12.8535 20.3536L12.1464 19.6465L15.1559 16.637L12.8819 15.5H11.5V21H10.5V11.185L7.86685 8.11299C7.57528 7.77283 7.54554 7.28027 7.79405 6.9075L10.5839 2.72266L11.416 3.27736ZM11.5 11.5V14.5H12.5V11.5H11.5Z"/>
</svg>
