<svg viewBox="0 0 24 24" xmlns="http://www.w3.org/2000/svg">
<path d="M7 4H17V11H18V4C18 3.44772 17.5523 3 17 3H7C6.44772 3 6 3.44772 6 4V11H7V4Z"/>
<path fill-rule="evenodd" clip-rule="evenodd" d="M6 13V13.3308C6 13.8141 6.34562 14.2283 6.82112 14.3147L8.86293 14.686C10.4014 14.9657 11.467 16.3802 11.3114 17.9361L11.194 19.1094C11.1464 19.5863 11.5208 20 12 20C12.4792 20 12.8536 19.5862 12.806 19.1094L12.6886 17.9361C12.533 16.3802 13.5986 14.9657 15.1371 14.686L17.1789 14.3147C17.6544 14.2283 18 13.8141 18 13.3308V13H6ZM5 13.3308C5 14.2974 5.69125 15.1257 6.64223 15.2986L8.68404 15.6698C9.70967 15.8563 10.4201 16.7993 10.3163 17.8366L10.199 19.0099C10.0925 20.0754 10.9292 21 12 21C13.0708 21 13.9075 20.0754 13.801 19.0099L13.6837 17.8366C13.5799 16.7993 14.2903 15.8563 15.316 15.6698L17.3578 15.2986C18.3088 15.1257 19 14.2974 19 13.3308V12H5V13.3308Z"/>
</svg>
