<svg viewBox="0 0 24 24" xmlns="http://www.w3.org/2000/svg">
<path fill-rule="evenodd" clip-rule="evenodd" d="M19.9991 12.1816C20 12.1276 20 12.0688 20 12C20 7.58172 16.4183 4 12 4C7.58172 4 4 7.58172 4 12C4 16.3912 7.76238 20.1625 12.1937 19.9966C12.156 19.8767 12.1143 19.7302 12.0871 19.566C11.3822 15.2983 15.2502 11.3743 19.566 12.0871C19.7117 12.1112 19.8526 12.1585 19.9991 12.1816ZM19.403 13.0738C21 13.5 21 12.7739 21 12C21 7.02944 16.9706 3 12 3C7.02944 3 3 7.02944 3 12C3 16.9706 7.02944 21 12 21C13.5894 21 13.4104 20.4736 13.2066 19.8743C13.154 19.7195 13.0997 19.5598 13.0738 19.403C12.4796 15.8059 15.7681 12.4734 19.403 13.0738Z"/>
<path fill-rule="evenodd" clip-rule="evenodd" d="M14 7.5C14.5523 7.5 15 7.05228 15 6.5C15 5.94772 14.5523 5.5 14 5.5C13.4477 5.5 13 5.94772 13 6.5C13 7.05228 13.4477 7.5 14 7.5Z"/>
<path fill-rule="evenodd" clip-rule="evenodd" d="M17 11C17.5523 11 18 10.5523 18 10C18 9.44772 17.5523 9 17 9C16.4477 9 16 9.44772 16 10C16 10.5523 16.4477 11 17 11Z"/>
<path fill-rule="evenodd" clip-rule="evenodd" d="M9 8C9.55228 8 10 7.55228 10 7C10 6.44772 9.55228 6 9 6C8.44772 6 8 6.44772 8 7C8 7.55228 8.44772 8 9 8Z"/>
<path fill-rule="evenodd" clip-rule="evenodd" d="M6.5 12C7.05228 12 7.5 11.5523 7.5 11C7.5 10.4477 7.05228 10 6.5 10C5.94772 10 5.5 10.4477 5.5 11C5.5 11.5523 5.94772 12 6.5 12Z"/>
<path fill-rule="evenodd" clip-rule="evenodd" d="M9 16.5C9.55228 16.5 10 16.0523 10 15.5C10 14.9477 9.55228 14.5 9 14.5C8.44772 14.5 8 14.9477 8 15.5C8 16.0523 8.44772 16.5 9 16.5ZM9 17.5C10.1046 17.5 11 16.6046 11 15.5C11 14.3954 10.1046 13.5 9 13.5C7.89543 13.5 7 14.3954 7 15.5C7 16.6046 7.89543 17.5 9 17.5Z"/>
</svg>
