<svg viewBox="0 0 24 24" xmlns="http://www.w3.org/2000/svg">
<path d="M8.46449 4.22185L11.9142 7.67159L11.2071 8.37869L10.9394 8.11096L10.2322 8.81813L9.52512 8.11102L10.2323 7.40385L9.52514 6.69672L8.11089 8.11097L7.40378 7.40387L8.81804 5.98961L7.75738 4.92896L4.92895 7.75738L8.37869 11.2071L7.67159 11.9142L4.22185 8.46449C3.83132 8.07397 3.83132 7.4408 4.22185 7.05028L7.05028 4.22185C7.4408 3.83132 8.07396 3.83132 8.46449 4.22185Z"/>
<path d="M16.2427 19.0711L12.6213 15.4498L11.9142 16.1569L15.5356 19.7782C15.9261 20.1687 16.5592 20.1687 16.9498 19.7782L19.7782 16.9498C20.1687 16.5592 20.1687 15.9261 19.7782 15.5356L16.1569 11.9142L15.4498 12.6213L15.8891 13.0607L15.182 13.7679L15.8891 14.475L16.5962 13.7678L17.3033 14.4748L15.889 15.8891L16.5961 16.5962L18.0104 15.1819L19.0711 16.2427L16.2427 19.0711Z"/>
<path fill-rule="evenodd" clip-rule="evenodd" d="M15.5858 5.41416C16.3668 4.63311 17.6332 4.63311 18.4142 5.41416C19.1953 6.1952 19.1953 7.46153 18.4142 8.24258L8.51475 18.142L4.5 19.4999L5.68631 15.3137L15.5858 5.41416ZM8.51475 16.7278L7.10054 15.3136L15.1819 7.23221L16.5962 8.64642L8.51475 16.7278ZM17.3033 7.93932L17.7071 7.53548C18.0976 7.14495 18.0976 6.51179 17.7071 6.12126C17.3166 5.73074 16.6834 5.73074 16.2929 6.12126L15.8891 6.5251L17.3033 7.93932ZM5.98042 17.9436L6.49618 16.1235L7.72586 17.3532L5.98042 17.9436Z"/>
</svg>
