<svg viewBox="0 0 24 24" xmlns="http://www.w3.org/2000/svg">
<path fill-rule="evenodd" clip-rule="evenodd" d="M14.8284 6.34308L16.2426 4.92893C17.0236 4.14788 18.29 4.14788 19.071 4.92893C19.8521 5.70997 19.8521 6.9763 19.071 7.75735L17.6569 9.17151L18.3639 9.87857L17.6568 10.5857L13.4142 6.34304L14.1213 5.63593L14.8284 6.34308ZM15.5356 7.05019L16.9498 8.4644L18.3639 7.05025C18.7544 6.65972 18.7544 6.02656 18.3639 5.63603C17.9734 5.24551 17.3402 5.24551 16.9497 5.63603L15.5356 7.05019Z"/>
<path d="M7.43402 18.57C6.95323 18.6662 6.51167 18.9025 6.16497 19.2492L5.63602 19.7781L4.2218 18.3639L4.75076 17.835C5.09746 17.4883 5.33377 17.0467 5.42993 16.5659L5.57664 15.8324C5.61535 15.6388 5.71051 15.461 5.85011 15.3214L13.4142 7.75732L14.1213 8.46448L6.55722 16.0285L6.41051 16.762C6.29216 17.3538 6.02244 17.9032 5.62957 18.3575L5.64247 18.3704C6.09677 17.9775 6.64616 17.7078 7.2379 17.5894L7.97143 17.4427L15.5356 9.87869L16.2426 10.5858L8.67854 18.1498C8.53894 18.2894 8.36114 18.3846 8.16755 18.4233L7.43402 18.57Z"/>
</svg>
