<svg viewBox="0 0 24 24" xmlns="http://www.w3.org/2000/svg">
<path fill-rule="evenodd" clip-rule="evenodd" d="M12 9C12 9 14 7.49256 14 5.50087C14 3.50919 12 2 12 2C12 2 10 3.51216 10 5.50087C10 7.48959 12 9 12 9ZM12.0004 3.37119C12.0718 3.45007 12.1453 3.53573 12.2185 3.62748C12.6573 4.17705 13 4.83351 13 5.50087C13 6.16813 12.6574 6.8241 12.2187 7.37312C12.1454 7.4649 12.0719 7.55058 12.0004 7.62946C11.9288 7.55031 11.855 7.46434 11.7814 7.37224C11.3424 6.82242 11 6.16647 11 5.50087C11 4.83517 11.3425 4.17873 11.7817 3.62837C11.8551 3.5363 11.9288 3.45034 12.0004 3.37119Z"/>
<path fill-rule="evenodd" clip-rule="evenodd" d="M10.5 10.5C10.5 10.5 8.99259 8.5 7.00093 8.5C5.00928 8.5 3.50012 10.5 3.50012 10.5C3.50012 10.5 5.01225 12.5 7.00093 12.5C8.98962 12.5 10.5 10.5 10.5 10.5ZM4.87129 10.4996C4.95045 10.5712 5.03641 10.6449 5.12848 10.7183C5.67883 11.1575 6.33526 11.5 7.00093 11.5C7.66651 11.5 8.32244 11.1576 8.87225 10.7186C8.96435 10.645 9.05032 10.5713 9.12947 10.4996C9.05059 10.4281 8.96491 10.3546 8.87313 10.2813C8.32412 9.84262 7.66817 9.5 7.00093 9.5C6.33359 9.5 5.67715 9.84271 5.12759 10.2815C5.03584 10.3547 4.95018 10.4282 4.87129 10.4996Z"/>
<path fill-rule="evenodd" clip-rule="evenodd" d="M13.5 10.5C13.5 10.5 15.0074 12.5 16.9991 12.5C18.9908 12.5 20.5 10.5 20.5 10.5C20.5 10.5 18.9878 8.5 16.9991 8.5C15.0104 8.5 13.5 10.5 13.5 10.5ZM19.1288 10.5004C19.0499 10.5718 18.9643 10.6453 18.8725 10.7185C18.323 11.1573 17.6665 11.5 16.9991 11.5C16.3319 11.5 15.6759 11.1574 15.1269 10.7187C15.0351 10.6454 14.9494 10.5719 14.8705 10.5004C14.9497 10.4288 15.0357 10.355 15.1278 10.2814C15.6776 9.84243 16.3335 9.5 16.9991 9.5C17.6648 9.5 18.3213 9.84252 18.8716 10.2817C18.9637 10.3551 19.0497 10.4288 19.1288 10.5004Z"/>
<path fill-rule="evenodd" clip-rule="evenodd" d="M12 11C12.2761 11 12.5 10.7761 12.5 10.5C12.5 10.2239 12.2761 10 12 10C11.7239 10 11.5 10.2239 11.5 10.5C11.5 10.7761 11.7239 11 12 11ZM13.5 10.5C13.5 11.3284 12.8284 12 12 12C11.1716 12 10.5 11.3284 10.5 10.5C10.5 9.67157 11.1716 9 12 9C12.8284 9 13.5 9.67157 13.5 10.5Z"/>
<path fill-rule="evenodd" clip-rule="evenodd" d="M8.32188 16.5171C8.12282 16.8157 8.09902 17.1981 8.25951 17.5191L10.5 22H13.5L15.7404 17.5191C15.9009 17.1981 15.8771 16.8157 15.6781 16.5171L12 11L8.32188 16.5171ZM11.5 13.5527L9.15393 17.0718L11.118 21H12.8819L14.846 17.0718L12.5 13.5528V16.1338C12.7989 16.3067 13 16.6299 13 17C13 17.5523 12.5523 18 12 18C11.4477 18 11 17.5523 11 17C11 16.6299 11.2011 16.3067 11.5 16.1338V13.5527Z"/>
</svg>
