<svg viewBox="0 0 24 24" xmlns="http://www.w3.org/2000/svg">
<path d="M4.88198 14.5591L3.78887 15.1056C3.05182 15.4742 3.05182 16.526 3.78887 16.8945L11.5528 20.7765C11.8343 20.9172 12.1657 20.9172 12.4472 20.7765L20.2112 16.8945C20.9482 16.526 20.9482 15.4742 20.2112 15.1056L19.118 14.5591L18 15.1181L19.7639 16.0001L12 19.882L4.23608 16.0001L6.00002 15.1181L4.88198 14.5591Z"/>
<path d="M4.88198 10.5591L3.78887 11.1056C3.05182 11.4742 3.05182 12.526 3.78887 12.8945L11.5528 16.7765C11.8343 16.9172 12.1657 16.9172 12.4472 16.7765L20.2112 12.8945C20.9482 12.526 20.9482 11.4742 20.2112 11.1056L19.118 10.5591L18 11.1181L19.7639 12.0001L12 15.882L4.23608 12.0001L6.00002 11.1181L4.88198 10.5591Z"/>
<path fill-rule="evenodd" clip-rule="evenodd" d="M12 4.11804L4.23608 8.00001L12 11.882L19.7639 8.00001L12 4.11804ZM3.78887 7.10558C3.05182 7.4741 3.05182 8.52591 3.78887 8.89444L11.5528 12.7764C11.8343 12.9172 12.1657 12.9172 12.4472 12.7764L20.2112 8.89443C20.9482 8.52591 20.9482 7.4741 20.2112 7.10558L12.4472 3.22361C12.1657 3.08285 11.8343 3.08285 11.5528 3.22361L3.78887 7.10558Z"/>
</svg>
