<svg viewBox="0 0 24 24" xmlns="http://www.w3.org/2000/svg">
<path fill-rule="evenodd" clip-rule="evenodd" d="M18.5252 4.98957L19.5858 3.92896L20.2929 4.63606L19.2323 5.69668L18.5252 4.98957Z"/>
<path fill-rule="evenodd" clip-rule="evenodd" d="M16.2224 4.89011L15.8342 3.44128L16.8002 3.18247L17.1884 4.63129L16.2224 4.89011Z"/>
<path fill-rule="evenodd" clip-rule="evenodd" d="M20.7805 8.38754L19.3317 7.99933L19.5905 7.0334L21.0393 7.42162L20.7805 8.38754Z"/>
<path fill-rule="evenodd" clip-rule="evenodd" d="M15.5129 6.42671C16.0819 5.85776 17.0043 5.85776 17.5733 6.42671C18.1422 6.99566 18.1422 7.91811 17.5733 8.48705L6.48705 19.5733C5.9181 20.1422 4.99566 20.1422 4.42671 19.5733C3.85776 19.0043 3.85776 18.0819 4.42671 17.5129L15.5129 6.42671ZM14.8262 9.86063L5.80027 18.8865C5.61062 19.0762 5.30314 19.0762 5.11349 18.8865C4.92384 18.6969 4.92384 18.3894 5.11349 18.1997L14.1394 9.17384L14.8262 9.86063ZM15.5129 9.17385L16.8865 7.80027C17.0762 7.61062 17.0762 7.30314 16.8865 7.11349C16.6969 6.92384 16.3894 6.92384 16.1997 7.11349L14.8262 8.48706L15.5129 9.17385Z"/>
</svg>
