<svg viewBox="0 0 24 24" xmlns="http://www.w3.org/2000/svg">
<path fill-rule="evenodd" clip-rule="evenodd" d="M20 10H12.5C11.9477 10 11.5 10.4477 11.5 11V12.5854C10.9174 12.7913 10.5 13.3469 10.5 14V19.5C10.5 20.3284 11.1716 21 12 21C12.8284 21 13.5 20.3284 13.5 19.5V14C13.5 13.3469 13.0826 12.7913 12.5 12.5854V11H20C20.5523 11 21 10.5523 21 10V6C21 5.44772 20.5523 5 20 5V10ZM12.5 19.5V14C12.5 13.7239 12.2761 13.5 12 13.5C11.7239 13.5 11.5 13.7239 11.5 14V19.5C11.5 19.7761 11.7239 20 12 20C12.2761 20 12.5 19.7761 12.5 19.5Z"/>
<path fill-rule="evenodd" clip-rule="evenodd" d="M16.5 4H7.5C6.67157 4 6 4.67157 6 5.5C6 6.32843 6.67157 7 7.5 7H16.5C17.3284 7 18 6.32843 18 5.5C18 4.67157 17.3284 4 16.5 4ZM7.5 3C6.11929 3 5 4.11929 5 5.5C5 6.88071 6.11929 8 7.5 8H16.5C17.8807 8 19 6.88071 19 5.5C19 4.11929 17.8807 3 16.5 3H7.5Z"/>
</svg>
