<svg viewBox="0 0 24 24" xmlns="http://www.w3.org/2000/svg">
<path fill-rule="evenodd" clip-rule="evenodd" d="M16.4683 5.14369C17.0541 4.5579 18.0038 4.5579 18.5896 5.14369C19.1754 5.72947 19.1754 6.67922 18.5896 7.26501L9.39063 16.464C9.34239 16.1011 9.2148 15.7481 9.00759 15.4328L11.495 12.9454L10.7879 12.2383L8.30048 14.7257C7.98521 14.5185 7.63217 14.3909 7.26929 14.3427L16.4683 5.14369ZM17.1754 5.85079L11.495 11.5312L12.2021 12.2383L17.8825 6.5579C18.0777 6.36264 18.0777 6.04605 17.8825 5.85079C17.6872 5.65553 17.3706 5.65553 17.1754 5.85079Z"/>
<path fill-rule="evenodd" clip-rule="evenodd" d="M7.26903 18.3074C7.51626 18.237 7.74983 18.1048 7.94958 17.9051C8.56639 17.2883 8.55637 16.3237 7.98302 15.7503C7.40967 15.177 6.44507 15.167 5.82826 15.7838C5.62209 15.9899 5.51525 16.1593 5.41669 16.4949C5.32993 16.7904 5.26642 17.1811 5.20484 17.6425C5.19102 17.746 5.17715 17.8546 5.16296 17.9657C5.12606 18.2545 5.08702 18.56 5.04127 18.8369L7.26903 18.3074ZM7.5191 19.2758C7.93555 19.1615 8.32781 18.9411 8.65668 18.6122C9.65147 17.6174 9.66644 16.0195 8.69013 15.0432C7.71382 14.0669 6.11593 14.0819 5.12115 15.0767C4.79323 15.4046 4.6016 15.7215 4.45721 16.2132C4.31834 16.686 4.24126 17.2889 4.16787 17.8629C4.12436 18.2033 4.08214 18.5335 4.02911 18.8204C4.01145 18.9159 3.991 19.0064 3.96847 19.0919C3.75483 19.9027 3.35342 20.266 3.35342 20.266L7.5191 19.2758Z"/>
</svg>
