<svg viewBox="0 0 24 24" xmlns="http://www.w3.org/2000/svg">
<path fill-rule="evenodd" clip-rule="evenodd" d="M19.7323 17.9976C19.9026 18.292 20 18.6339 20 18.9985C20 20.1039 19.1046 21 18 21C16.8954 21 16 20.1039 16 18.9985C16 18.6342 16.0973 18.2925 16.2673 17.9982L18 15L19.7323 17.9976ZM18.8664 18.4978C18.9512 18.6442 19 18.8142 19 18.9985C19 19.5523 18.5516 20 18 20C17.4484 20 17 19.5523 17 18.9985C17 18.8145 17.0487 18.6448 17.1331 18.4986C17.1332 18.4986 17.1331 18.4986 17.1331 18.4986L17.9999 16.9988L18.8664 18.4978Z"/>
<path fill-rule="evenodd" clip-rule="evenodd" d="M17.1421 13.6066L17.8492 14.3137L18.5563 13.6066L10.071 5.12134L9.36393 5.82844L10.071 6.53556L3.63604 12.9705C3.24551 13.361 3.24551 13.9942 3.63603 14.3847L9.29289 20.0416C9.68341 20.4321 10.3166 20.4321 10.7071 20.0416L17.1421 13.6066ZM10.7782 7.24266L16.435 12.8995L10 19.3345L4.34314 13.6776L10.7782 7.24266Z"/>
<path d="M12.6924 10.6189L12.6924 3H11.6924L11.6924 10.6189C11.6183 10.6617 11.5486 10.7148 11.4853 10.7782C11.0948 11.1687 11.0948 11.8018 11.4853 12.1924C11.8758 12.5829 12.509 12.5829 12.8995 12.1924C13.29 11.8018 13.29 11.1687 12.8995 10.7782C12.8361 10.7148 12.7664 10.6617 12.6924 10.6189Z"/>
</svg>
