<svg viewBox="0 0 24 24" xmlns="http://www.w3.org/2000/svg">
<path fill-rule="evenodd" clip-rule="evenodd" d="M14.5 18H9.5L9.5 20H14.5V18ZM9.5 17C8.94772 17 8.5 17.4477 8.5 18V20C8.5 20.5523 8.94772 21 9.5 21H14.5C15.0523 21 15.5 20.5523 15.5 20V18C15.5 17.4477 15.0523 17 14.5 17H9.5Z"/>
<path fill-rule="evenodd" clip-rule="evenodd" d="M7.21153 10.4834C7.07919 10.1809 7.10469 9.83257 7.27969 9.55257L12 2L16.7204 9.55257C16.8954 9.83257 16.9209 10.1809 16.7886 10.4834L14.375 16H13.2835L15.8724 10.0826L12.5 4.68672V9.08535C13.0826 9.29127 13.5 9.84689 13.5 10.5C13.5 11.3284 12.8284 12 12 12C11.1716 12 10.5 11.3284 10.5 10.5C10.5 9.84689 10.9174 9.29127 11.5 9.08535V4.68687L8.12769 10.0826L10.7166 16H9.62505L7.21153 10.4834ZM11.5 10.5C11.5 10.2239 11.7239 10 12 10C12.2761 10 12.5 10.2239 12.5 10.5C12.5 10.7761 12.2761 11 12 11C11.7239 11 11.5 10.7761 11.5 10.5Z"/>
</svg>
