<svg viewBox="0 0 24 24" xmlns="http://www.w3.org/2000/svg">
<path fill-rule="evenodd" clip-rule="evenodd" d="M19.7097 8.4956C20.0968 8.10851 20.0968 7.48092 19.7097 7.09384L16.9062 4.29031C16.5191 3.90323 15.8915 3.90323 15.5044 4.29031L4.29031 15.5044C3.90323 15.8915 3.90323 16.5191 4.29031 16.9062L7.09384 19.7097C7.48092 20.0968 8.10851 20.0968 8.4956 19.7097L19.7097 8.4956ZM16.2053 4.99119L19.0088 7.79472L17.9575 8.84606L16.5557 7.44429L15.8548 8.14517L17.2566 9.54694L16.5557 10.2479L15.8548 9.54695L15.1539 10.2478L15.8548 10.9487L15.154 11.6496L13.7522 10.2478L13.0513 10.9487L14.4531 12.3504L13.7522 13.0513L13.0513 12.3505L12.3504 13.0514L13.0513 13.7522L12.3504 14.4531L10.9486 13.0513L10.2478 13.7522L11.6495 15.154L10.9486 15.8549L10.2477 15.154L9.54683 15.8549L10.2477 16.5558L9.54692 17.2566L8.14517 15.8549L7.44429 16.5557L8.84603 17.9575L7.79472 19.0088L4.99119 16.2053L16.2053 4.99119Z"/>
</svg>
