<svg viewBox="0 0 24 24" xmlns="http://www.w3.org/2000/svg">
<path fill-rule="evenodd" clip-rule="evenodd" d="M6.2832 4L15.33 19.6695L15.335 19.6782C16.0254 20.874 17.5544 21.2837 18.7501 20.5933C19.9458 19.903 20.3555 18.374 19.6651 17.1782C18.9748 15.9825 17.4458 15.5728 16.2501 16.2632C15.7627 16.5446 15.4059 16.9653 15.201 17.446L7.4379 4H6.2832ZM16.201 19.1782C16.6152 19.8957 17.5326 20.1415 18.2501 19.7273C18.9675 19.3131 19.2133 18.3957 18.7991 17.6782C18.3849 16.9608 17.4675 16.715 16.7501 17.1292C16.0349 17.5421 15.7884 18.455 16.1971 19.1715L16.201 19.1782Z"/>
<path d="M12.5774 10.9019L16.5622 4H17.7169L13.1548 11.9019L12.5774 10.9019Z"/>
<path fill-rule="evenodd" clip-rule="evenodd" d="M12.0001 11.9019L8.79918 17.446C8.59424 16.9653 8.23745 16.5446 7.75005 16.2632C6.55432 15.5728 5.02534 15.9825 4.33499 17.1782C3.64463 18.374 4.05432 19.903 5.25005 20.5933C6.44578 21.2837 7.97476 20.874 8.66511 19.6782L8.66898 19.6715L12.5774 12.9019L12.0001 11.9019ZM7.79909 19.1782C7.38488 19.8957 6.46749 20.1415 5.75005 19.7273C5.03261 19.3131 4.7868 18.3957 5.20101 17.6782C5.61523 16.9608 6.53261 16.715 7.25005 17.1292C7.96576 17.5424 8.21211 18.4564 7.80208 19.173L7.79909 19.1782Z"/>
</svg>
