<svg viewBox="0 0 24 24" xmlns="http://www.w3.org/2000/svg">
<path fill-rule="evenodd" clip-rule="evenodd" d="M12 10L7 10V9L12 9V10Z"/>
<path fill-rule="evenodd" clip-rule="evenodd" d="M14.4362 13.7291C15.4111 12.5923 16 11.1149 16 9.5C16 5.91015 13.0899 3 9.5 3C5.91015 3 3 5.91015 3 9.5C3 13.0899 5.91015 16 9.5 16C11.115 16 12.5924 15.411 13.7291 14.4362L14.7108 15.4178C14.4758 15.9384 14.5722 16.5722 15 17L18.5 20.5C19.0523 21.0523 19.9477 21.0523 20.5 20.5C21.0523 19.9477 21.0523 19.0523 20.5 18.5L17 15C16.5722 14.5722 15.9385 14.4758 15.4179 14.7107L14.4362 13.7291ZM15 9.5C15 12.5376 12.5376 15 9.5 15C6.46243 15 4 12.5376 4 9.5C4 6.46243 6.46243 4 9.5 4C12.5376 4 15 6.46243 15 9.5ZM19.7929 19.2071L16.2929 15.7071C16.1312 15.5453 15.8689 15.5453 15.7071 15.7071C15.5454 15.8688 15.5454 16.1311 15.7071 16.2929L19.2071 19.7929C19.3689 19.9547 19.6311 19.9547 19.7929 19.7929C19.9547 19.6311 19.9547 19.3689 19.7929 19.2071Z"/>
</svg>
