<svg viewBox="0 0 24 24" xmlns="http://www.w3.org/2000/svg">
<path d="M18.5 10.502V13.0022H19.5V10.502H22.0002V9.50195H19.5V7.00171H18.5V9.50195H15.9998V10.502H18.5Z"/>
<path fill-rule="evenodd" clip-rule="evenodd" d="M10 11C11.6569 11 13 9.65685 13 8C13 6.34315 11.6569 5 10 5C8.34315 5 7 6.34315 7 8C7 9.65685 8.34315 11 10 11ZM14 8C14 10.2091 12.2091 12 10 12C7.79086 12 6 10.2091 6 8C6 5.79086 7.79086 4 10 4C12.2091 4 14 5.79086 14 8Z"/>
<path fill-rule="evenodd" clip-rule="evenodd" d="M17 19V16.5684C17 15.7959 16.5713 15.1867 15.9618 14.984C14.5901 14.5279 12.4665 14 10 14C7.53347 14 5.40986 14.5279 4.0382 14.984C3.42871 15.1867 3 15.7959 3 16.5684V19L17 19ZM3.72266 14.0351C2.64439 14.3937 2 15.4321 2 16.5684V19C2 19.5523 2.44772 20 3 20H17C17.5523 20 18 19.5523 18 19V16.5684C18 15.4321 17.3556 14.3937 16.2773 14.0351C14.8375 13.5563 12.6042 13 10 13C7.39583 13 5.16253 13.5563 3.72266 14.0351Z"/>
</svg>
