<svg viewBox="0 0 24 24" xmlns="http://www.w3.org/2000/svg">
<path fill-rule="evenodd" clip-rule="evenodd" d="M6 6H5L5 16H6V6ZM5 5C4.44772 5 4 5.44772 4 6V16C4 16.5523 4.44772 17 5 17H6C6.55228 17 7 16.5523 7 16V6C7 5.44772 6.55228 5 6 5H5Z"/>
<path fill-rule="evenodd" clip-rule="evenodd" d="M10 6H9L9 16H10V6ZM9 5C8.44772 5 8 5.44772 8 6V16C8 16.5523 8.44772 17 9 17H10C10.5523 17 11 16.5523 11 16V6C11 5.44772 10.5523 5 10 5H9Z"/>
<path fill-rule="evenodd" clip-rule="evenodd" d="M14 6H13L13 16H14V6ZM13 5C12.4477 5 12 5.44772 12 6V16C12 16.5523 12.4477 17 13 17H14C14.5523 17 15 16.5523 15 16V6C15 5.44772 14.5523 5 14 5H13Z"/>
<path fill-rule="evenodd" clip-rule="evenodd" d="M17.6888 6.04094L16.7229 6.29976L19.3111 15.959L20.277 15.7002L17.6888 6.04094ZM16.4641 5.33383C15.9306 5.47677 15.614 6.02511 15.757 6.55858L18.3452 16.2178C18.4881 16.7513 19.0365 17.0679 19.5699 16.9249L20.5358 16.6661C21.0693 16.5232 21.3859 15.9748 21.243 15.4414L18.6548 5.78212C18.5118 5.24865 17.9635 4.93207 17.43 5.07501L16.4641 5.33383Z"/>
<path fill-rule="evenodd" clip-rule="evenodd" d="M21 19H3V18H21V19Z"/>
</svg>
