<svg viewBox="0 0 24 24" xmlns="http://www.w3.org/2000/svg">
<path fill-rule="evenodd" clip-rule="evenodd" d="M5.00002 19.4848V4C5.00002 3.44772 5.44774 3 6.00002 3H18C18.5523 3 19 3.44771 19 4V18C19 18.5523 18.5523 19 18 19L6.50002 19C6.50029 19 6.49975 19 6.50002 19C6.22425 19.0004 6.00002 19.2241 6.00002 19.5C6.00002 19.7761 6.22388 20 6.50002 20H18C18 20.5523 17.5523 21 17 21H6.50002C5.6716 21 5.00002 20.3284 5.00002 19.5C5.00002 19.4949 4.99997 19.4899 5.00002 19.4848ZM6.00002 4V18.0853C6.15641 18.03 6.3247 18 6.50002 18H18V4L6.00002 4Z"/>
</svg>
