<svg viewBox="0 0 24 24" xmlns="http://www.w3.org/2000/svg">
<path fill-rule="evenodd" clip-rule="evenodd" d="M17 4H7V20H10V18.01C10 17.4522 10.4522 17 11.01 17H12.99C13.5478 17 14 17.4522 14 18.01V20H17V4ZM13 21V18.01C13 18.0045 12.9955 18 12.99 18H11.01C11.0045 18 11 18.0045 11 18.01V21H6V4C6 3.44772 6.44772 3 7 3H17C17.5523 3 18 3.44772 18 4V21H13Z"/>
<path fill-rule="evenodd" clip-rule="evenodd" d="M8.5 6.5V5.5H9.5V6.5H8.5Z"/>
<path fill-rule="evenodd" clip-rule="evenodd" d="M11.5 6.5V5.5H12.5V6.5H11.5Z"/>
<path fill-rule="evenodd" clip-rule="evenodd" d="M14.5 6.5V5.5H15.5V6.5H14.5Z"/>
<path fill-rule="evenodd" clip-rule="evenodd" d="M8.5 9.5V8.5H9.5V9.5H8.5Z"/>
<path fill-rule="evenodd" clip-rule="evenodd" d="M11.5 9.5V8.5H12.5V9.5H11.5Z"/>
<path fill-rule="evenodd" clip-rule="evenodd" d="M14.5 9.5V8.5H15.5V9.5H14.5Z"/>
<path fill-rule="evenodd" clip-rule="evenodd" d="M8.5 12.5V11.5H9.5V12.5H8.5Z"/>
<path fill-rule="evenodd" clip-rule="evenodd" d="M11.5 12.5V11.5H12.5V12.5H11.5Z"/>
<path fill-rule="evenodd" clip-rule="evenodd" d="M14.5 12.5V11.5H15.5V12.5H14.5Z"/>
<path fill-rule="evenodd" clip-rule="evenodd" d="M8.5 15.5V14.5H9.5V15.5H8.5Z"/>
<path fill-rule="evenodd" clip-rule="evenodd" d="M11.5 15.5V14.5H12.5V15.5H11.5Z"/>
<path fill-rule="evenodd" clip-rule="evenodd" d="M14.5 15.5V14.5H15.5V15.5H14.5Z"/>
</svg>
