<svg viewBox="0 0 24 24" xmlns="http://www.w3.org/2000/svg">
<path fill-rule="evenodd" clip-rule="evenodd" d="M13 12C13 12.5523 12.5523 13 12 13C11.4477 13 11 12.5523 11 12C11 11.4477 11.4477 11 12 11C12.5523 11 13 11.4477 13 12Z"/>
<path fill-rule="evenodd" clip-rule="evenodd" d="M11.5 20.9863C6.92752 20.736 3.26403 17.0725 3.01365 12.5H3V11.5H3.01365C3.26403 6.92752 6.92752 3.26403 11.5 3.01365V3H12.5V3.01365C17.0725 3.26403 20.736 6.92752 20.9863 11.5H21V12.5H20.9863C20.736 17.0725 17.0725 20.736 12.5 20.9863V21H11.5V20.9863ZM19.9846 11.5H19V12.5H19.9846C19.7367 16.52 16.52 19.7367 12.5 19.9846V19H11.5V19.9846C7.47999 19.7367 4.26327 16.52 4.01537 12.5H5V11.5H4.01537C4.26327 7.47999 7.47999 4.26327 11.5 4.01537V5H12.5V4.01537C16.52 4.26327 19.7367 7.47999 19.9846 11.5Z"/>
<path fill-rule="evenodd" clip-rule="evenodd" d="M10.7616 10.7616L8.90394 15.0961L13.2384 13.2384L15.0961 8.90394L10.7616 10.7616ZM10 10L7 17L14 14L17 7L10 10Z"/>
</svg>
