<svg viewBox="0 0 24 24" xmlns="http://www.w3.org/2000/svg">
<path fill-rule="evenodd" clip-rule="evenodd" d="M12 13C12.5523 13 13 12.5523 13 12C13 11.4477 12.5523 11 12 11C11.4477 11 11 11.4477 11 12C11 12.5523 11.4477 13 12 13ZM14 12C14 13.1046 13.1046 14 12 14C10.8954 14 10 13.1046 10 12C10 10.8954 10.8954 10 12 10C13.1046 10 14 10.8954 14 12Z"/>
<path fill-rule="evenodd" clip-rule="evenodd" d="M12.5 19.9846C16.52 19.7367 19.7367 16.52 19.9846 12.5H21V11.5H19.9846C19.7367 7.47999 16.52 4.26327 12.5 4.01537V3H11.5V4.01537C7.47999 4.26327 4.26327 7.47999 4.01537 11.5H3V12.5H4.01537C4.26327 16.52 7.47999 19.7367 11.5 19.9846V21H12.5V19.9846ZM11.5 6V5.01758C8.03251 5.2623 5.2623 8.03251 5.01758 11.5H6V12.5H5.01758C5.2623 15.9675 8.03251 18.7377 11.5 18.9824V18H12.5V18.9824C15.9675 18.7377 18.7377 15.9675 18.9824 12.5H18V11.5H18.9824C18.7377 8.03251 15.9675 5.2623 12.5 5.01758V6H11.5Z"/>
</svg>
