<svg viewBox="0 0 24 24" xmlns="http://www.w3.org/2000/svg">
<path d="M4 15.7539V17.6C4 19.5882 7.58172 21 12 21C16.4183 21 20 19.5882 20 17.6V15.7539C19.7062 16.0343 19.3649 16.2806 19 16.4948V17.6C19 17.9325 18.6638 18.5443 17.2732 19.1221C15.9795 19.6595 14.1178 20 12 20C9.88216 20 8.02049 19.6595 6.72681 19.1221C5.33621 18.5443 5 17.9325 5 17.6V16.4948C4.63509 16.2806 4.29376 16.0343 4 15.7539Z"/>
<path d="M4 11.7539V13.6C4 15.5882 7.58172 17 12 17C16.4183 17 20 15.5882 20 13.6V11.7539C19.7062 12.0343 19.3649 12.2806 19 12.4948V13.6C19 13.9325 18.6638 14.5443 17.2732 15.1221C15.9795 15.6595 14.1178 16 12 16C9.88216 16 8.02049 15.6595 6.72681 15.1221C5.33621 14.5443 5 13.9325 5 13.6V12.4948C4.63509 12.2806 4.29376 12.0343 4 11.7539Z"/>
<path d="M5 8.69371V9.59993C5 9.93252 5.33621 10.5443 6.72681 11.122C8.02049 11.6595 9.88216 11.9999 12 11.9999C14.1178 11.9999 15.9795 11.6595 17.2732 11.122C18.6638 10.5443 19 9.93252 19 9.59993V8.69371C19.3733 8.50223 19.7119 8.28477 20 8.03833V9.59993C20 11.5882 16.4183 12.9999 12 12.9999C7.58172 12.9999 4 11.5882 4 9.59993V8.03833C4.28813 8.28477 4.62668 8.50223 5 8.69371Z"/>
<path fill-rule="evenodd" clip-rule="evenodd" d="M18.714 6.50642C18.9853 6.26977 19 6.12726 19 6.08571C19 6.03723 18.9784 5.87967 18.6975 5.62351C18.4162 5.36695 17.9534 5.08999 17.297 4.83679C15.9907 4.33292 14.1182 4 12 4C9.88179 4 8.00934 4.33292 6.70302 4.83679C6.04656 5.08999 5.58383 5.36695 5.3025 5.62351C5.0216 5.87967 5 6.03723 5 6.08571C5 6.12726 5.01469 6.26977 5.286 6.50642C5.56162 6.74682 6.02001 7.00534 6.67862 7.23988C7.98829 7.70627 9.86777 8 12 8C14.1322 8 16.0117 7.70627 17.3214 7.23988C17.98 7.00534 18.4384 6.74682 18.714 6.50642ZM12 9C16.4183 9 20 7.78991 20 6.08571C20 4.38152 16.4183 3 12 3C7.58172 3 4 4.38152 4 6.08571C4 7.78991 7.58172 9 12 9Z"/>
</svg>
