<svg viewBox="0 0 24 24" xmlns="http://www.w3.org/2000/svg">
<path fill-rule="evenodd" clip-rule="evenodd" d="M3 8L7 4H17L21 8L12 20.5L3 8ZM4.59222 8.49998L10.2667 16.3812L7.63962 8.49998H4.59222ZM13.7333 16.3812L19.4078 8.49998H16.3604L13.7333 16.3812ZM19.0858 7.49998L17.2013 5.6155L16.6629 7.49998H19.0858ZM16.3371 5H13.3307L15.7359 7.10447L16.3371 5ZM10.6693 5H7.66287L8.26415 7.10447L10.6693 5ZM6.79871 5.6155L4.91423 7.49998H7.33714L6.79871 5.6155ZM12 18.4188L8.69371 8.49998H15.3063L12 18.4188ZM12 5.16437L9.33072 7.49998H14.6693L12 5.16437Z"/>
</svg>
