<svg viewBox="0 0 24 24" xmlns="http://www.w3.org/2000/svg">
<path fill-rule="evenodd" clip-rule="evenodd" d="M2.80711 11.2929C2.41659 11.6834 2.41659 12.3166 2.80711 12.7071L11.2923 21.1924C11.6829 21.5829 12.316 21.5829 12.7066 21.1924L21.1918 12.7071C21.5824 12.3166 21.5824 11.6834 21.1918 11.2929L12.7066 2.80766C12.316 2.41714 11.6829 2.41714 11.2923 2.80766L2.80711 11.2929ZM11.9995 3.51477L3.51422 12L7.50001 15.9858V12.5C7.50001 11.9477 7.94772 11.5 8.50001 11.5H15.2929L13.6464 9.85356L14.3535 9.14645L17.2071 12L14.3535 14.8536L13.6464 14.1465L15.2929 12.5H8.50001V16.9858L11.9995 20.4853L20.4847 12L11.9995 3.51477Z"/>
</svg>
