<svg viewBox="0 0 24 24" xmlns="http://www.w3.org/2000/svg">
<path fill-rule="evenodd" clip-rule="evenodd" d="M9 15.118V12.5L5 14.1667V20H19V12.618L14 15.118V12.618L9 15.118ZM15 11V13.5L20 11V21H4V13.5L10 11V13.5L15 11Z"/>
<path fill-rule="evenodd" clip-rule="evenodd" d="M14 2C14 3.10457 13.1046 4 12 4H8.5C7.94772 4 7.5 4.44772 7.5 5H6.5C6.5 3.89543 7.39543 3 8.5 3H12C12.5523 3 13 2.55228 13 2H14Z"/>
<path fill-rule="evenodd" clip-rule="evenodd" d="M13 17V16H14V17H13Z"/>
<path fill-rule="evenodd" clip-rule="evenodd" d="M10 17V16H11V17H10Z"/>
<path fill-rule="evenodd" clip-rule="evenodd" d="M7 17V16H8V17H7Z"/>
<path fill-rule="evenodd" clip-rule="evenodd" d="M16 17V16H17V17H16Z"/>
<path fill-rule="evenodd" clip-rule="evenodd" d="M13 19V18H14V19H13Z"/>
<path fill-rule="evenodd" clip-rule="evenodd" d="M10 19V18H11V19H10Z"/>
<path fill-rule="evenodd" clip-rule="evenodd" d="M7 19V18H8V19H7Z"/>
<path fill-rule="evenodd" clip-rule="evenodd" d="M16 19V18H17V19H16Z"/>
<path fill-rule="evenodd" clip-rule="evenodd" d="M7.99998 6H5.99998L4.7818 12.0909L5.89431 11.6274L6.41978 9H7.58018L7.93554 10.7768L8.8769 10.3846L7.99998 6ZM6.81978 7L6.61978 8H7.38018L7.18018 7H6.81978Z"/>
</svg>
