<svg viewBox="0 0 24 24" xmlns="http://www.w3.org/2000/svg">
<path fill-rule="evenodd" clip-rule="evenodd" d="M9.37088 3.92552C10.1589 3.28075 11.15 3 12 3C12.85 3 13.8411 3.28075 14.6291 3.92552C15.4328 4.58306 16 5.60015 16 7C16 8.21657 16.1216 9.05501 16.2381 9.57903C16.2963 9.8411 16.3533 10.0249 16.3934 10.1383C16.4134 10.195 16.4292 10.2342 16.4388 10.2569C16.4436 10.2682 16.4469 10.2754 16.4484 10.2786C16.4485 10.279 16.4482 10.2784 16.4484 10.2786L16.809 11H14.8181C14.5962 11.4619 14.3379 11.923 13.9662 12.2813C13.4885 12.7417 12.8626 13 12 13C11.1375 13 10.5116 12.7417 10.0338 12.2813C9.66207 11.923 9.40382 11.4619 9.18188 11H7.19098L7.55122 10.2795C7.55134 10.2793 7.55106 10.2799 7.55122 10.2795C7.5527 10.2763 7.55638 10.2682 7.56119 10.2569C7.57081 10.2342 7.5866 10.195 7.60663 10.1383C7.64666 10.0249 7.70367 9.8411 7.7619 9.57903C7.87835 9.05501 8 8.21657 8 7C8 5.60015 8.56722 4.58306 9.37088 3.92552ZM10.0041 4.69948C9.43277 5.16694 9 5.89985 9 7C9 8.28343 8.87164 9.19499 8.73809 9.79597C8.72197 9.86848 8.70579 9.93646 8.68975 10H9.82069L9.95444 10.2915C10.2156 10.8606 10.4318 11.276 10.7278 11.5613C10.9962 11.82 11.3626 12 12 12C12.6375 12 13.0038 11.82 13.2722 11.5613C13.5682 11.2761 13.7844 10.8606 14.0456 10.2915L14.1793 10H15.3102C15.2942 9.93646 15.278 9.86848 15.2619 9.79597C15.1284 9.19499 15 8.28343 15 7C15 5.89985 14.5672 5.16694 13.9959 4.69948C13.4089 4.21925 12.65 4 12 4C11.35 4 10.5911 4.21925 10.0041 4.69948Z"/>
<path fill-rule="evenodd" clip-rule="evenodd" d="M19 20V17.0276C19 16.5806 18.7034 16.1883 18.2744 16.066L14.6728 15.1922C14.4824 15.5054 14.2225 15.7619 13.9297 15.9571C13.3539 16.3409 12.6483 16.5 12 16.5C11.3517 16.5 10.6461 16.3409 10.0703 15.9571C9.7775 15.7619 9.5176 15.5054 9.32724 15.1922L5.72559 16.066C5.29661 16.1883 5 16.5806 5 17.0276V20L19 20ZM5.47377 15.0981L10 14C10 14.2324 10.054 14.4378 10.1495 14.6162C10.4648 15.2054 11.2324 15.5 12 15.5C12.7676 15.5 13.5352 15.2054 13.8505 14.6162C13.946 14.4378 14 14.2324 14 14L18.5262 15.0981C19.3964 15.3354 20 16.1257 20 17.0276V20C20 20.5523 19.5523 21 19 21H5C4.44772 21 4 20.5523 4 20V17.0276C4 16.1257 4.60364 15.3354 5.47377 15.0981Z"/>
</svg>
