<svg viewBox="0 0 24 24" xmlns="http://www.w3.org/2000/svg">
<path fill-rule="evenodd" clip-rule="evenodd" d="M12 4.5C7.85786 4.5 4.5 7.85786 4.5 12H3.5C3.5 7.30558 7.30558 3.5 12 3.5C16.6944 3.5 20.5 7.30558 20.5 12V14H19.5V12C19.5 7.85786 16.1421 4.5 12 4.5Z"/>
<path fill-rule="evenodd" clip-rule="evenodd" d="M12 6.5C8.96241 6.5 6.49997 8.96243 6.49997 12C6.49997 13.1105 5.71612 14.0667 4.62716 14.2845L3.59803 14.4903L3.40192 13.5097L4.43105 13.3039C5.05258 13.1796 5.49997 12.6338 5.49997 12C5.49997 8.41015 8.41012 5.5 12 5.5C15.5898 5.5 18.5 8.41015 18.5 12V14.7639C18.5 16.3121 18.1395 17.8389 17.4472 19.2236L16.5528 18.7764C17.1757 17.5306 17.5 16.1568 17.5 14.7639V12C17.5 8.96243 15.0375 6.5 12 6.5Z"/>
<path fill-rule="evenodd" clip-rule="evenodd" d="M12 8.5C10.067 8.5 8.49999 10.067 8.49999 12V12.6577C8.49999 14.2637 7.40695 15.6636 5.84887 16.0532L4.12126 16.4851L3.87872 15.5149L5.60633 15.083C6.71925 14.8048 7.49999 13.8048 7.49999 12.6577V12C7.49999 9.51472 9.51471 7.5 12 7.5C14.4853 7.5 16.5 9.51472 16.5 12V14.4645C16.5 16.8608 15.548 19.1591 13.8535 20.8536L13.1464 20.1464C14.6534 18.6395 15.5 16.5956 15.5 14.4645V12C15.5 10.067 13.933 8.5 12 8.5Z"/>
<path fill-rule="evenodd" clip-rule="evenodd" d="M12 10.5C11.1716 10.5 10.5 11.1716 10.5 12V13.4005C10.5 15.1789 9.4527 16.7904 7.82763 17.5127L5.70307 18.4569L5.29694 17.5431L7.42149 16.5988C8.68544 16.0371 9.50001 14.7837 9.50001 13.4005V12C9.50001 10.6193 10.6193 9.5 12 9.5C13.3807 9.5 14.5 10.6193 14.5 12V14.0279C14.5 16.9581 12.8445 19.6368 10.2236 20.9472L9.7764 20.0528C12.0585 18.9117 13.5 16.5793 13.5 14.0279V12C13.5 11.1716 12.8284 10.5 12 10.5Z"/>
<path fill-rule="evenodd" clip-rule="evenodd" d="M11.5 13.4378V11.5H12.5V13.4378C12.5 16.0957 10.8818 18.4858 8.41407 19.4729L7.18572 19.9642L6.81433 19.0358L8.04267 18.5444C10.1308 17.7092 11.5 15.6868 11.5 13.4378Z"/>
</svg>
