<svg viewBox="0 0 24 24" xmlns="http://www.w3.org/2000/svg">
<path fill-rule="evenodd" clip-rule="evenodd" d="M10.5958 17.5547L10.592 17.5612C10.4538 17.7997 10.375 18.074 10.375 18.3731C10.375 19.2723 11.1032 20 12 20C12.8968 20 13.625 19.2723 13.625 18.3731C13.625 18.0751 13.5459 17.7987 13.4083 17.5604L13.4016 17.5489L12.0001 15.0466L10.5958 17.5547ZM12 13L14.2741 17.0602C14.4973 17.4465 14.625 17.8948 14.625 18.3731C14.625 19.8239 13.4497 21 12 21C10.5503 21 9.375 19.8239 9.375 18.3731C9.375 17.8935 9.50255 17.4467 9.7269 17.0596L12 13Z"/>
<path fill-rule="evenodd" clip-rule="evenodd" d="M13.7183 8.32778C13.2377 6.63102 12.4617 5.06615 11.2087 3.08831C10.9876 2.73939 10.7517 2.37761 10.5 2C10.382 2.41421 10.2493 2.81953 10.1036 3.21726C9.14565 5.83263 7.62721 8.11949 6.0566 10.4444C5.43142 11.5219 5 12.6648 5 14C5 18.0389 7.96006 21 12 21C16.0399 21 19 18.0389 19 14C19 11.6441 17.8582 9.51325 16.7539 7.45234C16.7121 7.37428 16.6703 7.29633 16.6286 7.21846C16.413 6.81532 16.2005 6.41463 16 6.01524C15.8459 6.47757 15.6918 6.89096 15.523 7.27093C15.3164 7.73611 15.0879 8.15121 14.8105 8.54473C14.5794 8.87264 14.3144 9.18557 14 9.5C13.9197 9.09843 13.8265 8.70976 13.7183 8.32778ZM16.103 8.35582C15.7443 9.01354 15.3047 9.60952 14.7071 10.2071L13.3859 11.5283L13.0194 9.69612C12.6529 7.86348 12.0003 6.30757 10.7662 4.27193C9.76213 6.71645 8.3245 8.87347 6.90481 10.9753C6.34511 11.9469 6 12.9074 6 14C6 17.4867 8.51245 20 12 20C15.4875 20 18 17.4867 18 14C18 12.7461 17.6253 11.5262 17.0608 10.2696C16.7623 9.60514 16.4385 8.98388 16.103 8.35582Z"/>
</svg>
