<svg viewBox="0 0 24 24" xmlns="http://www.w3.org/2000/svg">
<path fill-rule="evenodd" clip-rule="evenodd" d="M9.84451 4H7V11H9.84451C10.735 11 11.6174 11.1699 12.4442 11.5007L15.2985 12.6424C15.8891 12.8786 16.5194 13 17.1555 13H19V6H17.1555C16.265 6 15.3826 5.83007 14.5558 5.49934L11.7015 4.35762C11.1109 4.12138 10.4806 4 9.84451 4ZM6 3V12H9.84451C10.6078 12 11.3641 12.1457 12.0728 12.4291L14.9272 13.5709C15.6359 13.8543 16.3922 14 17.1555 14H19C19.5523 14 20 13.5523 20 13V6C20 5.44772 19.5523 5 19 5H17.1555C16.3922 5 15.6359 4.85435 14.9271 4.57086L12.0728 3.42914C11.3641 3.14565 10.6078 3 9.84451 3H6Z"/>
<path fill-rule="evenodd" clip-rule="evenodd" d="M4 22V3H5V22H4Z"/>
</svg>
