<svg viewBox="0 0 24 24" xmlns="http://www.w3.org/2000/svg">
<path fill-rule="evenodd" clip-rule="evenodd" d="M10 10.6972V20H14V10.6972L16 7.69722V7H8V7.69722L10 10.6972ZM7 8L9 11V20C9 20.5523 9.44772 21 10 21H14C14.5523 21 15 20.5523 15 20V11L17 8V6H7V8Z"/>
<path fill-rule="evenodd" clip-rule="evenodd" d="M12 14C11.4477 14 11 14.4477 11 15V16C11 16.5523 11.4477 17 12 17C12.5523 17 13 16.5523 13 16V15C13 14.4477 12.5523 14 12 14Z"/>
<path fill-rule="evenodd" clip-rule="evenodd" d="M12.5 2V4H11.5V2H12.5Z"/>
<path fill-rule="evenodd" clip-rule="evenodd" d="M7.35353 2.64648L8.85353 4.14648L8.14642 4.85359L6.64642 3.35359L7.35353 2.64648Z"/>
<path fill-rule="evenodd" clip-rule="evenodd" d="M17.3535 3.35359L15.8535 4.85359L15.1464 4.14648L16.6464 2.64648L17.3535 3.35359Z"/>
</svg>
