<svg viewBox="0 0 24 24" xmlns="http://www.w3.org/2000/svg">
<path fill-rule="evenodd" clip-rule="evenodd" d="M10.5018 4.66928C10.544 3.74025 11.3105 3 12.25 3C13.1894 3 13.956 3.74025 13.9982 4.66928C14.2259 4.56075 14.4809 4.5 14.75 4.5C15.7165 4.5 16.5 5.2835 16.5 6.25V6.66841C16.7273 6.56042 16.9816 6.5 17.25 6.5C18.2165 6.5 19 7.2835 19 8.25V20C19 20.5523 18.5523 21 18 21H8.77711C8.43613 21 8.11566 20.8285 7.93092 20.5329L3.49617 13.4373C3.33415 13.1781 3.19412 12.8544 3.15921 12.5145C3.12322 12.1642 3.19945 11.7684 3.51042 11.4552C4.19027 10.7703 5.37565 10.6686 6.15632 11.4492L7.99999 13.2929V6.25C7.99999 5.2835 8.78349 4.5 9.74999 4.5C10.0191 4.5 10.274 4.56075 10.5018 4.66928ZM10.5 6.25C10.5 5.83579 10.1642 5.5 9.74999 5.5C9.33578 5.5 8.99999 5.83579 8.99999 6.25V15.7071L5.44921 12.1563C5.09212 11.7992 4.54258 11.8348 4.22013 12.1596C4.17175 12.2084 4.14025 12.2787 4.15397 12.4123C4.16876 12.5562 4.23586 12.734 4.34417 12.9073L8.77711 20H18V8.25C18 7.83579 17.6642 7.5 17.25 7.5C16.8358 7.5 16.5 7.83579 16.5 8.25V11H15.5V6.25C15.5 5.83579 15.1642 5.5 14.75 5.5C14.3358 5.5 14 5.83579 14 6.25V11H13V4.75C13 4.33579 12.6642 4 12.25 4C11.8358 4 11.5 4.33579 11.5 4.75V11H10.5V6.25Z"/>
</svg>
