<svg viewBox="0 0 24 24" xmlns="http://www.w3.org/2000/svg">
<path fill-rule="evenodd" clip-rule="evenodd" d="M19.407 9.66575C19.6742 9.51999 20 9.71341 20 10.0178C20 10.1519 19.933 10.2771 19.8214 10.3515L13.6763 14.4482C13.1646 14.7894 12.5449 14.9299 11.936 14.8429L5.9384 13.9861L4 14.7615V10.8385L6.09629 10H8.2918C8.67991 10 9.06269 10.0904 9.40983 10.2639L10.143 10.6305C10.629 10.8735 11.1648 11 11.7082 11H14C14.2761 11 14.5 11.2239 14.5 11.5C14.5 11.7761 14.2761 12 14 12H10V13H14C14.7204 13 15.3222 12.4921 15.4669 11.8149L19.407 9.66575ZM15.3068 10.7631L18.9281 8.78786C19.8617 8.27862 21 8.95435 21 10.0178C21 10.4862 20.7659 10.9237 20.3761 11.1835L14.231 15.2802C13.5145 15.7579 12.6471 15.9547 11.7946 15.8329L6.0616 15.0139L4.37139 15.69C3.71453 15.9527 3 15.469 3 14.7615V10.8385C3 10.4296 3.24895 10.0619 3.62861 9.91005L5.7249 9.07153C5.84302 9.02428 5.96907 9.00001 6.09629 9.00001H8.2918C8.83515 9.00001 9.37105 9.12651 9.85704 9.36951L10.5902 9.73607C10.9373 9.90964 11.3201 10 11.7082 10H14C14.5606 10 15.0494 10.3075 15.3068 10.7631Z"/>
</svg>
