<svg viewBox="0 0 24 24" xmlns="http://www.w3.org/2000/svg">
<path fill-rule="evenodd" clip-rule="evenodd" d="M12 19C15.866 19 19 15.866 19 12C19 8.13401 15.866 5 12 5C8.13401 5 5 8.13401 5 12C5 15.866 8.13401 19 12 19ZM12 20C16.4183 20 20 16.4183 20 12C20 7.58172 16.4183 4 12 4C7.58172 4 4 7.58172 4 12C4 16.4183 7.58172 20 12 20Z"/>
<path fill-rule="evenodd" clip-rule="evenodd" d="M9 11C9.55228 11 10 10.5523 10 10C10 9.44772 9.55228 9 9 9C8.44772 9 8 9.44772 8 10C8 10.5523 8.44772 11 9 11Z"/>
<path fill-rule="evenodd" clip-rule="evenodd" d="M15 11C15.5523 11 16 10.5523 16 10C16 9.44772 15.5523 9 15 9C14.4477 9 14 9.44772 14 10C14 10.5523 14.4477 11 15 11Z"/>
<path d="M7.63342 14C8.27139 15.7551 9.99205 17 12 17C14.0079 17 15.7286 15.7551 16.3666 14H15.2807C14.7003 15.1771 13.4548 16 12 16C10.5452 16 9.29965 15.1771 8.71924 14H7.63342Z"/>
</svg>
