<svg viewBox="0 0 24 24" xmlns="http://www.w3.org/2000/svg">
<path fill-rule="evenodd" clip-rule="evenodd" d="M12 21C16.9706 21 21 16.9706 21 12C21 7.02944 16.9706 3 12 3C7.02944 3 3 7.02944 3 12C3 16.9706 7.02944 21 12 21ZM12 20C12.2269 20 12.5184 19.9007 12.8676 19.5683C13.222 19.2311 13.5866 18.6958 13.9146 17.9578C14.1662 17.3917 14.3847 16.7324 14.5584 16H9.44164C9.61531 16.7324 9.83379 17.3917 10.0854 17.9578C10.4134 18.6958 10.778 19.2311 11.1324 19.5683C11.4816 19.9007 11.7731 20 12 20ZM9.24063 15C9.08639 14.0763 9 13.0656 9 12C9 10.9344 9.08639 9.92366 9.24063 9H14.7594C14.9136 9.92366 15 10.9344 15 12C15 13.0656 14.9136 14.0763 14.7594 15H9.24063ZM15.5842 16C15.2411 17.5533 14.7045 18.852 14.0452 19.7362C16.127 19.1873 17.8767 17.8204 18.9297 16H15.5842ZM19.4185 15H15.7724C15.9198 14.0617 16 13.0519 16 12C16 10.9481 15.9198 9.93834 15.7724 9H19.4185C19.7935 9.92643 20 10.9391 20 12C20 13.0609 19.7935 14.0736 19.4185 15ZM8.22761 15H4.58152C4.20651 14.0736 4 13.0609 4 12C4 10.9391 4.20651 9.92643 4.58152 9H8.22761C8.08021 9.93834 8 10.9481 8 12C8 13.0519 8.08021 14.0617 8.22761 15ZM5.07026 16H8.41579C8.75887 17.5533 9.29553 18.852 9.95476 19.7362C7.87297 19.1873 6.12328 17.8204 5.07026 16ZM9.44164 8H14.5584C14.3847 7.26765 14.1662 6.60826 13.9146 6.04218C13.5866 5.30422 13.222 4.76892 12.8676 4.43166C12.5184 4.0993 12.2269 4 12 4C11.7731 4 11.4816 4.0993 11.1324 4.43166C10.778 4.76892 10.4134 5.30422 10.0854 6.04218C9.83379 6.60826 9.61531 7.26765 9.44164 8ZM15.5842 8H18.9297C17.8767 6.17965 16.127 4.81273 14.0452 4.26382C14.7045 5.14802 15.2411 6.44669 15.5842 8ZM9.95476 4.26382C9.29553 5.14803 8.75887 6.44669 8.41579 8H5.07026C6.12327 6.17965 7.87297 4.81273 9.95476 4.26382Z"/>
</svg>
