<svg viewBox="0 0 24 24" xmlns="http://www.w3.org/2000/svg">
<path fill-rule="evenodd" clip-rule="evenodd" d="M18 12C18 12.5523 17.5523 13 17 13C16.4477 13 16 12.5523 16 12C16 11.4477 16.4477 11 17 11C17.5523 11 18 11.4477 18 12Z"/>
<path fill-rule="evenodd" clip-rule="evenodd" d="M12.0704 13L12.3324 13.5996C12.9506 15.0144 14.3613 16 16 16C18.2091 16 20 14.2091 20 12C20 9.79086 18.2091 8 16 8C14.3613 8 12.9506 8.98556 12.3324 10.4004L12.0704 11L4.83334 11L3.41578 12.143L4.55111 13.5162L5.4818 12.5868L6.4832 13.5868L7.48461 12.5868L8.48601 13.5868L9.0736 13H12.0704ZM8.48601 15L7.48461 14L6.4832 15L5.4818 14L4.4804 15L2 12L4.20565 10.2215C4.38344 10.0782 4.60495 10 4.83334 10H11.416C12.1876 8.2341 13.9497 7 16 7C18.7614 7 21 9.23858 21 12C21 14.7614 18.7614 17 16 17C13.9497 17 12.1876 15.7659 11.416 14H9.48741L8.48601 15Z"/>
</svg>
