<svg viewBox="0 0 24 24" xmlns="http://www.w3.org/2000/svg">
<path fill-rule="evenodd" clip-rule="evenodd" d="M8 7.50002C8 6.33013 8.26377 5.30778 8.94806 4.57926C9.63799 3.84473 10.6688 3.5 12 3.5C13.3312 3.5 14.362 3.84473 15.0519 4.57926C15.7362 5.30778 16 6.33011 16 7.5L16 8.31702C16 8.32237 16 8.32773 16 8.33309V8.3831C15.988 9.37326 15.7057 10.4935 15.0832 11.3873C14.4348 12.3184 13.4147 13 12 13C10.5853 13 9.56526 12.3184 8.91686 11.3873C8.28053 10.4736 8.00002 9.3231 8.00002 8.31702L8 7.50002ZM15 7.78311L13.0006 6.58347C13.0004 6.58335 12.9997 6.58289 12.9976 6.58288C12.9953 6.58287 12.9922 6.58348 12.9888 6.58541C12.5972 6.80932 11.7988 7.24831 11.1664 7.4715C10.6533 7.6526 9.99197 7.78319 9.47915 7.86762C9.3017 7.89684 9.13835 7.9211 9.00001 7.94041L9.00002 8.31702C9.00002 9.1591 9.23904 10.1001 9.73747 10.8158C10.2238 11.5142 10.9538 12 12 12C13.0462 12 13.7762 11.5142 14.2626 10.8158C14.761 10.1001 15 9.1591 15 8.31702V7.78311ZM9.02681 6.92625C9.10009 6.18633 9.32232 5.64143 9.67694 5.26389C10.112 4.80071 10.8312 4.5 12 4.5C13.1688 4.5 13.888 4.80071 14.3231 5.26389C14.6184 5.5783 14.8219 6.00879 14.924 6.57131L13.5151 5.72598C13.1975 5.53543 12.8063 5.53788 12.4925 5.71726C12.098 5.94281 11.3708 6.33891 10.8336 6.5285C10.4078 6.67877 9.81915 6.79818 9.31669 6.88091C9.21442 6.89774 9.117 6.91286 9.02681 6.92625Z"/>
<path fill-rule="evenodd" clip-rule="evenodd" d="M19 20V17.0276C19 16.5806 18.7034 16.1883 18.2744 16.066L14.6728 15.1922C14.4824 15.5054 14.2225 15.7619 13.9297 15.9571C13.3539 16.3409 12.6483 16.5 12 16.5C11.3517 16.5 10.6461 16.3409 10.0703 15.9571C9.7775 15.7619 9.5176 15.5054 9.32724 15.1922L5.72559 16.066C5.29661 16.1883 5 16.5806 5 17.0276V20L19 20ZM5.47377 15.0981L10 14C10 14.2324 10.054 14.4378 10.1495 14.6162C10.4648 15.2054 11.2324 15.5 12 15.5C12.7676 15.5 13.5352 15.2054 13.8505 14.6162C13.946 14.4378 14 14.2324 14 14L18.5262 15.0981C19.3964 15.3354 20 16.1257 20 17.0276V20C20 20.5523 19.5523 21 19 21H5C4.44772 21 4 20.5523 4 20V17.0276C4 16.1257 4.60364 15.3354 5.47377 15.0981Z"/>
</svg>
