<svg viewBox="0 0 24 24" xmlns="http://www.w3.org/2000/svg">
<path fill-rule="evenodd" clip-rule="evenodd" d="M14 4C14 4.93192 13.3626 5.71497 12.5 5.93699V9.04148C13.2252 9.16316 13.8623 9.54506 14.3118 10.0879L17.0006 8.53547C16.7616 7.67742 17.1211 6.73391 17.9281 6.26795C18.8847 5.71567 20.1079 6.04342 20.6602 7C21.2125 7.95659 20.8847 9.17977 19.9281 9.73206C19.1211 10.198 18.1242 10.0375 17.5006 9.4015L14.8124 10.9535C14.9337 11.2794 15 11.6319 15 12C15 12.368 14.9337 12.7206 14.8124 13.0464L17.5007 14.5985C18.1243 13.9625 19.1211 13.802 19.9282 14.268C20.8848 14.8202 21.2125 16.0434 20.6602 17C20.108 17.9566 18.8848 18.2843 17.9282 17.7321C17.1211 17.2661 16.7617 16.3226 17.0007 15.4645L14.3118 13.9121C13.8623 14.4549 13.2253 14.8368 12.5 14.9585V18.063C13.3626 18.285 14 19.0681 14 20C14 21.1046 13.1045 22 12 22C10.8954 22 9.99997 21.1046 9.99997 20C9.99997 19.0681 10.6374 18.285 11.5 18.063V14.9585C10.7747 14.8368 10.1376 14.4549 9.68814 13.912L6.99922 15.4645C7.23827 16.3226 6.87882 17.2661 6.07175 17.7321C5.11516 18.2843 3.89198 17.9566 3.33969 17C2.78741 16.0434 3.11516 14.8202 4.07175 14.268C4.8788 13.802 5.87563 13.9625 6.49921 14.5985L9.18751 13.0464C9.06625 12.7206 8.99997 12.368 8.99997 12C8.99997 11.6319 9.06625 11.2794 9.18753 10.9536L6.49925 9.40149C5.87567 10.0375 4.87882 10.198 4.07175 9.73206C3.11516 9.17977 2.78741 7.95659 3.33969 7C3.89198 6.04342 5.11516 5.71567 6.07175 6.26795C6.8788 6.73391 7.23825 7.67741 6.99924 8.53545L9.68817 10.0879C10.1377 9.54507 10.7747 9.16316 11.5 9.04148V5.93699C10.6374 5.71497 9.99997 4.93192 9.99997 4C9.99997 2.89543 10.8954 2 12 2C13.1045 2 14 2.89543 14 4ZM12 5C12.5523 5 13 4.55228 13 4C13 3.44772 12.5523 3 12 3C11.4477 3 11 3.44772 11 4C11 4.55228 11.4477 5 12 5ZM18.0668 8.50809C18.3452 8.98014 18.9525 9.14061 19.4281 8.86603C19.9064 8.58989 20.0703 7.9783 19.7942 7.5C19.518 7.02171 18.9064 6.85784 18.4281 7.13398C17.9525 7.40856 17.7878 8.01481 18.0575 8.49188L18.0668 8.50809ZM10.2853 13.03L10.2487 12.9667C10.0902 12.6802 9.99997 12.3506 9.99997 12C9.99997 11.6488 10.0905 11.3187 10.2495 11.0318L10.2844 10.9714C10.6341 10.3894 11.2716 10 12 10C12.7278 10 13.3648 10.3888 13.7147 10.97L13.7512 11.0332C13.9097 11.3198 14 11.6493 14 12C14 12.3501 13.91 12.6792 13.752 12.9654L13.7139 13.0314C13.3638 13.6118 12.7272 14 12 14C11.2722 14 10.6351 13.6112 10.2853 13.03ZM5.94013 8.4959C6.21297 8.01822 6.04867 7.40933 5.57175 7.13398C5.09345 6.85784 4.48186 7.02171 4.20572 7.5C3.92958 7.9783 4.09345 8.58989 4.57175 8.86603C5.04867 9.14138 5.65813 8.97923 5.93539 8.5041L5.93777 8.5L5.94013 8.4959ZM12 19C11.4477 19 11 19.4477 11 20C11 20.5523 11.4477 21 12 21C12.5523 21 13 20.5523 13 20C13 19.4477 12.5523 19 12 19ZM19.7942 16.5C20.0704 16.0217 19.9065 15.4101 19.4282 15.134C18.9499 14.8578 18.3383 15.0217 18.0622 15.5C17.786 15.9783 17.9499 16.5899 18.4282 16.866C18.9065 17.1422 19.5181 16.9783 19.7942 16.5ZM5.93777 15.5C5.66163 15.0217 5.05004 14.8578 4.57175 15.134C4.09345 15.4101 3.92958 16.0217 4.20572 16.5C4.48186 16.9783 5.09345 17.1422 5.57175 16.866C6.05004 16.5899 6.21391 15.9783 5.93777 15.5Z"/>
</svg>
