<svg viewBox="0 0 24 24" xmlns="http://www.w3.org/2000/svg">
<path fill-rule="evenodd" clip-rule="evenodd" d="M9 13H6L6 16H9V13ZM6 12C5.44772 12 5 12.4477 5 13V16C5 16.5523 5.44772 17 6 17H9C9.55228 17 10 16.5523 10 16V13C10 12.4477 9.55228 12 9 12H6Z"/>
<path fill-rule="evenodd" clip-rule="evenodd" d="M16 8H6L6 10H16V8ZM6 7C5.44772 7 5 7.44772 5 8V10C5 10.5523 5.44772 11 6 11H16C16.5523 11 17 10.5523 17 10V8C17 7.44772 16.5523 7 16 7H6Z"/>
<path fill-rule="evenodd" clip-rule="evenodd" d="M17 14H11V13H17V14Z"/>
<path fill-rule="evenodd" clip-rule="evenodd" d="M17 16H11V15H17V16Z"/>
<path fill-rule="evenodd" clip-rule="evenodd" d="M4 19C3.44772 19 3 18.5523 3 18L3 6C3 5.44771 3.44771 5 4 5L18 5C18.5523 5 19 5.44771 19 6L19 17.5C19 17.7761 19.2239 18 19.5 18C19.7762 18 20 17.7761 20 17.5L20 8C20.5523 8 21 8.44771 21 9V17.5C21 18.3284 20.3284 19 19.5 19L19.4848 18.9999L4 19ZM18 6V17.5782C18 17.7197 18.01 17.8607 18.0298 18H4L4 6L18 6Z"/>
</svg>
