<svg viewBox="0 0 24 24" xmlns="http://www.w3.org/2000/svg">
<path fill-rule="evenodd" clip-rule="evenodd" d="M11 17H6V16H11V17Z"/>
<path d="M13.0711 13H6V14H12.0711L13.0711 13Z"/>
<path d="M16 10.0711V10H6V11H15.0711L16 10.0711Z"/>
<path fill-rule="evenodd" clip-rule="evenodd" d="M15 3L19 7V7.4737C18.6596 7.55848 18.3372 7.73392 18.0711 8.00003L18 8.07111V7.5H15.5C14.9477 7.5 14.5 7.05228 14.5 6.5V4H4V20H18V15.1422L19 14.1422V20C19 20.5523 18.5523 21 18 21H4C3.44772 21 3 20.5523 3 20V4C3 3.44772 3.44772 3 4 3H15ZM15.5 4.91421L17.0858 6.5H15.5V4.91421Z"/>
<path fill-rule="evenodd" clip-rule="evenodd" d="M18.4246 9.06068C19.0104 8.47489 19.9602 8.47489 20.5459 9.06068C21.1317 9.64646 21.1317 10.5962 20.5459 11.182L14.5355 17.1924L12.0607 17.546L12.4142 15.0711L18.4246 9.06068ZM14.0641 16.2496L13.2392 16.3674L13.357 15.5425L18.0711 10.8284L18.7782 11.5355L14.0641 16.2496ZM19.4853 10.8284L18.7782 10.1213L19.1317 9.76778C19.327 9.57252 19.6436 9.57252 19.8388 9.76778C20.0341 9.96305 20.0341 10.2796 19.8388 10.4749L19.4853 10.8284Z"/>
</svg>
