<svg viewBox="0 0 24 24" xmlns="http://www.w3.org/2000/svg">
<path d="M13.1244 11.9039C13.4062 11.9668 13.6992 12 14 12C16.2092 12 18 10.2091 18 8C18 5.79086 16.2092 4 14 4C13.6992 4 13.4062 4.0332 13.1244 4.09613C13.4529 4.35936 13.7474 4.66319 14.0004 5C15.6571 5.0002 17 6.34327 17 8C17 9.65673 15.6571 10.9998 14.0004 11C13.7474 11.3368 13.4529 11.6406 13.1244 11.9039Z"/>
<path d="M17.0627 13.2489C18.3454 13.4551 19.4442 13.7581 20.2773 14.0351C21.3556 14.3937 22 15.4321 22 16.5684V19C22 19.5523 21.5523 20 21 20H19V19H21V16.5684C21 15.7959 20.5713 15.1867 19.9618 14.984C19.5865 14.8592 19.1548 14.729 18.6752 14.6058C18.376 14.0267 17.8768 13.549 17.2065 13.3013C17.1598 13.2841 17.1119 13.2666 17.0627 13.2489Z"/>
<path fill-rule="evenodd" clip-rule="evenodd" d="M10 11C11.6569 11 13 9.65685 13 8C13 6.34315 11.6569 5 10 5C8.34315 5 7 6.34315 7 8C7 9.65685 8.34315 11 10 11ZM14 8C14 10.2091 12.2091 12 10 12C7.79086 12 6 10.2091 6 8C6 5.79086 7.79086 4 10 4C12.2091 4 14 5.79086 14 8Z"/>
<path fill-rule="evenodd" clip-rule="evenodd" d="M17 19V16.5684C17 15.7959 16.5713 15.1867 15.9618 14.984C14.5901 14.5279 12.4665 14 10 14C7.53347 14 5.40986 14.5279 4.0382 14.984C3.42871 15.1867 3 15.7959 3 16.5684V19L17 19ZM3.72266 14.0351C2.64439 14.3937 2 15.4321 2 16.5684V19C2 19.5523 2.44772 20 3 20H17C17.5523 20 18 19.5523 18 19V16.5684C18 15.4321 17.3556 14.3937 16.2773 14.0351C14.8375 13.5563 12.6042 13 10 13C7.39583 13 5.16253 13.5563 3.72266 14.0351Z"/>
</svg>
