<svg viewBox="0 0 24 24" xmlns="http://www.w3.org/2000/svg">
<path fill-rule="evenodd" clip-rule="evenodd" d="M12 11C13.6569 11 15 9.65685 15 8C15 6.34315 13.6569 5 12 5C10.3431 5 9 6.34315 9 8C9 9.65685 10.3431 11 12 11ZM16 8C16 10.2091 14.2091 12 12 12C9.79086 12 8 10.2091 8 8C8 5.79086 9.79086 4 12 4C14.2091 4 16 5.79086 16 8Z"/>
<path fill-rule="evenodd" clip-rule="evenodd" d="M19 19V16.5684C19 15.7959 18.5713 15.1867 17.9618 14.984C16.5901 14.5279 14.4665 14 12 14C9.53347 14 7.40986 14.5279 6.0382 14.984C5.42871 15.1867 5 15.7959 5 16.5684V19L19 19ZM5.72266 14.0351C4.64439 14.3937 4 15.4321 4 16.5684V19C4 19.5523 4.44772 20 5 20H19C19.5523 20 20 19.5523 20 19V16.5684C20 15.4321 19.3556 14.3937 18.2773 14.0351C16.8375 13.5563 14.6042 13 12 13C9.39583 13 7.16253 13.5563 5.72266 14.0351Z"/>
</svg>
