<svg viewBox="0 0 24 24" xmlns="http://www.w3.org/2000/svg">
<path fill-rule="evenodd" clip-rule="evenodd" d="M8 12.5C8 11.8705 8.29639 11.2777 8.8 10.9L10 10V7.20711C10 6.75435 9.82014 6.32014 9.5 6C9.17986 5.67986 9 5.24565 9 4.79289V4C9 3.44772 9.44772 3 10 3H14C14.5523 3 15 3.44772 15 4V4.79289C15 5.24565 14.8201 5.67986 14.5 6C14.1799 6.32014 14 6.75435 14 7.20711V10L15.2 10.9C15.7036 11.2777 16 11.8705 16 12.5V14H12.5V21H11.5V14H8V12.5ZM15 12.5V13H9V12.5C9 12.1852 9.14819 11.8889 9.4 11.7L11 10.5V7.20711C11 6.48914 10.7148 5.80057 10.2071 5.29289C10.0745 5.16028 10 4.98043 10 4.79289V4L14 4V4.79289C14 4.98043 13.9255 5.16028 13.7929 5.29289C13.2852 5.80057 13 6.48914 13 7.20711V10.5L14.6 11.7C14.8518 11.8889 15 12.1852 15 12.5Z"/>
</svg>
