<svg viewBox="0 0 24 24" xmlns="http://www.w3.org/2000/svg">
<path fill-rule="evenodd" clip-rule="evenodd" d="M13.4152 8L13.8865 6.66675C13.9597 6.45952 14 6.23555 14 6C14 4.89543 13.1046 4 12 4C10.8954 4 10 4.89543 10 6C10 6.23554 10.0403 6.45952 10.1135 6.66675L10.5848 8L6 8V11C7.65685 11 9 12.3431 9 14C9 15.6569 7.65685 17 6 17L6 20H18V8H13.4152ZM5 15.7324C5.29417 15.9026 5.63571 16 6 16C7.10457 16 8 15.1046 8 14C8 12.8954 7.10457 12 6 12C5.63571 12 5.29417 12.0974 5 12.2676V8C5 7.44772 5.44772 7 6 7H9.17071C9.06015 6.68722 9 6.35064 9 6C9 4.34315 10.3431 3 12 3C13.6569 3 15 4.34315 15 6C15 6.35064 14.9398 6.68722 14.8293 7H18C18.5523 7 19 7.44772 19 8V20C19 20.5523 18.5523 21 18 21H6C5.44772 21 5 20.5523 5 20V15.7324Z"/>
</svg>
