<svg viewBox="0 0 24 24" xmlns="http://www.w3.org/2000/svg">
<path fill-rule="evenodd" clip-rule="evenodd" d="M13 16V9.82843C13 9.03278 13.3161 8.26972 13.8787 7.70711L14.5 7.08578L14.5 5L9.5 5V7.08579L10.1213 7.70711C10.6839 8.26972 11 9.03278 11 9.82843V16H5V18H19V16H13ZM19 15C19.5523 15 20 15.4477 20 16V18C20 18.5523 19.5523 19 19 19H5C4.44772 19 4 18.5523 4 18V16C4 15.4477 4.44772 15 5 15H10V9.82843C10 9.29799 9.78929 8.78929 9.41421 8.41421L8.79289 7.79289C8.60536 7.60536 8.5 7.351 8.5 7.08579V5C8.5 4.44772 8.94772 4 9.5 4H14.5C15.0523 4 15.5 4.44772 15.5 5V7.08579C15.5 7.351 15.3946 7.60536 15.2071 7.79289L14.5858 8.41421C14.2107 8.78929 14 9.29799 14 9.82843V15H19Z"/>
<path fill-rule="evenodd" clip-rule="evenodd" d="M19 21H5V20H19V21Z"/>
</svg>
