<svg viewBox="0 0 24 24" xmlns="http://www.w3.org/2000/svg">
<path d="M14 9.5V8.5H15V9.5H14Z"/>
<path d="M14 10.5V11.5H15V10.5H14Z"/>
<path d="M14 13.5V12.5H15V13.5H14Z"/>
<path d="M14 14.5V15.5H15V14.5H14Z"/>
<path fill-rule="evenodd" clip-rule="evenodd" d="M20 6C20.5523 6 21 6.44772 21 7V10.5854C20.6743 10.4702 20.3363 10.4806 20.0328 10.5854C19.4533 10.7853 19 11.3294 19 12C19 12.6706 19.4533 13.2147 20.0328 13.4146C20.3363 13.5194 20.6743 13.5298 21 13.4146V17C21 17.5523 20.5523 18 20 18H4C3.44772 18 3 17.5523 3 17V13.4146C3.32569 13.5298 3.66373 13.5194 3.96717 13.4146C4.54669 13.2147 5 12.6706 5 12C5 11.3294 4.54669 10.7853 3.96717 10.5854C3.66373 10.4806 3.32569 10.4702 3 10.5854V7C3 6.44771 3.44772 6 4 6H20ZM15 7H20V9.558C18.9017 9.79459 18 10.7627 18 12C18 13.2373 18.9017 14.2054 20 14.442V17H15V16.5H14V17H4L4 14.442C5.09829 14.2054 6 13.2373 6 12C6 10.7627 5.09829 9.79459 4 9.558V7H14V7.5H15V7Z"/>
</svg>
