<svg viewBox="0 0 24 24" xmlns="http://www.w3.org/2000/svg">
<path fill-rule="evenodd" clip-rule="evenodd" d="M13 9H11V10H13V9ZM11 8C10.4477 8 10 8.44772 10 9V10C10 10.5523 10.4477 11 11 11H13C13.5523 11 14 10.5523 14 10V9C14 8.44772 13.5523 8 13 8H11Z"/>
<path fill-rule="evenodd" clip-rule="evenodd" d="M21 9.5H20V20H16V16H8V20H4V9.5H3V9L12 3L21 9V9.5ZM7 14.01C7 13.4522 7.45216 13 8.01 13H15.99C16.5478 13 17 13.4522 17 14.01V19H19V8.86852L12 4.20185L5 8.86852V19H7V14.01ZM16 15V14.01C16 14.0045 15.9955 14 15.99 14H8.01C8.00448 14 8 14.0045 8 14.01V15H16Z"/>
</svg>
