<svg viewBox="0 0 24 24" xmlns="http://www.w3.org/2000/svg">
<path fill-rule="evenodd" clip-rule="evenodd" d="M12 19C15.866 19 19 15.866 19 12C19 8.13401 15.866 5 12 5C8.13401 5 5 8.13401 5 12C5 15.866 8.13401 19 12 19ZM20 12C20 16.4183 16.4183 20 12 20C7.58172 20 4 16.4183 4 12C4 7.58172 7.58172 4 12 4C16.4183 4 20 7.58172 20 12Z"/>
<path fill-rule="evenodd" clip-rule="evenodd" d="M3.57507 6.73648C4.37026 5.45429 5.45428 4.37028 6.73646 3.57509L7.26352 4.42492C6.11237 5.13884 5.13883 6.11238 4.42491 7.26353L3.57507 6.73648Z"/>
<path fill-rule="evenodd" clip-rule="evenodd" d="M20.4249 6.73648C19.6297 5.45429 18.5457 4.37028 17.2635 3.57509L16.7365 4.42492C17.8876 5.13884 18.8612 6.11238 19.5751 7.26353L20.4249 6.73648Z"/>
<path fill-rule="evenodd" clip-rule="evenodd" d="M11.5 7H12.5V11.5H16.002V12.5H11.5V7Z"/>
</svg>
