<svg viewBox="0 0 24 24" xmlns="http://www.w3.org/2000/svg">
<path fill-rule="evenodd" clip-rule="evenodd" d="M16.5 4H7.5V3H6.5V4H4C3.44772 4 3 4.44772 3 5V19C3 19.5523 3.44772 20 4 20H20C20.5523 20 21 19.5523 21 19V5C21 4.44772 20.5523 4 20 4H17.5V3H16.5V4ZM6.5 6V5H4V7H20V5H17.5V6H16.5V5H7.5V6H6.5ZM20 8V19H4V8H20Z"/>
<path d="M8.5 10H9.5V11H8.5V10Z"/>
<path d="M11.5 10H12.5V11H11.5V10Z"/>
<path d="M14.5 10H15.5V11H14.5V10Z"/>
<path d="M17.5 10H18.5V11H17.5V10Z"/>
<path d="M5.5 13H6.5V14H5.5V13Z"/>
<path d="M8.5 13H9.5V14H8.5V13Z"/>
<path d="M11.5 13H12.5V14H11.5V13Z"/>
<path d="M14.5 13H15.5V14H14.5V13Z"/>
<path d="M17.5 13H18.5V14H17.5V13Z"/>
<path d="M5.5 16H6.5V17H5.5V16Z"/>
<path d="M8.5 16H9.5V17H8.5V16Z"/>
<path d="M11.5 16H12.5V17H11.5V16Z"/>
</svg>
