<svg viewBox="0 0 24 24" xmlns="http://www.w3.org/2000/svg">
<path d="M8.5 10H9.5V11H8.5V10Z"/>
<path d="M11.5 10H12.5V11H11.5V10Z"/>
<path d="M14.5 10H15.5V11H14.5V10Z"/>
<path d="M17.5 10H18.5V11H17.5V10Z"/>
<path d="M5.5 13H6.5V14H5.5V13Z"/>
<path d="M8.5 13H9.5V14H8.5V13Z"/>
<path d="M11.5 13H12.5V14H11.5V13Z"/>
<path d="M5.5 16H6.5V17H5.5V16Z"/>
<path d="M8.5 16H9.5V17H8.5V16Z"/>
<path fill-rule="evenodd" clip-rule="evenodd" d="M7.5 4H16.5V3H17.5V4H20C20.5523 4 21 4.44772 21 5V13.9995C20.7156 13.6209 20.3786 13.284 20 12.9996V8H4V19H12.416C12.572 19.357 12.7685 19.6923 12.9996 20H4C3.44772 20 3 19.5523 3 19V5C3 4.44772 3.44772 4 4 4H6.5V3H7.5V4ZM6.5 5V6H7.5V5H16.5V6H17.5V5H20V7H4V5H6.5Z"/>
<path fill-rule="evenodd" clip-rule="evenodd" d="M17 20C18.6569 20 20 18.6569 20 17C20 15.3431 18.6569 14 17 14C15.3431 14 14 15.3431 14 17C14 18.6569 15.3431 20 17 20ZM17 21C19.2091 21 21 19.2091 21 17C21 14.7909 19.2091 13 17 13C14.7909 13 13 14.7909 13 17C13 19.2091 14.7909 21 17 21Z"/>
<path d="M16.5002 17.5002V19.0005H17.5002V17.5002H19.0005V16.5002H17.5002V15H16.5002V16.5002H15V17.5002H16.5002Z"/>
</svg>
