<svg viewBox="0 0 24 24" xmlns="http://www.w3.org/2000/svg">
<path d="M6 4V3H18V4H6Z"/>
<path fill-rule="evenodd" clip-rule="evenodd" d="M16 5H17V6.13494C17 7.12603 16.7545 8.10169 16.2854 8.97475L14.7089 11.909L16.3434 15.1092C16.775 15.9542 17 16.8895 17 17.8383V19H16V17.8383C16 17.0476 15.8125 16.2682 15.4528 15.564L13.8879 12.5H10.1121L8.54718 15.564C8.18752 16.2682 8 17.0476 8 17.8383V19H7V17.8383C7 16.8895 7.22503 15.9542 7.65662 15.1092L9.29112 11.909L7.7146 8.97475C7.24551 8.10169 7 7.12603 7 6.13494V5H8V6.13494C8 6.77567 8.12313 7.40867 8.36087 8H15.6391C15.8769 7.40867 16 6.77567 16 6.13494V5ZM10.2066 11.5H13.7934L15.1366 9H8.86337L10.2066 11.5Z"/>
<path d="M6 20V21H18V20H6Z"/>
<path d="M14.6667 19L12.8321 16.2481C12.4362 15.6543 11.5638 15.6543 11.1679 16.2481L9.33333 19H10.5352L12 16.8028L13.4648 19H14.6667Z"/>
</svg>
