<svg viewBox="0 0 24 24" xmlns="http://www.w3.org/2000/svg">
<path fill-rule="evenodd" clip-rule="evenodd" d="M13.3538 12.3533C13.4475 12.5491 13.5 12.7684 13.5 13C13.5 13.8284 12.8284 14.5 12 14.5C11.1716 14.5 10.5 13.8284 10.5 13C10.5 12.1716 11.1716 11.5 12 11.5C12.2316 11.5 12.4509 11.5525 12.6467 11.6462L15.6464 8.64645L16.3535 9.35356L13.3538 12.3533ZM11.5 13C11.5 12.7239 11.7239 12.5 12 12.5C12.2761 12.5 12.5 12.7239 12.5 13C12.5 13.2761 12.2761 13.5 12 13.5C11.7239 13.5 11.5 13.2761 11.5 13Z"/>
<path fill-rule="evenodd" clip-rule="evenodd" d="M7.27736 4.91602L5.77736 5.91602L5.22266 5.08397L6.72266 4.08397L7.27736 4.91602Z"/>
<path fill-rule="evenodd" clip-rule="evenodd" d="M16.7226 4.91602L18.2226 5.91602L18.7773 5.08397L17.2773 4.08397L16.7226 4.91602Z"/>
<path fill-rule="evenodd" clip-rule="evenodd" d="M11.5 4H10V3H14V4H12.5V5.01537C16.6854 5.27347 20 8.74965 20 13C20 17.4183 16.4183 21 12 21C7.58172 21 4 17.4183 4 13C4 8.74965 7.31464 5.27347 11.5 5.01537V4ZM12 20C15.866 20 19 16.866 19 13C19 9.13401 15.866 6 12 6C8.13401 6 5 9.13401 5 13C5 16.866 8.13401 20 12 20Z"/>
</svg>
