<svg viewBox="0 0 24 24" xmlns="http://www.w3.org/2000/svg">
<path fill-rule="evenodd" clip-rule="evenodd" d="M8.5 16V11H9.5V16H8.5Z"/>
<path fill-rule="evenodd" clip-rule="evenodd" d="M11.5 16V11H12.5V16H11.5Z"/>
<path fill-rule="evenodd" clip-rule="evenodd" d="M14.5 16V11H15.5V16H14.5Z"/>
<path fill-rule="evenodd" clip-rule="evenodd" d="M16.4444 8H21V9H3V8H7.55556L11.331 4.60207C11.7113 4.2598 12.2887 4.2598 12.669 4.60207L16.4444 8ZM9.05041 8H14.9496L12 5.34537L9.05041 8Z"/>
<path d="M6.83459 18L5.38004 10H4.36365L5.85072 18.1789C5.93717 18.6544 6.3513 19 6.83459 19H17.1654C17.6487 19 18.0629 18.6544 18.1493 18.1789L19.6364 10H18.62L17.1654 18H6.83459Z"/>
</svg>
