<svg viewBox="0 0 24 24" xmlns="http://www.w3.org/2000/svg">
<path d="M15 10H12.5V14H15V13H13.5V12.5H15V11.5H13.5V11H15V10Z"/>
<path fill-rule="evenodd" clip-rule="evenodd" d="M8.5 10H6V14H7V12.5H8.5V11.5H7V11H8.5V10Z"/>
<path d="M18 10H15.5V14H18V13H16.5V12.5H18V11.5H16.5V11H18V10Z"/>
<path fill-rule="evenodd" clip-rule="evenodd" d="M10.75 10H9V14H10V13.2071L10.7929 14H12.2071L10.7071 12.5H10.75C11.4404 12.5 12 11.9404 12 11.25C12 10.5596 11.4404 10 10.75 10ZM10 11V11.5H10.75C10.8881 11.5 11 11.3881 11 11.25C11 11.1119 10.8881 11 10.75 11H10Z"/>
<path fill-rule="evenodd" clip-rule="evenodd" d="M14 5.41421L12 3.41421L10 5.41421C9.62493 5.78929 9.11622 6 8.58579 6H6V8.58579C6 9.11622 5.78929 9.62493 5.41421 10L3.41422 12L5.41421 14C5.78929 14.3751 6 14.8838 6 15.4142V18H8.58579C9.11622 18 9.62493 18.2107 10 18.5858L12 20.5858L14 18.5858C14.3751 18.2107 14.8838 18 15.4142 18H18V15.4142C18 14.8838 18.2107 14.3751 18.5858 14L20.5858 12L18.5858 10C18.2107 9.62493 18 9.11622 18 8.58579V6H15.4142C14.8838 6 14.3751 5.78929 14 5.41421ZM12.7071 2.70711C12.3166 2.31658 11.6834 2.31658 11.2929 2.70711L9.29289 4.70711C9.10536 4.89464 8.851 5 8.58579 5H6C5.44772 5 5 5.44772 5 6V8.58579C5 8.851 4.89464 9.10536 4.70711 9.29289L2.70711 11.2929C2.31658 11.6834 2.31658 12.3166 2.70711 12.7071L4.70711 14.7071C4.89464 14.8946 5 15.149 5 15.4142V18C5 18.5523 5.44772 19 6 19H8.58579C8.851 19 9.10536 19.1054 9.29289 19.2929L11.2929 21.2929C11.6834 21.6834 12.3166 21.6834 12.7071 21.2929L14.7071 19.2929C14.8946 19.1054 15.149 19 15.4142 19H18C18.5523 19 19 18.5523 19 18V15.4142C19 15.149 19.1054 14.8946 19.2929 14.7071L21.2929 12.7071C21.6834 12.3166 21.6834 11.6834 21.2929 11.2929L19.2929 9.29289C19.1054 9.10536 19 8.851 19 8.58579V6C19 5.44772 18.5523 5 18 5H15.4142C15.149 5 14.8946 4.89464 14.7071 4.70711L12.7071 2.70711Z"/>
</svg>
