<svg viewBox="0 0 24 24" xmlns="http://www.w3.org/2000/svg">
<path fill-rule="evenodd" clip-rule="evenodd" d="M12 7L9.58579 4.58579C9.21071 4.21071 8.70201 4 8.17157 4H8C6.89543 4 6 4.89543 6 6C6 6.36429 6.09739 6.70583 6.26756 7H4C3.44772 7 3 7.44772 3 8V10C3 10.5523 3.44772 11 4 11L4 20C4 20.5523 4.44772 21 5 21H19C19.5523 21 20 20.5523 20 20V11C20.5523 11 21 10.5523 21 10V8C21 7.44772 20.5523 7 20 7H17.7324C17.9026 6.70583 18 6.36429 18 6C18 4.89543 17.1046 4 16 4H15.8284C15.298 4 14.7893 4.21071 14.4142 4.58579L12 7ZM13.4142 7H16C16.5523 7 17 6.55228 17 6C17 5.44772 16.5523 5 16 5H15.8284C15.5632 5 15.3089 5.10536 15.1213 5.29289L13.4142 7ZM4 8V10H11.5V8H4ZM12.5 8V10H20V8H12.5ZM10.5858 7H8C7.44772 7 7 6.55228 7 6C7 5.44772 7.44772 5 8 5H8.17157C8.43679 5 8.69114 5.10536 8.87868 5.29289L10.5858 7ZM12.5 20H19V11H12.5V20ZM11.5 11V20H5V11H11.5Z"/>
</svg>
