<svg viewBox="0 0 24 24" xmlns="http://www.w3.org/2000/svg">
<path d="M13.8536 15.1465L12 13.2929L10.1465 15.1465L10.8536 15.8536L11.5 15.2071V18H12.5V15.2071L13.1465 15.8536L13.8536 15.1465Z"/>
<path fill-rule="evenodd" clip-rule="evenodd" d="M4 7.30278C4 7.19948 4.016 7.09739 4.04694 7C4.07513 6.91125 4.11574 6.8264 4.16795 6.74808L5.70313 4.4453C5.8886 4.1671 6.20083 4 6.53518 4H17.4648C17.7992 4 18.1114 4.1671 18.2969 4.4453L19.8321 6.74808C19.8843 6.8264 19.9249 6.91125 19.9531 7C19.984 7.09739 20 7.19948 20 7.30278V19C20 19.5523 19.5523 20 19 20H5C4.44772 20 4 19.5523 4 19V7.30278ZM11.7208 5L11.0541 7H12.9459L12.2792 5H11.7208ZM10.6667 5L10 7H5.20185L6.53518 5H10.6667ZM5 8V19H19V8H14V10C14 10.5523 13.5523 11 13 11H11C10.4477 11 10 10.5523 10 10V8H5ZM11 8V10H13V8H11ZM18.7981 7L17.4648 5H13.3333L14 7H18.7981Z"/>
</svg>
