<svg viewBox="0 0 24 24" xmlns="http://www.w3.org/2000/svg">
<path fill-rule="evenodd" clip-rule="evenodd" d="M14.5 15C14.7761 15 15 14.7761 15 14.5C15 14.2239 14.7761 14 14.5 14C14.2239 14 14 14.2239 14 14.5C14 14.7761 14.2239 15 14.5 15ZM14.5 16C15.3284 16 16 15.3284 16 14.5C16 13.6716 15.3284 13 14.5 13C13.6716 13 13 13.6716 13 14.5C13 15.3284 13.6716 16 14.5 16Z"/>
<path fill-rule="evenodd" clip-rule="evenodd" d="M9.5 10C9.77614 10 10 9.77614 10 9.5C10 9.22386 9.77614 9 9.5 9C9.22386 9 9 9.22386 9 9.5C9 9.77614 9.22386 10 9.5 10ZM9.5 11C10.3284 11 11 10.3284 11 9.5C11 8.67157 10.3284 8 9.5 8C8.67157 8 8 8.67157 8 9.5C8 10.3284 8.67157 11 9.5 11Z"/>
<path fill-rule="evenodd" clip-rule="evenodd" d="M14.6 7.69999L8.59998 15.7L9.39998 16.3L15.4 8.29999L14.6 7.69999Z"/>
<path fill-rule="evenodd" clip-rule="evenodd" d="M14 5.41421L12 3.41421L10 5.41421C9.62493 5.78929 9.11622 6 8.58579 6H6V8.58579C6 9.11622 5.78929 9.62493 5.41421 10L3.41422 12L5.41421 14C5.78929 14.3751 6 14.8838 6 15.4142V18H8.58579C9.11622 18 9.62493 18.2107 10 18.5858L12 20.5858L14 18.5858C14.3751 18.2107 14.8838 18 15.4142 18H18V15.4142C18 14.8838 18.2107 14.3751 18.5858 14L20.5858 12L18.5858 10C18.2107 9.62493 18 9.11622 18 8.58579V6H15.4142C14.8838 6 14.3751 5.78929 14 5.41421ZM12.7071 2.70711C12.3166 2.31658 11.6834 2.31658 11.2929 2.70711L9.29289 4.70711C9.10536 4.89464 8.851 5 8.58579 5H6C5.44772 5 5 5.44772 5 6V8.58579C5 8.851 4.89464 9.10536 4.70711 9.29289L2.70711 11.2929C2.31658 11.6834 2.31658 12.3166 2.70711 12.7071L4.70711 14.7071C4.89464 14.8946 5 15.149 5 15.4142V18C5 18.5523 5.44772 19 6 19H8.58579C8.851 19 9.10536 19.1054 9.29289 19.2929L11.2929 21.2929C11.6834 21.6834 12.3166 21.6834 12.7071 21.2929L14.7071 19.2929C14.8946 19.1054 15.149 19 15.4142 19H18C18.5523 19 19 18.5523 19 18V15.4142C19 15.149 19.1054 14.8946 19.2929 14.7071L21.2929 12.7071C21.6834 12.3166 21.6834 11.6834 21.2929 11.2929L19.2929 9.29289C19.1054 9.10536 19 8.851 19 8.58579V6C19 5.44772 18.5523 5 18 5H15.4142C15.149 5 14.8946 4.89464 14.7071 4.70711L12.7071 2.70711Z"/>
</svg>
