<svg viewBox="0 0 24 24" xmlns="http://www.w3.org/2000/svg">
<path fill-rule="evenodd" clip-rule="evenodd" d="M9.5 4.5H4.5L4.5 9.5H9.5V4.5ZM4.5 3.5C3.94772 3.5 3.5 3.94772 3.5 4.5V9.5C3.5 10.0523 3.94772 10.5 4.5 10.5H9.5C10.0523 10.5 10.5 10.0523 10.5 9.5V4.5C10.5 3.94772 10.0523 3.5 9.5 3.5H4.5Z"/>
<path fill-rule="evenodd" clip-rule="evenodd" d="M19.5 4.5H14.5L14.5 9.5H19.5V4.5ZM14.5 3.5C13.9477 3.5 13.5 3.94772 13.5 4.5V9.5C13.5 10.0523 13.9477 10.5 14.5 10.5H19.5C20.0523 10.5 20.5 10.0523 20.5 9.5V4.5C20.5 3.94772 20.0523 3.5 19.5 3.5H14.5Z"/>
<path fill-rule="evenodd" clip-rule="evenodd" d="M9.5 14.5H4.5L4.5 19.5H9.5V14.5ZM4.5 13.5C3.94772 13.5 3.5 13.9477 3.5 14.5V19.5C3.5 20.0523 3.94772 20.5 4.5 20.5H9.5C10.0523 20.5 10.5 20.0523 10.5 19.5V14.5C10.5 13.9477 10.0523 13.5 9.5 13.5H4.5Z"/>
<path fill-rule="evenodd" clip-rule="evenodd" d="M7.5 6.5H6.5V7.5H7.5V6.5ZM5.5 5.5V8.5H8.5V5.5H5.5Z"/>
<path fill-rule="evenodd" clip-rule="evenodd" d="M17.5 6.5H16.5V7.5H17.5V6.5ZM15.5 5.5V8.5H18.5V5.5H15.5Z"/>
<path fill-rule="evenodd" clip-rule="evenodd" d="M7.5 16.5H6.5V17.5H7.5V16.5ZM5.5 15.5V18.5H8.5V15.5H5.5Z"/>
<path fill-rule="evenodd" clip-rule="evenodd" d="M5.5 12.5H3.5V11.5H5.5V12.5Z"/>
<path fill-rule="evenodd" clip-rule="evenodd" d="M13.5 13.5H18.5V18.5H15.5V17.5H17.5V14.5H14.5V15.5H13.5V13.5Z"/>
<path fill-rule="evenodd" clip-rule="evenodd" d="M16.5 12.5H15.5V11.5H16.5V12.5Z"/>
<path fill-rule="evenodd" clip-rule="evenodd" d="M19.5 12.5H17.5V11.5H20.5V13.5H19.5V12.5Z"/>
<path fill-rule="evenodd" clip-rule="evenodd" d="M19.5 18.5V15.5H20.5V18.5H19.5Z"/>
<path fill-rule="evenodd" clip-rule="evenodd" d="M7.5 12.5H6.5V11.5H7.5V12.5Z"/>
<path fill-rule="evenodd" clip-rule="evenodd" d="M10.5 12.5H9.5V11.5H10.5V12.5Z"/>
<path fill-rule="evenodd" clip-rule="evenodd" d="M12.5 15.5H11.5V14.5H12.5V15.5Z"/>
<path fill-rule="evenodd" clip-rule="evenodd" d="M16.5 16.5H15.5V15.5H16.5V16.5Z"/>
<path fill-rule="evenodd" clip-rule="evenodd" d="M20.5 20.5H19.5V19.5H20.5V20.5Z"/>
<path d="M11.5 16.5V20.5H12.5V17.5H13.5V20.5H18.5V19.5H14.5V16.5H11.5Z"/>
<path fill-rule="evenodd" clip-rule="evenodd" d="M12.5 4.5H11.5V3.5H12.5V4.5Z"/>
<path d="M11.5 6.5V13.5H12.5V12.5H14V11.5H12.5V6.5H11.5Z"/>
</svg>
