<svg viewBox="0 0 24 24" xmlns="http://www.w3.org/2000/svg">
<path fill-rule="evenodd" clip-rule="evenodd" d="M18 20L20 21V4C20 3.44772 19.5523 3 19 3H5C4.44772 3 4 3.44772 4 4V21L6 20L7.5 21L9 20L10.5 21L12 20L13.5 21L15 20L16.5 21L18 20ZM16.5 19.7981L17.9282 18.846L19 19.382V4H5V19.382L6.07184 18.846L7.5 19.7981L9 18.7981L10.5 19.7981L12 18.7981L13.5 19.7981L15 18.7981L16.5 19.7981Z"/>
<path fill-rule="evenodd" clip-rule="evenodd" d="M17 7H7V6H17V7Z"/>
<path fill-rule="evenodd" clip-rule="evenodd" d="M17 10H7V9H17V10Z"/>
<path fill-rule="evenodd" clip-rule="evenodd" d="M17 13H7V12H17V13Z"/>
<path fill-rule="evenodd" clip-rule="evenodd" d="M12 16H7V15H12V16Z"/>
</svg>
