<svg viewBox="0 0 24 24" xmlns="http://www.w3.org/2000/svg">
<path d="M2 2H4.59333C5.04937 2 5.44517 2.30804 5.56023 2.74478L7.71533 13.1018L7.71668 13.1016L7.90363 14L18.1011 14L19.8768 6H7.25899L7.05091 5H19.8768C20.5165 5 20.9917 5.59224 20.8531 6.2167L19.0773 14.2167C18.9757 14.6743 18.5699 15 18.1011 15H8C7.44772 15 7 15.4477 7 16C7 16.5523 7.44771 17 8 17H18.9968V18H8C6.89543 18 6 17.1046 6 16C6 15.2827 6.37757 14.6537 6.94478 14.3007L4.59333 3H2V2Z"/>
<path fill-rule="evenodd" clip-rule="evenodd" d="M8.5 21C8.77614 21 9 20.7761 9 20.5C9 20.2239 8.77614 20 8.5 20C8.22386 20 8 20.2239 8 20.5C8 20.7761 8.22386 21 8.5 21ZM10 20.5C10 21.3284 9.32843 22 8.5 22C7.67157 22 7 21.3284 7 20.5C7 19.6716 7.67157 19 8.5 19C9.32843 19 10 19.6716 10 20.5Z"/>
<path fill-rule="evenodd" clip-rule="evenodd" d="M16.5 21C16.7761 21 17 20.7761 17 20.5C17 20.2239 16.7761 20 16.5 20C16.2239 20 16 20.2239 16 20.5C16 20.7761 16.2239 21 16.5 21ZM18 20.5C18 21.3284 17.3284 22 16.5 22C15.6716 22 15 21.3284 15 20.5C15 19.6716 15.6716 19 16.5 19C17.3284 19 18 19.6716 18 20.5Z"/>
</svg>
