<svg viewBox="0 0 24 24" xmlns="http://www.w3.org/2000/svg">
<path fill-rule="evenodd" clip-rule="evenodd" d="M12 2C10.067 2 8.5 3.567 8.5 5.5V6H4.93556C4.4091 6 3.97279 6.40818 3.93777 6.93348L3.07111 19.9335C3.03263 20.5107 3.49043 21 4.06889 21H19.9311C20.5096 21 20.9674 20.5107 20.9289 19.9335L20.0622 6.93348C20.0272 6.40818 19.5909 6 19.0645 6H15.5V5.5C15.5 3.567 13.933 2 12 2ZM15.5 8.13378C15.7989 8.30669 16 8.62986 16 9C16 9.55228 15.5523 10 15 10C14.4477 10 14 9.55228 14 9C14 8.62986 14.2011 8.30669 14.5 8.13378V7H9.5V8.13378C9.7989 8.30669 10 8.62986 10 9C10 9.55228 9.55228 10 9 10C8.44771 10 8 9.55228 8 9C8 8.62986 8.2011 8.30669 8.5 8.13378V7H4.93556L4.06889 20H19.9311L19.0645 7H15.5V8.13378ZM14.5 6V5.5C14.5 4.11929 13.3807 3 12 3C10.6193 3 9.5 4.11929 9.5 5.5V6H14.5Z"/>
</svg>
