<svg viewBox="0 0 24 24" xmlns="http://www.w3.org/2000/svg">
<path fill-rule="evenodd" clip-rule="evenodd" d="M11 14H6L6 17H11V14ZM6 13C5.44772 13 5 13.4477 5 14V17C5 17.5523 5.44772 18 6 18H11C11.5523 18 12 17.5523 12 17V14C12 13.4477 11.5523 13 11 13H6Z"/>
<path fill-rule="evenodd" clip-rule="evenodd" d="M9.5 10.132L8.89443 10.4348C8.33137 10.7163 7.66863 10.7163 7.10557 10.4348L6.5 10.132V9H5.5V10.132L4.89443 10.4348C4.33137 10.7163 3.66863 10.7163 3.10557 10.4348L3 10.382V9.23607L5.61803 4L18.382 4L21 9.23607V10.382L20.8944 10.4348C20.3314 10.7163 19.6686 10.7163 19.1056 10.4348L18.5 10.132V9H17.5V10.132L16.8944 10.4348C16.3314 10.7163 15.6686 10.7163 15.1056 10.4348L14.5 10.132V9H13.5V10.132L12.8944 10.4348C12.3314 10.7163 11.6686 10.7163 11.1056 10.4348L10.5 10.132V9H9.5V10.132ZM22 11L21.3416 11.3292C20.4971 11.7515 19.5029 11.7515 18.6584 11.3292L18 11L17.3416 11.3292C16.4971 11.7515 15.5029 11.7515 14.6584 11.3292L14 11L13.3416 11.3292C12.4971 11.7515 11.5029 11.7515 10.6584 11.3292L10 11L9.34164 11.3292C8.49706 11.7515 7.50294 11.7515 6.65836 11.3292L6 11L5.34164 11.3292C4.49706 11.7515 3.50294 11.7515 2.65836 11.3292L2 11V9L4.72361 3.55279C4.893 3.214 5.23926 3 5.61803 3H18.382C18.7607 3 19.107 3.214 19.2764 3.55279L22 9V11Z"/>
<path d="M21 11.4744V21H18V14.01C18 14.0045 17.9955 14 17.99 14H14.01C14.0045 14 14 14.0045 14 14.01V21H3V11.4744C3.3234 11.5887 3.6617 11.6459 4 11.6459V20H13V14.01C13 13.4522 13.4522 13 14.01 13H17.99C18.5478 13 19 13.4522 19 14.01V20H20V11.6459C20.3383 11.6459 20.6766 11.5887 21 11.4744Z"/>
</svg>
