<svg viewBox="0 0 24 24" xmlns="http://www.w3.org/2000/svg">
<path fill-rule="evenodd" clip-rule="evenodd" d="M5.63606 5.63605V11.2929L13.8285 19.4853L19.4853 13.8284L11.2929 5.63605L5.63606 5.63605ZM4.63606 11.2929C4.63606 11.5581 4.74142 11.8125 4.92896 12L13.1213 20.1924C13.5119 20.5829 14.145 20.5829 14.5356 20.1924L20.1924 14.5355C20.5829 14.145 20.5829 13.5119 20.1924 13.1213L12 4.92894C11.8125 4.7414 11.5581 4.63605 11.2929 4.63605L5.63606 4.63605C5.08378 4.63605 4.63606 5.08376 4.63606 5.63605L4.63606 11.2929Z"/>
<path fill-rule="evenodd" clip-rule="evenodd" d="M8.87868 7.46446C9.2692 7.85499 9.2692 8.48815 8.87868 8.87868C8.48815 9.2692 7.85499 9.2692 7.46446 8.87868C7.07394 8.48815 7.07394 7.85499 7.46446 7.46446C7.85499 7.07394 8.48815 7.07394 8.87868 7.46446Z"/>
</svg>
