<svg viewBox="0 0 24 24" xmlns="http://www.w3.org/2000/svg">
<path fill-rule="evenodd" clip-rule="evenodd" d="M9 7.5C9 8.05228 8.55228 8.5 8 8.5C7.44772 8.5 7 8.05228 7 7.5C7 6.94772 7.44772 6.5 8 6.5C8.55228 6.5 9 6.94772 9 7.5Z"/>
<path fill-rule="evenodd" clip-rule="evenodd" d="M9 12C9 12.5523 8.55228 13 8 13C7.44772 13 7 12.5523 7 12C7 11.4477 7.44772 11 8 11C8.55228 11 9 11.4477 9 12Z"/>
<path fill-rule="evenodd" clip-rule="evenodd" d="M9 16.5C9 17.0523 8.55228 17.5 8 17.5C7.44772 17.5 7 17.0523 7 16.5C7 15.9477 7.44772 15.5 8 15.5C8.55228 15.5 9 15.9477 9 16.5Z"/>
<path fill-rule="evenodd" clip-rule="evenodd" d="M17 8H10V7H17V8Z"/>
<path fill-rule="evenodd" clip-rule="evenodd" d="M17 12.5H10V11.5H17V12.5Z"/>
<path d="M13.1284 17C13.0321 16.6746 12.99 16.3365 13.002 16H10V17H13.1284Z"/>
<path d="M5 4H19V13.1313C19.3253 13.0336 19.6634 12.9904 20 13.0018V4C20 3.44772 19.5523 3 19 3H5C4.44772 3 4 3.44772 4 4V20C4 20.5523 4.44772 21 5 21H16.5881L15.5913 20H5V4Z"/>
<path fill-rule="evenodd" clip-rule="evenodd" d="M18 16.4425L16.8857 15.3246C16.4544 14.8918 15.7563 14.8918 15.3249 15.3246C14.8917 15.7592 14.8917 16.4651 15.3249 16.8997L18 19.5835L20.6751 16.8997C21.1083 16.4651 21.1083 15.7592 20.6751 15.3246C20.2437 14.8918 19.5456 14.8918 19.1143 15.3246L18 16.4425ZM18 21L14.6166 17.6057C13.7945 16.7808 13.7945 15.4435 14.6166 14.6186C15.4159 13.8167 16.6981 13.7944 17.5242 14.5517C17.5479 14.5734 17.5711 14.5957 17.594 14.6186L18 15.0259L18.406 14.6186C18.4289 14.5957 18.4521 14.5734 18.4758 14.5517C19.3019 13.7944 20.5841 13.8167 21.3834 14.6186C22.2055 15.4435 22.2055 16.7808 21.3834 17.6057L18 21Z"/>
</svg>
