<svg viewBox="0 0 24 24" xmlns="http://www.w3.org/2000/svg">
<path fill-rule="evenodd" clip-rule="evenodd" d="M11 18H6V17H11V18Z"/>
<path fill-rule="evenodd" clip-rule="evenodd" d="M9 12C10.6569 12 12 10.6569 12 9C12 7.34315 10.6569 6 9 6C7.34315 6 6 7.34315 6 9C6 10.6569 7.34315 12 9 12ZM10.937 9.5C10.715 10.3626 9.93192 11 9 11C8.62909 11 8.28176 10.899 7.984 10.7231L9.20708 9.5L10.937 9.5ZM10.937 8.5L9.49998 8.5V7.063C10.2028 7.24389 10.7561 7.79719 10.937 8.5ZM8.49998 7.06301C7.63737 7.28504 7 8.06809 7 9C7 9.3709 7.10096 9.71822 7.2769 10.016L8.49998 8.79289V7.06301Z"/>
<path d="M12.207 15C12.1159 14.6777 12.0534 14.3434 12.0224 14H6V15H12.207Z"/>
<path fill-rule="evenodd" clip-rule="evenodd" d="M15 3L19 7V8.20703C18.6777 8.11588 18.3434 8.05337 18 8.02242V7.5H15.5C14.9477 7.5 14.5 7.05228 14.5 6.5V4H4V20H18V18.9776C18.3434 18.9466 18.6777 18.8841 19 18.793V20C19 20.5523 18.5523 21 18 21H4C3.44772 21 3 20.5523 3 20V4C3 3.44772 3.44772 3 4 3H15ZM15.5 4.91421L17.0858 6.5H15.5V4.91421Z"/>
<path fill-rule="evenodd" clip-rule="evenodd" d="M17.5 17C19.433 17 21 15.433 21 13.5C21 11.567 19.433 10 17.5 10C15.567 10 14 11.567 14 13.5C14 15.433 15.567 17 17.5 17ZM17.5 18C19.9853 18 22 15.9853 22 13.5C22 11.0147 19.9853 9 17.5 9C15.0147 9 13 11.0147 13 13.5C13 15.9853 15.0147 18 17.5 18Z"/>
<path d="M17 11V10.5H18V11C18.8284 11 19.5 11.6716 19.5 12.5H18.5C18.5 12.2239 18.2761 12 18 12H16.8717C16.6664 12 16.5 12.1664 16.5 12.3717C16.5 12.5317 16.6024 12.6737 16.7542 12.7243L18.5621 13.327C19.1222 13.5137 19.5 14.0379 19.5 14.6283C19.5 15.3859 18.8859 16 18.1283 16H18V16.5H17V16C16.1716 16 15.5 15.3284 15.5 14.5H16.5C16.5 14.7761 16.7239 15 17 15H18.1283C18.3336 15 18.5 14.8336 18.5 14.6283C18.5 14.4683 18.3976 14.3263 18.2458 14.2757L16.4379 13.673C15.8778 13.4863 15.5 12.9621 15.5 12.3717C15.5 11.6141 16.1141 11 16.8717 11H17Z"/>
</svg>
