<svg viewBox="0 0 24 24" xmlns="http://www.w3.org/2000/svg">
<path fill-rule="evenodd" clip-rule="evenodd" d="M12 20C16.4183 20 20 16.4183 20 12C20 7.58172 16.4183 4 12 4C7.58172 4 4 7.58172 4 12C4 16.4183 7.58172 20 12 20ZM12 21C16.9706 21 21 16.9706 21 12C21 7.02944 16.9706 3 12 3C7.02944 3 3 7.02944 3 12C3 16.9706 7.02944 21 12 21Z"/>
<path d="M11.5 7V6H12.5V7H13.5C14.8807 7 16 8.11929 16 9.5H15C15 8.67157 14.3284 8 13.5 8H10.5C9.67157 8 9 8.67157 9 9.5V9.76541C9 10.5119 9.54889 11.1448 10.2879 11.2503L13.8536 11.7597C15.0852 11.9357 16 12.9905 16 14.2346V14.5C16 15.8807 14.8807 17 13.5 17H12.5V18H11.5V17H10.5C9.11929 17 8 15.8807 8 14.5H9C9 15.3284 9.67157 16 10.5 16H13.5C14.3284 16 15 15.3284 15 14.5V14.2346C15 13.4881 14.4511 12.8552 13.7121 12.7497L10.1464 12.2403C8.91482 12.0643 8 11.0095 8 9.76541V9.5C8 8.11929 9.11929 7 10.5 7H11.5Z"/>
</svg>
