<svg viewBox="0 0 24 24" xmlns="http://www.w3.org/2000/svg">
<path d="M6.14278 17.729C6.02447 17.8907 6 18.01 6 18.0857C6 18.1779 6.03568 18.3321 6.25608 18.5518C6.48498 18.78 6.86817 19.0282 7.42721 19.2557C8.54205 19.7094 10.1562 20 12 20C13.8438 20 15.4579 19.7094 16.5728 19.2557C17.1318 19.0282 17.515 18.78 17.7439 18.5518C17.9643 18.3321 18 18.1779 18 18.0857C18 18.01 17.9755 17.8907 17.8572 17.729C18.1652 17.5716 18.4511 17.3949 18.7055 17.1973C18.8971 17.4786 19 17.7769 19 18.0857C19 19.7899 15.866 21 12 21C8.13401 21 5 19.7899 5 18.0857C5 17.7769 5.10293 17.4786 5.29449 17.1973C5.54888 17.3949 5.83481 17.5716 6.14278 17.729Z"/>
<path d="M6.14278 14.729C6.02447 14.8907 6 15.01 6 15.0857C6 15.1779 6.03568 15.3321 6.25608 15.5518C6.48498 15.78 6.86817 16.0282 7.42721 16.2557C8.54205 16.7094 10.1562 17 12 17C13.8438 17 15.4579 16.7094 16.5728 16.2557C17.1318 16.0282 17.515 15.78 17.7439 15.5518C17.9643 15.3321 18 15.1779 18 15.0857C18 15.01 17.9755 14.8907 17.8572 14.729C18.1652 14.5716 18.4511 14.3949 18.7055 14.1973C18.8971 14.4786 19 14.7769 19 15.0857C19 16.7899 15.866 18 12 18C8.13401 18 5 16.7899 5 15.0857C5 14.7769 5.10293 14.4786 5.29449 14.1973C5.54888 14.3949 5.83481 14.5716 6.14278 14.729Z"/>
<path d="M6.14278 11.729C6.02447 11.8907 6 12.01 6 12.0857C6 12.1779 6.03568 12.3321 6.25608 12.5518C6.48498 12.78 6.86817 13.0282 7.42721 13.2557C8.54205 13.7094 10.1562 14 12 14C13.8438 14 15.4579 13.7094 16.5728 13.2557C17.1318 13.0282 17.515 12.78 17.7439 12.5518C17.9643 12.3321 18 12.1779 18 12.0857C18 12.01 17.9755 11.8907 17.8572 11.729C18.1652 11.5716 18.4511 11.3949 18.7055 11.1973C18.8971 11.4786 19 11.7769 19 12.0857C19 13.7899 15.866 15 12 15C8.13401 15 5 13.7899 5 12.0857C5 11.7769 5.10293 11.4786 5.29449 11.1973C5.54888 11.3949 5.83481 11.5716 6.14278 11.729Z"/>
<path d="M6.14278 8.72896C6.02447 8.8907 6 9.00995 6 9.08572C6 9.17794 6.03568 9.3321 6.25608 9.55181C6.48498 9.77998 6.86817 10.0282 7.42721 10.2557C8.54205 10.7094 10.1562 11 12 11C13.8438 11 15.4579 10.7094 16.5728 10.2557C17.1318 10.0282 17.515 9.77998 17.7439 9.55181C17.9643 9.3321 18 9.17794 18 9.08572C18 9.00995 17.9755 8.8907 17.8572 8.72896C18.1652 8.57157 18.4511 8.39487 18.7055 8.1973C18.8971 8.47864 19 8.77688 19 9.08572C19 10.7899 15.866 12 12 12C8.13401 12 5 10.7899 5 9.08572C5 8.77688 5.10293 8.47864 5.29449 8.1973C5.54888 8.39487 5.83481 8.57157 6.14278 8.72896Z"/>
<path fill-rule="evenodd" clip-rule="evenodd" d="M17.7439 6.5518C17.9643 6.33209 18 6.17794 18 6.08571C18 5.98789 17.9592 5.81758 17.7283 5.57696C17.4927 5.33136 17.1039 5.06458 16.5464 4.81882C15.4341 4.32852 13.8275 4 12 4C10.1725 4 8.56587 4.32852 7.45362 4.81882C6.89611 5.06458 6.50732 5.33136 6.27166 5.57696C6.04078 5.81758 6 5.98789 6 6.08571C6 6.17794 6.03568 6.33209 6.25608 6.5518C6.48498 6.77998 6.86817 7.02818 7.42721 7.2557C8.54205 7.70942 10.1562 8 12 8C13.8438 8 15.4579 7.70942 16.5728 7.2557C17.1318 7.02818 17.515 6.77998 17.7439 6.5518ZM12 9C15.866 9 19 7.78991 19 6.08571C19 4.38152 15.866 3 12 3C8.13401 3 5 4.38152 5 6.08571C5 7.78991 8.13401 9 12 9Z"/>
</svg>
