<svg viewBox="0 0 24 24" xmlns="http://www.w3.org/2000/svg">
<path d="M11.5 4V2H12.5V4H14C16.2091 4 18 5.79086 18 8H17C17 6.34315 15.6569 5 14 5H10.0431C8.36242 5 7 6.36242 7 8.04305C7 9.51372 8.05175 10.7739 9.49869 11.037L14.6802 11.9791C16.6026 12.3286 18 14.003 18 15.9569C18 18.1899 16.1899 20 13.9569 20H12.5V22H11.5V20H10C7.79086 20 6 18.2091 6 16H7C7 17.6569 8.34315 19 10 19H13.9569C15.6376 19 17 17.6376 17 15.9569C17 14.4863 15.9482 13.2261 14.5013 12.963L9.31981 12.0209C7.39737 11.6714 6 9.997 6 8.04305C6 5.81014 7.81014 4 10.0431 4H11.5Z"/>
</svg>
