<svg viewBox="0 0 24 24" xmlns="http://www.w3.org/2000/svg">
<path fill-rule="evenodd" clip-rule="evenodd" d="M13 4.5C10.054 4.5 7.4971 6.79462 6.73249 10H13V11H6.55684C6.51937 11.3265 6.5 11.6603 6.5 12C6.5 12.3397 6.51937 12.6735 6.55684 13H13V14H6.73249C7.4971 17.2054 10.054 19.5 13 19.5C14.9063 19.5 16.6365 18.5506 17.8371 17.0081L18.6263 17.6224C17.2626 19.3743 15.2553 20.5 13 20.5C9.42068 20.5 6.49815 17.6927 5.70986 14H3V13H5.55173C5.51755 12.6715 5.5 12.3378 5.5 12C5.5 11.6622 5.51755 11.3285 5.55173 11H3V10H5.70986C6.49815 6.30728 9.42068 3.5 13 3.5C15.2566 3.5 17.2648 4.62698 18.6285 6.38054L17.8391 6.99444C16.6384 5.4505 14.9073 4.5 13 4.5Z"/>
</svg>
