<svg viewBox="0 0 24 24" xmlns="http://www.w3.org/2000/svg">
<path fill-rule="evenodd" clip-rule="evenodd" d="M4.78078 17L4.28078 19H7.71922L7.21922 17H4.78078ZM8 16H4L3 20H9L8 16Z"/>
<path fill-rule="evenodd" clip-rule="evenodd" d="M10.7808 7L10.2808 9H13.7192L13.2192 7H10.7808ZM14 6H10L9 10H15L14 6Z"/>
<path fill-rule="evenodd" clip-rule="evenodd" d="M10.7808 17L10.2808 19H13.7192L13.2192 17H10.7808ZM14 16H10L9 20H15L14 16Z"/>
<path fill-rule="evenodd" clip-rule="evenodd" d="M7.78078 12L7.28078 14H10.7192L10.2192 12H7.78078ZM11 11H7L6 15H12L11 11Z"/>
<path fill-rule="evenodd" clip-rule="evenodd" d="M13.7808 12L13.2808 14H16.7192L16.2192 12H13.7808ZM17 11H13L12 15H18L17 11Z"/>
<path fill-rule="evenodd" clip-rule="evenodd" d="M16.7808 17L16.2808 19H19.7192L19.2192 17H16.7808ZM20 16H16L15 20H21L20 16Z"/>
<path fill-rule="evenodd" clip-rule="evenodd" d="M5.5 10.5L6 11.5L6.5 10.5L7.5 10L6.5 9.5L6 8.5L5.5 9.5L4.5 10L5.5 10.5Z"/>
<path fill-rule="evenodd" clip-rule="evenodd" d="M14.5 5.5L15 6.5L15.5 5.5L16.5 5L15.5 4.5L15 3.5L14.5 4.5L13.5 5L14.5 5.5Z"/>
</svg>
