<svg viewBox="0 0 24 24" xmlns="http://www.w3.org/2000/svg">
<path fill-rule="evenodd" clip-rule="evenodd" d="M12 11C13.933 11 15.5 9.433 15.5 7.5C15.5 5.567 13.933 4 12 4C10.067 4 8.5 5.567 8.5 7.5C8.5 9.433 10.067 11 12 11ZM12 12C14.4853 12 16.5 9.98528 16.5 7.5C16.5 5.01472 14.4853 3 12 3C9.51472 3 7.5 5.01472 7.5 7.5C7.5 9.98528 9.51472 12 12 12Z"/>
<path d="M14 6.5C14 5.67157 13.3284 5 12.5 5V4.5H11.5V5H11.3717C10.6141 5 10 5.61413 10 6.37171C10 6.96213 10.3778 7.48632 10.9379 7.67302L12.7458 8.27566C12.8976 8.32625 13 8.4683 13 8.62829C13 8.83358 12.8336 9 12.6283 9H11.5C11.2239 9 11 8.77614 11 8.5H10C10 9.32843 10.6716 10 11.5 10V10.5H12.5V10H12.6283C13.3859 10 14 9.38587 14 8.62829C14 8.03787 13.6222 7.51368 13.0621 7.32697L11.2542 6.72434C11.1024 6.67375 11 6.5317 11 6.37171C11 6.16642 11.1664 6 11.3717 6H12.5C12.7761 6 13 6.22386 13 6.5H14Z"/>
<path fill-rule="evenodd" clip-rule="evenodd" d="M19.407 14.6658C19.6742 14.52 20 14.7134 20 15.0178C20 15.1519 19.933 15.2771 19.8214 15.3515L13.6763 19.4482C13.1646 19.7894 12.5449 19.9299 11.936 19.8429L5.9384 18.9861L4 19.7615V15.8385L6.09629 15H8.2918C8.67991 15 9.06269 15.0904 9.40983 15.2639L10.143 15.6305C10.629 15.8735 11.1648 16 11.7082 16H14C14.2761 16 14.5 16.2239 14.5 16.5C14.5 16.7761 14.2761 17 14 17H10V18H14C14.7204 18 15.3222 17.4921 15.4669 16.8149L19.407 14.6658ZM15.3068 15.7631L18.9281 13.7879C19.8617 13.2786 21 13.9543 21 15.0178C21 15.4862 20.7659 15.9237 20.3761 16.1835L14.231 20.2802C13.5145 20.7579 12.6471 20.9547 11.7946 20.8329L6.0616 20.0139L4.37139 20.69C3.71453 20.9527 3 20.469 3 19.7615V15.8385C3 15.4296 3.24895 15.0619 3.62861 14.91L5.7249 14.0715C5.84302 14.0243 5.96907 14 6.09629 14H8.2918C8.83515 14 9.37105 14.1265 9.85704 14.3695L10.5902 14.7361C10.9373 14.9096 11.3201 15 11.7082 15H14C14.5606 15 15.0494 15.3075 15.3068 15.7631Z"/>
</svg>
