<svg viewBox="0 0 24 24" xmlns="http://www.w3.org/2000/svg">
<path fill-rule="evenodd" clip-rule="evenodd" d="M19 7H5V17H19V7ZM5 6C4.44772 6 4 6.44772 4 7V17C4 17.5523 4.44772 18 5 18H19C19.5523 18 20 17.5523 20 17V7C20 6.44772 19.5523 6 19 6H5Z"/>
<path fill-rule="evenodd" clip-rule="evenodd" d="M6 14V10H7V14H6Z"/>
<path fill-rule="evenodd" clip-rule="evenodd" d="M8 20H5V19H8V20Z"/>
<path fill-rule="evenodd" clip-rule="evenodd" d="M19 20H16V19H19V20Z"/>
<path fill-rule="evenodd" clip-rule="evenodd" d="M13.5 16V14.9585C12.2437 14.7478 11.2522 13.7563 11.0415 12.5H10V11.5H11.0415C11.2522 10.2437 12.2437 9.25224 13.5 9.04148V8H14.5V9.04148C15.7563 9.25224 16.7478 10.2437 16.9585 11.5H18V12.5H16.9585C16.7478 13.7563 15.7563 14.7478 14.5 14.9585V16H13.5ZM15.937 11.5C15.7561 10.7972 15.2028 10.2439 14.5 10.063V11.1338C14.6518 11.2216 14.7784 11.3482 14.8662 11.5H15.937ZM14.8662 12.5H15.937C15.7561 13.2028 15.2028 13.7561 14.5 13.937V12.8662C14.6518 12.7784 14.7784 12.6518 14.8662 12.5ZM13.1338 11.5C13.2216 11.3482 13.3482 11.2216 13.5 11.1338V10.063C12.7972 10.2439 12.2439 10.7972 12.063 11.5H13.1338ZM12.063 12.5H13.1338C13.2216 12.6518 13.3482 12.7784 13.5 12.8662V13.937C12.7972 13.7561 12.2439 13.2028 12.063 12.5Z"/>
</svg>
