<svg viewBox="0 0 24 24" xmlns="http://www.w3.org/2000/svg">
<path d="M4 8C3.44772 8 3 8.44772 3 9V16C3 16.5523 3.44772 17 4 17H18C18.5523 17 19 16.5523 19 16H4V8Z"/>
<path fill-rule="evenodd" clip-rule="evenodd" d="M13 11.5C13.5523 11.5 14 11.0523 14 10.5C14 9.94772 13.5523 9.5 13 9.5C12.4477 9.5 12 9.94772 12 10.5C12 11.0523 12.4477 11.5 13 11.5ZM13 12.5C14.1046 12.5 15 11.6046 15 10.5C15 9.39543 14.1046 8.5 13 8.5C11.8954 8.5 11 9.39543 11 10.5C11 11.6046 11.8954 12.5 13 12.5Z"/>
<path fill-rule="evenodd" clip-rule="evenodd" d="M6 6C5.44772 6 5 6.44772 5 7V14C5 14.5523 5.44772 15 6 15H20C20.5523 15 21 14.5523 21 14V7C21 6.44772 20.5523 6 20 6H6ZM20 7H18.563C18.7439 7.7028 19.2972 8.2561 20 8.43699V7ZM8.45852 7H17.5415C17.7522 8.25625 18.7437 9.24776 20 9.45852V11.5415C18.7437 11.7522 17.7522 12.7437 17.5415 14H8.45852C8.24776 12.7437 7.25625 11.7522 6 11.5415V9.45852C7.25625 9.24776 8.24776 8.25625 8.45852 7ZM18.563 14H20V12.563C19.2972 12.7439 18.7439 13.2972 18.563 14ZM7.43699 14C7.2561 13.2972 6.7028 12.7439 6 12.563V14H7.43699ZM6 7H7.43699C7.2561 7.7028 6.7028 8.2561 6 8.43699V7Z"/>
</svg>
