<svg viewBox="0 0 24 24" xmlns="http://www.w3.org/2000/svg">
<path fill-rule="evenodd" clip-rule="evenodd" d="M19 13C19 13.5523 18.5523 14 18 14C17.4477 14 17 13.5523 17 13C17 12.4477 17.4477 12 18 12C18.5523 12 19 12.4477 19 13Z"/>
<path fill-rule="evenodd" clip-rule="evenodd" d="M19 6C19 5.44772 18.5523 5 18 5H4.5C3.67157 5 3 5.67157 3 6.5V18C3 18.5523 3.44772 19 4 19H20C20.5523 19 21 18.5523 21 18V8C21 7.44771 20.5523 7 20 7L4.4976 6.99999C4.22256 6.9987 4 6.77534 4 6.5C4 6.22386 4.22386 6 4.5 6L19 6ZM4 7.99999H4.49584L4.5 8L20 8V18H4L4 7.99999Z"/>
</svg>
