<svg viewBox="0 0 24 24" xmlns="http://www.w3.org/2000/svg">
<path d="M12 12.7071L15.1464 15.8536L15.8535 15.1465L12.7071 12L15.8535 8.85356L15.1464 8.14645L12 11.2929L8.85353 8.14645L8.14642 8.85356L11.2929 12L8.14642 15.1465L8.85353 15.8536L12 12.7071Z"/>
<path fill-rule="evenodd" clip-rule="evenodd" d="M12 20C16.4183 20 20 16.4183 20 12C20 7.58172 16.4183 4 12 4C7.58172 4 4 7.58172 4 12C4 16.4183 7.58172 20 12 20ZM12 21C16.9706 21 21 16.9706 21 12C21 7.02944 16.9706 3 12 3C7.02944 3 3 7.02944 3 12C3 16.9706 7.02944 21 12 21Z"/>
</svg>
