<svg viewBox="0 0 24 24" xmlns="http://www.w3.org/2000/svg">
<path fill-rule="evenodd" clip-rule="evenodd" d="M18.7175 7.40383C17.7411 6.42751 16.1582 6.42751 15.1819 7.40383L9.17151 13.4142C8.78099 13.8048 8.78099 14.4379 9.17151 14.8284C9.56204 15.219 10.1952 15.219 10.5857 14.8284L16.2426 9.17159L16.9497 9.8787L11.2928 15.5356C10.5118 16.3166 9.24546 16.3166 8.46441 15.5356C7.68336 14.7545 7.68336 13.4882 8.46441 12.7071L14.4748 6.69672C15.8417 5.32988 18.0577 5.32988 19.4246 6.69672C20.7914 8.06355 20.7914 10.2796 19.4246 11.6465L12.707 18.364C10.7544 20.3166 7.5886 20.3166 5.63598 18.364C3.68336 16.4114 3.68336 13.2455 5.63598 11.2929L11.9999 4.92895L12.707 5.63606L6.34309 12C4.78099 13.5621 4.78099 16.0948 6.34309 17.6569C7.90518 19.219 10.4378 19.219 11.9999 17.6569L18.7175 10.9394C19.6938 9.96305 19.6938 8.38014 18.7175 7.40383Z"/>
</svg>
