<svg viewBox="0 0 24 24" xmlns="http://www.w3.org/2000/svg">
<path fill-rule="evenodd" clip-rule="evenodd" d="M20 7L16 3H5C4.44772 3 4 3.44772 4 4V20C4 20.5523 4.44772 21 5 21H19C19.5523 21 20 20.5523 20 20V7ZM19 20H5V4H15.5V6.5C15.5 7.05228 15.9477 7.5 16.5 7.5H19V20ZM18.0858 6.5L16.5 4.91421V6.5H18.0858Z"/>
<path fill-rule="evenodd" clip-rule="evenodd" d="M15 9.5H12V13.7676C11.7058 13.5974 11.3643 13.5 11 13.5C9.89543 13.5 9 14.3954 9 15.5C9 16.6046 9.89543 17.5 11 17.5C12.1046 17.5 13 16.6046 13 15.5V10.5H15V9.5ZM12 15.5C12 14.9477 11.5523 14.5 11 14.5C10.4477 14.5 10 14.9477 10 15.5C10 16.0523 10.4477 16.5 11 16.5C11.5523 16.5 12 16.0523 12 15.5Z"/>
</svg>
