<svg viewBox="0 0 24 24" xmlns="http://www.w3.org/2000/svg">
<path fill-rule="evenodd" clip-rule="evenodd" d="M7.30001 11.8985H6.3751C5.04235 11.8985 4.00012 12.9494 4.00012 14.1993C4.00012 15.4491 5.04235 16.5 6.3751 16.5H17.0625C18.2636 16.5 19.3305 15.7928 19.7795 14.7328C20.2268 13.6767 19.9827 12.4578 19.1475 11.6411C18.6158 11.121 17.8694 10.8209 17.1216 10.7978L16.4952 10.7784L16.2396 10.2063C15.4383 8.4134 13.5304 7.3169 11.5109 7.52525C9.49269 7.73346 7.86626 9.19234 7.4664 11.1033L7.30001 11.8985ZM6.4876 10.8985C6.97916 8.54928 8.96997 6.78207 11.4083 6.53052C13.8466 6.27898 16.1706 7.60104 17.1525 9.79825C18.134 9.82862 19.124 10.2193 19.8467 10.9261C20.9729 12.0275 21.3097 13.6838 20.7003 15.1228C20.0908 16.5618 18.6551 17.5 17.0625 17.5H6.3751C4.51115 17.5 3.00012 16.0222 3.00012 14.1993C3.00012 12.3763 4.51115 10.8985 6.3751 10.8985H6.4876Z"/>
<path fill-rule="evenodd" clip-rule="evenodd" d="M14.8536 11.3535L11 15.2071L9.14648 13.3535L9.85359 12.6464L11 13.7929L14.1465 10.6464L14.8536 11.3535Z"/>
</svg>
