<svg viewBox="0 0 24 24" xmlns="http://www.w3.org/2000/svg">
<path d="M6.3751 10.8985H7.30001L7.4664 10.1033C7.86626 8.19234 9.49269 6.73346 11.5109 6.52525C13.5304 6.3169 15.4383 7.4134 16.2396 9.20626L16.4952 9.77839L17.1216 9.79777C17.8694 9.82091 18.6158 10.121 19.1475 10.6411C19.9827 11.4578 20.2268 12.6767 19.7795 13.7328C19.3305 14.7928 18.2636 15.5 17.0625 15.5H17V16.5H17.0625C18.6551 16.5 20.0908 15.5618 20.7003 14.1228C21.3097 12.6838 20.9729 11.0275 19.8467 9.92615C19.124 9.21933 18.1339 8.82862 17.1525 8.79825C16.1706 6.60104 13.8466 5.27898 11.4083 5.53052C8.96997 5.78207 6.97916 7.54928 6.4876 9.8985H6.3751C4.51115 9.8985 3.00012 11.3763 3.00012 13.1993C3.00012 15.0222 4.51115 16.5 6.3751 16.5H7V15.5H6.3751C5.04235 15.5 4.00012 14.4491 4.00012 13.1993C4.00012 11.9494 5.04235 10.8985 6.3751 10.8985Z"/>
<path fill-rule="evenodd" clip-rule="evenodd" d="M9.99997 18.2988L11.1464 17.1524L11.8535 17.8595L9.5029 20.2101L7.14636 17.8535L7.85347 17.1464L8.99997 18.2929V12.5H9.99997V18.2988Z"/>
<path fill-rule="evenodd" clip-rule="evenodd" d="M15 14.4113L16.1464 15.5576L16.8535 14.8505L14.5029 12.5L12.1464 14.8565L12.8535 15.5636L14 14.4171L13.9999 20.2071L14.9999 20.2071L15 14.4113Z"/>
</svg>
