<svg viewBox="0 0 24 24" xmlns="http://www.w3.org/2000/svg">
<path d="M6.3751 10.8985H7.30001L7.4664 10.1033C7.86626 8.19234 9.49269 6.73346 11.5109 6.52525C13.5304 6.3169 15.4383 7.4134 16.2396 9.20626L16.4952 9.77839L17.1216 9.79777C17.8694 9.82091 18.6158 10.121 19.1475 10.6411C19.9827 11.4578 20.2268 12.6767 19.7795 13.7328C19.4522 14.5055 18.7966 15.0907 18 15.3512V16.3895C19.1998 16.1019 20.2136 15.272 20.7003 14.1228C21.3097 12.6838 20.9729 11.0275 19.8467 9.92615C19.124 9.21933 18.1339 8.82862 17.1525 8.79825C16.1706 6.60104 13.8466 5.27898 11.4083 5.53052C8.96997 5.78207 6.97916 7.54928 6.4876 9.8985H6.3751C4.51115 9.8985 3.00012 11.3763 3.00012 13.1993C3.00012 15.0222 4.51115 16.5 6.3751 16.5H6.5V15.5H6.3751C5.04235 15.5 4.00012 14.4491 4.00012 13.1993C4.00012 11.9494 5.04235 10.8985 6.3751 10.8985Z"/>
<path fill-rule="evenodd" clip-rule="evenodd" d="M11.0557 11.6544C11.847 11.4423 12.647 11.455 13.3864 11.6538L13.1266 12.6195C12.5526 12.4651 11.9314 12.455 11.3145 12.6203C9.44662 13.1208 8.33815 15.0407 8.83864 16.9086C8.8712 17.0301 8.90973 17.1484 8.95384 17.2631L10.0802 16.5122L9.84556 19.4579L6.77051 18.7187L8.10576 17.8285C8.01245 17.6176 7.93421 17.3969 7.87272 17.1674C7.22928 14.7661 8.65434 12.2978 11.0557 11.6544Z"/>
<path fill-rule="evenodd" clip-rule="evenodd" d="M14.6497 12.5977L17.7243 13.1429L16.315 14.1297C16.4175 14.3546 16.5029 14.5909 16.5689 14.8374C17.2124 17.2387 15.7873 19.707 13.386 20.3504C12.5957 20.5622 11.7967 20.5498 11.0581 20.3517L11.3172 19.3859C11.8907 19.5397 12.511 19.5496 13.1271 19.3845C14.995 18.884 16.1035 16.9641 15.603 15.0962C15.568 14.9656 15.5261 14.8387 15.4778 14.7159L14.1105 15.6733L14.6497 12.5977Z"/>
</svg>
