<svg viewBox="0 0 24 24" xmlns="http://www.w3.org/2000/svg">
<path d="M6.3751 10.3985H7.30001L7.4664 9.60331C7.86626 7.69234 9.49269 6.23346 11.5109 6.02525C13.5304 5.8169 15.4383 6.9134 16.2396 8.70626L16.4952 9.27839L17.1216 9.29777C17.8694 9.32091 18.6158 9.621 19.1475 10.1411C19.9827 10.9578 20.2268 12.1767 19.7795 13.2328C19.3305 14.2928 18.2636 15 17.0625 15H14V16H17.0625C18.6551 16 20.0908 15.0618 20.7003 13.6228C21.3097 12.1838 20.9729 10.5275 19.8467 9.42615C19.124 8.71933 18.1339 8.32862 17.1525 8.29825C16.1706 6.10104 13.8466 4.77898 11.4083 5.03052C8.96997 5.28207 6.97916 7.04928 6.4876 9.3985H6.3751C4.51115 9.3985 3.00012 10.8763 3.00012 12.6993C3.00012 14.5222 4.51115 16 6.3751 16H10V15H6.3751C5.04235 15 4.00012 13.9491 4.00012 12.6993C4.00012 11.4494 5.04235 10.3985 6.3751 10.3985Z"/>
<path d="M12.5 18.2988L13.6464 17.1524L14.3535 17.8595L12.0029 20.2101L9.64636 17.8535L10.3535 17.1464L11.5 18.2929L11.5 12H12.5L12.5 18.2988Z"/>
</svg>
