<svg viewBox="0 0 24 24" xmlns="http://www.w3.org/2000/svg">
<path fill-rule="evenodd" clip-rule="evenodd" d="M3.64648 4.35358L19.6465 20.3536L20.3536 19.6465L4.35359 3.64647L3.64648 4.35358Z"/>
<path d="M8.43652 7.74359C7.45887 8.52605 6.75364 9.62703 6.4876 10.8985H6.3751C4.51115 10.8985 3.00012 12.3763 3.00012 14.1993C3.00012 16.0222 4.51115 17.5 6.3751 17.5H17.0625C17.4066 17.5 17.7433 17.4562 18.066 17.373L17.1903 16.4973C17.1479 16.4991 17.1053 16.5 17.0625 16.5H6.3751C5.04235 16.5 4.00012 15.4491 4.00012 14.1993C4.00012 12.9494 5.04235 11.8985 6.3751 11.8985H7.30001L7.4664 11.1033C7.69061 10.0318 8.30049 9.10237 9.14884 8.45591L8.43652 7.74359Z"/>
<path d="M10.0333 7.92613L9.28783 7.18068C9.92973 6.83522 10.6472 6.60904 11.4083 6.53052C13.8466 6.27898 16.1706 7.60104 17.1525 9.79825C18.134 9.82862 19.124 10.2193 19.8467 10.9261C20.9729 12.0275 21.3097 13.6838 20.7003 15.1228C20.3671 15.9094 19.7871 16.5464 19.0694 16.9623L18.3288 16.2217C18.9754 15.9215 19.4985 15.3963 19.7795 14.7328C20.2268 13.6767 19.9827 12.4578 19.1475 11.6411C18.6158 11.121 17.8694 10.8209 17.1216 10.7978L16.4952 10.7784L16.2396 10.2063C15.4383 8.4134 13.5304 7.3169 11.5109 7.52525C10.9871 7.57928 10.4897 7.71756 10.0333 7.92613Z"/>
</svg>
