<svg viewBox="0 0 24 24" xmlns="http://www.w3.org/2000/svg">
<path fill-rule="evenodd" clip-rule="evenodd" d="M20 7L16 3H5C4.44772 3 4 3.44772 4 4V20C4 20.5523 4.44772 21 5 21H19C19.5523 21 20 20.5523 20 20V7ZM19 20H5V4H15.5V6.5C15.5 7.05228 15.9477 7.5 16.5 7.5H19V20ZM18.0858 6.5L16.5 4.91421V6.5H18.0858Z"/>
<path fill-rule="evenodd" clip-rule="evenodd" d="M17 11H7V10H17V11Z"/>
<path fill-rule="evenodd" clip-rule="evenodd" d="M17 14H7V13H17V14Z"/>
<path fill-rule="evenodd" clip-rule="evenodd" d="M12 17H7V16H12V17Z"/>
</svg>
