<svg viewBox="0 0 24 24" xmlns="http://www.w3.org/2000/svg">
<path d="M11.5 13.5V16H12.5V13.5L15 13.5V12.5L12.5 12.5V10H11.5V12.5L9 12.5V13.5L11.5 13.5Z"/>
<path fill-rule="evenodd" clip-rule="evenodd" d="M4 18H20V8H11.0041C10.7362 8 10.4794 7.89357 10.29 7.70418L8.58579 6L4 6L4 18ZM3 6C3 5.44772 3.44772 5 4 5H8.58579C8.851 5 9.10536 5.10536 9.29289 5.29289L10.9971 6.99707C10.9989 6.99895 11.0015 7 11.0041 7H20C20.5523 7 21 7.44772 21 8V18C21 18.5523 20.5523 19 20 19H4C3.44772 19 3 18.5523 3 18V6Z"/>
</svg>
