<svg viewBox="0 0 24 24" xmlns="http://www.w3.org/2000/svg">
<path fill-rule="evenodd" clip-rule="evenodd" d="M15.5 11C15.7761 11 16 10.7761 16 10.5C16 10.2239 15.7761 10 15.5 10C15.2239 10 15 10.2239 15 10.5C15 10.7761 15.2239 11 15.5 11ZM17 10.5C17 11.3284 16.3284 12 15.5 12C14.6716 12 14 11.3284 14 10.5C14 9.67157 14.6716 9 15.5 9C16.3284 9 17 9.67157 17 10.5Z"/>
<path d="M9.20714 12.5C8.81662 12.1095 8.18346 12.1095 7.79293 12.5L4.14648 16.1464L4.85359 16.8535L8.50004 13.2071L14.1465 18.8535L14.8536 18.1464L13.7071 17L16 14.7071L19.1465 17.8535L19.8536 17.1464L16.7071 14C16.3166 13.6095 15.6835 13.6095 15.2929 14L13 16.2929L9.20714 12.5Z"/>
<path fill-rule="evenodd" clip-rule="evenodd" d="M20 7L16 3H5C4.44772 3 4 3.44772 4 4V20C4 20.5523 4.44772 21 5 21H19C19.5523 21 20 20.5523 20 20V7ZM19 20H5V4H15.5V6.5C15.5 7.05228 15.9477 7.5 16.5 7.5H19V20ZM18.0858 6.5L16.5 4.91421V6.5H18.0858Z"/>
</svg>
