<svg viewBox="0 0 24 24" xmlns="http://www.w3.org/2000/svg">
<path fill-rule="evenodd" clip-rule="evenodd" d="M20 7L16 3H5C4.44772 3 4 3.44772 4 4V20C4 20.5523 4.44772 21 5 21H19C19.5523 21 20 20.5523 20 20V7ZM19 20H5V4H15.5V6.5C15.5 7.05228 15.9477 7.5 16.5 7.5H19V20ZM18.0858 6.5L16.5 4.91421V6.5H18.0858Z"/>
<path fill-rule="evenodd" clip-rule="evenodd" d="M7 11H8.75C9.44036 11 10 11.5596 10 12.25C10 12.9404 9.44036 13.5 8.75 13.5H8V15H7V11ZM8 12.5H8.75C8.88807 12.5 9 12.3881 9 12.25C9 12.1119 8.88807 12 8.75 12H8V12.5Z"/>
<path d="M17 11H14.5V15H15.5V13.5H17V12.5H15.5V12H17V11Z"/>
<path fill-rule="evenodd" clip-rule="evenodd" d="M14 13C14 14.1046 13.1046 15 12 15H10.5V11H12C13.1046 11 14 11.8954 14 13ZM12 14C12.5523 14 13 13.5523 13 13C13 12.4477 12.5523 12 12 12H11.5V14H12Z"/>
</svg>
