<svg viewBox="0 0 24 24" xmlns="http://www.w3.org/2000/svg">
<path fill-rule="evenodd" clip-rule="evenodd" d="M20 7L16 3H5C4.44772 3 4 3.44772 4 4V20C4 20.5523 4.44772 21 5 21H19C19.5523 21 20 20.5523 20 20V7ZM19 20H5V4H15.5V6.5C15.5 7.05228 15.9477 7.5 16.5 7.5H19V20ZM18.0858 6.5L16.5 4.91421V6.5H18.0858Z"/>
<path fill-rule="evenodd" clip-rule="evenodd" d="M7 11H8.75C9.44036 11 10 11.5596 10 12.25C10 12.9404 9.44036 13.5 8.75 13.5H8V15H7V11ZM8 12.5H8.75C8.88807 12.5 9 12.3881 9 12.25C9 12.1119 8.88807 12 8.75 12H8V12.5Z"/>
<path fill-rule="evenodd" clip-rule="evenodd" d="M14 13C14 11.8954 14.8954 11 16 11H17V12H16C15.4477 12 15 12.4477 15 13C15 13.5523 15.4477 14 16 14H16.5V13.5H16V12.5H17.5V15H16C14.8954 15 14 14.1046 14 13Z"/>
<path fill-rule="evenodd" clip-rule="evenodd" d="M10.5 15V11H11.559L12.5 12.8819V11H13.5V15L13.4999 15H12.441L11.5 13.118V15H10.5Z"/>
</svg>
