<svg viewBox="0 0 24 24" xmlns="http://www.w3.org/2000/svg">
<path fill-rule="evenodd" clip-rule="evenodd" d="M20 12.5278V7L16 3H5C4.44772 3 4 3.44772 4 4V20C4 20.5523 4.44772 21 5 21H11.5278C11.2534 20.6934 11.01 20.3584 10.8027 20H5V4H15.5V6.5C15.5 7.05228 15.9477 7.5 16.5 7.5H19V11.8027C19.3584 12.01 19.6934 12.2534 20 12.5278ZM16.5 4.91421L18.0858 6.5H16.5V4.91421Z"/>
<path fill-rule="evenodd" clip-rule="evenodd" d="M14.5 15.5C14.5 14.6716 15.1716 14 16 14C16.8284 14 17.5 14.6716 17.5 15.5C17.5 16.3284 16.8284 17 16 17C15.1716 17 14.5 16.3284 14.5 15.5ZM16 15C15.7239 15 15.5 15.2239 15.5 15.5C15.5 15.7761 15.7239 16 16 16C16.2761 16 16.5 15.7761 16.5 15.5C16.5 15.2239 16.2761 15 16 15Z"/>
<path fill-rule="evenodd" clip-rule="evenodd" d="M16 22C18.7614 22 21 19.7614 21 17C21 14.2386 18.7614 12 16 12C13.2386 12 11 14.2386 11 17C11 19.7614 13.2386 22 16 22ZM18.8903 19.7652C19.5777 19.0469 20 18.0728 20 17C20 14.7909 18.2091 13 16 13C13.7909 13 12 14.7909 12 17C12 18.0728 12.4223 19.0469 13.1097 19.7652C13.4236 18.7431 14.375 18 15.5 18H16.5C17.625 18 18.5764 18.7431 18.8903 19.7652ZM17.9996 20.4651C17.9811 19.6528 17.3168 19 16.5 19H15.5C14.6832 19 14.0189 19.6528 14.0004 20.4651C14.5887 20.8053 15.2716 21 16 21C16.7284 21 17.4113 20.8053 17.9996 20.4651Z"/>
</svg>
