<svg viewBox="0 0 24 24" xmlns="http://www.w3.org/2000/svg">
<path fill-rule="evenodd" clip-rule="evenodd" d="M20 7L16 3H5C4.44772 3 4 3.44772 4 4V20C4 20.5523 4.44772 21 5 21H19C19.5523 21 20 20.5523 20 20V7ZM19 20H5V4H15.5V6.5C15.5 7.05228 15.9477 7.5 16.5 7.5H19V20ZM18.0858 6.5L16.5 4.91421V6.5H18.0858Z"/>
<path fill-rule="evenodd" clip-rule="evenodd" d="M15.5 11H16.5V14H18V15H15.5V11Z"/>
<path d="M10.5 11V15H11.5V12.7071L12.5 13.7071L13.5 12.7071V15H14.5V11H13.7929L12.5 12.2929L11.2071 11H10.5Z"/>
<path d="M7.41692 13L6.21692 11H7.38311L8.00001 12.0282L8.61692 11H9.78311L8.58311 13L9.78311 15H8.61692L8.00001 13.9718L7.38311 15H6.21692L7.41692 13Z"/>
</svg>
