<svg viewBox="0 0 24 24" xmlns="http://www.w3.org/2000/svg">
<path fill-rule="evenodd" clip-rule="evenodd" d="M20 7L16 3H5C4.44772 3 4 3.44772 4 4V20C4 20.5523 4.44772 21 5 21H19C19.5523 21 20 20.5523 20 20V7ZM19 20H5V4H15.5V6.5C15.5 7.05228 15.9477 7.5 16.5 7.5H19V20ZM18.0858 6.5L16.5 4.91421V6.5H18.0858Z"/>
<path fill-rule="evenodd" clip-rule="evenodd" d="M14 11H15.75C16.4404 11 17 11.5596 17 12.25C17 12.9404 16.4404 13.5 15.75 13.5H15V15H14V11ZM15 12.5H15.75C15.8881 12.5 16 12.3881 16 12.25C16 12.1119 15.8881 12 15.75 12H15V12.5Z"/>
<path d="M9.99995 15H7V13.7928L8.79285 12H7V11H10V12.2071L8.20706 14H9.99995V15Z"/>
<path d="M13 12H12.5V14H13V15H11V14H11.5V12H11V11H13V12Z"/>
</svg>
