<svg viewBox="0 0 24 24" xmlns="http://www.w3.org/2000/svg">
<path fill-rule="evenodd" clip-rule="evenodd" d="M6.5 17C7.88071 17 9 15.8807 9 14.5C9 13.1193 7.88071 12 6.5 12C5.11929 12 4 13.1193 4 14.5C4 15.8807 5.11929 17 6.5 17ZM6.5 18C8.433 18 10 16.433 10 14.5C10 12.567 8.433 11 6.5 11C4.567 11 3 12.567 3 14.5C3 16.433 4.567 18 6.5 18Z"/>
<path fill-rule="evenodd" clip-rule="evenodd" d="M17.5 17C18.8807 17 20 15.8807 20 14.5C20 13.1193 18.8807 12 17.5 12C16.1193 12 15 13.1193 15 14.5C15 15.8807 16.1193 17 17.5 17ZM17.5 18C19.433 18 21 16.433 21 14.5C21 12.567 19.433 11 17.5 11C15.567 11 14 12.567 14 14.5C14 16.433 15.567 18 17.5 18Z"/>
<path fill-rule="evenodd" clip-rule="evenodd" d="M12 5H13.658C14.0704 5 14.4405 5.25318 14.59 5.63755L17.966 14.3188L17.034 14.6812L13.658 6H12V5Z"/>
<path fill-rule="evenodd" clip-rule="evenodd" d="M9 8H7V7H9V8Z"/>
<path fill-rule="evenodd" clip-rule="evenodd" d="M8 9L6 15H13L15.5 9H8ZM14 10H9.48419L12.4947 13.6126L14 10ZM11.5158 14L8.56696 10.4614L7.38743 14H11.5158Z"/>
</svg>
