<svg viewBox="0 0 24 24" xmlns="http://www.w3.org/2000/svg">
<path d="M8 16C8 16.5523 7.55228 17 7 17C6.44772 17 6 16.5523 6 16C6 15.4477 6.44772 15 7 15C7.55228 15 8 15.4477 8 16Z"/>
<path d="M18 16C18 16.5523 17.5523 17 17 17C16.4477 17 16 16.5523 16 16C16 15.4477 16.4477 15 17 15C17.5523 15 18 15.4477 18 16Z"/>
<path fill-rule="evenodd" clip-rule="evenodd" d="M11.5 12H5V5H11.5V12ZM12.5 12H19V5H12.5V12ZM5 13H19V18H5V13ZM5 4C4.44772 4 4 4.44772 4 5V12V18C4 18.5523 4.44772 19 5 19H19C19.5523 19 20 18.5523 20 18V12V5C20 4.44772 19.5523 4 19 4H5Z"/>
<path fill-rule="evenodd" clip-rule="evenodd" d="M14 16.5H10V15.5H14V16.5Z"/>
<path fill-rule="evenodd" clip-rule="evenodd" d="M6 20V21C6 21.5523 6.44772 22 7 22C7.55228 22 8 21.5523 8 21V20H6Z"/>
<path fill-rule="evenodd" clip-rule="evenodd" d="M16 20V21C16 21.5523 16.4477 22 17 22C17.5523 22 18 21.5523 18 21V20H16Z"/>
<path fill-rule="evenodd" clip-rule="evenodd" d="M2 10V7H3V10H2Z"/>
<path fill-rule="evenodd" clip-rule="evenodd" d="M21 10V7H22V10H21Z"/>
</svg>
