<svg viewBox="0 0 24 24" xmlns="http://www.w3.org/2000/svg">
<path fill-rule="evenodd" clip-rule="evenodd" d="M4.46667 11L6.06401 7.57711C6.22831 7.22504 6.58167 7 6.9702 7H15.0298C15.4183 7 15.7717 7.22504 15.936 7.57711L17.6038 11.1509L21.2425 12.0606C21.6877 12.1719 22 12.5719 22 13.0308V15.5C22 15.7761 21.7761 16 21.5 16H20V15H21V13.0308L16.8769 12H3V15H4V16H3C2.44772 16 2 15.5523 2 15V12C2 11.4477 2.44772 11 3 11H4.46667ZM10.5 8V11H5.5702L6.9702 8L10.5 8ZM16.4298 11L15.0298 8H11.5V11H16.4298Z"/>
<path d="M15 15H9V16H15V15Z"/>
<path fill-rule="evenodd" clip-rule="evenodd" d="M6.5 16C6.77614 16 7 15.7761 7 15.5C7 15.2239 6.77614 15 6.5 15C6.22386 15 6 15.2239 6 15.5C6 15.7761 6.22386 16 6.5 16ZM6.5 17C7.32843 17 8 16.3284 8 15.5C8 14.6716 7.32843 14 6.5 14C5.67157 14 5 14.6716 5 15.5C5 16.3284 5.67157 17 6.5 17Z"/>
<path fill-rule="evenodd" clip-rule="evenodd" d="M17.5 16C17.7761 16 18 15.7761 18 15.5C18 15.2239 17.7761 15 17.5 15C17.2239 15 17 15.2239 17 15.5C17 15.7761 17.2239 16 17.5 16ZM17.5 17C18.3284 17 19 16.3284 19 15.5C19 14.6716 18.3284 14 17.5 14C16.6716 14 16 14.6716 16 15.5C16 16.3284 16.6716 17 17.5 17Z"/>
</svg>
