<svg viewBox="0 0 24 24" xmlns="http://www.w3.org/2000/svg">
<path fill-rule="evenodd" clip-rule="evenodd" d="M20 19H4V18H20V19Z"/>
<path fill-rule="evenodd" clip-rule="evenodd" d="M6.2571 12.9289L4.25944 11.7756L5.70284 14.1127L19.956 10.2936C19.8131 9.76014 19.2647 9.44356 18.7313 9.5865L14.3506 10.7603L8.934 6.00001L8.37629 6.14945L11.8611 11.4274L6.2571 12.9289ZM6.77732 5.54262L8.67518 5.03409C8.99814 4.94755 9.34298 5.02815 9.59413 5.24887L14.6087 9.65585L18.4725 8.62058C19.5394 8.33469 20.6361 8.96786 20.9219 10.0348C21.0649 10.5683 20.7483 11.1166 20.2148 11.2595L5.96166 15.0787C5.5351 15.193 5.08407 15.0139 4.85203 14.6382L2.5 10.8298L3.54879 10.5488C3.80497 10.4802 4.07792 10.5161 4.30761 10.6487L6.39838 11.8558L10.2621 10.8205L6.77732 5.54262Z"/>
</svg>
