<svg viewBox="0 0 24 24" xmlns="http://www.w3.org/2000/svg">
<path fill-rule="evenodd" clip-rule="evenodd" d="M20 19H4V18H20V19Z"/>
<path fill-rule="evenodd" clip-rule="evenodd" d="M5.70418 10.6366L4.55084 8.63898L4.63229 11.3847L18.8855 15.2038C19.0284 14.6704 18.7118 14.122 18.1784 13.9791L13.7977 12.8053L11.4869 5.97446L10.9292 5.82502L11.3081 12.1382L5.70418 10.6366ZM9.84787 4.5L11.7457 5.00853C12.0687 5.09507 12.327 5.33729 12.4342 5.65401L14.5735 11.9779L18.4372 13.0132C19.5041 13.299 20.1373 14.3957 19.8514 15.4626C19.7084 15.9961 19.1601 16.3127 18.6266 16.1698L4.37347 12.3506C3.94691 12.2363 3.64583 11.8558 3.63273 11.4144L3.5 6.9402L4.54879 7.22122C4.80497 7.28986 5.02339 7.45746 5.156 7.68715L6.3631 9.77792L10.2268 10.8132L9.84787 4.5Z"/>
</svg>
