<svg viewBox="0 0 24 24" xmlns="http://www.w3.org/2000/svg">
<path fill-rule="evenodd" clip-rule="evenodd" d="M11 18L9 19.5L9 20.382L12 18.882L15 20.382L15 19.5L13 18L13 12.1743L20 14.1743L20 13.5803L13 9.58032L13 5C13 4.44772 12.5523 4 12 4C11.4477 4 11 4.44771 11 5L11 9.58032L4 13.5803L4 14.1743L11 12.1743L11 18ZM3 15.5L3 13.5803C3 13.2215 3.19229 12.8901 3.50386 12.7121L10 9L10 5C10 3.89543 10.8954 3 12 3C13.1046 3 14 3.89543 14 5L14 9L20.4961 12.7121C20.8077 12.8901 21 13.2215 21 13.5803L21 15.5L14 13.5L14 17.5L15.6 18.7C15.8518 18.8889 16 19.1852 16 19.5L16 22L12 20L8 22L8 19.5C8 19.1852 8.14819 18.8889 8.4 18.7L10 17.5L10 13.5L3 15.5Z"/>
</svg>
