<svg viewBox="0 0 24 24" xmlns="http://www.w3.org/2000/svg">
<path fill-rule="evenodd" clip-rule="evenodd" d="M17 21H5V20H17V21Z"/>
<path fill-rule="evenodd" clip-rule="evenodd" d="M13 6H9L9 10H13V6ZM9 5C8.44772 5 8 5.44772 8 6V10C8 10.5523 8.44772 11 9 11H13C13.5523 11 14 10.5523 14 10V6C14 5.44772 13.5523 5 13 5H9Z"/>
<path fill-rule="evenodd" clip-rule="evenodd" d="M17.8536 5.64645L19.5607 7.35356C19.842 7.63487 20 8.0164 20 8.41422V17.5C20 18.3284 19.3284 19 18.5 19C17.6716 19 17 18.3284 17 17.5V13C17 12.7239 16.7761 12.5 16.5 12.5H15.5V11.5H16.5C17.3284 11.5 18 12.1716 18 13V17.5C18 17.7761 18.2239 18 18.5 18C18.7761 18 19 17.7761 19 17.5V10.2071L18.4393 9.64645C18.158 9.36515 18 8.98362 18 8.58579V7.20711L17.1464 6.35356L17.8536 5.64645Z"/>
<path fill-rule="evenodd" clip-rule="evenodd" d="M7 4H15V18V19H16V4C16 3.44772 15.5523 3 15 3H7C6.44772 3 6 3.44772 6 4V19H7V18V4Z"/>
</svg>
