<svg viewBox="0 0 24 24" xmlns="http://www.w3.org/2000/svg">
<path fill-rule="evenodd" clip-rule="evenodd" d="M7 9H5V11H7V9ZM5 8C4.44772 8 4 8.44772 4 9V11C4 11.5523 4.44772 12 5 12H7C7.55228 12 8 11.5523 8 11V9C8 8.44772 7.55228 8 7 8H5Z"/>
<path fill-rule="evenodd" clip-rule="evenodd" d="M12 9H10V11H12V9ZM10 8C9.44772 8 9 8.44772 9 9V11C9 11.5523 9.44772 12 10 12H12C12.5523 12 13 11.5523 13 11V9C13 8.44772 12.5523 8 12 8H10Z"/>
<path fill-rule="evenodd" clip-rule="evenodd" d="M14 7V13H4C3.44772 13 3 13.4477 3 14V16C3 16.5523 3.44772 17 4 17H5V16H4V14H14V16H10V17H15V12H20V17C20.5523 17 21 16.5523 21 16V11L18 7H14ZM19.75 11L17.5 8H15V11H19.75Z"/>
<path fill-rule="evenodd" clip-rule="evenodd" d="M7.5 17C7.77614 17 8 16.7761 8 16.5C8 16.2239 7.77614 16 7.5 16C7.22386 16 7 16.2239 7 16.5C7 16.7761 7.22386 17 7.5 17ZM7.5 18C8.32843 18 9 17.3284 9 16.5C9 15.6716 8.32843 15 7.5 15C6.67157 15 6 15.6716 6 16.5C6 17.3284 6.67157 18 7.5 18Z"/>
<path fill-rule="evenodd" clip-rule="evenodd" d="M17.5 17C17.7761 17 18 16.7761 18 16.5C18 16.2239 17.7761 16 17.5 16C17.2239 16 17 16.2239 17 16.5C17 16.7761 17.2239 17 17.5 17ZM17.5 18C18.3284 18 19 17.3284 19 16.5C19 15.6716 18.3284 15 17.5 15C16.6716 15 16 15.6716 16 16.5C16 17.3284 16.6716 18 17.5 18Z"/>
</svg>
