<svg viewBox="0 0 24 24" xmlns="http://www.w3.org/2000/svg">
<path fill-rule="evenodd" clip-rule="evenodd" d="M11.9511 16C12.293 16 12.6112 15.8253 12.7947 15.5369L16 10.5L15 8H13C11.8954 8 11 8.89543 11 10H8.41421C8.149 10 7.89464 9.89464 7.70711 9.70711L7.29289 9.29289C7.10536 9.10536 6.851 9 6.58579 9H4C3.44772 9 3 9.44772 3 10C3 10.5523 3.44772 11 4 11H8.5L6 16H11.9511ZM7.61803 15H11.9511L14.8812 10.3955L14.323 9H13C12.4477 9 12 9.44772 12 10V11H9.61803L7.61803 15Z"/>
<path fill-rule="evenodd" clip-rule="evenodd" d="M13.1615 5H12V6H13.1615L14.09 5.62861L13.1615 6L17.0358 15.6857L17.9642 15.3143L15.4385 9H16C16.5523 9 17 8.55228 17 8C17 7.44772 16.5523 7 16 7H14.6385L14.09 5.62861C13.9381 5.24895 13.5704 5 13.1615 5Z"/>
<path fill-rule="evenodd" clip-rule="evenodd" d="M6.5 18C7.88071 18 9 16.8807 9 15.5C9 14.1193 7.88071 13 6.5 13C5.11929 13 4 14.1193 4 15.5C4 16.8807 5.11929 18 6.5 18ZM6.5 19C8.433 19 10 17.433 10 15.5C10 13.567 8.433 12 6.5 12C4.567 12 3 13.567 3 15.5C3 17.433 4.567 19 6.5 19Z"/>
<path fill-rule="evenodd" clip-rule="evenodd" d="M17.5 18C18.8807 18 20 16.8807 20 15.5C20 14.1193 18.8807 13 17.5 13C16.1193 13 15 14.1193 15 15.5C15 16.8807 16.1193 18 17.5 18ZM17.5 19C19.433 19 21 17.433 21 15.5C21 13.567 19.433 12 17.5 12C15.567 12 14 13.567 14 15.5C14 17.433 15.567 19 17.5 19Z"/>
</svg>
