<svg viewBox="0 0 24 24" xmlns="http://www.w3.org/2000/svg">
<path fill-rule="evenodd" clip-rule="evenodd" d="M10.9912 20C11.0052 20.6528 11.1072 21.2814 11.587 21.7201C11.8193 21.9325 12.1805 21.9325 12.4128 21.7201C12.8926 21.2814 12.9946 20.6528 13.0086 20H10.9912Z"/>
<path fill-rule="evenodd" clip-rule="evenodd" d="M8.4767 14.0115C8.13393 11.7032 7.95995 9.11973 8.49991 7.5C9.50001 4.50001 12 3 12 3C12 3 14.5 4.5 15.5 7.5C16.0341 9.10223 15.8573 11.6933 15.5143 14.0107C16.9075 14.1339 18 15.304 18 16.7293V20L14.8326 17.6245C14.6415 18.4703 14.5 19 14.5 19H9.49995C9.49995 19 9.35684 18.4716 9.16397 17.627L6 20V16.7293C6 15.3071 7.08776 14.139 8.4767 14.0115ZM14.5513 7.81623C14.7827 8.51043 14.8685 9.51952 14.8299 10.7216C14.7919 11.9038 14.6375 13.1878 14.4444 14.3858C14.431 14.4691 14.4173 14.5519 14.4036 14.6342C14.3907 14.6749 14.3805 14.717 14.3733 14.7602L14.2476 15.5143C14.108 16.2609 13.9646 16.9318 13.8429 17.4672C13.7981 17.6645 13.7563 17.8431 13.7188 18H10.2788C10.2412 17.8443 10.1992 17.6671 10.1542 17.4714C10.0479 17.0089 9.9252 16.4446 9.80287 15.8172L9.6267 14.7602C9.61665 14.6999 9.60081 14.6418 9.5798 14.5865C9.5696 14.5253 9.55948 14.4639 9.54946 14.4022C9.35545 13.2076 9.20066 11.9256 9.16344 10.742C9.12562 9.5393 9.21288 8.52332 9.44859 7.81626C9.88572 6.505 10.6561 5.50812 11.3321 4.83211C11.5782 4.58601 11.8085 4.38579 12 4.23183C12.1915 4.38579 12.4218 4.58601 12.6679 4.83211C13.3439 5.50811 14.1142 6.50498 14.5513 7.81623ZM8.63615 15.0025C7.7244 15.0509 7 15.8055 7 16.7293V18L8.91366 16.5648L8.81872 15.9951C8.75707 15.6784 8.69553 15.346 8.63615 15.0025ZM15.2324 15.6883L15.0863 16.5648L17 18V16.7293C17 15.8027 16.2712 15.0463 15.3555 15.002C15.3152 15.2365 15.274 15.4657 15.2324 15.6883Z"/>
<path fill-rule="evenodd" clip-rule="evenodd" d="M12 10C12.5523 10 13 9.55228 13 9C13 8.44772 12.5523 8 12 8C11.4477 8 11 8.44772 11 9C11 9.55228 11.4477 10 12 10Z"/>
</svg>
