<svg viewBox="0 0 24 24" xmlns="http://www.w3.org/2000/svg">
<path fill-rule="evenodd" clip-rule="evenodd" d="M17 6V9H18C18.5523 9 19 9.44772 19 10V13.3333L20.0917 13.6972C20.5996 13.8665 20.8841 14.4058 20.737 14.9206L20.1429 17H19.1029L19.7755 14.6459L12 12.0541L4.22459 14.6459L4.89719 17H3.85717L3.26306 14.9206C3.11598 14.4058 3.40044 13.8665 3.90836 13.6972L5 13.3333V10C5 9.44772 5.44772 9 6 9H7V6C7 5.44772 7.44772 5 8 5H16C16.5523 5 17 5.44772 17 6ZM18 10V13L12.3163 11.1054C12.111 11.037 11.8891 11.037 11.6838 11.1054L6 13V10H18ZM8 9V6H16V9H8Z"/>
<path fill-rule="evenodd" clip-rule="evenodd" d="M10 8H9V7H10V8Z"/>
<path fill-rule="evenodd" clip-rule="evenodd" d="M12.5 8H11.5V7H12.5V8Z"/>
<path fill-rule="evenodd" clip-rule="evenodd" d="M15 8H14V7H15V8Z"/>
<path d="M21 19.691L20.1708 20.1056C19.7485 20.3167 19.2515 20.3167 18.8292 20.1056L18.618 20C17.9142 19.6481 17.0858 19.6481 16.382 20L16.1708 20.1056C15.7485 20.3167 15.2515 20.3167 14.8292 20.1056L14.618 20C13.9142 19.6481 13.0858 19.6481 12.382 20L12.1708 20.1056C11.7485 20.3167 11.2515 20.3167 10.8292 20.1056L10.618 20C9.91422 19.6481 9.08579 19.6481 8.38197 20L8.17083 20.1056C7.74854 20.3167 7.25148 20.3167 6.82919 20.1056L6.47401 19.928C5.8495 19.6157 5.10555 19.662 4.52459 20.0493C4.20693 20.2611 3.79309 20.2611 3.47542 20.0493L3 19.7324V20.9315C3.64202 21.3164 4.45185 21.2997 5.07929 20.8814C5.36166 20.6931 5.72326 20.6706 6.0268 20.8224L6.38197 21C7.08579 21.3519 7.91422 21.3519 8.61804 21L8.82919 20.8944C9.25148 20.6833 9.74854 20.6833 10.1708 20.8944L10.382 21C11.0858 21.3519 11.9142 21.3519 12.618 21L12.8292 20.8944C13.2515 20.6833 13.7485 20.6833 14.1708 20.8944L14.382 21C15.0858 21.3519 15.9142 21.3519 16.618 21L16.8292 20.8944C17.2515 20.6833 17.7485 20.6833 18.1708 20.8944L18.382 21C19.0858 21.3519 19.9142 21.3519 20.618 21L21 20.809V19.691Z"/>
<path d="M21 17.691L20.1708 18.1056C19.7485 18.3167 19.2515 18.3167 18.8292 18.1056L18.618 18C17.9142 17.6481 17.0858 17.6481 16.382 18L16.1708 18.1056C15.7485 18.3167 15.2515 18.3167 14.8292 18.1056L14.618 18C13.9142 17.6481 13.0858 17.6481 12.382 18L12.1708 18.1056C11.7485 18.3167 11.2515 18.3167 10.8292 18.1056L10.618 18C9.91422 17.6481 9.08579 17.6481 8.38197 18L8.17083 18.1056C7.74854 18.3167 7.25148 18.3167 6.82919 18.1056L6.47401 17.928C5.8495 17.6157 5.10555 17.662 4.52459 18.0493C4.20693 18.2611 3.79309 18.2611 3.47542 18.0493L3 17.7324V18.9315C3.64202 19.3164 4.45185 19.2997 5.07929 18.8814C5.36166 18.6931 5.72326 18.6706 6.0268 18.8224L6.38197 19C7.08579 19.3519 7.91422 19.3519 8.61804 19L8.82919 18.8944C9.25148 18.6833 9.74854 18.6833 10.1708 18.8944L10.382 19C11.0858 19.3519 11.9142 19.3519 12.618 19L12.8292 18.8944C13.2515 18.6833 13.7485 18.6833 14.1708 18.8944L14.382 19C15.0858 19.3519 15.9142 19.3519 16.618 19L16.8292 18.8944C17.2515 18.6833 17.7485 18.6833 18.1708 18.8944L18.382 19C19.0858 19.3519 19.9142 19.3519 20.618 19L21 18.809V17.691Z"/>
<path fill-rule="evenodd" clip-rule="evenodd" d="M13 4H11V3H13V4Z"/>
</svg>
