<svg viewBox="0 0 24 24" xmlns="http://www.w3.org/2000/svg">
<path fill-rule="evenodd" clip-rule="evenodd" d="M5.5 15C5.22386 15 5 15.2239 5 15.5C5 15.7761 5.22386 16 5.5 16H6.5C6.77614 16 7 15.7761 7 15.5C7 15.2239 6.77614 15 6.5 15H5.5Z"/>
<path fill-rule="evenodd" clip-rule="evenodd" d="M17.5 15C17.2239 15 17 15.2239 17 15.5C17 15.7761 17.2239 16 17.5 16H18.5C18.7761 16 19 15.7761 19 15.5C19 15.2239 18.7761 15 18.5 15H17.5Z"/>
<path fill-rule="evenodd" clip-rule="evenodd" d="M15 16H9V15H15V16Z"/>
<path fill-rule="evenodd" clip-rule="evenodd" d="M4 11.5L4.15385 11H3V10H4.46154L5.34839 7.11774C5.7357 5.85897 6.89871 5 8.21572 5H15.7843C17.1013 5 18.2643 5.85897 18.6516 7.11774L19.5385 10H21V11H19.8462L20 11.5L20.9285 13.8212C20.9757 13.9393 21 14.0654 21 14.1926V17C21 17.5523 20.5523 18 20 18H4C3.44772 18 3 17.5523 3 17V14.1926C3 14.0654 3.02428 13.9393 3.07152 13.8212L4 11.5ZM18.7999 11L17.6958 7.41183C17.4376 6.57265 16.6623 6 15.7843 6H8.21572C7.33771 6 6.56238 6.57264 6.30417 7.41183L5.20011 11H18.7999ZM4.87703 12H19.123L20 14.1926V17H4V14.1926L4.87703 12Z"/>
<path fill-rule="evenodd" clip-rule="evenodd" d="M14 4H10V3H14V4Z"/>
<path fill-rule="evenodd" clip-rule="evenodd" d="M4.08535 20C4.03008 19.8436 4 19.6753 4 19.5V19H7V19.5C7 19.6753 6.96992 19.8436 6.91465 20C6.70873 20.5826 6.15311 21 5.5 21C4.84689 21 4.29127 20.5826 4.08535 20Z"/>
<path fill-rule="evenodd" clip-rule="evenodd" d="M17.0854 20C17.0301 19.8436 17 19.6753 17 19.5V19H20V19.5C20 19.6753 19.9699 19.8436 19.9146 20C19.7087 20.5826 19.1531 21 18.5 21C17.8469 21 17.2913 20.5826 17.0854 20Z"/>
</svg>
