<svg viewBox="0 0 24 24" xmlns="http://www.w3.org/2000/svg">
<path fill-rule="evenodd" clip-rule="evenodd" d="M17 7H7L7 11H17V7ZM7 6C6.44772 6 6 6.44772 6 7V11C6 11.5523 6.44772 12 7 12H17C17.5523 12 18 11.5523 18 11V7C18 6.44772 17.5523 6 17 6H7Z"/>
<path d="M8 16C8 16.5523 7.55228 17 7 17C6.44772 17 6 16.5523 6 16C6 15.4477 6.44772 15 7 15C7.55228 15 8 15.4477 8 16Z"/>
<path d="M18 16C18 16.5523 17.5523 17 17 17C16.4477 17 16 16.5523 16 16C16 15.4477 16.4477 15 17 15C17.5523 15 18 15.4477 18 16Z"/>
<path fill-rule="evenodd" clip-rule="evenodd" d="M10 3C9.44772 3 9 3.44772 9 4H5C4.44772 4 4 4.44772 4 5V18C4 18.5523 4.44772 19 5 19H19C19.5523 19 20 18.5523 20 18V5C20 4.44772 19.5523 4 19 4H15C15 3.44772 14.5523 3 14 3H10ZM15 5H19V18H5V5H9H15Z"/>
<path d="M18.0164 22L16.9053 20H7.09463L5.98352 22H7.12748L7.68304 21H16.3169L16.8724 22H18.0164Z"/>
</svg>
