<svg viewBox="0 0 24 24" xmlns="http://www.w3.org/2000/svg">
<path fill-rule="evenodd" clip-rule="evenodd" d="M20 6H4V18H20V6ZM4 5C3.44772 5 3 5.44772 3 6V18C3 18.5523 3.44772 19 4 19H20C20.5523 19 21 18.5523 21 18V6C21 5.44772 20.5523 5 20 5H4Z"/>
<path fill-rule="evenodd" clip-rule="evenodd" d="M6 11C6 9.61929 7.11929 8.5 8.5 8.5H11V9.5H8.5C7.67157 9.5 7 10.1716 7 11V13C7 13.8284 7.67157 14.5 8.5 14.5H11V15.5H8.5C7.11929 15.5 6 14.3807 6 13V11Z"/>
<path fill-rule="evenodd" clip-rule="evenodd" d="M13 11C13 9.61929 14.1193 8.5 15.5 8.5H18V9.5H15.5C14.6716 9.5 14 10.1716 14 11V13C14 13.8284 14.6716 14.5 15.5 14.5H18V15.5H15.5C14.1193 15.5 13 14.3807 13 13V11Z"/>
</svg>
