<svg viewBox="0 0 24 24" xmlns="http://www.w3.org/2000/svg">
<path fill-rule="evenodd" clip-rule="evenodd" d="M16 8H6V7H16V8Z"/>
<path fill-rule="evenodd" clip-rule="evenodd" d="M16 11H6V10H16V11Z"/>
<path fill-rule="evenodd" clip-rule="evenodd" d="M12 14H6V13H12V14Z"/>
<path d="M18 5H4V19H14C14 19.3506 14.0602 19.6872 14.1707 20H4C3.44772 20 3 19.5523 3 19V5C3 4.44772 3.44772 4 4 4H18C18.5523 4 19 4.44772 19 5V11H18V5Z"/>
<path fill-rule="evenodd" clip-rule="evenodd" d="M21 12H18V17.2676C17.7058 17.0974 17.3643 17 17 17C15.8954 17 15 17.8954 15 19C15 20.1046 15.8954 21 17 21C18.1046 21 19 20.1046 19 19V13H21V12ZM18 19C18 18.4477 17.5523 18 17 18C16.4477 18 16 18.4477 16 19C16 19.5523 16.4477 20 17 20C17.5523 20 18 19.5523 18 19Z"/>
</svg>
