<svg viewBox="0 0 24 24" xmlns="http://www.w3.org/2000/svg">
<path fill-rule="evenodd" clip-rule="evenodd" d="M14 12V6C14 4.89543 13.1046 4 12 4C10.8954 4 10 4.89543 10 6V12C10 13.1046 10.8954 14 12 14C13.1046 14 14 13.1046 14 12ZM12 3C10.3431 3 9 4.34315 9 6V12C9 13.6569 10.3431 15 12 15C13.6569 15 15 13.6569 15 12V6C15 4.34315 13.6569 3 12 3Z"/>
<path d="M6.5 12C6.5 14.869 8.69675 17.225 11.5 17.4776V20H9V21H15V20H12.5V17.4776C15.3033 17.225 17.5 14.869 17.5 12H16.5C16.5 14.4853 14.4853 16.5 12 16.5C9.51472 16.5 7.5 14.4853 7.5 12H6.5Z"/>
</svg>
