<svg viewBox="0 0 24 24" xmlns="http://www.w3.org/2000/svg">
<path d="M6.5 12C6.5 14.869 8.69675 17.225 11.5 17.4776V20H9V21H15V20H12.5V17.4776C15.3033 17.225 17.5 14.869 17.5 12H16.5C16.5 14.4853 14.4853 16.5 12 16.5C9.51472 16.5 7.5 14.4853 7.5 12H6.5Z"/>
<path fill-rule="evenodd" clip-rule="evenodd" d="M3.64642 4.35358L19.6464 20.3536L20.3535 19.6465L4.35353 3.64647L3.64642 4.35358Z"/>
<path d="M10 9.30713V12C10 13.1046 10.8954 14 12 14C12.73 14 13.3686 13.6089 13.7178 13.0249L14.4394 13.7466C13.8951 14.5055 13.0053 15 12 15C10.3431 15 9 13.6569 9 12V8.30713L10 9.30713Z"/>
<path d="M14 11.8929V6C14 4.89543 13.1046 4 12 4C10.8954 4 10 4.89543 10 6V7.89291L9 6.89291V6C9 4.34315 10.3431 3 12 3C13.6569 3 15 4.34315 15 6V12C15 12.2728 14.9636 12.5371 14.8954 12.7883L14 11.8929Z"/>
</svg>
