<svg viewBox="0 0 24 24" xmlns="http://www.w3.org/2000/svg">
<path fill-rule="evenodd" clip-rule="evenodd" d="M19 5.0728C19 4.46682 18.4653 4.0001 17.8649 4.08197L7.86489 5.44561C7.3694 5.51318 7 5.93637 7 6.43644V15.4998C6.58217 15.186 6.0628 15 5.5 15C4.11929 15 3 16.1193 3 17.5C3 18.8807 4.11929 20 5.5 20C6.88071 20 8 18.8807 8 17.5V9.4365L18 8.07286V14.4998C17.5822 14.186 17.0628 14 16.5 14C15.1193 14 14 15.1193 14 16.5C14 17.8807 15.1193 19 16.5 19C17.8807 19 19 17.8807 19 16.5V5.0728ZM18 16.5C18 15.6716 17.3284 15 16.5 15C15.6716 15 15 15.6716 15 16.5C15 17.3284 15.6716 18 16.5 18C17.3284 18 18 17.3284 18 16.5ZM18 7.06361V5.0728L8 6.43644V8.42724L18 7.06361ZM7 17.5C7 16.6716 6.32843 16 5.5 16C4.67157 16 4 16.6716 4 17.5C4 18.3284 4.67157 19 5.5 19C6.32843 19 7 18.3284 7 17.5Z"/>
</svg>
