<svg viewBox="0 0 24 24" xmlns="http://www.w3.org/2000/svg">
<path fill-rule="evenodd" clip-rule="evenodd" d="M4 5C3.44772 5 3 5.44772 3 6V20C3 20.5523 3.44772 21 4 21H18C18.5523 21 19 20.5523 19 20H4V5Z"/>
<path fill-rule="evenodd" clip-rule="evenodd" d="M20 4H6V18H20V4ZM6 3C5.44772 3 5 3.44772 5 4V18C5 18.5523 5.44772 19 6 19H20C20.5523 19 21 18.5523 21 18V4C21 3.44772 20.5523 3 20 3H6Z"/>
<path fill-rule="evenodd" clip-rule="evenodd" d="M16 7H13V12.2676C12.7058 12.0974 12.3643 12 12 12C10.8954 12 10 12.8954 10 14C10 15.1046 10.8954 16 12 16C13.1046 16 14 15.1046 14 14V8H16V7ZM13 14C13 13.4477 12.5523 13 12 13C11.4477 13 11 13.4477 11 14C11 14.5523 11.4477 15 12 15C12.5523 15 13 14.5523 13 14Z"/>
</svg>
