<svg viewBox="0 0 24 24" xmlns="http://www.w3.org/2000/svg">
<path fill-rule="evenodd" clip-rule="evenodd" d="M13 8H4V7H13V8Z"/>
<path fill-rule="evenodd" clip-rule="evenodd" d="M13 11H4V10H13V11Z"/>
<path fill-rule="evenodd" clip-rule="evenodd" d="M9 14H4V13H9V14Z"/>
<path fill-rule="evenodd" clip-rule="evenodd" d="M20 5H16V13.7639C15.4692 13.2889 14.7684 13 14 13C12.3431 13 11 14.3431 11 16C11 17.6569 12.3431 19 14 19C15.6569 19 17 17.6569 17 16V6H20V5ZM16 16C16 14.8954 15.1046 14 14 14C12.8954 14 12 14.8954 12 16C12 17.1046 12.8954 18 14 18C15.1046 18 16 17.1046 16 16Z"/>
</svg>
