<svg viewBox="0 0 24 24" xmlns="http://www.w3.org/2000/svg">
<path d="M5.22389 10.1218L4.41161 8.7137L3.54541 9.21339L5.2081 12.0956L8.09206 10.4319L7.59237 9.56572L6.19246 10.3733C7.20398 7.02908 10.6961 5.06948 14.0954 5.9803C17.5629 6.90942 19.6207 10.4736 18.6916 13.9411C18.3336 15.2769 17.5856 16.4024 16.6026 17.2293C15.0312 18.5512 12.8627 19.1086 10.7307 18.5373C8.60008 17.9664 7.00141 16.4011 6.30086 14.4722L5.36094 14.8136C6.16816 17.0362 8.01259 18.8443 10.4719 19.5033C12.9327 20.1626 15.4357 19.5178 17.2463 17.9945C18.3809 17.04 19.2449 15.7399 19.6575 14.2C20.7295 10.199 18.3552 6.08644 14.3542 5.01438C10.4189 3.95993 6.37579 6.23958 5.22389 10.1218Z"/>
</svg>
