<svg viewBox="0 0 24 24" xmlns="http://www.w3.org/2000/svg">
<path d="M18.7884 7.49622L17.645 6.35366L18.3519 5.6463L20.7056 7.99831L18.3521 10.3534L17.6448 9.64655L18.7943 8.49622H14.8541C13.9072 8.49622 13.0415 9.03122 12.618 9.87818L10.2764 14.5615C9.68352 15.7472 8.4716 16.4962 7.1459 16.4962H3V15.4962H7.1459C8.09283 15.4962 8.95849 14.9612 9.38197 14.1143L11.7236 9.43097C12.3165 8.24522 13.5284 7.49622 14.8541 7.49622H18.7884Z"/>
<path d="M12.618 14.1218C13.0415 14.9688 13.9072 15.5038 14.8541 15.5038H18.7943L17.6448 14.3534L18.3521 13.6466L20.7056 16.0017L18.3519 18.3537L17.645 17.6463L18.7884 16.5038H14.8541C13.5284 16.5038 12.3165 15.7548 11.7236 14.569L9.38197 9.88575C8.95849 9.03879 8.09283 8.50378 7.1459 8.50378H3V7.50378H7.1459C8.4716 7.50378 9.68352 8.25279 10.2764 9.43854L12.618 14.1218Z"/>
</svg>
