<svg viewBox="0 0 24 24" xmlns="http://www.w3.org/2000/svg">
<path fill-rule="evenodd" clip-rule="evenodd" d="M20 6H4V18H20V6ZM4 5C3.44772 5 3 5.44772 3 6V18C3 18.5523 3.44772 19 4 19H20C20.5523 19 21 18.5523 21 18V6C21 5.44772 20.5523 5 20 5H4Z"/>
<path fill-rule="evenodd" clip-rule="evenodd" d="M14 15H6V14H14V15Z"/>
<path fill-rule="evenodd" clip-rule="evenodd" d="M18 15H15V14H18V15Z"/>
<path fill-rule="evenodd" clip-rule="evenodd" d="M8 17H12V16H8V17Z"/>
<path fill-rule="evenodd" clip-rule="evenodd" d="M13 17H16V16H13V17Z"/>
</svg>
