<svg viewBox="0 0 24 24" xmlns="http://www.w3.org/2000/svg">
<path fill-rule="evenodd" clip-rule="evenodd" d="M20.0526 5.94737H3.94737L3.94737 5.94737V18.0526L20.0526 18.0526V5.94737ZM3.94737 5C3.42415 5 3 5.42415 3 5.94737V18.0526C3 18.5758 3.42415 19 3.94737 19H20.0526C20.5758 19 21 18.5758 21 18.0526V5.94737C21 5.42415 20.5758 5 20.0526 5H3.94737Z"/>
<path d="M5.5 7H6.5V8H5.5V7Z"/>
<path d="M8.5 7H9.5V8H8.5V7Z"/>
<path d="M11.5 7H12.5V8H11.5V7Z"/>
<path d="M14.5 7H15.5V8H14.5V7Z"/>
<path d="M17.5 7H18.5V8H17.5V7Z"/>
<path d="M5.5 16H6.5V17H5.5V16Z"/>
<path d="M8.5 16H9.5V17H8.5V16Z"/>
<path d="M11.5 16H12.5V17H11.5V16Z"/>
<path d="M14.5 16H15.5V17H14.5V16Z"/>
<path d="M17.5 16H18.5V17H17.5V16Z"/>
<path fill-rule="evenodd" clip-rule="evenodd" d="M10 9V15L15 12L10 9ZM11 10.7662V13.2338L13.0563 12L11 10.7662Z"/>
</svg>
