<svg viewBox="0 0 24 24" xmlns="http://www.w3.org/2000/svg">
<path d="M15.3301 9L12.5963 13.7352L13.1736 14.7352L16.482 9.00482L16.4737 9H15.3301Z"/>
<path fill-rule="evenodd" clip-rule="evenodd" d="M12.0193 16.7344L13.9784 20.1276L13.9844 20.1381C14.5367 21.0947 15.7599 21.4225 16.7165 20.8702C17.6731 20.3179 18.0008 19.0947 17.4485 18.1381C16.8963 17.1815 15.6731 16.8538 14.7165 17.4061C14.401 17.5882 14.154 17.8433 13.9843 18.1377L8.70859 9H7.55389L11.442 15.7344L9.98222 18.2628C9.81255 17.9683 9.56546 17.7132 9.24997 17.5311C8.29338 16.9788 7.0702 17.3065 6.51792 18.2631C5.96563 19.2197 6.29338 20.4429 7.24997 20.9952C8.20655 21.5474 9.42971 21.2197 9.98201 20.2631L12.0193 16.7344ZM7.74997 20.1291C8.22826 20.4053 8.83985 20.2414 9.11599 19.7631C9.39214 19.2848 9.22826 18.6732 8.74997 18.3971C8.27168 18.1209 7.66008 18.2848 7.38394 18.7631C7.1078 19.2414 7.27167 19.853 7.74997 20.1291ZM14.8505 19.6382L14.8462 19.6307C14.576 19.1535 14.7407 18.5468 15.2165 18.2721C15.6948 17.9959 16.3064 18.1598 16.5825 18.6381C16.8587 19.1164 16.6948 19.728 16.2165 20.0041C15.7382 20.2803 15.1267 20.1164 14.8505 19.6382Z"/>
<path d="M4 6V18H5.52866C5.37841 18.3227 5.29045 18.661 5.26083 19H3.94737C3.42415 19 3 18.5758 3 18.0526V5.94737C3 5.42415 3.42415 5 3.94737 5H20.0526C20.5758 5 21 5.42415 21 5.94737V18.0526C21 18.5758 20.5758 19 20.0526 19H18.7139C18.6987 18.6629 18.6262 18.3247 18.4926 18H20V6H4Z"/>
</svg>
