<svg viewBox="0 0 24 24" xmlns="http://www.w3.org/2000/svg">
<path fill-rule="evenodd" clip-rule="evenodd" d="M6.5 15V8.99998H4V15H6.5ZM7.5 15.1338V8.86616L15 4.6995V19.3005L7.5 15.1338ZM7 7.99998L14.5144 3.82534C15.1809 3.45505 16 3.93701 16 4.6995V19.3005C16 20.063 15.1809 20.5449 14.5144 20.1746L7 16H4C3.44772 16 3 15.5523 3 15V8.99998C3 8.4477 3.44772 7.99998 4 7.99998H7Z"/>
<path d="M17 14C18.1046 14 19 13.1046 19 12C19 10.8954 18.1046 10 17 10V11C17.5523 11 18 11.4477 18 12C18 12.5523 17.5523 13 17 13V14Z"/>
</svg>
