<svg viewBox="0 0 24 24" xmlns="http://www.w3.org/2000/svg">
<path fill-rule="evenodd" clip-rule="evenodd" d="M3.64642 4.35358L19.6464 20.3536L20.3535 19.6465L4.35353 3.64647L3.64642 4.35358Z"/>
<path fill-rule="evenodd" clip-rule="evenodd" d="M8.08826 7.39539L7 7.99998H4C3.44772 7.99998 3 8.4477 3 8.99998V15C3 15.5523 3.44772 16 4 16H7L14.5144 20.1746C15.1809 20.5449 16 20.063 16 19.3005V15.3071L15 14.3071V19.3005L7.5 15.1338V8.86616L8.82367 8.13079L8.08826 7.39539ZM6.5 8.99998V15H4V8.99998H6.5Z"/>
<path d="M9.7328 7.62572L8.9974 6.89032L14.5144 3.82534C15.1809 3.45505 16 3.93701 16 4.6995V13.8929L15 12.8929V4.6995L9.7328 7.62572Z"/>
</svg>
