<svg viewBox="0 0 24 24" xmlns="http://www.w3.org/2000/svg">
<path fill-rule="evenodd" clip-rule="evenodd" d="M14.3137 3.70413L7.94975 10.0414L13.6066 15.6745L19.9706 9.33726L20.6777 10.0414L14.3137 16.3787C13.9232 16.7676 13.29 16.7676 12.8995 16.3787L11.4192 17.8528C11.2349 18.0363 10.9859 18.1409 10.7253 18.1444L8.2655 18.1767L6.53554 19.8994L5.82845 19.1952L5.0203 20L3 19.1953L4.41423 17.787L3.70711 17.0828L5.43708 15.3601L5.46952 12.9107C5.47295 12.6511 5.57802 12.4032 5.76232 12.2196L7.24263 10.7455C6.85212 10.3567 6.85212 9.72615 7.24264 9.33727L13.6066 3L14.3137 3.70413ZM7.94974 11.4497L6.46943 12.9238L6.43163 15.778L5.12132 17.0828L6.53554 18.4911L7.84584 17.1863L10.7121 17.1486L12.1924 15.6745L7.94974 11.4497Z"/>
</svg>
