<svg viewBox="0 0 24 24" xmlns="http://www.w3.org/2000/svg">
<path fill-rule="evenodd" clip-rule="evenodd" d="M5.5 6.5C5.77614 6.5 6 6.27614 6 6C6 5.72386 5.77614 5.5 5.5 5.5C5.22386 5.5 5 5.72386 5 6C5 6.27614 5.22386 6.5 5.5 6.5ZM7 6C7 6.82843 6.32843 7.5 5.5 7.5C4.67157 7.5 4 6.82843 4 6C4 5.17157 4.67157 4.5 5.5 4.5C6.32843 4.5 7 5.17157 7 6Z"/>
<path fill-rule="evenodd" clip-rule="evenodd" d="M5.5 12.5C5.77614 12.5 6 12.2761 6 12C6 11.7239 5.77614 11.5 5.5 11.5C5.22386 11.5 5 11.7239 5 12C5 12.2761 5.22386 12.5 5.5 12.5ZM7 12C7 12.8284 6.32843 13.5 5.5 13.5C4.67157 13.5 4 12.8284 4 12C4 11.1716 4.67157 10.5 5.5 10.5C6.32843 10.5 7 11.1716 7 12Z"/>
<path fill-rule="evenodd" clip-rule="evenodd" d="M5.5 18.5C5.77614 18.5 6 18.2761 6 18C6 17.7239 5.77614 17.5 5.5 17.5C5.22386 17.5 5 17.7239 5 18C5 18.2761 5.22386 18.5 5.5 18.5ZM7 18C7 18.8284 6.32843 19.5 5.5 19.5C4.67157 19.5 4 18.8284 4 18C4 17.1716 4.67157 16.5 5.5 16.5C6.32843 16.5 7 17.1716 7 18Z"/>
<path fill-rule="evenodd" clip-rule="evenodd" d="M20 6.5H8V5.5H20V6.5Z"/>
<path fill-rule="evenodd" clip-rule="evenodd" d="M20 12.5H8V11.5H20V12.5Z"/>
<path fill-rule="evenodd" clip-rule="evenodd" d="M20 18.5H8V17.5H20V18.5Z"/>
</svg>
