<svg viewBox="0 0 24 24" xmlns="http://www.w3.org/2000/svg">
<path fill-rule="evenodd" clip-rule="evenodd" d="M20 6.5H8V5.5H20V6.5Z"/>
<path fill-rule="evenodd" clip-rule="evenodd" d="M20 18.5H8V17.5H20V18.5Z"/>
<path fill-rule="evenodd" clip-rule="evenodd" d="M20 12.5H8V11.5H20V12.5Z"/>
<path d="M6 6.99999V3.80627L4.50003 4.30627V5.36036L5 5.1937V6.99999H4.5V7.99999H6.5V6.99999H6Z"/>
<path d="M4 17H5.5L4.7 17.6L5 18.5H5.5C5.77614 18.5 6 18.7239 6 19C6 19.2761 5.77614 19.5 5.5 19.5H4V20.5H5.5C6.32843 20.5 7 19.8284 7 19C7 18.4407 6.69388 17.9529 6.24005 17.695L7 17.125V16H4V17Z"/>
<path d="M5.82461 11H4V10H5.82461C6.47376 10 7 10.5262 7 11.1754C7 11.5325 6.83769 11.8702 6.55887 12.0932L5.42539 13H7V14H4.00003V12.8597L5.93418 11.3123C5.97578 11.2791 6 11.2287 6 11.1754C6 11.0785 5.92147 11 5.82461 11Z"/>
</svg>
