<svg viewBox="0 0 24 24" xmlns="http://www.w3.org/2000/svg">
<path fill-rule="evenodd" clip-rule="evenodd" d="M9 12V13C9 13.8298 8.86717 14.9285 8.28116 15.8494C7.79275 16.6169 7.03895 17.1824 6 17.4009V17.9314C7.08946 17.7757 7.9752 17.3604 8.62336 16.744C9.45149 15.9564 10 14.738 10 13V6H4V12H9ZM6 18.94C8.96655 18.5734 11 16.5319 11 13V6C11 5.44772 10.5523 5 10 5H4C3.44772 5 3 5.44772 3 6V12C3 12.5523 3.44772 13 4 13H8C8 13.3188 7.97742 13.6601 7.91787 14C7.69719 15.2597 6.96875 16.5 5 16.5V19C5.34343 19 5.67724 18.9799 6 18.94Z"/>
<path fill-rule="evenodd" clip-rule="evenodd" d="M19 12V13C19 13.8298 18.8672 14.9285 18.2812 15.8494C17.7927 16.6169 17.039 17.1824 16 17.4009V17.9314C17.0895 17.7757 17.9752 17.3604 18.6234 16.744C19.4515 15.9564 20 14.738 20 13V6H14V12H19ZM16 18.94C18.9665 18.5734 21 16.5319 21 13V6C21 5.44772 20.5523 5 20 5H14C13.4477 5 13 5.44772 13 6V12C13 12.5523 13.4477 13 14 13H18C18 13.3188 17.9774 13.6601 17.9179 14C17.6972 15.2597 16.9687 16.5 15 16.5V19C15.3434 19 15.6772 18.9799 16 18.94Z"/>
</svg>
