<svg viewBox="0 0 24 24" xmlns="http://www.w3.org/2000/svg">
<path d="M10.0431 4C7.81014 4 6 5.81014 6 8.04305C6 8.95949 6.30739 9.81441 6.83217 10.5H8.24718C7.48406 9.94163 7 9.04077 7 8.04305C7 6.36242 8.36242 5 10.0431 5H14C15.6569 5 17 6.34315 17 8H18C18 5.79086 16.2091 4 14 4H10.0431Z"/>
<path d="M12.0451 11.5H7.9455C8.35816 11.7506 8.82133 11.9303 9.31981 12.0209L14.5013 12.963C15.9482 13.2261 17 14.4863 17 15.9569C17 17.6376 15.6376 19 13.9569 19H10C8.34315 19 7 17.6569 7 16H6C6 18.2091 7.79086 20 10 20H13.9569C16.1899 20 18 18.1899 18 15.9569C18 14.003 16.6026 12.3286 14.6802 11.9791L12.0451 11.5Z"/>
<path fill-rule="evenodd" clip-rule="evenodd" d="M21 12.5H3V11.5H21V12.5Z"/>
</svg>
