<svg viewBox="0 0 24 24" xmlns="http://www.w3.org/2000/svg">
<path d="M12.5 8.5H16V7.5H8V8.5H11.5V17H12.5V8.5Z"/>
<path fill-rule="evenodd" clip-rule="evenodd" d="M4 5.91465C3.4174 5.70873 3 5.15311 3 4.5C3 3.67157 3.67157 3 4.5 3C5.15311 3 5.70873 3.4174 5.91465 4H18.0854C18.2913 3.4174 18.8469 3 19.5 3C20.3284 3 21 3.67157 21 4.5C21 5.15311 20.5826 5.70873 20 5.91465V18.0854C20.5826 18.2913 21 18.8469 21 19.5C21 20.3284 20.3284 21 19.5 21C18.8469 21 18.2913 20.5826 18.0854 20H5.91465C5.70873 20.5826 5.15311 21 4.5 21C3.67157 21 3 20.3284 3 19.5C3 18.8469 3.4174 18.2913 4 18.0854V5.91465ZM5 4.5C5 4.77614 4.77614 5 4.5 5C4.22386 5 4 4.77614 4 4.5C4 4.22386 4.22386 4 4.5 4C4.77614 4 5 4.22386 5 4.5ZM5.91465 5C5.764 5.42621 5.42621 5.764 5 5.91465V18.0854C5.42621 18.236 5.764 18.5738 5.91465 19H18.0854C18.236 18.5738 18.5738 18.236 19 18.0854V5.91465C18.5738 5.764 18.236 5.42621 18.0854 5H5.91465ZM19.5 5C19.7761 5 20 4.77614 20 4.5C20 4.22386 19.7761 4 19.5 4C19.2239 4 19 4.22386 19 4.5C19 4.77614 19.2239 5 19.5 5ZM4.5 20C4.77614 20 5 19.7761 5 19.5C5 19.2239 4.77614 19 4.5 19C4.22386 19 4 19.2239 4 19.5C4 19.7761 4.22386 20 4.5 20ZM19.5 20C19.7761 20 20 19.7761 20 19.5C20 19.2239 19.7761 19 19.5 19C19.2239 19 19 19.2239 19 19.5C19 19.7761 19.2239 20 19.5 20Z"/>
</svg>
