<?xml version="1.0" encoding="UTF-8"?>
<svg width="18px" height="18px" viewBox="0 0 18 18" version="1.1" xmlns="http://www.w3.org/2000/svg" xmlns:xlink="http://www.w3.org/1999/xlink">
    <title>形状_slice</title>
    <g id="飞廉系统-修改" stroke="none" stroke-width="1" fill="none" fill-rule="evenodd">
        <g id="画板" transform="translate(2.000000, 2.000000)" fill="#FFFFFF" fill-rule="nonzero">
            <path d="M13.8566929,1.74436566 C13.8991543,1.83990372 13.9336541,1.95136479 13.9601925,2.07874886 C13.9867308,2.20613293 14,2.33882468 14,2.4768241 C14,2.61482353 13.9734616,2.75282294 13.9203849,2.89082236 C13.8673082,3.02882177 13.7823855,3.16151352 13.6656168,3.2888976 C13.5382327,3.41628167 13.4241178,3.52774274 13.3232721,3.6232808 C13.2224263,3.71881885 13.1348498,3.80374157 13.0605424,3.87804895 C12.9756197,3.96297167 12.8960047,4.03727905 12.8216973,4.1009711 L9.84409449,1.12336831 C9.97147856,1.00659957 10.1227472,0.865946325 10.2979003,0.701408561 C10.4730534,0.536870797 10.6190143,0.406832887 10.735783,0.311294829 C10.8843978,0.194526094 11.0383202,0.112257212 11.1975503,0.0644881834 C11.3567804,0.0167191545 11.5133567,-0.00451152269 11.6672791,0.000796151795 C11.8212015,0.00610382628 11.9698163,0.0299883407 12.1131234,0.0724496951 C12.2564304,0.114911049 12.3811607,0.162680078 12.4873141,0.215756782 C12.7102362,0.332525517 12.9570429,0.536870808 13.227734,0.828792655 C13.4984252,1.1207145 13.7080782,1.42590552 13.8566929,1.74436571 L13.8566929,1.74436566 Z M1.45266844,9.51479435 C1.51636049,9.45110231 1.66497524,9.29983372 1.89851271,9.06098858 C2.13205018,8.82214343 2.42397202,8.52756775 2.77427824,8.17726154 L3.93665794,7.01488184 L5.22642172,5.72511806 L8.64986879,2.30167099 L11.6274716,5.2951968 L8.20402451,8.71864387 L6.93018373,10.0084076 C6.50557015,10.4224059 6.12341792,10.8019043 5.78372704,11.1469028 C5.44403616,11.4919014 5.16272966,11.7758617 4.93980753,11.9987838 C4.7168854,12.221706 4.58419365,12.34909 4.54173229,12.3809361 C4.43557889,12.4764741 4.31350248,12.5773199 4.17550306,12.6834733 C4.03750364,12.7896266 3.89419655,12.8745494 3.7455818,12.9382414 C3.59696704,13.0125488 3.37935257,13.1027792 3.09273841,13.2089326 C2.80612425,13.315086 2.5062409,13.4185855 2.19308837,13.5194313 C1.87993583,13.620277 1.58270632,13.7078536 1.30139983,13.7821609 C1.02009334,13.8564683 0.810440381,13.9042373 0.672440948,13.925468 C0.385826775,13.957314 0.194750659,13.9148527 0.0992126017,13.7980839 C0.003674544,13.6813152 -0.0228638077,13.4849314 0.0195975467,13.2089326 C0.0408282239,13.0603178 0.09125109,12.8453572 0.170866145,12.5640507 C0.2504812,12.2827442 0.335403919,11.9908223 0.425634302,11.6882852 C0.515864686,11.385748 0.603441237,11.1070953 0.688363956,10.8523272 C0.773286675,10.597559 0.842286381,10.4224059 0.895363074,10.3268678 C0.959055116,10.1782531 1.03070866,10.0429075 1.1103237,9.92083109 C1.18993875,9.7987547 1.30405365,9.66340912 1.45266841,9.51479435 L1.45266844,9.51479435 Z" id="形状"></path>
        </g>
    </g>
</svg>