<?xml version="1.0" encoding="UTF-8"?>
<svg width="14px" height="14px" viewBox="0 0 14 14" version="1.1" xmlns="http://www.w3.org/2000/svg" xmlns:xlink="http://www.w3.org/1999/xlink">
    <title>形状_slice</title>
    <g id="飞廉系统-修改" stroke="none" stroke-width="1" fill="none" fill-rule="evenodd">
        <g id="画板" transform="translate(1.000000, 1.000000)" fill="#1762F2" fill-rule="nonzero">
            <path d="M8.87548032,3.01157693 L7.57665837,1.7139368 C7.34620315,1.48348158 7.34620315,1.10884413 7.57665837,0.878388915 L8.28220587,0.172841411 C8.51266108,-0.0576138037 8.88729854,-0.0576138037 9.11775375,0.172841411 L10.4153939,1.47048154 C10.6458491,1.70093676 10.6458491,2.07557421 10.4153939,2.30602942 L9.70984638,3.01157693 C9.47939116,3.24321396 9.10593553,3.24321396 8.87548032,3.01157693 Z M8.11202356,4.60230882 C8.33420602,4.38012636 8.38975164,4.0763982 8.23611483,3.92394321 L6.65720115,2.34384772 C6.50474616,2.19139273 6.20101801,2.24693834 5.97883554,2.46793899 L0.195000566,8.09813715 C0.0839093346,8.20922839 0.0141818594,8.35104698 -3.22458149e-16,8.49404739 L0.00236364323,10.0753247 C-0.0260000755,10.3731438 0.208000604,10.6071444 0.505819651,10.5787807 L2.08709697,10.5917808 C2.23009739,10.5775989 2.3730978,10.5078714 2.48300721,10.3967802 L8.11202356,4.60230882 Z M9.97575624,9.07313999 L5.85001699,9.07313999 C5.69165289,9.07313999 5.54037973,9.13577653 5.42928849,9.24804958 C5.227197,9.4513229 4.8939233,9.79523299 4.61619522,10.0835975 C4.43655834,10.2703253 4.56892236,10.5811444 4.82774129,10.5811444 L9.97221078,10.5811444 C10.3031208,10.5811444 10.573758,10.3105072 10.573758,9.97959716 L10.573758,9.66877808 C10.5713943,9.34141349 10.3043027,9.07313999 9.97575624,9.07313999 L9.97575624,9.07313999 Z" id="形状"></path>
        </g>
    </g>
</svg>