<?xml version="1.0" encoding="utf-8"?>
<!-- Generator: Adobe Illustrator 25.2.1, SVG Export Plug-In . SVG Version: 6.00 Build 0)  -->
<svg version="1.1" id="图层_1" xmlns="http://www.w3.org/2000/svg" xmlns:xlink="http://www.w3.org/1999/xlink" x="0px" y="0px"
	 viewBox="0 0 26.1 23.9" style="enable-background:new 0 0 26.1 23.9;" xml:space="preserve">
<style type="text/css">
	.st0{fill:#1762F2;stroke:#1762F2;stroke-width:0.6;}
	.st1{fill:#D34D25;stroke:#D34D25;stroke-width:0.5;}
</style>
<g id="飞廉系统-修改">
	<g id="画板" transform="translate(-286.000000, -32.000000)">
		<g id="编组-9" transform="translate(285.565707, 32.000000)">
			<path id="路径" class="st0" d="M24.5,20.7c0.6,0,1.2,0.5,1.2,1.2s-0.5,1.2-1.2,1.2H2.9c-0.6,0-1.2-0.5-1.2-1.2s0.5-1.2,1.2-1.2
				H24.5z"/>
			<path id="路径_1_" class="st1" d="M5.5,7.3C6,6.8,6.7,6.9,7.1,7.3c0.5,0.5,0.5,1.2,0.1,1.6l-2.7,2.7l2.9,2.9
				c0.5,0.5,0.5,1.2,0.1,1.6c-0.4,0.4-1.1,0.4-1.6-0.1l-4.6-4.6L5.5,7.3z"/>
			<path id="路径_2_" class="st0" d="M24.5,10.6c0.6,0,1.2,0.5,1.2,1.2S25.2,13,24.5,13H11.4c-0.6,0-1.2-0.5-1.2-1.2
				s0.5-1.2,1.2-1.2H24.5z"/>
			<path id="路径_3_" class="st0" d="M24.5,0.5c0.6,0,1.2,0.5,1.2,1.2s-0.5,1.2-1.2,1.2H2.9c-0.6,0-1.2-0.5-1.2-1.2
				s0.5-1.2,1.2-1.2H24.5z"/>
		</g>
	</g>
</g>
</svg>
