<?xml version="1.0" encoding="UTF-8"?>
<svg width="18px" height="18px" viewBox="0 0 18 18" version="1.1" xmlns="http://www.w3.org/2000/svg" xmlns:xlink="http://www.w3.org/1999/xlink">
    <title>编组 5</title>
    <g id="飞廉系统-修改" stroke="none" stroke-width="1" fill="none" fill-rule="evenodd">
        <g id="综合表格" transform="translate(-1440.000000, -236.000000)" fill-rule="nonzero">
            <g id="编组-5" transform="translate(1440.000000, 236.000000)">
                <path d="M17.2451702,2.93376265 C17.6729531,3.34222631 17.924103,3.85556578 18,4.47102116 L18,15.6968721 C17.975161,16.375805 17.7419503,16.9264029 17.3017479,17.3472861 C16.8615455,17.7681693 16.3275069,17.9848206 15.6982521,17.9986201 L2.30174793,17.9986201 C1.62281509,17.973781 1.07221711,17.7405704 0.651333947,17.300368 C0.230450782,16.8601656 0.0124195032,16.326127 0,15.6968721 L0,2.30174793 C0.0248390064,1.62281509 0.258049678,1.07221711 0.69825207,0.651333947 C1.13845446,0.230450782 1.6724931,0.013799448 2.30174793,0 L6.77276909,0 C7.0873965,0.0124195032 7.39788408,0.097976081 7.70699172,0.255289788 C8.01471941,0.412603496 8.26310948,0.611315547 8.45216191,0.850045998 L9.18767249,1.69871205 C9.30082797,1.88776449 9.42916283,2.03541858 9.57405704,2.14167433 C9.71895124,2.24931003 9.91076357,2.30174793 10.149494,2.30174793 L15.5837167,2.30174793 C16.2640294,2.31416743 16.8173873,2.52529899 17.2451702,2.93376265 Z" id="路径" fill="#FFC700"></path>
                <g id="编组" transform="translate(9.000000, 9.429185) scale(1, -1) translate(-9.000000, -9.429185) translate(6.000000, 5.000000)" fill="#FFFFFF">
                    <polygon id="路径" points="6 4.75058143 3 8.85836939 0 4.75058143 1.87833246 4.75058143 1.87833246 5.9008594e-15 4.12165572 5.9008594e-15 4.12165572 4.75058143"></polygon>
                </g>
            </g>
        </g>
    </g>
</svg>