<?xml version="1.0" encoding="UTF-8"?>
<svg width="18px" height="18px" viewBox="0 0 18 18" version="1.1" xmlns="http://www.w3.org/2000/svg" xmlns:xlink="http://www.w3.org/1999/xlink">
    <title>形状结合</title>
    <g id="飞廉系统-修改" stroke="none" stroke-width="1" fill="none" fill-rule="evenodd">
        <g id="综合表格" transform="translate(-1304.000000, -236.000000)" fill="#FFFFFF" fill-rule="nonzero">
            <path d="M1310.77277,236 C1311.0874,236.01242 1311.39788,236.097976 1311.70699,236.25529 C1312.01472,236.412603 1312.26311,236.611316 1312.45216,236.850046 L1313.18767,237.698712 C1313.30083,237.887764 1313.42916,238.035419 1313.57406,238.141674 C1313.71895,238.24931 1313.91076,238.301748 1314.14949,238.301748 L1319.58372,238.301748 C1320.26403,238.314167 1320.81739,238.525299 1321.24517,238.933763 C1321.67295,239.342226 1321.9241,239.855566 1322,240.471021 L1322,251.696872 C1321.97516,252.375805 1321.74195,252.926403 1321.30175,253.347286 C1320.86155,253.768169 1320.32751,253.984821 1319.69825,253.99862 L1306.30175,253.99862 C1305.62282,253.973781 1305.07222,253.74057 1304.65133,253.300368 C1304.23045,252.860166 1304.01242,252.326127 1304,251.696872 L1304,238.301748 C1304.02484,237.622815 1304.25805,237.072217 1304.69825,236.651334 C1305.13845,236.230451 1305.67249,236.013799 1306.30175,236 L1310.77277,236 Z M1314.12166,242 L1311.87833,242 L1311.87833,246.750581 L1310,246.750581 L1313,250.858369 L1316,246.750581 L1314.12166,246.750581 L1314.12166,242 Z" id="形状结合"></path>
        </g>
    </g>
</svg>