<?xml version="1.0" encoding="utf-8"?>
<!-- Generator: Adobe Illustrator 25.2.1, SVG Export Plug-In . SVG Version: 6.00 Build 0)  -->
<svg version="1.1" id="图层_1" xmlns="http://www.w3.org/2000/svg" xmlns:xlink="http://www.w3.org/1999/xlink" x="0px" y="0px"
	 viewBox="0 0 7 28.9" style="enable-background:new 0 0 7 28.9;" xml:space="preserve">
<style type="text/css">
	.st0{fill:#FFFFFF;}
</style>
<g id="飞廉系统-修改">
	<g id="画板" transform="translate(-574.000000, -221.000000)">
		
			<g id="编组" transform="translate(577.000000, 235.043478) rotate(90.000000) translate(-577.000000, -235.043478) translate(563.000000, 232.000000)">
			<path id="路径" class="st0" d="M0.5,2.5c0,1.7,1.4,3,3,3s3-1.4,3-3s-1.4-3-3-3S0.5,0.8,0.5,2.5z"/>
			<path id="路径_1_" class="st0" d="M11.4,2.5c0,1.7,1.4,3,3,3s3-1.4,3-3s-1.4-3-3-3S11.4,0.8,11.4,2.5z"/>
			<path id="路径_2_" class="st0" d="M22.4,2.5c0,1.7,1.4,3,3,3s3-1.4,3-3s-1.4-3-3-3S22.4,0.8,22.4,2.5z"/>
		</g>
	</g>
</g>
</svg>
