<?xml version="1.0" encoding="UTF-8"?>
<svg width="22px" height="22px" viewBox="0 0 22 22" version="1.1" xmlns="http://www.w3.org/2000/svg" xmlns:xlink="http://www.w3.org/1999/xlink">
    <title>编组 4</title>
    <g id="飞廉系统-修改" stroke="none" stroke-width="1" fill="none" fill-rule="evenodd">
        <g id="左树右表" transform="translate(-339.000000, -441.000000)">
            <g id="编组-4" transform="translate(339.000000, 441.000000)">
                <g id="编组-2" transform="translate(11.000000, 11.000000) rotate(-90.000000) translate(-11.000000, -11.000000) " fill="#F4F6FA">
                    <rect id="矩形" x="0" y="0" width="22" height="22" rx="4"></rect>
                </g>
                <path d="M15.8366351,9.40804575 C16.0205133,9.14300313 16.0517457,8.78614801 15.9172123,8.48738539 C15.782679,8.18862278 15.5056859,7.99970898 15.2025902,8 L8.79674564,8 C8.4937696,8 8.21700749,8.18900675 8.08264042,8.4877129 C7.94827336,8.78641906 7.97955927,9.14310776 8.16336473,9.40804575 L11.366785,14.0250872 C11.5175044,14.2422126 11.7516496,14.3696056 12,14.3696056 C12.2483502,14.3696056 12.4824954,14.2422126 12.6332148,14.0250872 L15.8366351,9.40804575 Z" id="路径" fill="#1762F2" fill-rule="nonzero" transform="translate(12.000000, 11.184803) rotate(-90.000000) translate(-12.000000, -11.184803) "></path>
            </g>
        </g>
    </g>
</svg>