<?xml version="1.0" encoding="UTF-8"?>
<svg width="136px" height="136px" viewBox="0 0 136 136" version="1.1" xmlns="http://www.w3.org/2000/svg" xmlns:xlink="http://www.w3.org/1999/xlink">
    <title>编组 12</title>
    <g id="飞廉系统-修改" stroke="none" stroke-width="1" fill="none" fill-rule="evenodd">
        <g id="综合表格-删除" transform="translate(-892.000000, -280.000000)">
            <g id="编组-12" transform="translate(892.000000, 280.000000)">
                <circle id="椭圆形" fill="#D34D25" cx="68" cy="68" r="68"></circle>
                <g id="编组-11" transform="translate(62.000000, 32.000000)" fill="#FFFFFF" fill-rule="nonzero">
                    <path d="M0.857142857,4.89014564 C0.857142857,2.19179081 3.01228642,0 5.67122791,0 C8.32864824,0 10.4837918,2.19179094 10.4837918,4.89014564 L10.4837918,48.1876581 C10.4837918,50.8882255 8.32864824,53.0776655 5.67122791,53.0776655 C3.01228642,53.0776655 0.857142857,50.8882255 0.857142857,48.1876581 L0.857142857,4.89014564 Z" id="路径"></path>
                    <path d="M6.00018151,71.5714286 C2.68656534,71.5714286 0,68.8847281 0,65.571369 C0,62.25801 2.68656534,59.5714286 6.00018151,59.5714286 C9.31476567,59.5714286 12,62.25801 12,65.571369 C12,68.8847281 9.31464471,71.5714286 6.00018151,71.5714286 Z" id="路径"></path>
                </g>
            </g>
        </g>
    </g>
</svg>