<?xml version="1.0" encoding="UTF-8"?>
<svg width="14px" height="14px" viewBox="0 0 14 14" version="1.1" xmlns="http://www.w3.org/2000/svg" xmlns:xlink="http://www.w3.org/1999/xlink">
    <title>切片</title>
    <g id="飞廉系统-修改" stroke="none" stroke-width="1" fill="none" fill-rule="evenodd">
        <path d="M2,2.97128554 C2,2.60813449 2.29634396,2.31295515 2.66182426,2.31295515 L5.97105144,2.31295515 L5.97105144,1.65705989 C5.97105144,1.29337946 6.26676015,1 6.6328757,1 L7.95652422,1 C8.32136927,1 8.61845436,1.29454409 8.61845436,1.65705989 L8.61845436,2.3152844 L11.926411,2.3152844 C12.2912561,2.3152844 12.5882353,2.60929911 12.5882353,2.97245016 L12.5882353,3.63067468 L2,3.63067468 L2,2.97128554 Z M11.926411,4.94182995 L11.926411,6.25605561 L11.926411,13.0467685 C11.926411,13.4105548 11.6294318,13.7050989 11.2645868,13.7050989 L3.32364852,13.7050989 C2.95816822,13.7050989 2.66182426,13.4105548 2.66182426,13.0467685 L2.66182426,6.25605561 L2.66182426,4.94182995 L2.66182426,4.28593469 L11.926411,4.28593469 L11.926411,4.94182995 Z M4.64602654,5.59899572 C4.28234612,5.59899572 3.98536691,5.89470443 3.98536691,6.25722023 L3.98536691,11.7338133 C3.98536691,12.0963291 4.28234612,12.3908732 4.64719117,12.3908732 C5.01330672,12.3908732 5.30901546,12.0963291 5.30901546,11.7338133 L5.30901546,6.25722023 C5.3091213,5.89470443 5.01097747,5.59899572 4.64602654,5.59899572 Z M7.95652422,6.25722023 C7.95652422,5.89470443 7.65848626,5.59899572 7.29469996,5.59899572 C6.92858441,5.59899572 6.6328757,5.89470443 6.6328757,6.25722023 L6.6328757,11.7338133 C6.6328757,12.0963291 6.92974904,12.3908732 7.29469996,12.3908732 C7.65848626,12.3908732 7.95652422,12.0963291 7.95652422,11.7338133 L7.95652422,6.25722023 Z M10.6027625,6.25722023 C10.6027625,5.89470443 10.3057833,5.59899572 9.94083238,5.59899572 C9.57471683,5.59899572 9.27900812,5.89470443 9.27900812,6.25722023 L9.27900812,11.7338133 C9.27900812,12.0963291 9.57598733,12.3908732 9.94083238,12.3908732 C10.3057833,12.3908732 10.6027625,12.0963291 10.6027625,11.7338133 L10.6027625,6.25722023 Z" id="形状" fill="#F31313" fill-rule="nonzero"></path>
    </g>
</svg>