<?xml version="1.0" encoding="UTF-8"?>
<svg width="86px" height="59px" viewBox="0 0 86 59" version="1.1" xmlns="http://www.w3.org/2000/svg" xmlns:xlink="http://www.w3.org/1999/xlink">
    <title>形状</title>
    <g id="飞廉系统-修改" stroke="none" stroke-width="1" fill="none" fill-rule="evenodd">
        <g id="综合表格-新增-选用户备份" transform="translate(-917.000000, -440.000000)" fill="#DEE3EB" fill-rule="nonzero">
            <path d="M1002.86747,480.935155 C1001.85168,473.002291 994.702424,467.255802 986.701841,467.255802 L982.561273,467.255802 L982.561273,463.35709 C982.561273,451.351378 973.525548,440.854844 961.548858,440.051884 C948.411262,439.171529 937.440692,449.610017 937.440692,462.563804 L937.440692,467.255802 L933.300124,467.255802 C925.29954,467.255802 918.159963,472.992617 917.134495,480.935155 C915.896194,490.54166 923.37437,498.755076 932.739019,498.755076 L987.253272,498.755076 C996.617921,498.755076 1004.0961,490.54166 1002.86747,480.935155 L1002.86747,480.935155 Z M971.522983,474.288963 L970.971553,474.840394 C969.878365,475.933581 968.107982,475.933581 967.024469,474.840394 L963.232173,471.048098 L963.232173,487.039591 C963.232173,488.809974 961.800388,490.251433 960.020331,490.251433 L959.97196,490.251433 C958.201577,490.251433 956.760117,488.819648 956.760117,487.039591 L956.760117,471.048098 L952.967821,474.840394 C951.874634,475.933581 950.104251,475.933581 949.020738,474.840394 L948.469307,474.288963 C947.37612,473.195776 947.37612,471.425393 948.469307,470.34188 L957.901676,460.909511 C958.472455,460.338732 959.236719,460.05818 959.991308,460.096876 C960.745898,460.067854 961.510161,460.338732 962.080941,460.909511 L971.513309,470.34188 C972.616171,471.425393 972.616171,473.195776 971.522983,474.288963 Z" id="形状"></path>
        </g>
    </g>
</svg>