<svg viewBox="0 0 24 24" xmlns="http://www.w3.org/2000/svg">
<path fill-rule="evenodd" clip-rule="evenodd" d="M12 15C13.1046 15 14 14.1046 14 13C14 11.8954 13.1046 11 12 11C10.8954 11 10 11.8954 10 13C10 14.1046 10.8954 15 12 15ZM15 13C15 14.6569 13.6569 16 12 16C10.3431 16 9 14.6569 9 13C9 11.3431 10.3431 10 12 10C13.6569 10 15 11.3431 15 13Z"/>
<path fill-rule="evenodd" clip-rule="evenodd" d="M18 11C18.5523 11 19 10.5523 19 10C19 9.44772 18.5523 9 18 9C17.4477 9 17 9.44772 17 10C17 10.5523 17.4477 11 18 11Z"/>
<path fill-rule="evenodd" clip-rule="evenodd" d="M9.05409 8H4V18H20V8H14.9459L14.2792 6L9.72076 6L9.05409 8ZM15.2279 5.68377C15.0918 5.27543 14.7097 5 14.2792 5H9.72076C9.29033 5 8.90819 5.27543 8.77208 5.68377L8.33333 7H4C3.44772 7 3 7.44772 3 8V18C3 18.5523 3.44772 19 4 19H20C20.5523 19 21 18.5523 21 18V8C21 7.44772 20.5523 7 20 7H15.6667L15.2279 5.68377Z"/>
</svg>
