<svg viewBox="0 0 24 24" xmlns="http://www.w3.org/2000/svg">
<path fill-rule="evenodd" clip-rule="evenodd" d="M3 5C3 4.44772 3.44772 4 4 4H20C20.5523 4 21 4.44772 21 5V16C21 16.5523 20.5523 17 20 17H4C3.44772 17 3 16.5523 3 16V5ZM4 5H20V14H4V5ZM4 15V16H20V15H4Z"/>
<path d="M10 18V18.5858C10 18.851 9.89464 19.1054 9.70711 19.2929L9 20V21H15V20L14.2929 19.2929C14.1054 19.1054 14 18.851 14 18.5858V18H13V18.5858C13 19.1162 13.2107 19.6249 13.5858 20L10.4142 20C10.7893 19.6249 11 19.1162 11 18.5858V18H10Z"/>
</svg>
