<svg viewBox="0 0 24 24" xmlns="http://www.w3.org/2000/svg">
<path fill-rule="evenodd" clip-rule="evenodd" d="M8 8H2V7H8V8Z"/>
<path fill-rule="evenodd" clip-rule="evenodd" d="M16 8H22V7H16V8Z"/>
<path fill-rule="evenodd" clip-rule="evenodd" d="M5.5 9V10.1338C5.7989 10.3067 6 10.6299 6 11V11.5H8.24996L8.19403 11.1644C8.09244 10.5549 8.56248 10 9.18042 10H14.8195C15.4374 10 15.9075 10.5549 15.8059 11.1644L15.75 11.5H18V11C18 10.6299 18.2011 10.3067 18.5 10.1338V9H19.5V10.1338C19.7989 10.3067 20 10.6299 20 11V12C20 12.5523 19.5523 13 19 13C18.6299 13 18.3067 12.7989 18.1338 12.5H15.5833L15.3333 14H16C16.8284 14 17.5 14.6716 17.5 15.5V18H16.5V15.5C16.5 15.2239 16.2761 15 16 15H15.1666L15.1392 15.1644C15.0589 15.6466 14.6417 16 14.1528 16H9.84709C9.35825 16 8.94106 15.6466 8.8607 15.1644L8.8333 15H8C7.72386 15 7.5 15.2239 7.5 15.5V18H6.5V15.5C6.5 14.6716 7.17157 14 8 14H8.66663L8.41663 12.5H5.86622C5.69331 12.7989 5.37014 13 5 13C4.44772 13 4 12.5523 4 12V11C4 10.6299 4.2011 10.3067 4.5 10.1338V9H5.5ZM14.8195 11H9.18042L9.84709 15L14.1528 15L14.8195 11Z"/>
</svg>
