<svg viewBox="0 0 24 24" xmlns="http://www.w3.org/2000/svg">
<path fill-rule="evenodd" clip-rule="evenodd" d="M5 11.3299L6.33325 11.8011C6.69687 11.9296 7.08914 12 7.5 12C8.47942 12 9.3636 11.599 10 10.9495V6.05051C9.3636 5.40105 8.47942 5 7.5 5C5.567 5 4 6.567 4 8.5V18.5C4 18.7761 4.22386 19 4.5 19C4.77614 19 5 18.7761 5 18.5V11.3299ZM7 12.9725C7.16417 12.9907 7.331 13 7.5 13C8.78639 13 9.94671 12.4602 10.7668 11.5948C10.9243 11.4286 11 11.2037 11 10.9747V6.02525C11 5.79627 10.9243 5.57139 10.7668 5.40518C9.94671 4.53977 8.78639 4 7.5 4C5.01472 4 3 6.01472 3 8.5V18.5C3 19.3284 3.67157 20 4.5 20C5.32843 20 6 19.3284 6 18.5V12.7439C6.31841 12.8565 6.65327 12.9342 7 12.9725Z"/>
<path fill-rule="evenodd" clip-rule="evenodd" d="M19 11.3299V18.5C19 18.7761 19.2239 19 19.5 19C19.7761 19 20 18.7761 20 18.5V8.5C20 6.567 18.433 5 16.5 5C15.5206 5 14.6364 5.40105 14 6.05051V10.9495C14.6364 11.599 15.5206 12 16.5 12C16.9109 12 17.3031 11.9296 17.6668 11.8011L19 11.3299ZM18 18.5C18 19.3284 18.6716 20 19.5 20C20.3284 20 21 19.3284 21 18.5V8.5C21 6.01472 18.9853 4 16.5 4C15.2136 4 14.0533 4.53977 13.2332 5.40518C13.0757 5.57139 13 5.79627 13 6.02525V10.9747C13 11.2037 13.0757 11.4286 13.2332 11.5948C14.0533 12.4602 15.2136 13 16.5 13C16.669 13 16.8358 12.9907 17 12.9725C17.3467 12.9342 17.6816 12.8565 18 12.7439V18.5Z"/>
</svg>
