<svg viewBox="0 0 24 24" xmlns="http://www.w3.org/2000/svg">
<path fill-rule="evenodd" clip-rule="evenodd" d="M15.5803 14L17.105 16.6682C17.3989 17.1826 17.9459 17.5 18.5383 17.5C19.5223 17.5 20.2877 16.6448 20.1791 15.6669L19.3027 7.77914C19.1901 6.76627 18.334 6 17.3149 6H6.68514C5.66604 6 4.80991 6.76627 4.69737 7.77914L3.82096 15.6669C3.7123 16.6448 4.47777 17.5 5.46168 17.5C6.05409 17.5 6.60108 17.1826 6.895 16.6682L8.41969 14H15.5803ZM15 15L16.2368 17.1644C16.7087 17.9903 17.5871 18.5 18.5383 18.5C20.1183 18.5 21.3474 17.1267 21.173 15.5564L20.2965 7.66871C20.1277 6.14941 18.8435 5 17.3149 5H6.68514C5.15649 5 3.8723 6.14941 3.70349 7.66871L2.82707 15.5564C2.6526 17.1267 3.88176 18.5 5.46168 18.5C6.41295 18.5 7.29128 17.9903 7.76324 17.1644L9.00001 15H15Z"/>
<path fill-rule="evenodd" clip-rule="evenodd" d="M15.5 9C15.7761 9 16 8.77614 16 8.5C16 8.22386 15.7761 8 15.5 8C15.2239 8 15 8.22386 15 8.5C15 8.77614 15.2239 9 15.5 9Z"/>
<path fill-rule="evenodd" clip-rule="evenodd" d="M14 10.5C14.2761 10.5 14.5 10.2761 14.5 10C14.5 9.72386 14.2761 9.5 14 9.5C13.7239 9.5 13.5 9.72386 13.5 10C13.5 10.2761 13.7239 10.5 14 10.5Z"/>
<path fill-rule="evenodd" clip-rule="evenodd" d="M17 10.5C17.2761 10.5 17.5 10.2761 17.5 10C17.5 9.72386 17.2761 9.5 17 9.5C16.7239 9.5 16.5 9.72386 16.5 10C16.5 10.2761 16.7239 10.5 17 10.5Z"/>
<path fill-rule="evenodd" clip-rule="evenodd" d="M15.5 12C15.7761 12 16 11.7761 16 11.5C16 11.2239 15.7761 11 15.5 11C15.2239 11 15 11.2239 15 11.5C15 11.7761 15.2239 12 15.5 12Z"/>
<path fill-rule="evenodd" clip-rule="evenodd" d="M8 10.5V12H9V10.5H10.5V9.5H9V8H8V9.5H6.5V10.5H8Z"/>
</svg>
