<svg viewBox="0 0 24 24" xmlns="http://www.w3.org/2000/svg">
<path d="M20 12V17C20.5523 17 21 16.5523 21 16V12C21 7.02944 16.9706 3 12 3C7.02944 3 3 7.02944 3 12V16C3 16.5523 3.44772 17 4 17L4 12C4 7.58172 7.58172 4 12 4C16.4183 4 20 7.58172 20 12Z"/>
<path fill-rule="evenodd" clip-rule="evenodd" d="M8 19V14H7C6.44772 14 6 14.4477 6 15V18C6 18.5523 6.44772 19 7 19H8ZM9 14C9 13.4477 8.55228 13 8 13H7C5.89543 13 5 13.8954 5 15V18C5 19.1046 5.89543 20 7 20H8C8.55228 20 9 19.5523 9 19V14Z"/>
<path fill-rule="evenodd" clip-rule="evenodd" d="M16 19V14H17C17.5523 14 18 14.4477 18 15V18C18 18.5523 17.5523 19 17 19H16ZM15 14C15 13.4477 15.4477 13 16 13H17C18.1046 13 19 13.8954 19 15V18C19 19.1046 18.1046 20 17 20H16C15.4477 20 15 19.5523 15 19V14Z"/>
</svg>
