<svg viewBox="0 0 24 24" xmlns="http://www.w3.org/2000/svg">
<path fill-rule="evenodd" clip-rule="evenodd" d="M20 8H4V17L20 17V8ZM4 7C3.44772 7 3 7.44771 3 8V17C3 17.5523 3.44772 18 4 18H20C20.5523 18 21 17.5523 21 17V8C21 7.44772 20.5523 7 20 7H4Z"/>
<path fill-rule="evenodd" clip-rule="evenodd" d="M6.5 10.5H5.5V9.5H6.5V10.5Z"/>
<path fill-rule="evenodd" clip-rule="evenodd" d="M6.5 13H5.5V12H6.5V13Z"/>
<path fill-rule="evenodd" clip-rule="evenodd" d="M6.5 15.5H5.5V14.5H6.5V15.5Z"/>
<path fill-rule="evenodd" clip-rule="evenodd" d="M9.5 10.5H8.5V9.5H9.5V10.5Z"/>
<path fill-rule="evenodd" clip-rule="evenodd" d="M9.5 13H8.5V12H9.5V13Z"/>
<path fill-rule="evenodd" clip-rule="evenodd" d="M15.5 15.5H8.5V14.5H15.5V15.5Z"/>
<path fill-rule="evenodd" clip-rule="evenodd" d="M12.5 10.5H11.5V9.5H12.5V10.5Z"/>
<path fill-rule="evenodd" clip-rule="evenodd" d="M12.5 13H11.5V12H12.5V13Z"/>
<path fill-rule="evenodd" clip-rule="evenodd" d="M15.5 10.5H14.5V9.5H15.5V10.5Z"/>
<path fill-rule="evenodd" clip-rule="evenodd" d="M15.5 13H14.5V12H15.5V13Z"/>
<path fill-rule="evenodd" clip-rule="evenodd" d="M18.5 10.5H17.5V9.5H18.5V10.5Z"/>
<path fill-rule="evenodd" clip-rule="evenodd" d="M18.5 13H17.5V12H18.5V13Z"/>
<path fill-rule="evenodd" clip-rule="evenodd" d="M18.5 15.5H17.5V14.5H18.5V15.5Z"/>
</svg>
