<svg viewBox="0 0 24 24" xmlns="http://www.w3.org/2000/svg">
<path fill-rule="evenodd" clip-rule="evenodd" d="M17 7H7L7 17H17V7ZM7 6C6.44772 6 6 6.44772 6 7V17C6 17.5523 6.44772 18 7 18H17C17.5523 18 18 17.5523 18 17V7C18 6.44772 17.5523 6 17 6H7Z"/>
<path fill-rule="evenodd" clip-rule="evenodd" d="M14 10H10L10 14H14V10ZM10 9C9.44772 9 9 9.44772 9 10V14C9 14.5523 9.44772 15 10 15H14C14.5523 15 15 14.5523 15 14V10C15 9.44772 14.5523 9 14 9H10Z"/>
<path fill-rule="evenodd" clip-rule="evenodd" d="M3 8H5V9H3V8Z"/>
<path fill-rule="evenodd" clip-rule="evenodd" d="M19 8H21V9H19V8Z"/>
<path fill-rule="evenodd" clip-rule="evenodd" d="M3 11.5H5V12.5H3V11.5Z"/>
<path fill-rule="evenodd" clip-rule="evenodd" d="M19 11.5H21V12.5H19V11.5Z"/>
<path fill-rule="evenodd" clip-rule="evenodd" d="M3 15H5V16H3V15Z"/>
<path fill-rule="evenodd" clip-rule="evenodd" d="M19 15H21V16H19V15Z"/>
<path fill-rule="evenodd" clip-rule="evenodd" d="M12.5 3V5H11.5V3H12.5Z"/>
<path fill-rule="evenodd" clip-rule="evenodd" d="M12.5 19V21H11.5V19H12.5Z"/>
<path fill-rule="evenodd" clip-rule="evenodd" d="M9 3V5H8V3H9Z"/>
<path fill-rule="evenodd" clip-rule="evenodd" d="M9 19V21H8V19H9Z"/>
<path fill-rule="evenodd" clip-rule="evenodd" d="M16 3V5H15V3H16Z"/>
<path fill-rule="evenodd" clip-rule="evenodd" d="M16 19V21H15V19H16Z"/>
</svg>
