<svg viewBox="0 0 24 24" xmlns="http://www.w3.org/2000/svg">
<path fill-rule="evenodd" clip-rule="evenodd" d="M20 9H4V19H20V9ZM4 8C3.44772 8 3 8.44772 3 9V19C3 19.5523 3.44772 20 4 20H20C20.5523 20 21 19.5523 21 19V9C21 8.44772 20.5523 8 20 8H4Z"/>
<path fill-rule="evenodd" clip-rule="evenodd" d="M9 17C10.6569 17 12 15.6569 12 14C12 12.3431 10.6569 11 9 11C7.34315 11 6 12.3431 6 14C6 15.6569 7.34315 17 9 17ZM9 18C11.2091 18 13 16.2091 13 14C13 11.7909 11.2091 10 9 10C6.79086 10 5 11.7909 5 14C5 16.2091 6.79086 18 9 18Z"/>
<path fill-rule="evenodd" clip-rule="evenodd" d="M16.1857 3.96424L6.5 7.83852V8.5H5.5V7.83852C5.5 7.42962 5.74895 7.06191 6.12861 6.91004L15.8143 3.03577L16.1857 3.96424Z"/>
<path fill-rule="evenodd" clip-rule="evenodd" d="M9 15C9.55228 15 10 14.5523 10 14C10 13.4477 9.55228 13 9 13C8.44772 13 8 13.4477 8 14C8 14.5523 8.44772 15 9 15Z"/>
<path fill-rule="evenodd" clip-rule="evenodd" d="M19 12H14V11H19V12Z"/>
<path fill-rule="evenodd" clip-rule="evenodd" d="M19 14.5H14V13.5H19V14.5Z"/>
<path fill-rule="evenodd" clip-rule="evenodd" d="M19 17H14V16H19V17Z"/>
</svg>
