<svg viewBox="0 0 24 24" xmlns="http://www.w3.org/2000/svg">
<path fill-rule="evenodd" clip-rule="evenodd" d="M11 12C11 12.5523 10.5523 13 10 13C9.44772 13 9 12.5523 9 12C9 11.4477 9.44772 11 10 11C10.5523 11 11 11.4477 11 12Z"/>
<path fill-rule="evenodd" clip-rule="evenodd" d="M15 12C15 12.5523 14.5523 13 14 13C13.4477 13 13 12.5523 13 12C13 11.4477 13.4477 11 14 11C14.5523 11 15 11.4477 15 12Z"/>
<path fill-rule="evenodd" clip-rule="evenodd" d="M13 10C13 10.5523 12.5523 11 12 11C11.4477 11 11 10.5523 11 10C11 9.44772 11.4477 9 12 9C12.5523 9 13 9.44772 13 10Z"/>
<path fill-rule="evenodd" clip-rule="evenodd" d="M13 14C13 14.5523 12.5523 15 12 15C11.4477 15 11 14.5523 11 14C11 13.4477 11.4477 13 12 13C12.5523 13 13 13.4477 13 14Z"/>
<path fill-rule="evenodd" clip-rule="evenodd" d="M10.3022 4H13.6979L14.1423 6H15.1667L14.6741 3.78307C14.5724 3.32553 14.1666 3 13.6979 3H10.3022C9.83351 3 9.4277 3.32553 9.32603 3.78307L8.83337 6H9.85777L10.3022 4Z"/>
<path fill-rule="evenodd" clip-rule="evenodd" d="M8.83337 18L9.32606 20.2169C9.42774 20.6745 9.83355 21 10.3022 21H13.6979C14.1666 21 14.5724 20.6745 14.6741 20.2169L15.1667 18H14.1423L13.6979 20H10.3022L9.85777 18H8.83337Z"/>
<path fill-rule="evenodd" clip-rule="evenodd" d="M16 8H8V16H16V8ZM8 7C7.44772 7 7 7.44772 7 8V16C7 16.5523 7.44772 17 8 17H16C16.5523 17 17 16.5523 17 16V8C17 7.44772 16.5523 7 16 7H8Z"/>
<path fill-rule="evenodd" clip-rule="evenodd" d="M18 13V11H19V13H18Z"/>
</svg>
