<svg viewBox="0 0 24 24" xmlns="http://www.w3.org/2000/svg">
<path fill-rule="evenodd" clip-rule="evenodd" d="M14.1097 14.7024L14.1097 14.7025L15.4129 16H19V8L5 8V16H8.5845L9.8671 14.7118C11.0361 13.5376 12.9356 13.5334 14.1097 14.7024ZM20 16C20 16.5523 19.5523 17 19 17H15.4129C15.1485 17 14.8948 16.8952 14.7074 16.7086L13.4042 15.4111C12.6214 14.6318 11.3551 14.6345 10.5758 15.4173L9.29316 16.7056C9.1055 16.894 8.85048 17 8.5845 17H5C4.44772 17 4 16.5523 4 16V8C4 7.44772 4.44772 7 5 7H19C19.5523 7 20 7.44772 20 8V16Z"/>
<path fill-rule="evenodd" clip-rule="evenodd" d="M2 13.9989V10.0031H3V13.9989H2Z"/>
<path fill-rule="evenodd" clip-rule="evenodd" d="M21 13.9989V10.0031H22V13.9989H21Z"/>
<path fill-rule="evenodd" clip-rule="evenodd" d="M14 10H10V9H14V10Z"/>
</svg>
