<svg viewBox="0 0 24 24" xmlns="http://www.w3.org/2000/svg">
<g clip-path="url(#clip0)">
<path fill-rule="evenodd" clip-rule="evenodd" d="M18 13V11H19V13H18Z"/>
<path d="M8.59851 16.9434L9.32602 20.217C9.4277 20.6745 9.83351 21 10.3022 21H13.6978C14.1666 21 14.5724 20.6745 14.674 20.2169L15.4015 16.9434C15.0403 17.1923 14.6506 17.4027 14.2381 17.5687L13.6978 20H10.3022L9.76188 17.5687C9.34942 17.4028 8.95965 17.1923 8.59851 16.9434Z"/>
<path d="M10.3022 4H13.6978L14.2381 6.43135C14.6506 6.59727 15.0403 6.80769 15.4015 7.05666L14.674 3.78307C14.5723 3.32553 14.1665 3 13.6978 3H10.3022C9.83346 3 9.42765 3.32553 9.32598 3.78307L8.59851 7.05666C8.95965 6.80769 9.34941 6.59727 9.76186 6.43135L10.3022 4Z"/>
<path fill-rule="evenodd" clip-rule="evenodd" d="M12 16C14.2091 16 16 14.2091 16 12C16 9.79086 14.2091 8 12 8C9.79086 8 8 9.79086 8 12C8 14.2091 9.79086 16 12 16ZM12 17C14.7614 17 17 14.7614 17 12C17 9.23858 14.7614 7 12 7C9.23858 7 7 9.23858 7 12C7 14.7614 9.23858 17 12 17Z"/>
<path fill-rule="evenodd" clip-rule="evenodd" d="M11.5 9H12.5V11.5H14V12.5H11.5V9Z"/>
</g>
<defs>
<clipPath id="clip0">
<rect fill="white"/>
</clipPath>
</defs>
</svg>
