<svg viewBox="0 0 24 24" xmlns="http://www.w3.org/2000/svg">
<path d="M15.2929 8.00001H14V9.00001H17V6.00001H16V7.29292L12.5 3.79293L10.5 5.79293L7.85356 3.14648L7.14645 3.85359L10.5 7.20714L12.5 5.20714L15.2929 8.00001Z"/>
<path fill-rule="evenodd" clip-rule="evenodd" d="M19 16H20V20H19V16ZM18 16C18 15.4477 18.4477 15 19 15H20C20.5523 15 21 15.4477 21 16V21H18V16Z"/>
<path fill-rule="evenodd" clip-rule="evenodd" d="M14 12H15V20H14V12ZM13 12C13 11.4477 13.4477 11 14 11H15C15.5523 11 16 11.4477 16 12V21H13V12Z"/>
<path fill-rule="evenodd" clip-rule="evenodd" d="M9 14H10V20H9V14ZM8 14C8 13.4477 8.44772 13 9 13H10C10.5523 13 11 13.4477 11 14V21H8V14Z"/>
<path fill-rule="evenodd" clip-rule="evenodd" d="M4 10H5V20H4V10ZM3 10C3 9.44772 3.44772 9 4 9H5C5.55228 9 6 9.44772 6 10V21H3V10Z"/>
<path fill-rule="evenodd" clip-rule="evenodd" d="M2 21H22V20H2V21Z"/>
</svg>
