<svg viewBox="0 0 24 24" xmlns="http://www.w3.org/2000/svg">
<path fill-rule="evenodd" clip-rule="evenodd" d="M12.5 2.5H13C17.6944 2.5 21.5 6.30558 21.5 11V11.5H16.5V11C16.5 9.067 14.933 7.5 13 7.5H12.5V2.5ZM13.5 3.5164V6.52746C15.5858 6.75804 17.242 8.41419 17.4725 10.5H20.4836C20.2372 6.75625 17.2438 3.76282 13.5 3.5164Z"/>
<path d="M3.5 12C3.5 7.47343 7.03831 3.77327 11.5 3.51447V4.51641C7.59098 4.7737 4.5 8.02588 4.5 12C4.5 16.1421 7.85786 19.5 12 19.5C15.9741 19.5 19.2263 16.409 19.4836 12.5H16.4725C16.2238 14.75 14.3163 16.5 12 16.5C9.51472 16.5 7.5 14.4853 7.5 12C7.5 9.68373 9.25002 7.77619 11.5 7.52747V8.53545C9.80385 8.77806 8.5 10.2368 8.5 12C8.5 13.933 10.067 15.5 12 15.5C13.7632 15.5 15.2219 14.1961 15.4646 12.5H20.4855C20.2267 16.9617 16.5266 20.5 12 20.5C7.30558 20.5 3.5 16.6944 3.5 12Z"/>
</svg>
