<svg viewBox="0 0 24 24" xmlns="http://www.w3.org/2000/svg">
<path fill-rule="evenodd" clip-rule="evenodd" d="M6.5 16H3.5L3.5 19H6.5V16ZM3.5 15C2.94772 15 2.5 15.4477 2.5 16V19C2.5 19.5523 2.94772 20 3.5 20H6.5C7.05228 20 7.5 19.5523 7.5 19V16C7.5 15.4477 7.05228 15 6.5 15H3.5Z"/>
<path fill-rule="evenodd" clip-rule="evenodd" d="M13.5 16H10.5L10.5 19H13.5V16ZM10.5 15C9.94772 15 9.5 15.4477 9.5 16V19C9.5 19.5523 9.94772 20 10.5 20H13.5C14.0523 20 14.5 19.5523 14.5 19V16C14.5 15.4477 14.0523 15 13.5 15H10.5Z"/>
<path fill-rule="evenodd" clip-rule="evenodd" d="M13.5 5H10.5L10.5 8H13.5V5ZM10.5 4C9.94772 4 9.5 4.44772 9.5 5V8C9.5 8.55228 9.94772 9 10.5 9H13.5C14.0523 9 14.5 8.55228 14.5 8V5C14.5 4.44772 14.0523 4 13.5 4H10.5Z"/>
<path fill-rule="evenodd" clip-rule="evenodd" d="M20.5 16H17.5L17.5 19H20.5V16ZM17.5 15C16.9477 15 16.5 15.4477 16.5 16V19C16.5 19.5523 16.9477 20 17.5 20H20.5C21.0523 20 21.5 19.5523 21.5 19V16C21.5 15.4477 21.0523 15 20.5 15H17.5Z"/>
<path fill-rule="evenodd" clip-rule="evenodd" d="M11.5 11.5V9H12.5V11.5H18.5C19.0523 11.5 19.5 11.9477 19.5 12.5V15H18.5V12.5H12.5V15H11.5V12.5H5.5V15H4.5V12.5C4.5 11.9477 4.94772 11.5 5.5 11.5H11.5Z"/>
</svg>
