<svg viewBox="0 0 24 24" xmlns="http://www.w3.org/2000/svg">
<path fill-rule="evenodd" clip-rule="evenodd" d="M3 20.0008V3H4V20.0008H20.9996V21.0008H4C3.44772 21.0008 3 20.5531 3 20.0008Z"/>
<path fill-rule="evenodd" clip-rule="evenodd" d="M21 9.5C21 10.3284 20.3284 11 19.5 11C19.3067 11 19.122 10.9634 18.9523 10.8969L16.805 13.7599C16.9291 13.9783 17 14.2309 17 14.5C17 15.3284 16.3284 16 15.5 16C14.6716 16 14 15.3284 14 14.5C14 14.417 14.0067 14.3355 14.0197 14.2561L12.2199 12.8163C12.0062 12.9334 11.7609 13 11.5 13C11.3067 13 11.122 12.9634 10.9523 12.8969L8.80502 15.7599C8.92913 15.9783 9 16.2309 9 16.5C9 17.3284 8.32843 18 7.5 18C6.67157 18 6 17.3284 6 16.5C6 15.6716 6.67157 15 7.5 15C7.69326 15 7.87799 15.0365 8.04764 15.1031L10.195 12.24C10.0709 12.0217 10 11.7691 10 11.5C10 10.6716 10.6716 10 11.5 10C12.3284 10 13 10.6716 13 11.5C13 11.7018 12.9602 11.8943 12.8879 12.07L14.5132 13.3703C14.777 13.1397 15.1222 13 15.5 13C15.6933 13 15.878 13.0365 16.0476 13.1031L18.195 10.24C18.0709 10.0217 18 9.76911 18 9.5C18 8.67157 18.6716 8 19.5 8C20.3284 8 21 8.67157 21 9.5ZM19.5 10C19.7761 10 20 9.77614 20 9.5C20 9.22386 19.7761 9 19.5 9C19.2239 9 19 9.22386 19 9.5C19 9.77614 19.2239 10 19.5 10ZM11.5 12C11.7761 12 12 11.7761 12 11.5C12 11.2239 11.7761 11 11.5 11C11.2239 11 11 11.2239 11 11.5C11 11.7761 11.2239 12 11.5 12ZM7.5 17C7.77614 17 8 16.7761 8 16.5C8 16.2239 7.77614 16 7.5 16C7.22386 16 7 16.2239 7 16.5C7 16.7761 7.22386 17 7.5 17ZM16 14.5C16 14.7761 15.7761 15 15.5 15C15.2239 15 15 14.7761 15 14.5C15 14.2239 15.2239 14 15.5 14C15.7761 14 16 14.2239 16 14.5Z"/>
</svg>
