<svg viewBox="0 0 24 24" xmlns="http://www.w3.org/2000/svg">
<path fill-rule="evenodd" clip-rule="evenodd" d="M12.5 2.5H13C17.6944 2.5 21.5 6.30558 21.5 11V11.5H12.5V2.5ZM13.5 3.5164V10.5H20.4836C20.2372 6.75625 17.2438 3.76282 13.5 3.5164Z"/>
<path d="M11.5 3.51489C11.4898 3.51521 11.4795 3.51569 11.4691 3.51633C7.02176 3.79063 3.5 7.48385 3.5 12C3.5 16.6944 7.30558 20.5 12 20.5C16.5162 20.5 20.2094 16.9782 20.4837 12.5309C20.4843 12.5205 20.4848 12.5102 20.4851 12.5L19.4836 12.5C19.2266 16.4088 15.9741 19.5 12 19.5C7.85786 19.5 4.5 16.1421 4.5 12C4.5 8.0259 7.59122 4.77342 11.5 4.51638V3.51489Z"/>
<path d="M19.5024 11.5L19.5 11.5L12.5 11.5H19.5024Z"/>
</svg>
